<svg xmlns="http://www.w3.org/2000/svg" viewBox="0 0 700 700">
  <title>Artboard 3 copy 5</title>
  <g id="Midtones">
    <path d="M342.7,329.37s-2,20-16,17-35,16-20,16,115-4,115-16l2,30a26.69,26.69,0,0,1-19,8c-12,0-133-2-133-2s-4-17,9-62l14,2,15,3,17.5,13.5Z" fill="#f7982d"/>
    <path d="M225,243s-8,37.33,14,45.33,72.67,28,72.67,28l-2,9L225,291S205.7,289.7,225,243Z" fill="#f7982d"/>
    <path d="M255.7,283.7S278.37,285,289,292.37l-28-20Z" fill="#f7982d"/>
    <path d="M251.2,157.87c1.29-4.39,9.85-3.88,13,13.5l-3-14-5.5-14Z" fill="#f7982d"/>
    <polygon points="409.2 228.87 420.2 311.37 422.7 205.87 409.2 228.87" fill="#f7982d"/>
    <path d="M275.7,235.37s20,61.5,26,63l-19-13-3.5-2.5Z" fill="#f7982d"/>
    <path d="M273.2,136.87s15.1-1.24,24,6.5c18.23,15.85,38.26,50,48,50,14.5,0,39-33,39-33l-7,1.5-29,24.5s-22-10-49.5-60.5C289.7,130.37,273.2,136.87,273.2,136.87Z" fill="#f7982d"/>
    <path d="M465,98.37s7.5,17.5-28.67,62-34,68.94-34,84l20.33-38.5s9.67-22.17,25-41.5S471,131,471,131,471,111,465,98.37Z" fill="#f7982d"/>
    <path d="M280.7,219S279,241.7,283,257.7l-6.33-9-1-13.33Z" fill="#f7982d"/>
    <path d="M319,172.37s13,28,15,49.67,1.67,53.33,1.67,53.33C332.28,233.35,327.8,195.17,319,172.37Z" fill="#f7982d"/>
    <path d="M381.37,192.7s-16,46.67-16.67,57.67S365,298,365,298l2.33-38.67C370.6,235.52,375,213.05,381.37,192.7Z" fill="#f7982d"/>
    <path d="M394.7,118.12l-8.5,12.75-24.5,26.25s-10.75,20-28.25,10.25-12-7-12-7,21.5,26.25,24.75,25.75S373,163.62,373,163.62l27.75-41.25Z" fill="#f7982d"/>
    <path d="M302.2,119.37l8.25-1.75,2.25,7s8.75,22,33,22,18.75-1,18.75-1-11.25,13.75-25.75,11.25-19.72-1-32-18.25C296.23,123.93,301.89,120.19,302.2,119.37Z" fill="#f7982d"/>
    <polygon points="399.7 141.37 441.37 101.37 406.37 121.04 399.7 141.37" fill="#f7982d"/>
    <path d="M429,58.37s6.33,43.33,17.67,38c-15.33,12-17,12-17,12Z" fill="#f7982d"/>
  </g>
  <g id="Darker_Mids" data-name="Darker Mids">
    <path d="M307.2,326.87s-28,10-24.5,45.5c39.5,4,88.5,5.5,88.5,5.5l-96.5,6-5-7,7-46,5-12Z" fill="#c45937"/>
    <polygon points="279.7 264.87 291.7 290.87 279.2 282.37 279.7 264.87" fill="#c45937"/>
    <path d="M411.7,223.87s10-2.5,9,28l2-47Z" fill="#c45937"/>
    <path d="M218.7,268.37s1.5,22,17.5,27.5c-23-13-20.5-14-20.5-14Z" fill="#c45937"/>
    <path d="M366.7,152.37s25.75-24,28.25-18.25l5-13.25-5.5-3.75-1.5,5.5Z" fill="#c45937"/>
    <path d="M304.7,134.87s5.75-9.5,17.5,3.25l-12.5-20L300,120.87S298.2,129.87,304.7,134.87Z" fill="#c45937"/>
    <path d="M430.7,88.7S434,103,438.37,101.37L428,108Z" fill="#c45937"/>
    <path d="M333.7,175.37s22,5.5,43-19l-21,25.5-8,4.5Z" fill="#c45937"/>
  </g>
  <g id="Main">
    <g>
      <path d="M387.38,76.66s9.14-20,6.85-29.67c-1.63-6.19-30.1-31.51-52.92-31.84s-15.21,5.65-26.95,9.56-13.26,34.12-6.74,50.42c17.37,32.89,30.7,40.7,30.7,40.7l25.54,0Z" fill="#750511"/>
      <path d="M311.75,117.23a39,39,0,0,0,4.12,11.22,35.49,35.49,0,0,0,7.48,9.45,32.68,32.68,0,0,0,10.43,6.16,41.16,41.16,0,0,0,12,2.27,41.43,41.43,0,0,1-12.22-1.75,33.49,33.49,0,0,1-11-5.84,36.85,36.85,0,0,1-8.2-9.46,40.69,40.69,0,0,1-4.85-11.67Z" fill="#750511"/>
      <path d="M353.31,185.24s48.23-27.77,55.54-64.31c-8.53,1.69-8.77.73-8.77.73s4.38,9.5-46.77,63.58" fill="#750511"/>
      <path d="M278.76,325.19c11.64-.28,23.09.56,34,4.75.91-7.1-16.71-11-33.28-15.17" fill="#750511"/>
      <polyline points="260.01 275.86 289.36 291.57 261.25 269.65 257.02 281.16" fill="#750511"/>
      <path d="M309.94,326.84l-1.92-.68c-66-23.42-90.12-33.61-94.35-44.2-.75-1.87-2.73-6.82,18.14-73.56,10.21-32.64,21-64.5,21.14-64.82l.28-.84.79-.41c16.42-8.47,30.85-14.52,44.08-18.47l1.25,4.2c-12.76,3.81-26.69,9.63-42.54,17.76-16.53,48.67-41.53,127.53-39.07,134.51,3.6,9,30.65,20,89.82,41l5-11.48L260,271.42l2.59-3.54L318,308.39Z" fill="#750511"/>
      <path d="M401,124.68l-1.45-4.14c17.83-6.24,28.43-13.87,28.54-13.94l2.58,3.54C430.27,110.47,419.53,118.21,401,124.68Z" fill="#750511"/>
      <polygon points="273.67 380.7 269.22 671.48 287.44 672.78 341.34 460.09 383.75 671.48 401.96 671.48 415.52 382 273.67 380.7" fill="#750511"/>
      <rect x="249.89" y="250.97" width="35.29" height="4.38" transform="translate(-64.38 412.86) rotate(-69.11)" fill="#750511"/>
      <path d="M258.15,145c1.79,5.29,3.37,10.61,4.69,16q1,4,1.66,8.17a32.43,32.43,0,0,1,.44,8.3,32.15,32.15,0,0,0-1-8.2q-.91-4-2.17-8c-1.66-5.26-3.58-10.45-5.68-15.53Z" fill="#750511"/>
      <path d="M433.19,187.24q-8.91,15.41-17.4,31.08c-2.81,5.23-5.57,10.48-8.21,15.8-1.31,2.66-2.59,5.34-3.79,8.05-.6,1.36-1.17,2.73-1.7,4.11a20.64,20.64,0,0,0-1.23,4.27,20.72,20.72,0,0,1,1.1-4.31c.48-1.41,1-2.8,1.57-4.17,1.12-2.76,2.32-5.48,3.55-8.18,2.48-5.41,5.08-10.75,7.73-16.07q8-16,16.46-31.64Z" fill="#750511"/>
      <path d="M393.78,115.69a3,3,0,0,1,1.1,1.15,3.15,3.15,0,0,1,.35,1.47,6.43,6.43,0,0,1-.54,2.37,20.8,20.8,0,0,1-2.13,3.72,74.43,74.43,0,0,1-5.17,6.43c-3.62,4.09-7.43,8-11.22,11.88s-7.61,7.76-11.29,11.75c-1.83,2-3.64,4-5.33,6.15a38.89,38.89,0,0,0-2.38,3.3,9.93,9.93,0,0,0-1.61,3.7,10,10,0,0,1,1.49-3.77,39,39,0,0,1,2.28-3.39c1.62-2.19,3.37-4.28,5.14-6.35C368,150,371.71,146,375.37,142s7.32-8,10.77-12.19a72.83,72.83,0,0,0,4.83-6.43,19,19,0,0,0,1.81-3.4,4.48,4.48,0,0,0,.33-1.58.82.82,0,0,0-.43-.77Z" fill="#750511"/>
      <path d="M287.08,699.13H270.71a3.41,3.41,0,0,1-2.92-1.82c-1.49-2.33-2.46-8.39-1.37-10.73l.11-.24.16-.2c3.18-4,3.24-9.95,3.28-14.31a36.29,36.29,0,0,1,.16-3.79h0c.2-1.65,1.79-2.49,3.19-3.23.25-.13.47-.24.61-.33,2.05-1.51,7.4-1.22,10,.12a4.11,4.11,0,0,1,2.58,3.71v.51c0,3.35-.06,11.18,4.46,17.39l.24.42c1,2.27.2,8.44-1.37,10.81A3.32,3.32,0,0,1,287.08,699.13Zm-15.73-4.38h15a15.18,15.18,0,0,0,.85-6.26c-5.15-7.32-5.1-16.29-5.09-19.69v-.21c-1-.71-4.64-1-5.72-.51a10.4,10.4,0,0,1-1.06.61c-.24.13-.65.34-.94.52,0,.73-.06,1.64-.07,2.66,0,4.62-.12,11.57-4,16.69A14.38,14.38,0,0,0,271.35,694.75Zm5.05-26.65Zm.11-.07h0Z" fill="#750511"/>
      <path d="M401.82,699.13H385.45a3.41,3.41,0,0,1-2.92-1.82c-1.49-2.33-2.46-8.39-1.37-10.73l.11-.24.16-.2c3.18-4,3.24-9.95,3.28-14.31a36.29,36.29,0,0,1,.16-3.79h0c.2-1.65,1.79-2.49,3.19-3.23.25-.13.47-.24.61-.33,2.05-1.51,7.4-1.22,10,.12a4.11,4.11,0,0,1,2.58,3.71v.51c0,3.35-.06,11.18,4.46,17.39l.24.42c1,2.27.2,8.44-1.37,10.81A3.32,3.32,0,0,1,401.82,699.13Zm-15.73-4.38h15a15.18,15.18,0,0,0,.85-6.26c-5.15-7.32-5.1-16.29-5.09-19.69v-.21c-1-.71-4.64-1-5.72-.51a10.4,10.4,0,0,1-1.06.61c-.24.13-.65.34-.94.52,0,.73-.06,1.64-.07,2.66,0,4.62-.12,11.57-4,16.69A14.38,14.38,0,0,0,386.08,694.75Zm5.05-26.65Zm.11-.07h0Z" fill="#750511"/>
      <path d="M330.49,341c-7.57,0-19-12.33-21.46-15l3.27-2.93c8.9,9.92,16.44,14.19,18.61,13.52,4.15-2.28,7.57-6.06,10.73-11.86.11-.75-.1-2.24-4.44-4-1.07-.45-1.78-1.51-3.16-3.69a25.55,25.55,0,0,0-1.73-2.53c-2.62-.71-5.59-.29-8.73.15-3.43.48-7.32,1-11.32.13l1-4.28c3.22.72,6.54.25,9.75-.2,3.59-.51,7.3-1,10.92.08,1.35.42,2.3,1.83,3.86,4.29.44.7,1.08,1.71,1.42,2.11,5.34,2.29,7.59,5.4,6.7,9.23l-.07.28-.14.26c-3.66,6.81-7.73,11.26-12.8,14l-.23.11A5.69,5.69,0,0,1,330.49,341Z" fill="#750511"/>
      <path d="M426.23,34.59c-1.77-2.79-4.44-4.8-7-6.75-2.89-2.18-5.89-4.43-7.66-7.78-.83-1.57-1.55-17,2.58-19.52l.25-.15.28-.08.89-.28c2.72-.89,7.19-2.36,10.63,3a44,44,0,0,1,5.76,2.25,35.91,35.91,0,0,0,3.87,1.57l.24.09c5.39,2.32,5,9.19,4.34,21.68L436,28.36c.56-10.29.76-16.22-1.6-17.37a40.75,40.75,0,0,1-4.25-1.72,33.52,33.52,0,0,0-5.86-2.21l-1-.22L422.82,6c-1.74-3.16-3.14-2.7-5.93-1.79l-.45.15c-1.18,2-1.43,11.63-1,13.83,1.34,2.4,3.77,4.23,6.34,6.17,2.77,2.08,5.9,4.45,8.1,7.91ZM415.52,18.27Zm1.05-14.13" fill="#750511"/>
      <path d="M339,319.11a27,27,0,0,1-1.91,2.95,22.34,22.34,0,0,1-2.26,2.64,12.78,12.78,0,0,1-2.73,2.14,6.88,6.88,0,0,1-3.25,1,6.6,6.6,0,0,0,2.95-1.43A12,12,0,0,0,334,324a21,21,0,0,0,1.7-2.8,25.5,25.5,0,0,0,1.3-3Z" fill="#750511"/>
      <path d="M383.14,189.4q-2.31,6.92-4.12,14c-.62,2.34-1.24,4.68-1.78,7s-1.13,4.71-1.65,7.08q-3.12,14.19-5.3,28.55l-1,7.19-.49,3.6-.41,3.61-.84,7.22-.67,7.24-.35,3.62-.26,3.63-.52,7.26c-.37,4.84-.47,9.69-.82,14.54q-.12-3.64-.17-7.29c0-2.43-.14-4.86-.08-7.3.14-4.86.12-9.73.49-14.59l.46-7.29.69-7.27.37-3.63.47-3.62,1-7.24c1.51-9.62,3.38-19.19,5.81-28.62A186,186,0,0,1,383.14,189.4Z" fill="#750511"/>
      <path d="M317.21,166.84a186,186,0,0,1,9.21,27.68c2.44,9.43,4.31,19,5.81,28.62l1,7.24.47,3.62.37,3.63.69,7.27.46,7.29c.37,4.85.35,9.73.49,14.59.06,2.43-.06,4.86-.08,7.3s-.09,4.86-.17,7.29c-.35-4.85-.46-9.7-.82-14.54l-.52-7.26-.26-3.63-.35-3.62-.67-7.24-.84-7.22-.41-3.61-.49-3.6-1-7.19q-2.18-14.36-5.3-28.55-.77-3.55-1.65-7.08c-.55-2.36-1.16-4.7-1.78-7Q319.51,173.76,317.21,166.84Z" fill="#750511"/>
      <path d="M415.31,384.23l-.42-.13c-10-3-96.73-2.11-141.18-1.21h-.16l-.16,0a5,5,0,0,1-3.49-2.14c-3.84-5.38-1.1-20.22,3.53-42.25.66-3.16,1.31-6.23,1.88-9.09,1-5.19,2.19-11.53,2-14.47l4.37-.33c.21,2.78-.38,7.31-2,15.65-.57,2.87-1.22,6-1.89,9.14-2.89,13.77-7.26,34.58-4.25,38.8a.72.72,0,0,0,.36.31c7.61-.15,126.43-2.46,141.81,1.26,6.21-1.25,5.41-17.27,4.32-39.29-.24-4.89-.49-9.94-.7-15.39-.11-3.72-2.7-91,1.67-117.19,2.49-15,16.93-34.11,29.67-51,9.86-13.09,19.18-25.45,19.63-31.73.85-11.85-21.31-70.09-30.88-94L428,34.78c.89,8.89,4.69,49,3.59,73.69l-4.38-.19c1.22-27.47-3.71-74.35-3.76-74.82l-.19-1.78,18.62-5.91.76,1.88C444,31,475.73,109.8,474.61,125.47c-.54,7.58-9.79,19.85-20.5,34.06-12.44,16.5-26.53,35.2-28.85,49.09-4.3,25.8-1.64,115.42-1.62,116.32.21,5.41.46,10.45.7,15.32,1.33,26.68,2.13,42.79-8.59,43.92Z" fill="#750511"/>
      <path d="M346.73,188.53c-5.32,0-15.13-9.55-29.16-28.38-9.75-13.08-20.27-29.31-21-33.82h0a7.87,7.87,0,0,1,1.74-6.66c5.66-6.66,23.86-7.14,53.16-7.14,9.33,0,16.44-.43,22.15-.77,14.49-.87,20.49-1.24,28.19,8.55l.44.56,0,.71c.42,10.13-20,36.38-34,50.94C358.07,183.14,350.82,188.53,346.73,188.53Zm-45.84-62.92c.41,2.51,8.49,16.19,20.2,31.91,15.65,21,23.48,26.62,25.64,26.62,1.6,0,7.26-3.09,18.37-14.67,16.91-17.63,32.12-39.56,32.77-47.06-6-7.37-10-7.13-24-6.28-5.77.35-13,.78-22.41.78-22.16,0-45.07,0-49.82,5.6a3.53,3.53,0,0,0-.76,3.11Z" fill="#750511"/>
      <path d="M324,114.62l-4.32-.72c.52-3.11-2.1-18.82-3.88-28l4.31-.83C320.62,87.58,324.86,109.7,324,114.62Z" fill="#750511"/>
      <path d="M373.45,114.62c-.82-4.91,3.41-27,3.9-29.55l4.31.83c-1.77,9.17-4.4,24.88-3.88,28Z" fill="#750511"/>
      <path d="M423.84,1.95c1.35,2.48,2.67,5,3.94,7.47.63,1.26,1.26,2.52,1.85,3.8a22.16,22.16,0,0,1,1.51,3.94,22,22,0,0,0-2-3.68c-.74-1.18-1.52-2.34-2.31-3.5-1.58-2.31-3.2-4.6-4.84-6.85Z" fill="#750511"/>
      <path d="M428.21,106.55c3.59-1.95,7.17-3.93,10.73-5.93q2.67-1.5,5.32-3.05a46,46,0,0,0,5.14-3.31,46.33,46.33,0,0,1-4.51,4.2q-2.34,2-4.71,4-4.74,3.93-9.55,7.78Z" fill="#750511"/>
      <polygon points="263.66 268.91 254.65 287.92 259.52 267.46 263.66 268.91" fill="#750511"/>
      <polygon points="271.45 236.2 280.82 218.91 275.51 237.84 271.45 236.2" fill="#750511"/>
    </g>
    <path d="M279.2,281.87s-1-32.79-4.76-47.27" fill="none" stroke="#750511" stroke-miterlimit="10" stroke-width="4"/>
  </g>
</svg>
