<svg xmlns="http://www.w3.org/2000/svg" viewBox="0 0 700 700">
  <title>Artboard 3 copy 8</title>
  <g id="Midtones">
    <path d="M43.42,326.69S7.47,466.61,31.86,474.31s101.41,29.52,101.41,29.52l1.28,11.55L12.61,491S-22.05,492.28,43.42,326.69Z" fill="#f7982d"/>
    <path d="M79.79,509l-6,51.35h60.76l126.66,6.85,7.7-5.13s-14.55-77.88-9.41-106.12,6.85-92.42,6.85-92.42-22.46,45.89-23.32,81c0,7.21,5.1,13.07,4.06,19.15-11.51,67.56-86.86,69.32-86.86,69.32l-25.67-17.54Z" fill="#f7982d"/>
    <path d="M70.37,396.86s14.55,54.34,24,29.52c-7.7,36.8-8.56,33.8-8.56,33.8S78.08,469.6,70.37,396.86Z" fill="#f7982d"/>
    <path d="M277.47,342.09c5.53.93,10.82-28.88,15.62-52,4.49,14.12,18-1.79,26.32-5.35l12.84,5.13Z" fill="#f7982d"/>
    <path d="M215.08,260.37c.72-2-37.71,8.28-46,38-7.27,27-33.24-6.77-33.24-6.77l31.24,27.81Z" fill="#f7982d"/>
    <path d="M130.71,258.65S111,271.49,129,281.76s18,20.11,18,20.11L97.33,277.48C102,264.43,125.18,258,130.71,258.65Z" fill="#f7982d"/>
    <polygon points="289.24 76.37 303.36 110.39 318.12 109.1 289.24 76.37" fill="#f7982d"/>
    <path d="M97.33,277.48s65.47,55,71.89,55,55.84-71.89,55.84-71.89-13.48-1.28-18,6.42-40,52.42-40,52.42S107.6,273.2,97.33,277.48Z" fill="#f7982d"/>
    <path d="M213.29,276.62s25.26-13.16,51.79,2.25c-5.13-4.71-26-16.64-42-16S213.29,276.62,213.29,276.62Z" fill="#f7982d"/>
    <path d="M91.77,439.22s-3,18,9.41,30.81c-15.4-6.85-17.54-7.27-17.54-7.27Z" fill="#f7982d"/>
    <path d="M195.53,359.1s-26.32,92.1,12.19,139.6C186.55,459.55,195.53,359.1,195.53,359.1Z" fill="#f7982d"/>
    <path d="M136.85,491.78C157.93,442.51,146,374.5,146,374.5s-.82,69.73-13.34,115.64A39.43,39.43,0,0,1,136.85,491.78Z" fill="#f7982d"/>
    <path d="M120.44,274.38s33.77-22,67.15-21C158.38,250.8,112.41,259,120.44,274.38Z" fill="#f7982d"/>
    <path d="M294.25,159.7s-16.78,105.37,68.8,131.9,93.87,98.1,93.87,98.1c.06.77-54-64.81-89.33-79.33-39-8.08-93.73-76.74-90.11-79.53C277.47,230.84,278.25,197,294.25,159.7Z" fill="#f7982d"/>
    <path d="M437.5,357.49s5.92,92.49,24.75,88.21c-24,38.51-23,39.3-23,39.3s11.95-66.78-44.5-156.61C354.07,263.72,442.61,363.77,437.5,357.49Z" fill="#f7982d"/>
    <path d="M456.92,454.37s-10.85,43.9,37.92,29.78c21.82-6.74,96.7-9.41,115.53-44.5-7.06,18.29-22.68,47.17-22.68,47.17l-108.15,9.95-54,20.93S420,503.79,456.92,454.37Z" fill="#f7982d"/>
    <path d="M593.22,352.33s42.4,37,41.11,54.29c-20.54,24.39-21.21,22.73-21.21,22.73S625.31,393.41,593.22,352.33Z" fill="#f7982d"/>
    <path d="M622.92,423s-31.37,62.82-8.91,62.18,54.56,2.57,68.68,15.4,14.23-18.92,14.23-18.92-.94,48.79-8,52c-25-21.82-28.7-35-48-34.36s-64,5.7-64,5.7S596,457.7,622.92,423Z" fill="#f7982d"/>
    <path d="M575.92,236.69s14.12,3,12.41-1.28c11.13,20.11,10.7,34.23.86,37.65S587,243.11,575.92,236.69Z" fill="#f7982d"/>
    <path d="M544,275.77S583.84,255.66,584.7,248c-1.28,24.82-42.37,50.7-54.78,52.42S544,275.77,544,275.77Z" fill="#f7982d"/>
    <path d="M484.92,324.37l25.76-13.09,9.58,13.09,9.33-2-4.79-20.07-4.71-11.55s.43,7.7-9.84,7.7-12.84-10.27-12.84-10.27S492.19,322.23,484.92,324.37Z" fill="#f7982d"/>
    <path d="M627.09,654.17c-11.89-38.24-21.18-76.8-19.57-96.93-15.47-1.55-8.35-15.14-8.35-15.14L594,532.39l10.36-9.71-25.16-13,4.49-20.86c-52.67-.66-101.51,7.29-143.2,31.3l-21.65,20.11s-22,61.63-35.68,113.94Z" fill="#f7982d"/>
    <path d="M440.71,242.61s-9,25.67,16,32.73,23.75-12.19,23.75-12.19l18,37.23-59-21.82C436.63,279.49,410.4,272,440.71,242.61Z" fill="#f7982d"/>
    <path d="M530.87,323.79c6.63-14.33,64.08-46,72.74-45.14l-5.78-7.06L521.46,305Z" fill="#f7982d"/>
    <path d="M424,268.92s16.69,31.45,59,39.15c43,7.7,15.4-7.7,15.4-7.7Z" fill="#f7982d"/>
    <path d="M373.58,171s-4.45,39.36-16.43,41.07c12,14.55,23.11,14.55,23.11,14.55Z" fill="#f7982d"/>
    <path d="M585.59,290.82s19.26-14.76,29.52-5.78c-9.63-9-10.27-9-10.27-9S597.15,274.77,585.59,290.82Z" fill="#f7982d"/>
    <path d="M46.7,321.34c-1.07,3,10.06-.39,16,13.48.43-1.5-.59-17.09-10.27-25.67C46,303.43,46.7,321.34,46.7,321.34Z" fill="#f7982d"/>
    <polygon points="402.2 238.11 427.24 253.52 440.71 242.6 402.2 238.11" fill="#f7982d"/>
    <path d="M671.08,460.12s10-12,14.42-8.27c4.86,4.11.24,52.06-3.77,53.79,5.48,2.84,10.13.65,13.21-11,1.5-20.2-.7-47-3.36-71.51Z" fill="#f7982d"/>
  </g>
  <g id="Darker_Mids" data-name="Darker Mids">
    <path d="M80.78,518l53.46,2.55s22.06,21.22,27.16,12.73l-24.61-20.37-55.16-6.79Z" fill="#c45937"/>
    <polygon points="75.69 414.64 96.06 466.19 83.96 457.28 75.69 414.64" fill="#c45937"/>
    <path d="M12,430.55s-5.73,48.37,14,52.19S134.88,508.2,134.88,508.2C99,511.82,56.23,503.38,9.49,487.83,9.49,487.83,3.13,451.56,12,430.55Z" fill="#c45937"/>
    <path d="M95.42,516.48s-13.37,31.19-.64,33.1,16.55,8.91,16.55,8.91L77.6,560.39,80.78,518Z" fill="#c45937"/>
    <polygon points="107.09 282.46 170.74 325.74 144.85 299.01 107.09 282.46" fill="#c45937"/>
    <path d="M278.94,240s40.74,52.19,36.92,63.22L332,290.52l-49.22-54.74Z" fill="#c45937"/>
    <path d="M189.3,270.48s10.82,1.27,5.41,9.55c16.23-16.23,17.82-18.78,17.82-18.78A46.92,46.92,0,0,0,189.3,270.48Z" fill="#c45937"/>
    <path d="M121.2,266.34s-5.73,13.37,3.18,17.82l-14.64-5.41Z" fill="#c45937"/>
    <path d="M193.44,288.3s25.78-26.41,41.69-24.82l-9.87-3.82S199.8,270.48,193.44,288.3Z" fill="#c45937"/>
    <path d="M247.39,414.94c8.26-9.92,11.89-1.22,13.15,17l6.79-67S265.21,356.81,247.39,414.94Z" fill="#c45937"/>
    <path d="M257.09,495.47s19.73,50.92-53.46,56l40.74,8.91,20.37,1.91,3.82-10.82Z" fill="#c45937"/>
    <path d="M385.23,654.17h14c-5.82-16.65,7.32-67.47,7.32-67.47C399.39,603.6,392.3,626.47,385.23,654.17Z" fill="#c45937"/>
    <path d="M553.17,536.63s43.28,1.7,40.74-16.12l1.7,13.58h0S605.79,541.72,553.17,536.63Z" fill="#c45937"/>
    <path d="M545.41,534.93s42.64,6.36,42.64,12.73S545.41,582,545.41,582l55.37-31.19-1.27-11.46Z" fill="#c45937"/>
    <path d="M582.33,562.3s30.55-12.09,29.91,31.82l.64-39.46-12.09-3.82Z" fill="#c45937"/>
    <path d="M439.67,443.28s7.64,22.28,12.09,17.82L439,483.38Z" fill="#c45937"/>
    <path d="M444.12,477s-16.55,28,3.18,24.19l-19.09,18.46L423.75,512Z" fill="#c45937"/>
    <path d="M395.11,332s17.19,3.82,38.19,29.91c-28.58-12.26-15.78,10.91-13.37,15.28Z" fill="#c45937"/>
    <path d="M593.21,472.83s-3.39,27.16,13.58,22.91l-26.31,10.18-.85-5.94Z" fill="#c45937"/>
    <path d="M430,255.76c-2.94,1.6,1.66,27.9,15.28,28.43,11.57.45-21.64-11.88-21.64-11.88Z" fill="#c45937"/>
    <path d="M429.58,267.7s38.67,23.33,58,22l5.33,12.67L428.25,275Z" fill="#c45937"/>
    <path d="M531.58,287l-6.67,14.67L584.25,273l-4.67-9.33C564.39,277,548.22,283.61,531.58,287Z" fill="#c45937"/>
    <path d="M579.58,263.7s16-18.67,16-22L596.92,269l-12.67,4Z" fill="#c45937"/>
    <path d="M492.92,302.37l13.67,4s-6.5,19.5-21,18C490.58,308.87,492.92,302.37,492.92,302.37Z" fill="#c45937"/>
    <path d="M510.58,307.87s2.5,18.5,16.5,16l-6.5-16Z" fill="#c45937"/>
    <path d="M681.33,445.12c5.21-1.72,9.65-1.77,12,2.75l-3-23Z" fill="#c45937"/>
    <path d="M534.25,493s38.67-4,41.33,10.67l8-18.67S536.25,488.37,534.25,493Z" fill="#c45937"/>
  </g>
  <g id="Main">
    <g>
      <path d="M143.41,242.33l-8.34,2c10.33-39.11,11.94-71.47,12.4-102.93l44.27-15.94c58.27-12.66,107.71,40.77,23.91,45.16-7.08,8.19-2.32,30.44-2.32,30.44l-6.53,13.83a153.91,153.91,0,0,0-5.83-24c-3.31-9.6-8.1-18.62-14.53-19.42-9.09-1-9.61,10.29-8.38,20.19a103.73,103.73,0,0,0,2.85,14.12s-13.61,9.3-19.26,13.28C146.36,231.39,143.41,242.33,143.41,242.33Z" fill="#750511"/>
      <path d="M188.52,242.3a15.47,15.47,0,0,1-4.59-5,18,18,0,0,1-2.09-5.86,35,35,0,0,1,.17-11.39,33.41,33.41,0,0,0,3,10.36,13.75,13.75,0,0,0,2.89,3.9,9.6,9.6,0,0,0,3.72,2.13Z" fill="#750511"/>
      <path d="M230.43,262.26l-3.54-5.55c23.95-15.29,23.53-73.4,23.32-101.33-.08-10.54-.47-12.61-.52-12.82a2.79,2.79,0,0,0,.35.79l5.61-3.45c.44.72,1,1.7,1.15,15.42C257,184.44,257.44,245,230.43,262.26Z" fill="#750511"/>
      <path d="M138.89,516.06l-3.37-.4c-20-2.38-120.23-15-130.21-30-11.14-16.7,15.88-119,43.43-180.36l.27-.61.49-.45c.53-.49,13.43-12.27,48.92-26.2,14-5.5,55.16,27.08,69.07,38.6,8.53-14.76,38.71-64,58.72-59.3l.19,0c3,.91,14.45.37,54.46-24.35l3.46,5.6c-41.71,25.77-54.09,26.72-59.7,25.09-3.26-.71-12.85.64-32.68,27.53a341.73,341.73,0,0,0-20.65,32l-1.95,3.5-3.06-2.59c-36.6-31-60.29-42.06-65.45-40-30.5,12-43.81,22.35-46.37,24.49-13.41,30-26.76,69.55-35.78,106C8.12,457.3,7.83,477.59,10.78,482c3.36,5,39.51,16.67,122.15,26.69L134.05,496,61.81,451.68l3.45-5.61L141,492.57Z" fill="#750511"/>
      <path d="M71.17,398.21a40.62,40.62,0,0,1,3.54,8.51c0,1.46-.11,2.91-.22,4.36s-.17,2.9-.34,4.33c-.57,5.75-1.53,11.41-2.64,17s-2.52,11.14-4,16.64q-1.14,4.12-2.42,8.2a63.58,63.58,0,0,1-5.81,7c-.3-3.09-.35-6-.48-9q1.25-4,2.36-8c1.48-5.36,2.83-10.75,3.93-16.19s2-10.89,2.54-16.35c.16-1.37.21-2.73.32-4.09l.14-2a10,10,0,0,0,0-1,2.28,2.28,0,0,1,0-1C69.16,403.88,70,401.14,71.17,398.21Z" fill="#750511"/>
      <path d="M261.2,566.89a8.42,8.42,0,0,1-2.62-.42c-40.9-13.41-113.05-8.5-177.47-2.84a8.32,8.32,0,0,1-9-9.2L78,505.18l6.54.78-5.85,49.22a1.69,1.69,0,0,0,.48,1.37,1.72,1.72,0,0,0,1.4.52c65.07-5.72,138-10.66,180.1,3.14a1.72,1.72,0,0,0,2.26-1.61c.08-5.95-1.25-14.14-2.8-23.62-2.36-14.49-5.3-32.52-5.24-53.54.06-25.83,3-54.5,5.29-77.53,1.59-15.72,3-29.3,2.75-36-.5-15.86,24.2-41.39,64.21-77.43l4.41,4.89c-20.3,18.29-62.55,56.34-62,72.33.23,7.15-1.1,20.27-2.78,36.88-2.32,22.89-5.2,51.38-5.26,76.89-.05,20.48,2.84,38.22,5.16,52.47,1.59,9.79,3,18.24,2.88,24.77a8.32,8.32,0,0,1-8.28,8.2Z" fill="#750511"/>
      <path d="M282.3,138.11,271,96.18a8.31,8.31,0,0,1,2.13-8.11l9.87-9.87a8.4,8.4,0,0,1,6.51-2.42,8.3,8.3,0,0,1,6.06,3.36l2,2.7c5.4,7.32,16.63,22.55,24.87,34.21l-5.38,3.8c-8.2-11.6-19.4-26.8-24.79-34.1l-2-2.7a1.7,1.7,0,0,0-1.25-.69,1.72,1.72,0,0,0-1.36.51l-9.87,9.87a1.74,1.74,0,0,0-.44,1.7l11.27,42Z" fill="#750511"/>
      <path d="M161,533.76c-9.85,0-24.5-15.73-27.59-19.17l4.9-4.4c11.82,13.18,20.74,17.54,23,17,5.12-2.83,9.35-7.5,13.27-14.67.06-.81-.38-2.44-5.31-4.49-1.5-.63-2.43-2-4.24-4.87-.58-.92-1.51-2.38-2-3-3.17-.81-6.82-.3-10.68.24-4.38.62-9.35,1.32-14.51.16l1.44-6.42c4,.89,8,.33,12.15-.26,4.6-.65,9.35-1.31,14,.12,1.89.58,3.13,2.43,5.17,5.64.52.82,1.26,2,1.68,2.52,6.93,3,9.85,7.12,8.66,12.22l-.1.43-.21.39c-4.68,8.71-9.9,14.4-16.41,17.92l-.34.16A7.58,7.58,0,0,1,161,533.76Zm1.75-33.84Z" fill="#750511"/>
      <path d="M273.9,88.65c-2.13-3.36-5.17-5.82-8.11-8.2-3.41-2.76-6.93-5.61-9-9.83-.77-1.57-.38-3.3.5-6.75.2-.77.48-1.86.59-2.47-2.89-7.5-2-12.77,2.67-15.68l.64-.4.75-.08c10-1.08,18.12.12,25,3.66,6.65,3,6.1,13.15,5.18,29.93L292,80.6l-6.58-.36.1-1.77c.55-10,1.23-22.48-1.32-23.57L284,54.8c-5.47-2.85-12.15-3.87-20.43-3.09-.71.73-1.44,2.56.7,7.83.6,1.48.19,3.08-.56,6-.21.82-.53,2.07-.66,2.8,1.49,2.63,4,4.68,6.92,7,3.19,2.59,6.81,5.52,9.53,9.79Z" fill="#750511"/>
      <path d="M96.38,281.74c-.15-.79-3.38-19.56,24.33-34,27.25-14.22,57.39-13.28,77.7-11.35,22.9,2.18,29.87,22.29,30.15,23.15l-6.25,2.08c-.23-.68-6-16.9-24.53-18.67-19.47-1.86-48.33-2.78-74,10.63-23.42,12.22-20.94,26.8-20.91,26.94Z" fill="#750511"/>
      <path d="M248.35,655.13l12.42-90.83c3.83-3.17-89.49-18.4-178.79-3L68.3,655.13Z" fill="#750511"/>
      <path d="M66.75,352.77c.53,2.24,1,4.47,1.51,6.71s1,4.45,1.45,6.68l1.45,6.65a16.45,16.45,0,0,1,.31,3.35c.06,1.12.17,2.24.26,3.35q1.2,13.41,3.05,26.75c2.46,17.79,5.74,35.47,9.66,53L78,460.71c-3.95-17.7-7.26-35.56-9.75-53.55q-1.87-13.49-3.09-27.07c-.11-1.13-.17-2.26-.3-3.39a16.86,16.86,0,0,1-.24-3.4l.51-6.86C65.52,361.87,66,357.32,66.75,352.77Z" fill="#750511"/>
      <path d="M73.32,555.29c-.14,6.83,2.81,14.34,11.12,14.61L82,561.32Z" fill="#750511"/>
      <path d="M268.59,559.58c.14,6.83-2.81,14.34-11.12,14.61l2.46-8.58Z" fill="#750511"/>
      <path d="M268.73,359.93c-3.29,6.61-6.3,13.47-9.11,20.36s-5.36,13.91-7.69,21-4.27,14.29-6,21.57a171.28,171.28,0,0,0-3.4,22.13,171.67,171.67,0,0,1,2.59-22.3c1.41-7.36,3.13-14.67,5.18-21.88s4.39-14.35,7-21.4,5.33-14,8.45-20.92Z" fill="#750511"/>
      <path d="M129.74,308.54a25,25,0,0,1,3.48,4.58c.48.83,1,1.65,1.45,2.5l1.26,2.6c.9,1.71,1.51,3.54,2.23,5.33A55.35,55.35,0,0,1,140,329c1.23,3.67,2,7.45,2.86,11.21.49,1.87.71,3.79,1,5.69l.91,5.71c2.07,15.29,2.21,30.72,1.89,46.08L146,409.22c-.23,3.83-.39,7.67-.85,11.49L144,432.16l-.6,5.72-.83,5.69L140.89,455c-.59,3.79-1.12,7.59-1.89,11.34-1.5,7.52-2.89,15.06-4.49,22.55.86-7.62,1.94-15.2,2.9-22.79.57-3.78.94-7.59,1.34-11.39l1.27-11.4.64-5.7.47-5.71,1-11.42c.38-3.8.55-7.61.74-11.42l.59-11.43c.38-15.24.38-30.51-1.14-45.66a166.25,166.25,0,0,0-3.8-22.47A54.28,54.28,0,0,0,137,324c-.6-1.8-1.08-3.66-1.86-5.39l-1.07-2.65c-.39-.87-.85-1.7-1.26-2.56a23.25,23.25,0,0,0-1.39-2.49A16.26,16.26,0,0,0,129.74,308.54Z" fill="#750511"/>
      <path d="M208.28,327a69.13,69.13,0,0,0-7.95,20.34,186.93,186.93,0,0,0-3.9,21.54,330.59,330.59,0,0,0-2.37,43.75,340.43,340.43,0,0,0,3,43.72,207.81,207.81,0,0,0,4,21.53,99.28,99.28,0,0,0,7.24,20.68c-3.9-6.25-6.55-13.23-8.79-20.25a173.61,173.61,0,0,1-5-21.57,275.91,275.91,0,0,1-3.71-44.09,270.24,270.24,0,0,1,3.13-44.13,158.94,158.94,0,0,1,4.89-21.61C201,339.93,203.79,332.91,208.28,327Z" fill="#750511"/>
      <path d="M52.78,305.39a21.14,21.14,0,0,1,3.14,3.94,40.15,40.15,0,0,1,2.34,4.18,53.35,53.35,0,0,1,3.26,8.84,75.44,75.44,0,0,1,1.93,9.12l.56,4.61.33,4.62-.74-4.56-1-4.51a74.16,74.16,0,0,0-2.68-8.77,51.3,51.3,0,0,0-3.88-8.19A37.44,37.44,0,0,0,53.56,311a18.85,18.85,0,0,0-2.87-3.06Z" fill="#750511"/>
      <path d="M84,461.6c3.53-9.62,6.78-19.4,9.57-29.28,1.39-4.95,2.67-9.93,3.63-15a76.52,76.52,0,0,0,1.11-7.61,21.53,21.53,0,0,0-.43-7.64,21.72,21.72,0,0,1,.84,7.67,77.11,77.11,0,0,1-.71,7.72c-.7,5.13-1.72,10.2-2.85,15.24-2.29,10.09-5,20-8.06,29.95Z" fill="#750511"/>
      <path d="M226.44,260.54a86.43,86.43,0,0,1,10.48,2.64,92.63,92.63,0,0,1,10,3.82,71.16,71.16,0,0,1,9.38,5.12,54,54,0,0,1,8.26,6.68,53.63,53.63,0,0,0-8.68-6,69.9,69.9,0,0,0-9.58-4.3,90.57,90.57,0,0,0-10-3A84,84,0,0,0,226,263.8Z" fill="#750511"/>
      <path d="M385.52,75.14a27.74,27.74,0,0,0-3.25-1.36,31.3,31.3,0,0,0-3.47-1,18.56,18.56,0,0,0-7.27-.27A19.38,19.38,0,0,1,379,71.15a33.35,33.35,0,0,1,3.85.22,30.44,30.44,0,0,1,3.88.69Z" fill="#750511"/>
      <polygon points="263.38 58.47 268.8 70.78 260.55 60.16 263.38 58.47" fill="#750511"/>
      <path d="M172,505.64a34.37,34.37,0,0,1-2.49,3.73,28.53,28.53,0,0,1-2.92,3.32,16.29,16.29,0,0,1-3.51,2.68,8.73,8.73,0,0,1-4.15,1.19,8.31,8.31,0,0,0,3.69-1.87,15.08,15.08,0,0,0,2.73-3.07,26.46,26.46,0,0,0,2.08-3.56,31.67,31.67,0,0,0,1.57-3.75Z" fill="#750511"/>
      <path d="M107.57,281.25a29.07,29.07,0,0,1,6.28-10,19.27,19.27,0,0,1,2-2.05c.71-.65,1.4-1.33,2.13-1.94l2.3-1.73a19.31,19.31,0,0,1,2.36-1.62,64.38,64.38,0,0,1,20.94-8.42c.91-.22,1.82-.47,2.74-.66l2.78-.43,5.55-.86,5.59-.42c1.86-.1,3.72-.36,5.59-.32,3.73,0,7.46-.07,11.18.11l11.14.78L177,253.33c-3.71,0-7.43.21-11.14.3-1.86,0-3.69.36-5.54.52l-5.52.62-5.45,1.06-2.72.53c-.89.22-1.78.5-2.66.75A62.35,62.35,0,0,0,124,266a17.72,17.72,0,0,0-2.18,1.62l-2.11,1.71c-.67.6-1.28,1.26-1.93,1.89a17.24,17.24,0,0,0-1.82,2c-.55.7-1.16,1.36-1.67,2.09s-1,1.47-1.47,2.22a23,23,0,0,0-2.13,4.63Z" fill="#750511"/>
      <path d="M221.67,260.68a72,72,0,0,0-16.55,3.78,68.82,68.82,0,0,0-15.35,7.58A56.57,56.57,0,0,0,177,283.57a55.89,55.89,0,0,0-8.61,15,56.3,56.3,0,0,1,8-15.49,57.81,57.81,0,0,1,12.43-12.37,70.88,70.88,0,0,1,15.42-8.55,74.58,74.58,0,0,1,17.13-4.75Z" fill="#750511"/>
      <circle cx="513" cy="106.76" r="14.74" fill="#750511"/>
      <path d="M454.36,146.9c.4,6.12.69,12.14,1.15,18.14-.41,5.92-.79,11.83-.87,17.74-.15,11.79.4,23.69,3.11,34.9,1.39,5.55,3.35,11,6.43,15.4a18.71,18.71,0,0,0,12.41,8.34c.63.11,1.28.16,1.92.24s1.34.07,1.88,0c1.35-.06,2.77-.19,4.16-.39a45,45,0,0,0,8.23-1.85,6.84,6.84,0,0,1,2-.54c.7-.1,1.4-.24,2.1-.38a35.81,35.81,0,0,0,4.14-1.13,31.76,31.76,0,0,0,8-3.87,26.75,26.75,0,0,1-6.06,7.24,37.14,37.14,0,0,1-3.9,2.88c-.68.44-1.38.87-2.08,1.27a6.55,6.55,0,0,1-2.23.9,64.45,64.45,0,0,1-9.32,2c-1.58.21-3.14.37-4.79.44-1,0-1.73,0-2.61-.06s-1.7-.16-2.55-.31a23.83,23.83,0,0,1-9.59-3.86,27.89,27.89,0,0,1-7.12-7.2c-3.79-5.47-5.9-11.55-7.42-17.59-2.92-12.15-3.45-24.44-3.3-36.59.12-6.08.38-12.15,1-18.18A143.88,143.88,0,0,1,454.36,146.9Z" fill="#750511"/>
      <path d="M451.14,169.42s-24.13-57.9,29-65.94,69.16,37,69.16,37,27.6,77.41-20.15,77.41c-4.94-7.68-6.79-18.15-5.49-28,8.78,2.2,7-25-.64-27.45-13.4-4.29-15.55,22.25-18.76,17.69C505.29,144.76,466.22,141.27,451.14,169.42Z" fill="#750511"/>
      <path d="M500.09,308.15l-7-2.08c-6.21-1.85-61-18.48-70.47-33.57-10.42-16.55,25.6-44.65,29.74-47.8l4,5.24C444.72,238.8,422.53,260,428.19,269c6.09,9.68,40.5,22.38,59.77,28.59-9.24-20.5-15.71-38.7-11-53.56l6.28,2c-4.49,14.19,4,34.36,13.79,55.52Z" fill="#750511"/>
      <path d="M520.7,302.78c1.14-3.38,2.08-6.65,3.08-9.93,1.84-2.72,3.53-5.55,5.23-8.38,3.36-5.68,6.53-11.48,9.42-17.39a118,118,0,0,0,7.32-18,26.38,26.38,0,0,0,1.32-8.66,5.28,5.28,0,0,0,.19-3.39c-.39-1.08-1.92-2-3.64-2.46a6.51,6.51,0,0,1,5.88-.27,6.77,6.77,0,0,1,2.67,2.45,12.69,12.69,0,0,1,1.46,3.08,32.06,32.06,0,0,1-1.55,11.07A124,124,0,0,1,544.35,270c-3,6.1-6.23,12-9.67,17.85-1.71,2.92-3.52,5.77-5.32,8.66A45,45,0,0,1,520.7,302.78Z" fill="#750511"/>
      <path d="M516.31,306.9a4,4,0,0,1-.57,0l1-6.51a1.08,1.08,0,0,0-.29,0h0c.47,0,12.13-.39,75.29-32.5,3.31-12.18,2-22.26-3.91-30-15.2-19.9-55.76-19.3-56.16-19.28l-.14-6.59c1.8,0,44.28-.7,61.52,21.85,7.47,9.78,9,22.3,4.62,37.22l-.4,1.36L596,273C534.63,304.29,519.6,306.89,516.31,306.9Z" fill="#750511"/>
      <path d="M541.86,263.15c-6.75-8.43-14.3-46.93-15.14-51.29l6.47-1.24c3.05,15.86,9.5,43,13.81,48.43Z" fill="#750511"/>
      <path d="M485.41,328.06a4.84,4.84,0,0,1-4.13-7.32l9.72-16.2a4.87,4.87,0,0,1,4.34-2.33l14.39,1.1A3.42,3.42,0,0,1,513,306c.54,2.68-1.85,3.82-3.28,4.5l-.55.26c-1.69,6.92-7,14.85-21.79,16.81A4.76,4.76,0,0,1,485.41,328.06Zm10.68-19.19L489,320.69c9.92-2,12.77-7,13.8-11.3Zm.56-.94h0Z" fill="#750511"/>
      <path d="M529.51,328.7a4.72,4.72,0,0,1-1.82-.36c-15.71-.47-20.79-9.58-22.19-17.6a4.82,4.82,0,0,1,3.84-7.43l10.22-.46a4.83,4.83,0,0,1,4.35,2.33h0l9.72,16.2a4.84,4.84,0,0,1-4.13,7.32ZM512,309.78c1.34,7.36,5.86,11.18,14.1,11.87l-7.31-12.18Z" fill="#750511"/>
      <path d="M690.79,535.59a38.68,38.68,0,0,0-4.24-6.77,50,50,0,0,0-5.18-5.92,58,58,0,0,0-12.28-9.3,70.42,70.42,0,0,0-28.34-11.13,112.28,112.28,0,0,0-15.49-1.37,135.56,135.56,0,0,0-15.65.78,188.86,188.86,0,0,0-31,6.09l-1,.25-.13,0a5.17,5.17,0,0,1-.58.12,4.24,4.24,0,0,1-1.23,0,4.12,4.12,0,0,1-3.12-5.66l.39-.93,1.58-3.72,3.24-7.41q3.29-7.38,6.8-14.67c4.69-9.71,9.69-19.29,15.12-28.65a247.24,247.24,0,0,1,18-27.15,111.2,111.2,0,0,1,12.09-11.22,64.08,64.08,0,0,1,6.83-4.63,38.27,38.27,0,0,1,7.47-3.29,49.69,49.69,0,0,0-11.83,10.52A120.86,120.86,0,0,0,623,424.27a223.83,223.83,0,0,0-17.56,26.35c-5.32,9.18-10.26,18.61-14.88,28.2q-3.47,7.19-6.72,14.49l-3.2,7.32-1.56,3.68-.39.92a2.51,2.51,0,0,0,.13-1.47,2.43,2.43,0,0,0-2-1.9,2.37,2.37,0,0,0-.73,0,1.78,1.78,0,0,0-.33.07l.11,0,1-.26a195.38,195.38,0,0,1,32-6.29,142,142,0,0,1,16.43-.82,118.7,118.7,0,0,1,16.5,1.46,77,77,0,0,1,31,12.22,59.81,59.81,0,0,1,11.27,12.44A44.56,44.56,0,0,1,690.79,535.59Z" fill="#750511"/>
      <path d="M691.48,535.71l-5.9-2.93c4.86-9.78,13.3-55.28,4.37-104.68-.95-5.22.45-10.3,1.8-15.21,1.51-5.49,2.93-10.67.85-15.37C636.13,283,594.24,273.41,593.82,273.33l1.3-6.46c1.83.37,45.49,10.36,103.44,127.87,3.08,7,1.19,13.83-.47,19.9-1.21,4.39-2.35,8.54-1.67,12.29C705.76,478.54,696.8,525,691.48,535.71Z" fill="#750511"/>
      <path d="M593.48,466.16c1.9-5.7,3.87-11.24,5.55-16.83,2.5-5.18,4.85-10.43,6.85-15.81,4-10.72,6.89-21.9,7.52-33.15,0-.68.1-1.45.1-2.06a18.54,18.54,0,0,0-.06-1.88,25.62,25.62,0,0,0-.62-3.83,40.66,40.66,0,0,0-2.74-7.62,82.81,82.81,0,0,0-8.87-14.32,136.17,136.17,0,0,0-11.19-13c-3.25-4.85-6.69-9.63-10.21-14.49A115.73,115.73,0,0,1,594.88,353c4,4.4,8,8.87,11.58,13.69a89.21,89.21,0,0,1,9.58,15.5,47.17,47.17,0,0,1,3.18,8.88,32.19,32.19,0,0,1,.78,4.83c.07.82.1,1.66.09,2.5S620,400,620,400.73c-.68,12.17-3.76,23.93-7.93,35.11a166.42,166.42,0,0,1-7.17,16.39A120.46,120.46,0,0,1,593.48,466.16Z" fill="#750511"/>
      <path d="M444.71,237a4.79,4.79,0,0,1-1.26,3.55,12,12,0,0,1-3.12,2.43,29.21,29.21,0,0,1-7.15,2.57,84.68,84.68,0,0,1-14.24-1,150.67,150.67,0,0,1-27.11-6.8,117.61,117.61,0,0,1-25.37-12.09,51.31,51.31,0,0,1-11.07-9.5,25.41,25.41,0,0,1-2.74-7.18,14.52,14.52,0,0,1,.4-7.36c1.11,4.67,4,7.84,7.4,10.32a45,45,0,0,0,9.65,8.23A111.26,111.26,0,0,0,394,231.51a144.21,144.21,0,0,0,25.9,6.5,68.8,68.8,0,0,0,13,.86,30.15,30.15,0,0,0,6.36.62,9.53,9.53,0,0,0,3-.5A4.1,4.1,0,0,0,444.71,237Z" fill="#750511"/>
      <path d="M428.27,521.71a7.24,7.24,0,0,1-4.91-3.08c-1.92-2.69-2.31-6.61-1.16-11.65.4-1.75,2-4.95,4.78-10.44,2.24-4.42,5.62-11.1,5.9-12.92,3.36-21.76,5.09-56.85-18.47-110.1-1.38-2.55-2.73-5.16-4.1-7.79C399.95,345.82,389.24,325.23,363,314c-55.8-23.91-88.23-74.12-90.4-86.07-2.27-12.47,6.72-94.55,17.12-116.09l1.09-2.25,2.51.43c.67.12,1.43.25,11.2,6.33,10.6,6.59,10.61,6.7,10.79,8.55,1.59,16.27,25.63,39.22,61.18,39.64a3.73,3.73,0,0,1,3.3,5.38c-4,8.13-.35,39.9,3,59.27l-6.49,1.14c-.82-4.7-7.34-43.08-3.77-59.33-37.43-2-60.8-26.35-63.63-44-2.73-1.87-10.41-6.65-14.63-9.14C285.13,142,277,215.54,279.07,226.73c1.78,9.81,32.83,58.19,86.52,81.2,28.41,12.17,40.18,34.8,50.56,54.76,1.37,2.64,2.73,5.26,4.12,7.82l.11.23c24.32,54.89,22.5,91.29,19,113.88-.41,2.66-2.86,7.63-6.54,14.9a94.3,94.3,0,0,0-4.23,8.92c-1,4.5-.19,6.53.57,6.75a.62.62,0,0,0-.21,0ZM373.86,167v0Zm-65.12-41.49h0Z" fill="#750511"/>
      <path d="M431.68,519.66l-6.12-2.45c5.9-14.74,33.68-25.05,84.94-31.53,36.88-4.66,72.64-5.38,73-5.39l.13,6.59c-.35,0-35.81.72-72.34,5.34C448.39,500.17,434.42,512.82,431.68,519.66Z" fill="#750511"/>
      <path d="M604.34,530.9c-3.44,3.46-4.12,8-3.62,12,.09,1,.47,2,.5,2.95a9.25,9.25,0,0,0,.44,2.79,7.27,7.27,0,0,0,1,2.15,1.42,1.42,0,0,0,.35.39,3,3,0,0,0,.68.26,22.75,22.75,0,0,0,6,.29c2.21-.11,4.49-.32,6.81-.55s4.67-.45,7.1-.59c1.22-.06,2.46-.1,3.76-.07h.18a1.4,1.4,0,0,0,.34-.3,11.74,11.74,0,0,0,2-4.82c.44-2.29,1-4.7,1.62-7,1.21-4.59,2.58-9.1,4.05-13.59s3.07-8.93,4.89-13.35c1.38-2,2.78-4,4.34-5.91a22.79,22.79,0,0,1,5.34-5.06,16.78,16.78,0,0,0-1.29,3.29c-.35,1.11-.64,2.23-.9,3.37-.53,2.27-1,4.53-1.41,6.83-1.73,4.21-3.28,8.54-4.72,12.9s-2.77,8.78-3.94,13.2c-.59,2.24-1.1,4.35-1.54,6.64a23.37,23.37,0,0,1-1.17,3.91,13.6,13.6,0,0,1-2.35,4,7.76,7.76,0,0,1-2.4,1.84,6.56,6.56,0,0,1-1.7.54,6.28,6.28,0,0,1-.91.08h-.61c-1,0-2.12,0-3.22.06-2.22.12-4.51.35-6.83.57s-4.68.45-7.12.57a27.94,27.94,0,0,1-8-.5,9.19,9.19,0,0,1-2.54-1.07,7.78,7.78,0,0,1-2.12-2,13.59,13.59,0,0,1-2-4.15,34.38,34.38,0,0,1-.86-4.06,12,12,0,0,1,.45-4,18.67,18.67,0,0,1,3.34-7.19A12.35,12.35,0,0,1,604.34,530.9Z" fill="#750511"/>
      <path d="M638.11,533.31s49.44,15.16,52.67,2.28c0,0-9.11-28.41-44.5-35.92C639.32,522.72,638.11,533.31,638.11,533.31Z" fill="#750511"/>
      <path d="M328.51,115.14c-15.28-8-37-5.38-37-5.38,2.89,11.54,10.58,22.63,24.92,33.12l12.06-27.74" fill="#750511"/>
      <path d="M355,130c38.28,23.41,24,38.58,24,38.58s-30.09,1-28.35-12.34S355,130,355,130" fill="#750511"/>
      <path d="M349.82,166C338.41,153.74,362.09,103.2,367,93.19l.38-.78.72-.49c6.49-4.45,14-10,16.29-12.18-.19-.74-.51-1.73-.72-2.35-.83-2.57-1.33-4.12-.22-5.69,1.3-1.85,2.3-3.36,3-4.47a3,3,0,0,0,.31-.66c-1.5-1.53-9.6-2.32-13.54-2.7-2.36-.23-4.6-.45-6.56-.75-1.83.32-5.58,9.36-7.08,22.26l-.11.93-44,55.42-5.16-4.1,42.85-54c.65-5.06,3.14-21,9.22-25.63a6.86,6.86,0,0,1,5.3-1.43c1.77.28,3.92.49,6.19.71,8.45.82,16.44,1.6,18.86,6.37.73,1.45,1.22,3.82-.6,6.9-.61,1-1.43,2.28-2.46,3.79.1.34.22.7.32,1a18.76,18.76,0,0,1,1.2,5.19c0,1.72,0,3.5-18.6,16.29-18.39,38.07-21.54,60.74-17.86,64.7Zm39-90.55h0Z" fill="#750511"/>
      <path d="M572.84,502.89s-4.83,15.55,32.17,22l28.41-26.81Z" fill="#750511"/>
      <path d="M627.88,654.17c-10.22-31.87-18.16-67.57-15.31-96.28l-6.55-.65c-2.51,25.28,2.51,57.83,14.89,96.92Z" fill="#750511"/>
      <path d="M388.64,654.17c8.66-40.17,20.54-86.53,43-134.34l-6-2.8c-23,49-35,96.31-43.74,137.14Z" fill="#750511"/>
      <path d="M384.49,319.23c7.15,4.93,14,10.15,20.71,15.56s13.25,11,19.52,17a249.19,249.19,0,0,1,17.89,18.64,144.22,144.22,0,0,1,15,21A143.8,143.8,0,0,0,442,370.93a247.91,247.91,0,0,0-18.38-18c-6.42-5.68-13.11-11-19.93-16.23s-13.83-10.15-21-14.75Z" fill="#750511"/>
      <path d="M604,440.94c-10.73-44-7.72-75.39-7.58-76.7l6.55.66c0,.31-3,31.65,7.43,74.48Z" fill="#750511"/>
      <path d="M498.59,296.48a58.36,58.36,0,0,0-.27-29c-4.28-15,12.91-33.64,20.37-48.25-20.2,20.6-32.59,24.54-38.6,25.73C475,261.68,489.61,300.91,498.59,296.48Z" fill="#750511"/>
      <path d="M274.21,227.07c2.14-11.6,4.66-23.07,7.65-34.45,1.5-5.68,3.18-11.33,5.09-16.89l1.5-4.15,1.69-4.07c.58-1.35,1.28-2.65,1.92-4s1.52-2.51,2.27-3.77c-.69,1.29-1.48,2.53-2.09,3.86s-1.21,2.67-1.72,4L289,171.79l-1.3,4.19c-1.64,5.62-3,11.3-4.27,17-2.44,11.44-4.42,23-6,34.57Z" fill="#750511"/>
      <path d="M607.42,654.17h2q-.47-10.87-.58-21.76c-.11-12.06,0-24.16.52-36.18l-3.29-.12c-.24,12.15-.08,24.25.3,36.36Q606.69,643.33,607.42,654.17Z" fill="#750511"/>
      <path d="M602,550.77c-8,5-16.06,9.63-24.24,14.17s-16.45,8.89-24.83,13-16.89,8-25.52,11.6A260.55,260.55,0,0,1,501,598.85a260.12,260.12,0,0,0,26.1-10c8.51-3.81,16.85-8,25.1-12.31s16.34-9,24.35-13.71,15.94-9.67,23.67-14.79Z" fill="#750511"/>
      <path d="M595.6,540.7a9.11,9.11,0,0,1-1.32.24c-.4.06-.76.08-1.15.12-.76.07-1.49.08-2.23.12-1.47,0-2.93,0-4.39,0-2.91-.09-5.79-.28-8.67-.52-5.75-.48-11.46-1.22-17.15-2s-11.36-1.7-17-2.67-11.3-2-16.94-3.06c5.68.78,11.37,1.57,17.06,2.25s11.39,1.32,17.09,1.85,11.41,1,17.11,1.16c2.85.1,5.7.16,8.53.11,1.42,0,2.82-.08,4.22-.18.69-.07,1.39-.11,2.06-.21.33,0,.68-.08,1-.15a7.93,7.93,0,0,0,.79-.17Z" fill="#750511"/>
      <path d="M594.79,545.23c-1.2-1.74-7.07-10.75-4.82-17.22,1.36-3.94,4.75-5.54,7.73-6.95,2.58-1.22,5.25-2.48,7.47-5.28l5.16,4.09c-3.18,4-6.86,5.74-9.82,7.14-2.54,1.2-3.89,1.89-4.33,3.15-.86,2.48,1.9,8.23,4,11.33Z" fill="#750511"/>
      <path d="M597.53,538.36a21.09,21.09,0,0,1,2.51-4.45,26.35,26.35,0,0,1,3.21-3.71,26.63,26.63,0,0,1,3.77-3,29.6,29.6,0,0,1,4.16-2.31,29.16,29.16,0,0,0-3.64,3,25.37,25.37,0,0,0-3,3.47,24.28,24.28,0,0,0-2.33,3.89,18.56,18.56,0,0,0-1.46,4.07Z" fill="#750511"/>
      <path d="M528.88,297s50.93-20.37,51.2-54.15c2.94-1.27,9.64,14.28,6.7,15.55-6.16,2.65,6.54,12.46,2.68,14.48C577.68,278.93,528.88,297,528.88,297Z" fill="#750511"/>
      <path d="M442,242.33a25.25,25.25,0,0,0-3.65,20.39,18.21,18.21,0,0,0,5.69,9.09,25.49,25.49,0,0,0,9.87,5,25.91,25.91,0,0,1-10.39-4.32,19.45,19.45,0,0,1-6.75-9.23,26.15,26.15,0,0,1-1.22-11.55,26.93,26.93,0,0,1,3.73-11.22Z" fill="#750511"/>
      <path d="M594.29,574.72c-2.74,5.32-5.57,10.54-8.39,15.76s-5.62,10.43-8.27,15.7-5.26,10.56-7.55,16a85.69,85.69,0,0,0-3,8.25,35.57,35.57,0,0,0-1.7,8.65,26.63,26.63,0,0,1,.13-9,58.14,58.14,0,0,1,2.21-8.78,117.09,117.09,0,0,1,7-16.57,178.64,178.64,0,0,1,9-15.51A141.27,141.27,0,0,1,594.29,574.72Z" fill="#750511"/>
      <path d="M696.22,409.45a117.88,117.88,0,0,1-14.76,36c-6.74,11.08-15,21.07-23.86,30.43,8.43-9.73,16.25-20,22.44-31.26a115.41,115.41,0,0,0,13-35.81Z" fill="#750511"/>
      <path d="M415.13,654.17q2.26-4,4.44-7.94c3.52-6.48,6.89-13.06,9.82-19.84s5.47-13.78,6.48-21.1c-1.15,7.3-3.85,14.23-6.85,20.93s-6.53,13.21-10.16,19.61q-2.39,4.2-4.88,8.34Z" fill="#750511"/>
      <path d="M517.8,306.89c0-.12-.18-11.85-11.84-12.34-2.39-.1-4.13.47-5.32,1.75-2.31,2.48-2.33,7.33-2.16,8.83l-6.54.76c-.1-.9-.88-9,3.88-14.07,1.75-1.88,5-4.07,10.42-3.85,13.26.56,18.12,11.61,18.15,18.89Z" fill="#750511"/>
      <polygon points="434.19 487.82 461.6 446.06 437 489.54 434.19 487.82" fill="#750511"/>
      <path d="M417.37,545s45-53.08,165.66-56.29c.54-5.09-13.67-4.83-13.67-4.83s-106.15,4-135.91,28.15C420.58,536.93,417.37,545,417.37,545Z" fill="#750511"/>
      <path d="M579.19,251.37a16.46,16.46,0,0,0,.73-3.87,15.59,15.59,0,0,0-.23-4.05,11.56,11.56,0,0,0-1.47-3.84,12.28,12.28,0,0,0-2.81-3.19,12.6,12.6,0,0,1,5.85,6.54,17.64,17.64,0,0,1,1.13,4.46,19.13,19.13,0,0,1,0,4.73Z" fill="#750511"/>
      <path d="M498.32,267.53s8.85,29.75,38.06,8.31c-11.79,23.86-15.68,26.94-15.68,26.94s-6.3-17.83-24.26-9C494,281.47,498.32,267.53,498.32,267.53Z" fill="#750511"/>
      <path d="M612.63,284.43a17.7,17.7,0,0,0-8.73-5.19,12.13,12.13,0,0,0-9.79,2.27,27.86,27.86,0,0,0-7.14,8.23,67.8,67.8,0,0,0-4.9,10,68.21,68.21,0,0,1,4.18-10.45,29,29,0,0,1,6.85-9.13,15.61,15.61,0,0,1,5.17-2.9,13.56,13.56,0,0,1,6-.51,18,18,0,0,1,5.74,1.88,22.07,22.07,0,0,1,5,3.48Z" fill="#750511"/>
    </g>
  </g>
</svg>
