<svg xmlns="http://www.w3.org/2000/svg" viewBox="0 0 700 700">
  <title>Artboard 3 copy 4</title>
  <g id="Midtones">
    <path d="M442.44,331l-29.33,2.67s-13.33,6-16.67,73.33v29.33s-14,24.67-14,120c.67,24.67,2,46.67,6.67,44.67,4.67-3.33,129.33-124,129.33-124l14.67-40-7.33-19.33-3.33-46s-2.67-29.33-17.33-35.33c-4.67,19.33-9.33,42.67-9.33,42.67s-4,23.33-26.67,18.67c.67,14,0,19.33,0,19.33s-6,10-22,4.67c-1.33-8.67-2-16-2-16L452.44,395l-22-13.33C423.55,376.55,431.4,355.51,442.44,331Z" fill="#f7982d"/>
    <path d="M142.77,303.37s60-75.5,62-93.5c-2.5,22.5-8,37-8,37l-49.5,61Z" fill="#f7982d"/>
    <path d="M133.77,190.87s11.5,53.5,27,28.5l-.5,15.5-12,35-12-45Z" fill="#f7982d"/>
    <path d="M196.77,250.37s-41.5,65.5-43.5,79l-11.5,26.5,4-44.5,1.5-3.5Z" fill="#f7982d"/>
    <path d="M171.27,306.87s-28,50-4,47.5,89.5-5.5,82-54.5l10.5,43.5,3,23s-9.5,13-17,14-89.5,0-89.5,0l-15.5-10.5,1-14S142.27,338.37,171.27,306.87Z" fill="#f7982d"/>
    <path d="M133.27,169.87s30-30.5,34-32.5,55.5-25,74-2l-3-9s-29.5-10-39.5-7-36.5,2.5-65.5,40.5Z" fill="#f7982d"/>
    <path d="M135.44,131.7s0,11,7.33,7.33,39.33-25.33,51-26.33c-5.67,5.33,1.67,4.33,1.67,4.33s26.33-6.67,34.33-.67,8.5,10,8.5,10S220.44,120,215.11,120s-28.33-3.67-37.67,5.33-39.33,29-39.33,29l-4.83,5.5S130.44,144.7,135.44,131.7Z" fill="#f7982d"/>
    <path d="M241.27,135.37l11,27,3-21C248.86,135.55,244.12,133.37,241.27,135.37Z" fill="#f7982d"/>
    <polygon points="400.27 182.87 390.77 200.87 395.27 212.87 400.27 182.87" fill="#f7982d"/>
    <path d="M400.27,182.87s16-45.5,38.5-52,38.5,17.5,38.5,17.5-12-18-38.5-3.5A100.66,100.66,0,0,0,400.27,182.87Z" fill="#f7982d"/>
    <path d="M455.27,120.37s25.5,10.5,28.5,36.5c7.5,17,20,34,20,34s3-1.5,2.5-12.5-14-44.5-14-44.5S477.27,118.37,455.27,120.37Z" fill="#f7982d"/>
    <path d="M428.44,376.37c.4,7.35,67.71,18.72,79.33-87-2,29.33-6,61-6,61s-8.67,46-20.67,46.67S434.44,393.7,428.44,376.37Z" fill="#f7982d"/>
    <path d="M451.11,253.7s11.33,46.67,16,40.67l-14,19.33Z" fill="#f7982d"/>
    <path d="M492.44,211.7c5.32,9.23,10.23,12.48,14-.67,0,0,.67,36-1.33,42.67C497.11,230.37,492.44,211.7,492.44,211.7Z" fill="#f7982d"/>
    <path d="M411.11,269.7l17.33,44.67c5.93,13.46,15,8,24.67-.67L442.44,331l-29.33,2.67Z" fill="#f7982d"/>
    <polygon points="240.28 238.87 247.28 204.37 245.28 258.87 240.28 238.87" fill="#f7982d"/>
    <path d="M386.44,626.37s5.06-24.14,71.53-75.74,75.8-80.26,75.8-80.26l-2.67-14.67-32,43.33L443.77,551.7,389.11,601S385.11,616.37,386.44,626.37Z" fill="#f7982d"/>
    <path d="M535.11,572.37s44.67,104,11.33,109.33c26,2.67,29.33,0,29.33,0l-10.67-55.33Z" fill="#f7982d"/>
    <path d="M391.77,670.37S532.44,655.7,561.11,669l-3.33,14.67-94-11.33Z" fill="#f7982d"/>
    <path d="M400.27,182.87s44.5-40,61-36,41,59.5,41,59.5l-3,16.5,8.5-5.5-4-26.5-32-45.5s-6.5-10.5-25-4.5S400.27,182.87,400.27,182.87Z" fill="#f7982d"/>
    <path d="M144.77,157.37c6.78-7.25,14.39,6.66,22,20.5,0,0-13-28,.5-40.5C151.77,143.37,144.77,157.37,144.77,157.37Z" fill="#f7982d"/>
  </g>
  <g id="Darker_Mids" data-name="Darker Mids">
    <path d="M221.11,375s38,2,36.67-34.67l5.33,20s8,11.33-9.33,15.33A70.05,70.05,0,0,1,221.11,375Z" fill="#c45937"/>
    <polygon points="143.78 329.7 179.11 270.37 145.78 310.37 143.78 329.7" fill="#c45937"/>
    <path d="M145.77,343.7s4.67,35.33,32,34l-24,4-14-12S141.11,347,145.77,343.7Z" fill="#c45937"/>
    <path d="M139.11,228.37c6,10.08,12,15,18,13.33L148.44,269Z" fill="#c45937"/>
    <polygon points="243.11 135.04 252.44 165.04 253.11 149.7 243.11 135.04" fill="#c45937"/>
    <polygon points="149.78 336.37 150.44 312.37 143.78 323.7 141.11 355.04 149.78 336.37" fill="#c45937"/>
    <path d="M142.77,150.87s18-9,18.5,3.5l2-12,4.5-4,10-11A92.79,92.79,0,0,0,142.77,150.87Z" fill="#c45937"/>
    <path d="M462.77,119.7s26.67,11.67,38,43l-7-28.33S479.77,121.7,462.77,119.7Z" fill="#c45937"/>
    <path d="M425.11,155s-8.67-8.33,9.67-22.67c-20.67,12.67-33,46-33,46l10-8.33Z" fill="#c45937"/>
    <path d="M496.77,226.7c3.48,5.45,7,4,10.67-2.33l-1.67,31.33Z" fill="#c45937"/>
    <path d="M413.44,324.37s0-37.33,6.67-33l-7.67-20Z" fill="#c45937"/>
    <path d="M454.44,287s5,11.67,7,11.67c-9.67,12.33-7.67,8.67-7.67,8.67Z" fill="#c45937"/>
    <path d="M454.11,393.37s34,2.67,42.33-29.67l-2,16.67S493.11,410.37,454.11,393.37Z" fill="#c45937"/>
    <path d="M397.77,412.37s4.83,17.83,17.83,9.83c-19,15.5-20.33,15.67-20.33,15.67Z" fill="#c45937"/>
    <path d="M436.27,427.62,448,429.87a10.3,10.3,0,0,1,6.5,9.75V422.87l-9-1.25-1.75-6.25Z" fill="#c45937"/>
    <path d="M454.77,432.12s16-11.75,20.25-11.5l-5.25-4-17.25,5.5Z" fill="#c45937"/>
    <path d="M514.77,405.37s10,4.25,10-3.5l.5,17Z" fill="#c45937"/>
    <path d="M383.11,577s53.33-19.33,80-48.67l-69.33,68-8,2Z" fill="#c45937"/>
    <path d="M559.77,620.37s13.33,56-2,56S493.11,673,493.11,673l58.67,12,23.33-3.33L566.44,625Z" fill="#c45937"/>
    <path d="M414.77,304.37s5.67,28,18.67,26.67l-20,3.33Z" fill="#c45937"/>
    <path d="M502.77,348.37s21.5,17,22,53.5l-4-43s-9-22.5-17.5-22C504.27,350.87,502.77,348.37,502.77,348.37Z" fill="#c45937"/>
  </g>
  <g id="Main">
    <g>
      <path d="M176.94,79.51l-5.64,1.36c7-26.47,8.08-48.36,8.39-69.64l30-10.78C249.06-8.12,282.52,28,225.82,31c-4.79,5.54-1.57,20.59-1.57,20.59l-4.42,9.36a104.13,104.13,0,0,0-3.95-16.21c-2.24-6.5-5.48-12.6-9.83-13.14-6.15-.68-6.5,7-5.67,13.66a70.18,70.18,0,0,0,1.93,9.55s-9.21,6.29-13,9C178.94,72.11,176.94,79.51,176.94,79.51Z" fill="#750511"/>
      <path d="M223.66,106.85a39.93,39.93,0,0,1-5.28-.34l.59-4.42a41.29,41.29,0,0,0,12-.34c15.86-10.68,15.57-49.57,15.43-68.33-.05-7.13-.32-8.53-.35-8.67a1.93,1.93,0,0,0,.23.54l3.79-2.34c.3.49.71,1.15.78,10.44.14,19.7.44,60.68-17.84,72.35l-.34.22-.39.08A44.92,44.92,0,0,1,223.66,106.85Z" fill="#750511"/>
      <polygon points="149.17 378.22 168.35 679.97 189.52 679.97 233.83 374.88 149.17 378.22" fill="#750511"/>
      <polygon points="150.93 376.74 280.86 677.74 295.71 670.31 260.56 373.39 150.93 376.74" fill="#750511"/>
      <path d="M178.09,699.13c-9.3,0-9.68-.87-10.16-1.94a2.35,2.35,0,0,1,.38-2.5c.83-1.6,2.28-10.66,3.25-18.74a2.39,2.39,0,0,1-.18-1,2.29,2.29,0,0,1,2.54-2.19h2.5l0,.24c1.24.07,3.13.18,6,.32l2,.1.13,2c.43,6.45,12,9.08,12.16,9.11l1.08.23,6.34,13.47-3.31.17C190,698.9,182.88,699.13,178.09,699.13ZM173,694.57c4.38.21,14.41-.05,24.21-.51l-2.59-5.5c-3.22-.86-12.34-3.9-14.25-10.91l-4.51-.25C174.73,687,173.76,691.92,173,694.57Zm-4.56,0h0Z" fill="#750511"/>
      <path d="M290,699.13c-9.3,0-9.68-.87-10.16-1.94a2.35,2.35,0,0,1,.38-2.5c.85-1.62,2.32-10.9,3.29-19.06-.94-1.29-2.27-3.7-1.19-6,1.58-3.37,6.89-3.11,8.63-3l2,.1.13,2c.35,5.2,10.08,12.6,16.14,16l.62.35L316,698.17l-3.31.17C302,698.9,294.83,699.13,290,699.13ZM285,694.57c4.38.21,14.41-.05,24.21-.51l-2.74-5.83c-3.19-1.88-15.07-9.32-17.39-17.2a5.44,5.44,0,0,0-2.62.5,4.88,4.88,0,0,0,1.1,1.92l.67.75-.11,1C286.82,686.21,285.76,691.73,285,694.57Zm-4.56,0h0Z" fill="#750511"/>
      <path d="M183.5,384.91a151.57,151.57,0,0,1-16.68-.83c-14.84-1.66-23.64-5.84-26.17-12.43-4.82-12.54-.77-38.1,3.8-63.2l4.38.8c-3.29,18.09-8.8,48.38-4,60.8,1.69,4.41,8.39,7.58,19.38,9.19,14.52,2.13,36.13,1.42,59.28-1.93,22.91-3.32,35.67-7.56,37.08-9.39,2.1-3.13-1-16.41-4.52-31.78-4.4-19-10.42-45.12-13-75.56v-.34c.12-1.79.27-3.92.45-6.35,2.21-30.82,8.08-112.7-9.82-130.6l3.15-3.15c17.14,17.14,14.95,80.66,11.12,134.07-.17,2.34-.32,4.41-.43,6.16,2.59,30,8.56,55.89,12.91,74.77,4.55,19.69,7.05,30.54,3.87,35.28-3.6,5.38-29.93,9.76-37.91,11A292,292,0,0,1,183.5,384.91Z" fill="#750511"/>
      <path d="M146.24,273.94c-.46-2.34-.93-5.21-1.43-8.25-1.3-7.88-2.92-17.69-5.28-24.62-9.23-27.12-11.12-60.43-8.9-81.41l4.43.47c-2.17,20.5-.32,53,8.69,79.51,2.48,7.28,4.13,17.29,5.46,25.33.5,3,1,5.85,1.41,8.12Z" fill="#750511"/>
      <path d="M213.47,150.13c.56.17.73.82.89,1.3a11.77,11.77,0,0,1,.32,1.61c.15,1.08.22,2.17.27,3.25.09,2.17.07,4.34,0,6.51q-.24,6.5-.85,13t-1.4,12.91c-.25,2.15-.62,4.28-1.08,6.39l-1.24,6.36c-1.68,8.48-3.53,16.93-5.69,25.32-1.09,4.2-2.24,8.38-3.6,12.55-.68,2.08-1.41,4.16-2.28,6.23a33.26,33.26,0,0,1-1.48,3.13,15.59,15.59,0,0,1-1,1.6,6.72,6.72,0,0,1-1.7,1.72l.77-.87a25.09,25.09,0,0,1-1.38,2.25q-.69,1-1.39,2c-.93,1.29-1.88,2.55-2.83,3.81-1.91,2.51-3.84,5-5.79,7.45q-5.83,7.39-11.77,14.67-11.86,14.59-23.89,29l-.9,1.08-1.32-.34a4.4,4.4,0,0,1-.61-.2l-.44-.2a6.82,6.82,0,0,1-.78-.45,8.22,8.22,0,0,1-1.32-1.1,9.83,9.83,0,0,1-1.8-2.65,15.48,15.48,0,0,1-1.32-5.62,35.7,35.7,0,0,1,1.18-10.5c.85-3.38,1.85-6.44,2.77-9.65l2.81-9.52L157.87,233l-.07.34,1.56-11.67c.3-1.94.39-3.91.78-5.83l1.18-5.78q2.34-11.56,4.93-23.09-.53,11.81-1.31,23.58l-.38,5.89c-.14,2-.56,3.88-.78,5.83L162.22,234l0,.17,0,.17L150.9,272.4l-2.81,9.52c-.91,3.16-2,6.4-2.71,9.44a31.48,31.48,0,0,0-1.07,9.16,11.13,11.13,0,0,0,.9,4,5.39,5.39,0,0,0,1,1.45,3.8,3.8,0,0,0,.58.49l.29.17.12.06s.12,0,0,0l-2.22.74q12-14.42,23.85-29,5.91-7.28,11.74-14.62c1.93-2.45,3.86-4.91,5.74-7.38.94-1.24,1.87-2.48,2.77-3.72.45-.62.89-1.24,1.31-1.86s.81-1.24,1.09-1.74l.4-.73.37-.14a3,3,0,0,0,.52-.6,11.25,11.25,0,0,0,.7-1.14,29.07,29.07,0,0,0,1.28-2.71c.79-1.9,1.49-3.89,2.15-5.89,1.31-4,2.45-8.14,3.52-12.28,2.13-8.28,4-16.66,5.63-25.07.41-2.1.83-4.21,1.19-6.32s.72-4.23,1.2-6.32q1.42-6.28,2.67-12.6c.81-4.21,1.63-8.43,2.25-12.68.31-2.12.6-4.25.79-6.38.09-1.07.16-2.13.15-3.2a11.59,11.59,0,0,0-.11-1.59C214.06,151,214,150.36,213.47,150.13Z" fill="#750511"/>
      <path d="M131.76,164.78l-1.09-4.34c-6.8-27.21,16.74-74.16,25.37-80.33,4.08-2.91,15.83.43,25,3.74a179.41,179.41,0,0,1,38.36,19.47c9.68,6.61,21.84,16.86,24.78,28.17l1.64,6.3-5.16-4c-21.39-16.48-45.66-16.95-72.14-1.37-20,11.77-33.79,28.69-33.93,28.86Zm28.81-81.36a3.93,3.93,0,0,0-1.93.31c-6.29,4.49-27.69,44.68-24.45,71.21a143.64,143.64,0,0,1,32-26.35c25.12-14.77,49.31-15.72,70.44-2.9-9.11-14.22-33.61-28.93-56.24-37.31C170,84.51,163.58,83.42,160.57,83.42Z" fill="#750511"/>
      <path d="M251.47,173.78l-12.79-45.26,4.06,1.43c.58.2,14.11,5.12,14.11,17a70,70,0,0,1-3.08,20Zm-6-37.45,5.94,21a62.52,62.52,0,0,0,.94-10.44C252.39,141.83,248.66,138.36,245.52,136.33Z" fill="#750511"/>
      <path d="M168.34,129c5.14-3.85,10.39-7.48,15.79-10.91,2.71-1.7,5.47-3.33,8.3-4.82a33.35,33.35,0,0,1,8.91-3.45,33.09,33.09,0,0,0-8.64,3.94c-2.72,1.64-5.36,3.42-7.95,5.26-5.16,3.71-10.18,7.64-15,11.72Z" fill="#750511"/>
      <polygon points="244.13 260.65 239.03 233.04 246.31 260.16 244.13 260.65" fill="#750511"/>
      <polygon points="162.17 230.84 160.31 263.12 159.94 230.79 162.17 230.84" fill="#750511"/>
      <path d="M167,178.46A83.78,83.78,0,0,1,163.32,168,71.83,71.83,0,0,1,161.11,157a34.32,34.32,0,0,1,.33-11.34,15,15,0,0,1,2.37-5.43,10.29,10.29,0,0,1,4.85-3.67l.77,2.07a8.52,8.52,0,0,0-3.85,2.9,12.9,12.9,0,0,0-2.05,4.63,34.79,34.79,0,0,0-.62,10.68,88.65,88.65,0,0,0,1.53,10.85C165.13,171.32,166,174.9,167,178.46Z" fill="#750511"/>
      <path d="M139.9,363.59a88.17,88.17,0,0,1,4.56-17.51,89.72,89.72,0,0,1,8-16.15c6.38-10.2,14.59-19.08,23.43-27.08-8.6,8.28-16.48,17.38-22.48,27.66a88.32,88.32,0,0,0-7.4,16.14,86.27,86.27,0,0,0-3.92,17.25Z" fill="#750511"/>
      <path d="M140.49,325.13c-3.5,0-5.32-4.79-6-6.64-3.36-8.82-2-14.69-.27-18.06a13.23,13.23,0,0,1,5-5.49l2.11,3.92-1.06-2,1.08,2c-.32.18-7.82,4.62-2.71,18a11.47,11.47,0,0,0,1.89,3.6c1.23-1.28,3-6.7,3.93-12l4.39.75c-1,5.73-3.31,15.42-8,15.88Z" fill="#750511"/>
    </g>
    <g>
      <path d="M562.52,686.06c-16.29,0-45.08-3.53-78.54-13-27.86-7.88-53.74-3.79-70.86-1.09-14,2.22-22.51,3.56-24.45-2.7-.13-.4-11.86-42.09-1.17-70.59l4.3,1.61c-10.07,26.86,1.14,67.23,1.26,67.63.76,2.46,10.21,1,19.35-.48,17.52-2.77,44-7,72.83,1.2A353.23,353.23,0,0,0,546,680.55c15.89,1.57,24.26.91,26.76.2.1-15.51-36-192.64-46.18-230.34l4.43-1.2c4.43,16.42,16.67,72.66,27.87,128.05,5.84,28.91,10.63,53.76,13.84,71.87,5.87,33.1,4.93,33.85,3.51,35S569.9,686.06,562.52,686.06Zm10.2-4.56Z" fill="#750511"/>
      <path d="M416,699.91c-8.86,0-17.13-1.08-19-4.31-.45-.78-1.24-2.86,1.12-5.21,6.62-6.6,30.9-18.77,31.94-19.28l.71-.35,10.72,2.19,3.35,19.75v.2c0,2.84-3.37,4.08-6.28,4.85C434.44,698.81,424.92,699.91,416,699.91Zm-14.56-6.34c1.21.6,4.62,1.54,12,1.75,12.42.34,24.08-1.47,26.7-3L437.5,676.8l-6.09-1.24C427.36,677.61,407,688.06,401.44,693.57Z" fill="#750511"/>
      <path d="M528.05,699.91c-8.86,0-17.13-1.08-19-4.32-.45-.78-1.24-2.86,1.12-5.21,2.14-2.13,6.09-4.9,12.1-8.48l.54-.32H555l1.89,11.1v.2c0,2.84-3.37,4.08-6.28,4.85C546.51,698.81,537,699.91,528.05,699.91Zm-14.56-6.34c1.21.6,4.62,1.54,12,1.75,12.41.34,24.08-1.47,26.7-3l-1.05-6.18H524.09C517.63,690.05,514.76,692.33,513.5,693.57Z" fill="#750511"/>
      <path d="M388.49,602.21a4.16,4.16,0,0,1-3.1-1.5c-7.85-8.73-5.06-70-4.42-82.18,1.71-32.56,5.91-73,12.25-82.53-.67-11.69.72-84.08,15-101.13,2-2.41,4.27-3.72,6.71-3.92h.18c2.33,0,18.59-1.9,29-3.18l.56,4.55c-2.64.32-25.67,3.15-29.41,3.21a5.56,5.56,0,0,0-3.48,2.28c-12.45,14.91-15.08,86.48-13.85,98.64l.1,1-.64.75C388.83,448,381.3,544.07,385.8,585c1,8.73,2.24,11.54,2.8,12.39,8.18-6.86,129.8-109.67,141.68-159.73-1.12-12.53-5.76-18.52-5.8-18.58l-.52-.66,0-.85a264,264,0,0,0-1.77-38.07c-3.15-24.64-9.87-39-19.42-41.48l1.16-4.44c26.08,6.83,24.9,74.78,24.65,83.38,1.44,2.13,5.31,8.86,6.29,20.69l0,.35-.08.35c-5.09,22.31-30.87,56.54-76.61,101.75-33.91,33.51-66.78,60.91-67.11,61.19l-.16.12A4.33,4.33,0,0,1,388.49,602.21Zm-.21-4.56h0Z" fill="#750511"/>
      <path d="M574.81,682.33c-3.35,13-113.55-.51-181.47-9.17l53.51-8.41C495,675.45,569.15,689.43,574.81,682.33Z" fill="#750511"/>
      <path d="M528.95,429.1c-1.1-2.61-2.34-5.22-3.63-7.77s-2.69-5.06-4.2-7.5a55,55,0,0,0-5-7c-1.87-2.13-4-4.21-6.73-5.19,2.81.8,5.12,2.77,7.15,4.8a55.76,55.76,0,0,1,5.55,6.72c1.69,2.36,3.26,4.81,4.76,7.3s2.9,5,4.22,7.65Z" fill="#750511"/>
      <polygon points="568.14 638.32 530.75 563.26 570.18 637.27 568.14 638.32" fill="#750511"/>
      <polygon points="395.45 436.48 432.7 409.56 396.84 438.3 395.45 436.48" fill="#750511"/>
      <polygon points="411.17 263.91 425.38 306.35 409.02 264.69 411.17 263.91" fill="#750511"/>
      <path d="M400.26,178.22c2.27-4.75,4.71-9.36,7.31-13.9s5.36-9,8.36-13.27a89.56,89.56,0,0,1,10-12.1,37.88,37.88,0,0,1,6-5,17.42,17.42,0,0,1,7.22-2.87,17.28,17.28,0,0,0-7.06,3.11,37.41,37.41,0,0,0-5.8,5.15,88.71,88.71,0,0,0-9.42,12.34c-2.81,4.36-5.39,8.86-7.8,13.45s-4.67,9.27-6.72,14Z" fill="#750511"/>
      <path d="M493.32,138.74c-4.78-5.61-10.18-10.82-16.65-14.39a33.54,33.54,0,0,0-10.38-3.72,30.14,30.14,0,0,0-11.1.16,30.42,30.42,0,0,1,11.18-.72,34.4,34.4,0,0,1,10.82,3.27c6.84,3.33,12.66,8.4,17.84,13.89Z" fill="#750511"/>
      <path d="M506.74,262.89l-4.48-1c5.14-23.13,1.7-58.76.52-69.12l4.56-.52C508.54,202.8,512,239.06,506.74,262.89Z" fill="#750511"/>
      <path d="M415.06,332.5l-4.58-.32c0-.49,3.29-49.06-6-72.35-10-23.52-11.71-47.21-5.36-74.52l4.47,1c-6.12,26.31-4.48,49.11,5.13,71.73C418.42,282.39,415.2,330.46,415.06,332.5Z" fill="#750511"/>
      <path d="M473.3,400c-16.14,0-33.22-6.72-42.11-14.66-4.16-3.71-6.16-7.44-5.79-10.79,1.23-11.09,22.31-64.61,35.14-76.26l3.09,3.39c-12.15,11-32.56,63.48-33.66,73.38-.19,1.75,1.37,4.26,4.29,6.86,10.08,9,31.58,16.3,48.86,12.49,11.65-6,17.58-54.57,20.77-80.75,1.18-9.65,2.11-17.28,3-20.83,2.7-10.79-15.34-75.62-22.52-99.69l4.4-1.31c2.68,9,26.07,88.15,22.58,102.12-.82,3.27-1.73,10.77-2.89,20.27-4.81,39.4-10.59,78.38-23.59,84.45l-.46.16A50,50,0,0,1,473.3,400Z" fill="#750511"/>
      <path d="M451.18,311.71c0-.72-.4-72.71-10.31-90.33l4-2.25c10.49,18.65,10.89,89.55,10.9,92.56Z" fill="#750511"/>
      <path d="M443.21,416.54l-1.15-5.16c-1.34-6,7.4-15.68,9.17-17.55l3.33,3.15c-4.28,4.54-8.57,11-8,13.41l1.15,5.16Z" fill="#750511"/>
      <path d="M453.24,425.15c-3.88,0-7.27-.54-8.6-1.54-.93-.7-3.77-2.83,2.73-17.12l4.18,1.9c-2.14,4.71-3.79,9.83-3.79,11.65,2.66.75,12.12,1,17-1.59,2.25-1.17,2.42-2.35,2.48-2.74,1.08-7.59-.55-17.54-.57-17.64l4.52-.75c.07.44,1.76,10.77.58,19-.29,2-1.6,4.85-6.16,6.75A34.94,34.94,0,0,1,453.24,425.15Z" fill="#750511"/>
      <path d="M505.22,194.95H505c-2.65-.23-4.91-3.83-11.67-15.19-8.25-13.88-22.07-37.1-32.51-37.75l-.17,0c-31.31-4.34-58.18,44.2-58.45,44.69l-4.1,7.52-.2-8.56c-.8-33.74,20.28-61.76,40.21-73.53,13.41-7.91,26.42-9,36.63-3,17.82,10.4,28.45,39.48,32.46,63.23.93,5.51,2.81,18.65.24,21.66A2.84,2.84,0,0,1,505.22,194.95Zm-44.06-57.53c12.83.9,26.27,23.48,36.08,40,2.44,4.1,5.1,8.58,6.91,11.13.43-12.69-8.18-61.75-31.77-75.51-8.71-5.08-20.07-4-32,3-17.57,10.37-35,33.92-37.64,60.88a142.93,142.93,0,0,1,13.62-17.56C431.33,143.06,446.8,135.48,461.16,137.42Z" fill="#750511"/>
      <path d="M396.49,28.35c-.37,5.67-.78,11.27-1,16.86-1,5.47-1.73,11-2.32,16.49s-.95,11-1,16.55a90.75,90.75,0,0,0,1.17,16.32,43.62,43.62,0,0,0,2,7.72A23.19,23.19,0,0,0,399,109a15.9,15.9,0,0,0,2.62,2.49,14.21,14.21,0,0,0,3.13,1.67,17.54,17.54,0,0,0,7.35.76,36.88,36.88,0,0,0,15-4.62A57.37,57.37,0,0,0,441.36,101a47.35,47.35,0,0,1-12.09,12.31,41.21,41.21,0,0,1-16.88,5.17,28.55,28.55,0,0,1-4.57,0,20.11,20.11,0,0,1-4.66-1,18.76,18.76,0,0,1-4.27-2.27,20.43,20.43,0,0,1-3.46-3.28,27.7,27.7,0,0,1-4.42-8,48.16,48.16,0,0,1-2.24-8.52,95.21,95.21,0,0,1-1.24-17.16c0-5.7.43-11.36,1-17S390,50,390.87,44.43A151.91,151.91,0,0,1,396.49,28.35Z" fill="#750511"/>
      <path d="M390.77,59.88c-1.84,3-27.91-50.15,32.11-52.55,72.24,0,41.85,83.51,26.37,90.39-2.07-1.34-6.49-28.63-5.5-26.66,11.75,3.15,9.75-22.36-2.87-20.64-4.87,1.72-8.57,14.52-12.61,18.06C429.42,40.39,401.09,35.8,390.77,59.88Z" fill="#750511"/>
      <circle cx="446.38" cy="11.72" r="11.47" fill="#750511"/>
      <path d="M418.39,134.31,414,132.86c2.15-6.45,2.18-18.27,2.18-18.38h4.59C420.8,115,420.77,127.16,418.39,134.31Z" fill="#750511"/>
      <rect x="450.99" y="89.64" width="4.59" height="19.85" transform="translate(-10.06 125.91) rotate(-15.64)" fill="#750511"/>
      <path d="M396.64,219.84l-3-5c-4.07-6.72-5.37-13.09-3.85-18.94A21.35,21.35,0,0,1,399,183.57l1.16,2,0,0,0,0,3.38.7Zm1.42-29.58a15.7,15.7,0,0,0-3.87,6.84,16.59,16.59,0,0,0,.53,9.37Z" fill="#750511"/>
      <polygon points="460.44 298.34 477.27 284.46 463.71 301.55 460.44 298.34" fill="#750511"/>
      <polygon points="440.98 221.55 437.14 211.94 444.76 218.95 440.98 221.55" fill="#750511"/>
      <path d="M484.29,192.88a38.26,38.26,0,0,0-.67-4.41c-.3-1.53-.64-3.06-1-4.59q-1-4.6-2.21-9.2,2.23,4.18,4.37,8.42c.71,1.42,1.41,2.85,2.09,4.29a41.64,41.64,0,0,1,1.91,4.63Z" fill="#750511"/>
      <path d="M389.64,599.5S499.53,510.26,521.7,475.1c14.52-22.93,5.35-22.74,5.35-22.74S489,516.67,389.64,599.5Z" fill="#750511"/>
      <polygon points="455.77 422.91 455.2 465.92 453.48 422.94 455.77 422.91" fill="#750511"/>
      <path d="M444.78,416.5a37.55,37.55,0,0,1-8,10.78,87.13,87.13,0,0,1-10.3,8.26,86.54,86.54,0,0,0,9.47-9,35.82,35.82,0,0,0,6.68-10.9Z" fill="#750511"/>
      <path d="M470.31,415.2a35.47,35.47,0,0,0,7.6,6.13,19.15,19.15,0,0,0,9.39,2.74,19.73,19.73,0,0,1-9.91-1.71,37.16,37.16,0,0,1-8.64-5.47Z" fill="#750511"/>
    </g>
  </g>
</svg>
