<svg xmlns="http://www.w3.org/2000/svg" viewBox="0 0 700 700">
  <title>Artboard 2 copy 13</title>
  <g id="Darker_Mids" data-name="Darker Mids">
    <g>
      <path d="M18.64,489A16.86,16.86,0,0,1,1.79,472.11l.37-246.77A16.86,16.86,0,0,1,19,208.51h0a16.86,16.86,0,0,1,16.83,16.88l-.29,194.84L184.63,215.45a16.86,16.86,0,1,1,27.26,19.84L32.27,482.05A16.86,16.86,0,0,1,18.64,489Z" fill="#740815"/>
      <path d="M238.66,488.18A16.86,16.86,0,0,1,226,482.49L112.32,353.83a16.86,16.86,0,0,1,25.26-22.32l84.22,95.3V341.88a16.86,16.86,0,1,1,33.71,0V471.33a16.86,16.86,0,0,1-16.85,16.86Z" fill="#740815"/>
      <path d="M383.59,491.49c-52.91,0-96-46.46-96-103.57q0-.62,0-1.24v-161a16.86,16.86,0,0,1,33.71,0V387.59q0,.59,0,1.18c.4,38.13,28.17,69,62.24,69,34.33,0,62.25-31.34,62.25-69.86s-27.92-69.86-62.25-69.86a55.83,55.83,0,0,0-14.67,2,16.86,16.86,0,1,1-8.84-32.53,89.51,89.51,0,0,1,23.5-3.13c52.91,0,96,46.46,96,103.57S436.5,491.49,383.59,491.49Z" fill="#740815"/>
      <path d="M602.25,491.49c-52.91,0-96-46.46-96-103.57s43-103.57,96-103.57,96,46.46,96,103.57S655.17,491.49,602.25,491.49Zm0-173.42c-34.33,0-62.25,31.34-62.25,69.86s27.92,69.86,62.25,69.86,62.25-31.34,62.25-69.86S636.58,318.07,602.25,318.07Z" fill="#740815"/>
      <ellipse cx="238.17" cy="280.65" rx="19.28" ry="21.14" fill="#740815"/>
      <path d="M643.78,269.78a16.84,16.84,0,0,1-5.26-.85l-83-27.27a16.86,16.86,0,0,1,10.52-32l83,27.27a16.86,16.86,0,0,1-5.26,32.87Z" fill="#740815"/>
    </g>
  </g>
</svg>
