<svg xmlns="http://www.w3.org/2000/svg" viewBox="0 0 700 700">
  <title>Artboard 3</title>
  <g id="Midtones">
    <path d="M438.41,603.88c18.79-4.58,12,10.45-10.33,37.33,0,0,19.67-2.33,45.33-44.33S438.41,603.88,438.41,603.88Z" fill="#f7982d"/>
    <path d="M107.07,224.22s-28,109-9,115,79,23,79,23l1,9-95-19S56.07,353.22,107.07,224.22Z" fill="#f7982d"/>
    <path d="M135.41,366.22l-4.67,40h47.33l98.67,5.33,6-4s-11.33-60.67-7.33-82.67,5.33-72,5.33-72-17.5,35.75-18.17,63.08c0,5.62,4,10.18,3.17,14.92-9,52.63-67.67,54-67.67,54l-20-13.67Z" fill="#f7982d"/>
    <path d="M128.07,278.88s11.33,42.33,18.67,23c-6,28.67-6.67,26.33-6.67,26.33S134.07,335.55,128.07,278.88Z" fill="#f7982d"/>
    <path d="M289.41,236.22c4.31.73,8.43-22.5,12.17-40.5,3.5,11,14-1.39,20.5-4.17l10,4Z" fill="#f7982d"/>
    <path d="M239.41,170.88s-29.67,8-35.33,29-25-3-25-3l24.33,21.67Z" fill="#f7982d"/>
    <path d="M175.07,171.22s-15.33,10-1.33,18,14,15.67,14,15.67l-38.67-19C152.68,175.72,170.76,170.71,175.07,171.22Z" fill="#f7982d"/>
    <polygon points="298.57 29.21 309.57 55.72 321.07 54.72 298.57 29.21" fill="#f7982d"/>
    <path d="M149.07,185.88s51,42.83,56,42.83,43.5-56,43.5-56-10.5-1-14,5-31.17,40.83-31.17,40.83S157.07,182.55,149.07,185.88Z" fill="#f7982d"/>
    <path d="M239.41,185.22s19.33-11.67,40,.33c-4-3.67-18.33-13.33-30.83-12.83S239.41,185.22,239.41,185.22Z" fill="#f7982d"/>
    <path d="M144.74,311.88s-2.33,14,7.33,24c-12-5.33-13.67-5.67-13.67-5.67Z" fill="#f7982d"/>
    <path d="M225.57,249.47s-20.5,71.75,9.5,108.75C218.57,327.72,225.57,249.47,225.57,249.47Z" fill="#f7982d"/>
    <path d="M179.86,352.83c16.42-38.38,7.13-91.36,7.13-91.36s-.64,54.32-10.39,90.08A30.71,30.71,0,0,1,179.86,352.83Z" fill="#f7982d"/>
    <path d="M167.07,183.47s22-18.5,48-17.75C192.32,163.72,160.82,171.47,167.07,183.47Z" fill="#f7982d"/>
    <path d="M298.74,99.55s-9.33,76.67,57.33,97.33,72.67,72,72.67,72-38.67-46.67-66-55.33-73.33-64-73.33-64S290.07,124.22,298.74,99.55Z" fill="#f7982d"/>
    <path d="M414.07,248.22s6.83,72.58,21.5,69.25c-18.67,30-20.17,30.08-20.17,30.08s9.31-52-34.67-122C349.08,175.16,418.05,253.1,414.07,248.22Z" fill="#f7982d"/>
    <path d="M430.57,325.22s-9.83,32.67,28.17,21.67c17-5.25,75.33-7.33,90-34.67-5.5,14.25-17.67,36.75-17.67,36.75l-84.25,7.75-38.25,17S401.82,363.72,430.57,325.22Z" fill="#f7982d"/>
    <path d="M540.57,244.72s32.5,27.5,31.5,41l-16,19S565.57,276.72,540.57,244.72Z" fill="#f7982d"/>
    <path d="M556.07,304.72s-22,43.5-4.5,43,42.5,2,53.5,12,14-10.5,14-10.5.5,34.5-5,37c-19.5-17-26.5-28-41.5-27.5s-45,6.5-45,6.5S535.07,331.72,556.07,304.72Z" fill="#f7982d"/>
    <path d="M602.32,326.72s6.23-8.73,9.75-5.75c3.86,3.27.19,41.37-3,42.75,4.36,2.26,8.05.52,10.5-8.75l-2.25-54.25Z" fill="#f7982d"/>
    <path d="M525.41,152.55s11,2.33,9.67-1c8.67,15.67,8.33,26.67.67,29.33S534.07,157.55,525.41,152.55Z" fill="#f7982d"/>
    <path d="M497.07,184.55s31-15.67,31.67-21.67c-1,19.33-29.67,39-39.33,40.33S497.07,184.55,497.07,184.55Z" fill="#f7982d"/>
    <path d="M453.74,221.88l17.33-9.67,13,9.67,5.33-2-7.33-14.67-3.67-9s.33,6-7.67,6-10-8-10-8S459.41,220.22,453.74,221.88Z" fill="#f7982d"/>
    <path d="M419.52,373.35,402.65,389S365.3,493.83,366.51,525.16c-9.64,22.89-36.14,61.45-18.07,92.77,18.07-9.64,133.73-33.73,133.73-33.73l61.45-6s51.81-6,47-30.12c-14.46-32.53-43.37-115.66-41-145.78-12-1.2-6.5-11.79-6.5-11.79l-4-7.56,8.07-7.56-19.6-10.13,3.5-16.25C490,348.45,452,354.65,419.52,373.35Z" fill="#f7982d"/>
    <path d="M352.74,658.88s-4-34.54,85.67-55c10.43-2.38,15,5.22,28.33,3,25.33-21.33,56.08-15.65,72.9-18,37.11-5.24,50.23-9.71,49.77-18-.67-12-4.67-2.67-4.67-2.67s-9.33,11.33-114,17.33S340.74,640.22,352.74,658.88Z" fill="#f7982d"/>
    <path d="M556.74,585.88s-14.67,8.67-6.67,42.67c-8-21-9.67-32-9.67-32l-1-9.33Z" fill="#f7982d"/>
    <path d="M416.57,158.72s-7,20,12.5,25.5,18.5-9.5,18.5-9.5l14,29-46-17S395.57,180.72,416.57,158.72Z" fill="#f7982d"/>
    <path d="M489.41,219.88c5.17-11.17,49.92-35.81,56.67-35.17l-4.5-5.5-59.5,26Z" fill="#f7982d"/>
    <path d="M403.57,179.22s13,24.5,46,30.5c33.5,6,12-6,12-6Z" fill="#f7982d"/>
    <path d="M364.07,103.55s-.67,28-10,29.33c9.33,11.33,18,11.33,18,11.33Z" fill="#f7982d"/>
    <path d="M533.07,194.72s15-11.5,23-4.5c-7.5-7-8-7-8-7S542.07,182.22,533.07,194.72Z" fill="#f7982d"/>
    <path d="M108.07,217.72c-.83,2.35,7.83-.3,12.5,10.5.33-1.17-.46-13.31-8-20C107.55,203.76,108.07,217.72,108.07,217.72Z" fill="#f7982d"/>
    <polygon points="386.57 155.22 406.07 167.22 416.57 158.72 386.57 155.22" fill="#f7982d"/>
  </g>
  <g id="Darker_Mids" data-name="Darker Mids">
    <path d="M134.07,374.88l42,2s17.33,16.67,21.33,10l-19.33-16-43.33-5.33Z" fill="#c45937"/>
    <polygon points="130.07 293.71 146.07 334.21 136.57 327.21 130.07 293.71" fill="#c45937"/>
    <path d="M80.07,306.22s-4.5,38,11,41,85.5,20,85.5,20c-28.22,2.84-61.79-3.79-98.5-16C78.07,351.22,73.07,322.72,80.07,306.22Z" fill="#c45937"/>
    <path d="M145.57,373.72s-10.5,24.5-.5,26,13,7,13,7l-26.5,1.5,2.5-33.33Z" fill="#c45937"/>
    <polygon points="154.74 189.88 204.74 223.88 184.41 202.88 154.74 189.88" fill="#c45937"/>
    <path d="M289.74,156.55s32,41,29,49.67l12.67-10-38.67-43Z" fill="#c45937"/>
    <path d="M219.32,180.47s8.5,1,4.25,7.5c12.75-12.75,14-14.75,14-14.75A36.86,36.86,0,0,0,219.32,180.47Z" fill="#c45937"/>
    <path d="M165.82,177.22s-4.5,10.5,2.5,14L156.82,187Z" fill="#c45937"/>
    <path d="M222.57,194.47s20.25-20.75,32.75-19.5l-7.75-3S227.57,180.47,222.57,194.47Z" fill="#c45937"/>
    <path d="M265.74,294.22c6.49-7.79,9.34-1,10.33,13.33l5.33-52.67S279.74,248.55,265.74,294.22Z" fill="#c45937"/>
    <path d="M272.57,357.22s15.5,40-42,44l32,7,16,1.5,3-8.5Z" fill="#c45937"/>
    <path d="M390.74,428.88s-20,77.33,8,52c-28.67,44.67-38,60-38,60C370.68,491.86,380.67,452.77,390.74,428.88Z" fill="#c45937"/>
    <path d="M360.74,540.88s-32.67,62.67,36.67,40c32-9.33,116.67,1.33,116.67,1.33l-96.67,10.67-70,26.67S328.07,592.22,360.74,540.88Z" fill="#c45937"/>
    <path d="M506.74,389.55s34,1.33,32-12.67l1.33,10.67h0S548.07,393.55,506.74,389.55Z" fill="#c45937"/>
    <path d="M499.07,388.22s33.5,5,33.5,10-33.5,27-33.5,27l43.5-24.5-1-9Z" fill="#c45937"/>
    <path d="M528.07,409.72s24-9.5,23.5,25l.5-31-9.5-3Z" fill="#c45937"/>
    <path d="M417.57,316.22s6,17.5,9.5,14l-10,17.5Z" fill="#c45937"/>
    <path d="M421.07,342.72s-13,22,2.5,19l-15,14.5-3.5-6Z" fill="#c45937"/>
    <path d="M382.57,227.22s13.5,3,30,23.5c-22.45-9.63-12.4,8.57-10.5,12Z" fill="#c45937"/>
    <path d="M538.57,585.72l50-13-1-9.5c-14.94,8.23-31.38,13.69-49,17Z" fill="#c45937"/>
    <path d="M537.41,340.22s-2.67,21.33,10.67,18l-20.67,8-.67-4.67Z" fill="#c45937"/>
    <path d="M410.74,166.55c-2.31,1.26,1.31,21.92,12,22.33,9.09.35-17-9.33-17-9.33Z" fill="#c45937"/>
  </g>
  <g id="Main">
    <g>
      <path d="M184.22,156.82l-6.58,1.59c8.15-30.87,9.42-56.41,9.78-81.24l34.94-12.58c46-10,85,32.18,18.87,35.64-5.59,6.46-1.83,24-1.83,24l-5.15,10.92a121.47,121.47,0,0,0-4.6-18.91c-2.61-7.58-6.39-14.69-11.47-15.33-7.17-.8-7.59,8.12-6.61,15.94A81.86,81.86,0,0,0,213.8,128s-10.74,7.34-15.2,10.48C186.55,148.18,184.22,156.82,184.22,156.82Z" fill="#750511"/>
      <path d="M219.82,156.79a12.21,12.21,0,0,1-3.62-3.92,14.19,14.19,0,0,1-1.65-4.63,27.65,27.65,0,0,1,.13-9,26.37,26.37,0,0,0,2.33,8.18,10.85,10.85,0,0,0,2.28,3.07,7.58,7.58,0,0,0,2.94,1.68Z" fill="#750511"/>
      <path d="M252.89,172.55l-2.8-4.38c18.9-12.06,18.57-57.93,18.41-80-.06-8.31-.37-10-.41-10.11a2.2,2.2,0,0,0,.27.63L272.79,76c.35.57.83,1.34.91,12.17C273.87,111.13,274.21,158.94,252.89,172.55Z" fill="#750511"/>
      <path d="M180.65,372.85l-2.66-.32c-15.78-1.88-94.89-11.84-102.77-23.66-8.79-13.18,12.53-93.93,34.28-142.35l.22-.48.38-.36c.42-.39,10.6-9.68,38.61-20.68,11.06-4.34,43.54,21.37,54.51,30.46,6.73-11.65,30.55-50.53,46.34-46.8l.15,0c2.4.72,11.4.29,43-19.22l2.73,4.42c-32.92,20.34-42.69,21.09-47.12,19.8-2.57-.56-10.14.5-25.79,21.73a269.7,269.7,0,0,0-16.3,25.28l-1.54,2.76-2.41-2c-28.89-24.44-47.59-33.19-51.65-31.6C126.53,199.3,116,207.48,114,209.18c-10.58,23.67-21.12,54.89-28.24,83.66-8.32,33.63-8.55,49.65-6.22,53.15,2.65,4,31.18,13.15,96.4,21.07l.89-10-57-35,2.72-4.43,59.76,36.7Z" fill="#750511"/>
      <path d="M127.2,279.84a32.06,32.06,0,0,1,2.79,6.71c0,1.15-.09,2.3-.17,3.44s-.13,2.29-.27,3.42c-.45,4.54-1.21,9-2.09,13.43s-2,8.79-3.19,13.13q-.9,3.25-1.91,6.47a50.18,50.18,0,0,1-4.58,5.55c-.23-2.44-.28-4.77-.38-7.1q1-3.14,1.86-6.31c1.17-4.23,2.24-8.49,3.1-12.77s1.58-8.59,2-12.9c.13-1.08.16-2.15.25-3.23l.11-1.61a7.9,7.9,0,0,0,0-.8,1.8,1.8,0,0,1,0-.8C125.61,284.31,126.24,282.15,127.2,279.84Z" fill="#750511"/>
      <path d="M277.17,413a6.65,6.65,0,0,1-2.07-.33c-32.28-10.58-89.22-6.7-140.07-2.24a6.57,6.57,0,0,1-7.1-7.26l4.62-38.87,5.16.61-4.62,38.85a1.33,1.33,0,0,0,.38,1.08,1.36,1.36,0,0,0,1.11.41c51.35-4.51,108.93-8.41,142.14,2.48a1.36,1.36,0,0,0,1.79-1.27c.06-4.69-1-11.16-2.21-18.64-1.86-11.43-4.18-25.66-4.14-42.26.05-20.39,2.34-43,4.18-61.19,1.26-12.41,2.34-23.13,2.17-28.42-.4-12.52,19.1-32.66,50.68-61.11l3.48,3.86c-16,14.43-49.36,44.46-49,57.08.18,5.64-.87,16-2.19,29.11-1.83,18.06-4.1,40.55-4.15,60.68,0,16.17,2.24,30.16,4.07,41.41,1.26,7.73,2.34,14.4,2.28,19.55a6.56,6.56,0,0,1-6.53,6.47Z" fill="#750511"/>
      <path d="M293.83,74.56l-8.88-33.09a6.56,6.56,0,0,1,1.68-6.4l7.79-7.79a6.63,6.63,0,0,1,5.14-1.91A6.55,6.55,0,0,1,304.35,28l1.57,2.13c4.26,5.78,13.13,17.8,19.63,27l-4.25,3C314.83,51,306,39,301.74,33.24l-1.57-2.13a1.34,1.34,0,0,0-1-.55,1.36,1.36,0,0,0-1.07.4l-7.79,7.79a1.37,1.37,0,0,0-.35,1.34l8.89,33.13Z" fill="#750511"/>
      <path d="M198.13,386.82c-7.77,0-19.34-12.41-21.77-15.13l3.87-3.47c9.33,10.4,16.37,13.84,18.11,13.4,4-2.23,7.38-5.92,10.47-11.58.05-.64-.3-1.92-4.19-3.54-1.18-.49-1.92-1.6-3.35-3.85-.46-.73-1.19-1.88-1.61-2.38-2.5-.64-5.38-.24-8.43.19-3.46.49-7.38,1-11.45.13l1.14-5.07c3.14.71,6.27.26,9.59-.2,3.63-.51,7.38-1,11.07.1,1.49.46,2.47,1.92,4.08,4.45.41.64,1,1.57,1.33,2,5.47,2.38,7.77,5.62,6.83,9.64l-.08.34-.16.3c-3.69,6.87-7.81,11.37-13,14.14l-.27.13A6,6,0,0,1,198.13,386.82Zm1.38-26.71Z" fill="#750511"/>
      <path d="M287.2,35.52a27.82,27.82,0,0,0-6.4-6.47c-2.69-2.18-5.47-4.43-7.11-7.76-.61-1.24-.3-2.6.4-5.32.16-.61.38-1.47.47-2C272.28,8.1,273,3.94,276.67,1.65l.5-.31.59-.06c7.86-.85,14.3.1,19.7,2.89,5.25,2.36,4.81,10.38,4.09,23.62l-.08,1.39-5.19-.28.08-1.4c.43-7.9,1-17.74-1-18.61l-.18-.08c-4.32-2.25-9.59-3.06-16.12-2.44-.56.57-1.14,2,.55,6.18.47,1.17.15,2.43-.44,4.72-.16.64-.42,1.64-.52,2.21,1.18,2.07,3.18,3.69,5.46,5.54a32.33,32.33,0,0,1,7.52,7.73Z" fill="#750511"/>
      <path d="M147.1,187.92c-.12-.62-2.67-15.44,19.2-26.85,21.51-11.22,45.3-10.48,61.32-9,18.08,1.72,23.57,17.59,23.8,18.27L246.49,172c-.18-.54-4.71-13.34-19.36-14.74-15.37-1.47-38.14-2.19-58.42,8.39-18.48,9.64-16.52,21.15-16.5,21.26Z" fill="#750511"/>
      <path d="M135.73,408.56l-26,178.14L271.8,646.78l5.08-22.43C240.06,594.7,198,562.18,181,562.6L196.18,515l25.27,135.17,22.85-1.27,32.54-238C279.86,408.43,206.21,396.4,135.73,408.56Z" fill="#750511"/>
      <path d="M246.1,699.73H223.47a9,9,0,0,1-8.95-8.95,8.56,8.56,0,0,1,.18-1.81h0c0-.15.06-.29.09-.4,1-3.81,3.42-13.66,5.19-22.91a5.81,5.81,0,0,0-.21-2.14,8.06,8.06,0,0,1,1.19-7.22,8.29,8.29,0,0,0,.71-1.37c.47-4.28.26-6,.1-6.68l-.76-3,3.12-.19c6.23-.38,10.8-.57,13.58-.57h0c2.66,0,5.17,0,5.55,2.49a2.85,2.85,0,0,1-.25,1.58c1.31,5.88,6.41,28,11,38.15l.23.47.06.13a9.09,9.09,0,0,1,.71,3.5,9,9,0,0,1-8.95,8.95Zm-26.32-9.64a3.47,3.47,0,0,0-.06.69,3.75,3.75,0,0,0,3.75,3.75H246.1a3.77,3.77,0,0,0,3.75-3.75,3.22,3.22,0,0,0-.07-.7,3.28,3.28,0,0,0-.19-.68l-.26-.55c-4.89-10.72-10-33.16-11.37-39.21-1.69,0-4.91.08-10.79.41a44.75,44.75,0,0,1-.32,5.48,8.81,8.81,0,0,1-1.39,3.4,7.61,7.61,0,0,0-.81,1.62,5.89,5.89,0,0,0,.22,1.9,10.22,10.22,0,0,1,.23,4.18c-1.79,9.39-4.27,19.36-5.26,23.22Z" fill="#750511"/>
      <path d="M123.71,244c.42,1.77.83,3.53,1.19,5.29s.8,3.51,1.14,5.27l1.14,5.25a13,13,0,0,1,.25,2.64c0,.88.14,1.77.21,2.65q.94,10.58,2.41,21.11c1.94,14,4.53,28,7.62,41.84l-5.07,1.13c-3.12-14-5.73-28.06-7.7-42.26q-1.47-10.65-2.44-21.36c-.08-.89-.14-1.79-.24-2.68a13.31,13.31,0,0,1-.19-2.68l.4-5.41C122.75,251.16,123.16,247.56,123.71,244Z" fill="#750511"/>
      <path d="M291,698.27a68.31,68.31,0,0,1-7.61-.46l-.14,0c-7.93-1.34-8.74-6.06-8.72-8,0-5,5.22-10.62,11-12.57-.94-13.66-5.19-22.32-8.69-27.26-4-5.58-7.83-7.71-7.86-7.74l2.44-4.59c.74.39,18.11,9.9,19.42,41.48l.1,2.33-2.3.35c-4.41.67-8.93,5.24-8.95,8,0,1.72,2.33,2.5,4.32,2.84,10.44,1.16,17.83-.16,20.81-3.74a6.13,6.13,0,0,0,1.25-5.46c-.14-.47-.3-.94-.47-1.45-1.17-3.5-2.78-8.29-2.55-20a71.78,71.78,0,0,1,1.74-13.24c1.24-6.19,2.23-11.09-.49-16.41-1.37-2.68-5-2.51-11.86-2-7.29.59-17.27,1.4-28-3.18l2-4.78c9.55,4.08,18.42,3.36,25.54,2.79,7.45-.6,13.88-1.12,16.91,4.77,3.54,6.94,2.29,13.19,1,19.8a66.48,66.48,0,0,0-1.64,12.31c-.21,10.86,1.17,15,2.28,18.29.18.55.36,1.07.51,1.58a11.37,11.37,0,0,1-2.23,10.29C305.48,696.25,299.49,698.27,291,698.27Z" fill="#750511"/>
      <path d="M128.89,403.81c-.11,5.39,2.22,11.32,8.78,11.53l-1.94-6.77Z" fill="#750511"/>
      <path d="M283,407.19c.11,5.39-2.22,11.32-8.78,11.53l1.94-6.77Z" fill="#750511"/>
      <path d="M283.12,249.62c-2.6,5.22-5,10.63-7.19,16.07s-4.23,11-6.07,16.57-3.37,11.28-4.7,17a135.18,135.18,0,0,0-2.68,17.47,135.49,135.49,0,0,1,2-17.6c1.12-5.81,2.47-11.58,4.09-17.27s3.47-11.32,5.49-16.89,4.21-11.06,6.67-16.51Z" fill="#750511"/>
      <path d="M173.43,209.07a19.71,19.71,0,0,1,2.75,3.61c.38.66.79,1.3,1.14,2l1,2.05c.71,1.35,1.19,2.8,1.76,4.21a43.68,43.68,0,0,1,1.47,4.32c1,2.9,1.57,5.88,2.25,8.84.38,1.48.56,3,.82,4.49l.72,4.51c1.63,12.07,1.74,24.24,1.49,36.37l-.53,9.08c-.18,3-.31,6.06-.67,9.07l-.94,9-.47,4.52-.66,4.49-1.33,9c-.46,3-.88,6-1.49,9-1.19,5.94-2.28,11.88-3.55,17.8.68-6,1.53-12,2.29-18,.45-3,.74-6,1.06-9l1-9,.5-4.49.37-4.51.75-9c.3-3,.44-6,.59-9l.47-9a288.5,288.5,0,0,0-.9-36,131.21,131.21,0,0,0-3-17.74,42.84,42.84,0,0,0-1.18-4.34c-.47-1.42-.85-2.89-1.47-4.25l-.85-2.09c-.31-.68-.67-1.34-1-2a18.35,18.35,0,0,0-1.1-2A12.83,12.83,0,0,0,173.43,209.07Z" fill="#750511"/>
      <path d="M235.41,223.67a54.56,54.56,0,0,0-6.27,16.05,147.53,147.53,0,0,0-3.08,17,260.91,260.91,0,0,0-1.87,34.53,268.68,268.68,0,0,0,2.33,34.5,164,164,0,0,0,3.17,17,78.36,78.36,0,0,0,5.71,16.32,70.43,70.43,0,0,1-6.94-16,137,137,0,0,1-3.95-17,217.76,217.76,0,0,1-2.93-34.79,213.28,213.28,0,0,1,2.47-34.83,125.44,125.44,0,0,1,3.86-17.05C229.69,233.84,231.87,228.3,235.41,223.67Z" fill="#750511"/>
      <path d="M112.69,206.58a16.69,16.69,0,0,1,2.48,3.11A31.69,31.69,0,0,1,117,213a42.1,42.1,0,0,1,2.57,7,59.54,59.54,0,0,1,1.52,7.2l.44,3.64.26,3.65-.58-3.6-.76-3.56a58.53,58.53,0,0,0-2.12-6.92,40.48,40.48,0,0,0-3.06-6.46,29.55,29.55,0,0,0-2-2.91A14.88,14.88,0,0,0,111,208.6Z" fill="#750511"/>
      <path d="M137.29,329.87c2.78-7.59,5.35-15.31,7.56-23.11,1.09-3.9,2.1-7.83,2.86-11.81a60.39,60.39,0,0,0,.88-6,17,17,0,0,0-.34-6,17.14,17.14,0,0,1,.66,6.05,60.86,60.86,0,0,1-.56,6.1c-.55,4-1.36,8-2.25,12-1.8,8-4,15.82-6.36,23.64Z" fill="#750511"/>
      <path d="M249.75,171.18a68.21,68.21,0,0,1,8.27,2.08,73.11,73.11,0,0,1,7.9,3,56.16,56.16,0,0,1,7.4,4,42.65,42.65,0,0,1,6.52,5.27,42.32,42.32,0,0,0-6.85-4.72,55.17,55.17,0,0,0-7.56-3.39,71.48,71.48,0,0,0-7.93-2.34,66.29,66.29,0,0,0-8.08-1.38Z" fill="#750511"/>
      <path d="M226.63,666.67a2.66,2.66,0,0,1,.38-2.38,5.35,5.35,0,0,1,1.89-1.65,10.34,10.34,0,0,1,9.22,0,5.35,5.35,0,0,1,1.89,1.65,2.66,2.66,0,0,1,.38,2.38c-.61-1.45-1.81-1.82-3-2.13a18.46,18.46,0,0,0-3.85-.38,18.23,18.23,0,0,0-3.85.38C228.44,664.85,227.24,665.22,226.63,666.67Z" fill="#750511"/>
      <path d="M291.58,638.75a5.41,5.41,0,0,1,2.78.05,5.22,5.22,0,0,1,2.5,1.49A4.58,4.58,0,0,1,298,643a5.46,5.46,0,0,1,0,1.42,7.79,7.79,0,0,1-.4,1.33c-.12-.46-.15-.9-.24-1.32a10.15,10.15,0,0,0-.32-1.22,5.17,5.17,0,0,0-1.15-2A10,10,0,0,0,291.58,638.75Z" fill="#750511"/>
      <path d="M375.3,24.86a21.89,21.89,0,0,0-2.57-1.07A24.71,24.71,0,0,0,370,23a14.65,14.65,0,0,0-5.74-.21,15.29,15.29,0,0,1,5.87-1.08,26.32,26.32,0,0,1,3,.17,24,24,0,0,1,3.06.54Z" fill="#750511"/>
      <polygon points="278.89 11.71 283.17 21.42 276.66 13.04 278.89 11.71" fill="#750511"/>
      <path d="M206.81,364.62a27.13,27.13,0,0,1-2,2.94,22.51,22.51,0,0,1-2.31,2.62,12.86,12.86,0,0,1-2.77,2.12,6.89,6.89,0,0,1-3.28.94,6.56,6.56,0,0,0,2.91-1.47,11.9,11.9,0,0,0,2.15-2.43,20.89,20.89,0,0,0,1.64-2.81,25,25,0,0,0,1.24-3Z" fill="#750511"/>
      <path d="M231.27,694.57a3.91,3.91,0,0,0,1.92-.37,4.3,4.3,0,0,0,1.67-1.36,9.63,9.63,0,0,0,1.63-4.56,25.48,25.48,0,0,0,0-5.23c-.14-1.77-.49-3.51-.81-5.27.52,1.7,1.09,3.4,1.45,5.17a26.4,26.4,0,0,1,.68,5.41,11.21,11.21,0,0,1-1.31,5.57,6.43,6.43,0,0,1-2.18,2.26,6.21,6.21,0,0,1-3.19,1Z" fill="#750511"/>
      <path d="M287.66,679a45.11,45.11,0,0,1,6.26.87,22.44,22.44,0,0,1,3,.86,7.17,7.17,0,0,1,2.69,1.57,6.86,6.86,0,0,0-2.86-.94,21.48,21.48,0,0,0-3-.2,43.33,43.33,0,0,0-6,.44Z" fill="#750511"/>
      <path d="M155.93,187.53a23,23,0,0,1,5-7.88,15.21,15.21,0,0,1,1.6-1.62c.56-.51,1.1-1,1.68-1.53l1.81-1.36a15.24,15.24,0,0,1,1.86-1.28,50.81,50.81,0,0,1,16.53-6.64c.72-.17,1.44-.37,2.16-.52l2.19-.34,4.38-.68,4.41-.33c1.47-.08,2.94-.28,4.41-.25,2.95,0,5.89-.06,8.83.08l8.79.61-8.8-.29c-2.93,0-5.86.17-8.79.24-1.46,0-2.91.28-4.37.41l-4.36.49-4.3.83-2.15.42c-.71.17-1.4.4-2.1.59a49.21,49.21,0,0,0-15.76,7,14,14,0,0,0-1.72,1.28l-1.66,1.35c-.53.47-1,1-1.52,1.49a13.61,13.61,0,0,0-1.43,1.56c-.44.55-.92,1.07-1.32,1.65s-.79,1.16-1.16,1.75a18.11,18.11,0,0,0-1.68,3.65Z" fill="#750511"/>
      <path d="M246,171.3a56.86,56.86,0,0,0-13.06,3,54.32,54.32,0,0,0-12.11,6,44.65,44.65,0,0,0-10,9.09,44.11,44.11,0,0,0-6.8,11.83A44.44,44.44,0,0,1,210.24,189a45.63,45.63,0,0,1,9.81-9.76,55.94,55.94,0,0,1,12.17-6.74,58.86,58.86,0,0,1,13.52-3.75Z" fill="#750511"/>
      <circle cx="475.9" cy="49.82" r="11.63" fill="#750511"/>
      <path d="M429.62,81.5c.32,4.83.54,9.58.91,14.32-.32,4.67-.63,9.34-.69,14-.12,9.31.32,18.7,2.46,27.54a36.94,36.94,0,0,0,5.07,12.15,14.76,14.76,0,0,0,9.79,6.58c.5.09,1,.13,1.51.19s1.06.06,1.49,0c1.06,0,2.19-.15,3.28-.3a35.53,35.53,0,0,0,6.49-1.46,5.4,5.4,0,0,1,1.6-.43c.56-.08,1.1-.19,1.66-.3a28.26,28.26,0,0,0,3.27-.89,25.07,25.07,0,0,0,6.31-3.06A21.11,21.11,0,0,1,468,155.6a29.31,29.31,0,0,1-3.08,2.27c-.54.34-1.09.69-1.64,1a5.17,5.17,0,0,1-1.76.71,50.87,50.87,0,0,1-7.36,1.59c-1.25.17-2.48.29-3.78.35-.75,0-1.37,0-2.06,0s-1.34-.13-2-.25a18.81,18.81,0,0,1-7.56-3,22,22,0,0,1-5.62-5.68,41.94,41.94,0,0,1-5.86-13.88c-2.31-9.59-2.72-19.29-2.61-28.87.09-4.8.3-9.59.78-14.35A113.55,113.55,0,0,1,429.62,81.5Z" fill="#750511"/>
      <path d="M427.09,99.27s-19-45.7,22.85-52,54.58,29.2,54.58,29.2,21.78,61.1-15.9,61.1c-3.9-6.06-5.36-14.33-4.33-22.09,6.93,1.73,5.55-19.72-.5-21.66-10.58-3.38-12.27,17.56-14.81,14C469.82,79.81,439,77.06,427.09,99.27Z" fill="#750511"/>
      <path d="M465.72,208.76l-5.52-1.64c-4.9-1.46-48.12-14.59-55.62-26.49-8.22-13.06,20.21-35.24,23.47-37.72L431.2,147C422,154,404.5,170.75,409,177.86c4.81,7.64,32,17.66,47.17,22.56-7.29-16.18-12.4-30.55-8.69-42.27l5,1.57c-3.54,11.2,3.13,27.12,10.88,43.82Z" fill="#750511"/>
      <path d="M482,204.52c.9-2.67,1.64-5.25,2.43-7.84,1.46-2.14,2.79-4.38,4.13-6.62,2.65-4.48,5.15-9.06,7.43-13.72a93.09,93.09,0,0,0,5.78-14.22,20.82,20.82,0,0,0,1-6.83,4.17,4.17,0,0,0,.15-2.68c-.31-.86-1.51-1.56-2.87-1.94a5.14,5.14,0,0,1,4.64-.22,5.34,5.34,0,0,1,2.1,1.93,10,10,0,0,1,1.15,2.43,25.3,25.3,0,0,1-1.22,8.74,97.88,97.88,0,0,1-6.1,15.06c-2.36,4.81-4.92,9.49-7.63,14.09-1.35,2.3-2.78,4.56-4.2,6.83A35.48,35.48,0,0,1,482,204.52Z" fill="#750511"/>
      <path d="M478.52,207.77a3.12,3.12,0,0,1-.45,0l.77-5.14a.85.85,0,0,0-.23,0h0c.37,0,9.57-.31,59.42-25.65,2.61-9.61,1.57-17.57-3.09-23.67-12-15.71-44-15.23-44.32-15.21l-.11-5.2c1.42,0,34.95-.56,48.56,17.25,5.9,7.72,7.13,17.6,3.65,29.37l-.32,1.07-1,.51C493,205.72,481.11,207.77,478.52,207.77Z" fill="#750511"/>
      <path d="M498.68,173.25c-5.32-6.66-11.28-37-11.95-40.48l5.1-1c2.41,12.52,7.5,34,10.9,38.22Z" fill="#750511"/>
      <path d="M454.13,224.48a3.82,3.82,0,0,1-3.26-5.77l7.67-12.79a3.85,3.85,0,0,1,3.43-1.84l11.36.87a2.7,2.7,0,0,1,2.61,2.16c.43,2.12-1.46,3-2.59,3.55l-.43.21c-1.33,5.47-5.49,11.72-17.2,13.26A3.76,3.76,0,0,1,454.13,224.48Zm8.43-15.15-5.6,9.32c7.83-1.55,10.08-5.56,10.89-8.92Zm.44-.74h0Z" fill="#750511"/>
      <path d="M488.94,225a3.73,3.73,0,0,1-1.43-.29c-12.4-.37-16.41-7.56-17.51-13.89a3.81,3.81,0,0,1,3-5.86l8.06-.37a3.81,3.81,0,0,1,3.43,1.84h0l7.67,12.79a3.82,3.82,0,0,1-3.26,5.77ZM475.14,210c1.06,5.81,4.63,8.83,11.12,9.37l-5.77-9.61Z" fill="#750511"/>
      <path d="M616.22,388.26a30.53,30.53,0,0,0-3.35-5.34,39.44,39.44,0,0,0-4.09-4.67,45.73,45.73,0,0,0-9.69-7.34,55.58,55.58,0,0,0-22.37-8.78A88.62,88.62,0,0,0,564.5,361a107,107,0,0,0-12.35.62,149.05,149.05,0,0,0-24.44,4.8l-.76.2-.11,0-.46.09a3.35,3.35,0,0,1-1,0A3.25,3.25,0,0,1,523,362.3l.31-.73,1.24-2.94,2.55-5.85q2.6-5.83,5.37-11.58c3.7-7.67,7.65-15.22,11.93-22.61a195.13,195.13,0,0,1,14.22-21.42,87.76,87.76,0,0,1,9.54-8.85,50.57,50.57,0,0,1,5.39-3.65,30.2,30.2,0,0,1,5.9-2.6,39.22,39.22,0,0,0-9.34,8.3,95.39,95.39,0,0,0-7.35,10,176.65,176.65,0,0,0-13.86,20.8c-4.2,7.24-8.1,14.69-11.75,22.25q-2.74,5.68-5.3,11.44l-2.52,5.78-1.23,2.9-.31.73a2,2,0,0,0,.1-1.16,1.92,1.92,0,0,0-1.56-1.5,1.87,1.87,0,0,0-.58,0l-.26.05.09,0,.78-.21a154.2,154.2,0,0,1,25.29-5,112.08,112.08,0,0,1,13-.65,93.68,93.68,0,0,1,13,1.16,60.75,60.75,0,0,1,24.47,9.65,47.2,47.2,0,0,1,8.89,9.82A35.16,35.16,0,0,1,616.22,388.26Z" fill="#750511"/>
      <path d="M616.77,388.36,612.11,386c3.84-7.72,10.49-43.63,3.44-82.61-.75-4.12.35-8.13,1.42-12,1.19-4.33,2.31-8.42.67-12.13-44.57-90.37-77.63-98-78-98l1-5.1c1.44.29,35.9,8.18,81.64,100.92,2.43,5.5.94,10.92-.37,15.7-1,3.47-1.85,6.74-1.32,9.7C628,343.24,621,379.92,616.77,388.36Z" fill="#750511"/>
      <path d="M539.42,333.47c1.5-4.5,3.05-8.87,4.38-13.28,2-4.09,3.83-8.23,5.41-12.47a89.53,89.53,0,0,0,5.94-26.16c0-.54.08-1.14.08-1.63a14.63,14.63,0,0,0-.05-1.49,20.22,20.22,0,0,0-.49-3,32.09,32.09,0,0,0-2.16-6,65.35,65.35,0,0,0-7-11.3,107.47,107.47,0,0,0-8.83-10.29c-2.56-3.83-5.28-7.6-8.06-11.43a91.34,91.34,0,0,1,11.9,7.8c3.17,3.48,6.3,7,9.14,10.8a70.4,70.4,0,0,1,7.56,12.23,37.23,37.23,0,0,1,2.51,7,25.41,25.41,0,0,1,.61,3.81c.05.65.08,1.31.07,2s-.06,1.22-.09,1.83a94.63,94.63,0,0,1-6.26,27.71,131.35,131.35,0,0,1-5.66,12.93A95.07,95.07,0,0,1,539.42,333.47Z" fill="#750511"/>
      <path d="M422,152.58a3.78,3.78,0,0,1-1,2.8,9.44,9.44,0,0,1-2.46,1.92,23.05,23.05,0,0,1-5.64,2,66.83,66.83,0,0,1-11.24-.78,118.91,118.91,0,0,1-21.4-5.37,92.82,92.82,0,0,1-20-9.55,40.49,40.49,0,0,1-8.74-7.5,20.06,20.06,0,0,1-2.16-5.67,11.46,11.46,0,0,1,.31-5.81,14.16,14.16,0,0,0,5.84,8.14,35.48,35.48,0,0,0,7.61,6.49,87.81,87.81,0,0,0,18.88,9,113.81,113.81,0,0,0,20.44,5.13,54.3,54.3,0,0,0,10.28.68,23.8,23.8,0,0,0,5,.49,7.52,7.52,0,0,0,2.38-.4A3.23,3.23,0,0,0,422,152.58Z" fill="#750511"/>
      <path d="M409,377.3a5.72,5.72,0,0,1-3.87-2.43c-1.51-2.13-1.82-5.22-.92-9.19.31-1.38,1.57-3.9,3.77-8.24,1.77-3.49,4.44-8.76,4.66-10.2,2.65-17.18,4-44.87-14.58-86.89-1.09-2-2.16-4.07-3.24-6.15-8.17-15.71-16.63-32-37.34-40.84-44-18.87-69.63-58.5-71.35-67.93-1.79-9.84,5.31-74.62,13.51-91.62l.86-1.78,2,.34c.53.09,1.13.2,8.84,5,8.37,5.2,8.37,5.29,8.51,6.75,1.25,12.84,20.23,31,48.28,31.29a2.94,2.94,0,0,1,2.61,4.25c-3.12,6.42-.28,31.49,2.4,46.78l-5.12.9c-.65-3.71-5.79-34-3-46.82-29.54-1.57-48-20.79-50.22-34.73-2.15-1.47-8.22-5.25-11.54-7.21-7.24,19.11-13.63,77.12-12,85.95,1.41,7.74,25.91,45.92,68.28,64.08,22.42,9.61,31.71,27.46,39.9,43.22,1.08,2.08,2.16,4.15,3.25,6.17l.09.18c19.19,43.32,17.75,72,15,89.88-.32,2.1-2.25,6-5.16,11.76a74.42,74.42,0,0,0-3.34,7c-.81,3.55-.15,5.15.45,5.33a.49.49,0,0,0-.16,0ZM366.1,97.36v0ZM314.7,64.62h0Z" fill="#750511"/>
      <path d="M426,676.39c-48.68,0-75.35-14.05-76.79-14.83l-1.46-.79,3.17-50.11,5.19.33-3,46.72c8.4,3.9,52.48,21.91,124.39,8.54l4.9-.94C537,654.84,596.15,644,608.22,647.59c.67-4.86-6-24.43-10.87-38.93-5-14.86-10.74-31.7-13.5-44.57l5.08-1.09c2.7,12.58,8.35,29.27,13.34,44,10,29.51,13.41,41,9.54,44.82a4.47,4.47,0,0,1-4.93.81C596.2,648.8,520,663.39,483.37,670.4l-4.92.94A287,287,0,0,1,426,676.39Zm182.93-28.6Z" fill="#750511"/>
      <path d="M411.73,375.69l-4.83-1.93c4.65-11.63,26.58-19.77,67-24.88,29.1-3.68,57.33-4.25,57.61-4.25l.1,5.2c-.28,0-28.26.57-57.09,4.22C424.92,360.31,413.89,370.29,411.73,375.69Z" fill="#750511"/>
      <path d="M548,384.56a11.1,11.1,0,0,0-2.86,9.47c.07.8.37,1.57.4,2.33a7.3,7.3,0,0,0,.35,2.2,5.74,5.74,0,0,0,.77,1.69,1.12,1.12,0,0,0,.28.31,2.34,2.34,0,0,0,.54.21,18,18,0,0,0,4.7.23c1.75-.08,3.55-.26,5.37-.43s3.68-.36,5.61-.46c1-.05,1.94-.08,3-.05h.14a1.1,1.1,0,0,0,.27-.23,9.26,9.26,0,0,0,1.56-3.81c.35-1.81.8-3.71,1.28-5.5,1-3.62,2-7.19,3.2-10.73s2.43-7,3.86-10.53c1.09-1.59,2.19-3.17,3.43-4.66a18,18,0,0,1,4.22-4,13.24,13.24,0,0,0-1,2.59c-.27.87-.51,1.76-.71,2.66-.42,1.79-.8,3.58-1.11,5.39-1.36,3.32-2.59,6.74-3.73,10.18s-2.19,6.93-3.11,10.41c-.46,1.77-.87,3.44-1.21,5.24a18.44,18.44,0,0,1-.92,3.08,10.74,10.74,0,0,1-1.86,3.13,6.12,6.12,0,0,1-1.89,1.46,5.18,5.18,0,0,1-1.35.43,5,5,0,0,1-.72.07H566c-.81,0-1.67,0-2.54,0-1.75.09-3.56.27-5.39.45s-3.7.35-5.62.45a22.05,22.05,0,0,1-6.28-.39,7.25,7.25,0,0,1-2-.85,6.14,6.14,0,0,1-1.68-1.61,10.73,10.73,0,0,1-1.56-3.27,27.13,27.13,0,0,1-.68-3.2,9.44,9.44,0,0,1,.36-3.18,14.73,14.73,0,0,1,2.63-5.67A9.75,9.75,0,0,1,548,384.56Z" fill="#750511"/>
      <path d="M574.65,386.46s39,12,41.57,1.8c0,0-7.19-22.43-35.12-28.35C575.6,378.11,574.65,386.46,574.65,386.46Z" fill="#750511"/>
      <path d="M330.3,56.43c-12.06-6.35-29.19-4.24-29.19-4.24,2.28,9.1,8.35,17.86,19.67,26.14l9.52-21.9" fill="#750511"/>
      <path d="M351.19,68.17c30.21,18.48,18.94,30.45,18.94,30.45s-23.75.77-22.37-9.74,3.43-20.71,3.43-20.71" fill="#750511"/>
      <path d="M347.12,96.6c-9-9.7,9.69-49.59,13.53-57.49l.3-.62.57-.39a148,148,0,0,0,12.86-9.61c-.15-.58-.41-1.36-.56-1.86-.65-2-1-3.25-.17-4.49,1-1.46,1.82-2.65,2.34-3.53a2.38,2.38,0,0,0,.24-.52c-1.19-1.21-7.57-1.83-10.68-2.13-1.87-.18-3.63-.35-5.18-.59-1.45.25-4.4,7.39-5.59,17.57l-.09.74L320,77.41l-4.07-3.23L349.7,31.59c.51-4,2.48-16.58,7.28-20.23a5.41,5.41,0,0,1,4.18-1.13c1.4.22,3.09.38,4.88.56,6.67.65,13,1.26,14.88,5a5.42,5.42,0,0,1-.48,5.45c-.48.82-1.13,1.8-1.95,3l.25.79a14.81,14.81,0,0,1,.95,4.1c0,1.36,0,2.76-14.68,12.86-14.52,30-17,47.94-14.1,51.06Zm30.77-71.46h0Z" fill="#750511"/>
      <path d="M523.13,362.45s-3.81,12.27,25.39,17.35l22.43-21.16Z" fill="#750511"/>
      <path d="M435.28,699.54c-12.41,0-16.79-3.29-17.65-4.07a6.48,6.48,0,0,1-2.24-4.89,100.46,100.46,0,0,0-.82-13.57l-.54-3.51,3.33.53c1,0,6.2-.44,10.77-.81,5.81-.47,12.4-1,16.15-1.21l8.2-.48L446,676.63c-1.37,1.08-2.36,3-3.2,6.37a9.21,9.21,0,0,1,6.07,6.4,8.34,8.34,0,0,1-4,9.34l-.5.3-.58.06C440.64,699.41,437.79,699.54,435.28,699.54ZM420,679.06c.25,2.49.54,6.49.54,11.52a1.3,1.3,0,0,0,.53,1c3,2.71,14.18,3,21.57,2.36a3.06,3.06,0,0,0,1.2-3.3,4.29,4.29,0,0,0-4.25-3l-3-.12.57-3a33.8,33.8,0,0,1,2-7c-3.28.24-7.1.55-10.63.83Z" fill="#750511"/>
      <path d="M504.11,696.28H483a6.41,6.41,0,0,1-6.41-6.41l0-.66,3.46-21.37,5.13.83-3.43,21.2a1.22,1.22,0,0,0,1.21,1.21h21.11c1.71-2.21-1.47-17.39-6.62-24.84l4.28-3c4.32,6.25,10.36,23.67,7,30.15A5.07,5.07,0,0,1,504.11,696.28Z" fill="#750511"/>
      <path d="M351.23,627.83c-4.25-1.7-6.58-4.15-6.92-7.29-.61-5.6,5.9-10.59,7.45-11.7,2.76-2.89,29-28.55,90.57-28.55l11.42,0c50.66.11,113.68.27,130.28-19a15.85,15.85,0,0,0,3.78-13.13,501.43,501.43,0,0,1-21.19-50C552.81,460,547,428.73,549.32,405.35l5.17.51c-5.36,54,37.69,139.48,38.13,140.34l.19.37.06.41a21.12,21.12,0,0,1-4.92,17.7c-18.16,21.09-82.51,20.93-134.23,20.82l-11.41,0c-61.61,0-86.69,26.8-86.93,27.08l-.21.23-.25.17c-2.33,1.6-5.68,4.94-5.45,7,.16,1.41,2.38,2.5,3.69,3Z" fill="#750511"/>
      <path d="M345.19,621c-.82-1.4-19.68-34.88,16.65-89.33,2.11-8.64,4.16-18.68,6.33-29.3C375.59,466,384.82,420.81,407,373.62l4.7,2.21c-21.88,46.63-31,91.53-38.4,127.61-2.22,10.86-4.31,21.11-6.49,29.95l-.11.45-.26.38c-18.18,27.11-21.75,48.58-21.54,61.82.22,14.27,4.77,22.3,4.81,22.38Z" fill="#750511"/>
      <path d="M374.48,217.5c5.64,3.89,11,8,16.35,12.28s10.45,8.72,15.4,13.38a196.67,196.67,0,0,1,14.12,14.71,113.83,113.83,0,0,1,11.81,16.57,113.49,113.49,0,0,0-12.3-16.14,195.66,195.66,0,0,0-14.51-14.18c-5.07-4.48-10.34-8.72-15.73-12.81s-10.92-8-16.56-11.64Z" fill="#750511"/>
      <path d="M547.69,313.56c-8.47-34.73-6.09-59.5-6-60.54l5.17.52c0,.25-2.38,25,5.86,58.78Z" fill="#750511"/>
      <path d="M464.53,199.55a46.06,46.06,0,0,0-.21-22.85c-3.37-11.83,10.19-26.55,16.08-38.08-15.94,16.26-25.72,19.37-30.46,20.31C445.94,172.09,457.44,203,464.53,199.55Z" fill="#750511"/>
      <path d="M287.44,144.77c1.69-9.15,3.68-18.21,6-27.19,1.19-4.49,2.51-8.94,4-13.33l1.19-3.27L300,97.76c.46-1.06,1-2.09,1.51-3.13s1.2-2,1.79-3c-.55,1-1.17,2-1.65,3s-1,2.11-1.36,3.18l-1.18,3.26-1,3.31c-1.29,4.43-2.4,8.92-3.37,13.43-1.93,9-3.49,18.16-4.73,27.28Z" fill="#750511"/>
      <path d="M551.93,436.12c-.4,9.49-.49,19-.41,28.56s.42,19.05,1.07,28.56c.27,4.76.77,9.5,1.2,14.24.6,4.72,1.09,9.47,1.93,14.16,1.58,9.38,3.53,18.78,7.19,27.62-3.86-8.76-6-18.14-7.83-27.51-.94-4.69-1.55-9.43-2.25-14.16-.54-4.75-1.15-9.49-1.52-14.25-.87-9.52-1.42-19.07-1.72-28.62s-.43-19.11-.24-28.7Z" fill="#750511"/>
      <path d="M546.16,400.24c-6.3,3.91-12.68,7.6-19.13,11.19s-13,7-19.6,10.29-13.33,6.33-20.14,9.15a205.64,205.64,0,0,1-20.86,7.32,205.29,205.29,0,0,0,20.6-7.92c6.71-3,13.3-6.29,19.81-9.71s12.89-7.07,19.22-10.82,12.58-7.63,18.68-11.67Z" fill="#750511"/>
      <path d="M541.1,392.3a7.19,7.19,0,0,1-1,.19c-.31,0-.6.06-.9.09-.6.05-1.18.07-1.76.09-1.16,0-2.31,0-3.46,0-2.29-.07-4.57-.22-6.84-.41-4.54-.38-9-1-13.54-1.57s-9-1.34-13.43-2.11-8.92-1.59-13.37-2.42c4.49.62,9,1.24,13.46,1.78s9,1,13.49,1.46,9,.76,13.51.92c2.25.08,4.5.12,6.73.08,1.12,0,2.23-.07,3.33-.14.54-.05,1.1-.09,1.62-.16.26,0,.54-.06.78-.12a6.26,6.26,0,0,0,.62-.13Z" fill="#750511"/>
      <path d="M540.46,395.87c-.95-1.37-5.58-8.48-3.81-13.59,1.07-3.11,3.75-4.37,6.1-5.48a14.92,14.92,0,0,0,5.9-4.17l4.07,3.23a19.7,19.7,0,0,1-7.75,5.64c-2,.95-3.07,1.49-3.41,2.49-.68,2,1.5,6.49,3.18,8.94Z" fill="#750511"/>
      <path d="M542.62,390.45a16.64,16.64,0,0,1,2-3.51,20.8,20.8,0,0,1,2.54-2.93,21,21,0,0,1,3-2.39,23.36,23.36,0,0,1,3.28-1.82,23,23,0,0,0-2.87,2.33,20,20,0,0,0-2.4,2.74,19.16,19.16,0,0,0-1.84,3.07,14.65,14.65,0,0,0-1.15,3.21Z" fill="#750511"/>
      <path d="M488.44,200s40.2-16.08,40.41-42.73c2.32-1,7.61,11.27,5.29,12.27-4.86,2.09,5.16,9.84,2.12,11.42C527,185.7,488.44,200,488.44,200Z" fill="#750511"/>
      <path d="M419.9,156.82A19.93,19.93,0,0,0,417,172.91a14.37,14.37,0,0,0,4.49,7.18,20.12,20.12,0,0,0,7.79,3.91,20.45,20.45,0,0,1-8.2-3.41,15.35,15.35,0,0,1-5.32-7.29,20.64,20.64,0,0,1-1-9.11,21.25,21.25,0,0,1,2.95-8.86Z" fill="#750511"/>
      <path d="M509.59,585S359.39,597.7,353.46,645.09c3-20.73-7.62-25.39-7.62-25.39S344.58,574.85,509.59,585Z" fill="#750511"/>
      <path d="M540.06,419.15c-2.16,4.2-4.4,8.32-6.62,12.44S529,439.81,526.91,444s-4.15,8.33-6,12.6a67.63,67.63,0,0,0-2.4,6.51,28.07,28.07,0,0,0-1.34,6.83,21,21,0,0,1,.1-7.12,45.88,45.88,0,0,1,1.74-6.93,92.41,92.41,0,0,1,5.55-13.08,141,141,0,0,1,7.1-12.24A111.49,111.49,0,0,1,540.06,419.15Z" fill="#750511"/>
      <path d="M620.5,288.7a93,93,0,0,1-11.65,28.38,145.39,145.39,0,0,1-18.83,24,144.74,144.74,0,0,0,17.71-24.67A91.09,91.09,0,0,0,618,288.17Z" fill="#750511"/>
      <path d="M347.31,565.13a34,34,0,0,1,3.18-8.49c1.3-2.66,2.74-5.21,4.21-7.74,3-5,6.09-10,9.26-14.86,6.35-9.77,12.87-19.41,19.25-29.14s12.65-19.53,18.4-29.63c2.87-5.05,5.61-10.18,8-15.48A65.59,65.59,0,0,0,415,443.27a65.75,65.75,0,0,1-5.11,16.65c-2.31,5.35-5,10.54-7.75,15.66-5.57,10.23-11.68,20.16-17.88,30s-12.54,19.62-18.69,29.48c-3.07,4.93-6.1,9.89-8.93,14.94-1.4,2.53-2.78,5.07-4,7.67a32.07,32.07,0,0,0-2.81,7.85Z" fill="#750511"/>
      <path d="M479.69,207.76c0-.09-.15-9.35-9.35-9.74a5.09,5.09,0,0,0-4.2,1.38c-1.82,2-1.84,5.78-1.7,7l-5.16.6c-.08-.71-.7-7.06,3.06-11.11a10.15,10.15,0,0,1,8.22-3c10.47.45,14.3,9.16,14.32,14.91Z" fill="#750511"/>
      <polygon points="413.71 350.56 435.34 317.6 415.93 351.91 413.71 350.56" fill="#750511"/>
      <path d="M400.43,395.66S436,353.78,531.17,351.24c.42-4-10.79-3.81-10.79-3.81s-83.78,3.17-107.26,22.21C403,389.32,400.43,395.66,400.43,395.66Z" fill="#750511"/>
      <path d="M528.15,163.94a13,13,0,0,0,.57-3.06,12.31,12.31,0,0,0-.18-3.2,9.12,9.12,0,0,0-1.16-3,9.69,9.69,0,0,0-2.22-2.51,9.94,9.94,0,0,1,4.62,5.16,13.92,13.92,0,0,1,.89,3.52,15.1,15.1,0,0,1,0,3.73Z" fill="#750511"/>
      <path d="M439.84,687.62c-.85-.11-1.77-.17-2.66-.2s-1.81,0-2.71,0a16.41,16.41,0,0,0-2.68.34,7.66,7.66,0,0,0-2.54,1,8,8,0,0,1,2.33-1.59,17.34,17.34,0,0,1,2.67-1c.91-.28,1.84-.5,2.77-.69s1.86-.34,2.85-.45Z" fill="#750511"/>
      <path d="M504.65,688.86a5.13,5.13,0,0,0-.35-2,5.08,5.08,0,0,0-1.16-1.79,7.74,7.74,0,0,0-4.2-1.89,19.77,19.77,0,0,0-5,0,44.44,44.44,0,0,0-5.08.94,44.68,44.68,0,0,1,5-1.57,20.7,20.7,0,0,1,5.27-.64,9.35,9.35,0,0,1,5.35,1.7,7.2,7.2,0,0,1,2,2.3,7.4,7.4,0,0,1,.9,3Z" fill="#750511"/>
      <path d="M464.32,176.7s7,23.48,30,6.56C485.05,202.09,482,204.52,482,204.52s-5-14.07-19.15-7.09C460.94,187.7,464.32,176.7,464.32,176.7Z" fill="#750511"/>
      <path d="M608.7,653S526.19,665,507,673.82c-5.85-5.85-7.8-6.82-3.9-9.74S605.45,646.21,608.7,653Z" fill="#750511"/>
      <path d="M480.71,680s-33.46,3.57-40.28,1.62c5.52-7.8,6.5-8.45,18.52-9.42S485.62,664.84,480.71,680Z" fill="#750511"/>
      <path d="M416.72,681.5s-41.58-10-45.48-12.13c35.95,4.33,45.91,4.33,45.91,4.33Z" fill="#750511"/>
      <path d="M482,585.48a166.34,166.34,0,0,1-10.17,17.1,153.5,153.5,0,0,1-12.1,15.72,100.68,100.68,0,0,1-14.41,13.59A58.6,58.6,0,0,1,428,641.22a58.28,58.28,0,0,0,16.94-9.86,99.72,99.72,0,0,0,13.82-13.92,151.88,151.88,0,0,0,11.45-15.94,164.37,164.37,0,0,0,9.45-17.14Z" fill="#750511"/>
      <path d="M540.16,578.85a115.7,115.7,0,0,0,1.95,23.27,139.39,139.39,0,0,0,6.28,22.65,140,140,0,0,1-7.55-22.38,117.64,117.64,0,0,1-3.27-23.52Z" fill="#750511"/>
      <path d="M554.53,190a14,14,0,0,0-6.89-4.09,9.57,9.57,0,0,0-7.73,1.79,22,22,0,0,0-5.64,6.49,53.51,53.51,0,0,0-3.86,7.93,53.83,53.83,0,0,1,3.3-8.25,22.92,22.92,0,0,1,5.41-7.2,12.32,12.32,0,0,1,4.08-2.29A10.7,10.7,0,0,1,548,184a14.19,14.19,0,0,1,4.53,1.48,17.42,17.42,0,0,1,3.92,2.75Z" fill="#750511"/>
    </g>
  </g>
</svg>
