<svg xmlns="http://www.w3.org/2000/svg" viewBox="0 0 700 700">
  <title>Artboard 2 copy 6</title>
  <g id="Main">
    <g>
      <path d="M146.23,334.16l2.78-7.41,30.57,24.09s70.4,70.4,96.34,63.92c16.16-4,72.36-37.53,113-57.9,24.6-12.32,44-16.21,44-16.21l-128.3,91.71s-25.94,18.53-65.77-6.48C193.48,381.4,146.23,334.16,146.23,334.16Z" fill="#f7982d"/>
      <path d="M402.83,361c4.76,84.68,16.32,160.27,38,222.32l-51.88,8.34-27.79-6.48-6.48-15.75s13-42.61,12-68.55C354.1,472.61,389.44,358.33,402.83,361Z" fill="#f7982d"/>
      <path d="M418.58,350.83s-17.6,12-13.9,44.46C396.81,366.58,392.64,355.46,418.58,350.83Z" fill="#f7982d"/>
      <path d="M570.75,349.94s7.62,73.61,35.41,64.81c-7.87,20.38-26.86,38-26.86,38S560.56,384.22,570.75,349.94Z" fill="#f7982d"/>
      <path d="M432,556.94s-3.47,20.15,80.59,16.67,43.08,43.77,43.08,43.77l-51.41-20.15-75.73-11.81Z" fill="#f7982d"/>
      <path d="M324.32,419.38s7.18,90.78-5.79,102.82-34,40-36.13,45.39c-2,5,50.19-7,46.78-3.71l25.47,5.56s17.6-91,9.26-134.09L357,395.76Z" fill="#f7982d"/>
      <path d="M291,456.2c4.17,9.64,8.43,19.08,19.68,11.12,0,0-10,36.82-18.3,50.72l-.69-51.41Z" fill="#f7982d"/>
      <path d="M124.23,331.15s63.92,98.66,75,96.57,23.62-8.34,23.62-8.34l-77.81-81.29Z" fill="#f7982d"/>
      <path d="M312,322.58s-21.77,33.81-3.24,32.89L279.63,355Z" fill="#f7982d"/>
      <path d="M385.46,256.46s38.91-5.91,49.33,25.71c1.39-18.06-11.12-35.09-40.64-36.47C383.38,254.38,385.46,256.46,385.46,256.46Z" fill="#f7982d"/>
      <path d="M304.17,336.7s86.5-78.86,94.14-80.94-13.9-2.78-13.9-2.78l-77.12,73.3Z" fill="#f7982d"/>
      <path d="M501.49,250.79s16.67,6.95,16.21,12.51c2.78,8.8,7.87,19,17.6,17.14s15.28,3.24,16.21-6a67,67,0,0,1-28.25-7.87l.93-11.12Z" fill="#f7982d"/>
      <path d="M448.22,220.22c16.23,7.2,26.44,14.85,56.51,16.67l5.1,14.82S438,235,408.85,241.52A31.8,31.8,0,0,1,418.58,229Z" fill="#f7982d"/>
      <path d="M532.06,348.05s-17.6,53.26-15.28,96.34,7.87,70.87,7.87,70.87C522.29,454.14,523,396.49,532.06,348.05Z" fill="#f7982d"/>
      <path d="M314.36,250.32s20.38,10.19,25.94,15.75-2.78,14.82,9.26,14.82c-15.75,18.53-25.94,26.86-25.94,26.86S310.66,295.71,314.36,250.32Z" fill="#f7982d"/>
      <path d="M261.1,230.41s36.13-12,35.2,48.17-3.71,61.6-3.71,61.6l-17.6,13s-13.2.58-22.93-5C277.77,326.28,296.63,236.21,261.1,230.41Z" fill="#f7982d"/>
      <path d="M210.61,313.78,206,333.23l9.26,2.78S207.83,330.92,210.61,313.78Z" fill="#f7982d"/>
      <path d="M134.65,316.09s10.65,10.19,17.14,4.17c-9.26,17.6-6.72,17.83-6.72,17.83l-17.37-10Z" fill="#f7982d"/>
      <path d="M452.8,653.49,361.15,585.2l-6.48-15.75s-66.7,3.71-74.11,13c0,0-25.31,43.66-48,71.07Z" fill="#f7982d"/>
      <path d="M347.94,241.52s-16.91,9.73-7.64,24.55c-29.18-19-25.94-15.75-25.94-15.75l-8.8-19.92Z" fill="#f7982d"/>
      <path d="M294,255.88s16.67,20.84,16.67,0v59.75S301.86,336,294.91,336,294,255.88,294,255.88Z" fill="#f7982d"/>
      <polygon points="132.6 334.07 148.9 338.59 224.04 418.27 206.84 424.61 132.6 334.07" fill="#c45937"/>
      <path d="M262.42,351s36.51-27.16,33.52-84.94c3.35,38.78,14.3,34.23,14.3,34.23l-8.76,32.44-26.19,20.56Z" fill="#c45937"/>
      <path d="M323.34,256.34s1.48,37.41,19.2,33.6L317.77,311.3l-6.59-59.18-.74-8.68Z" fill="#c45937"/>
      <path d="M247.58,428.23s60.43-4.07,118.83-44.14l-47.53,36S297.83,435,283.57,435,247.58,428.23,247.58,428.23Z" fill="#c45937"/>
      <path d="M334.5,408.31s10.25,121.12-22.35,155.08c8.83,2,42.72-1.39,42.72-1.39,9.12-21.86,10.62-57,11.54-93l-11.54-76.05Z" fill="#c45937"/>
      <path d="M301.92,653.49h37.43c8.89-27,17.47-52.65,25-74.52-9.51-1.36-9.51-17-9.51-17L323,560C333.23,573.66,320,613,301.92,653.49Z" fill="#c45937"/>
      <path d="M228.17,653.49H245L277.24,630c-16.57,2.47-19.14-7.05-13.58-23.54l-36.51,47h.51Z" fill="#c45937"/>
      <path d="M566.6,401.47c5.24,17,16.13,25.85,28.52,32.59l-19.69,19.69S564.56,416.41,566.6,401.47Z" fill="#c45937"/>
      <polygon points="430.25 222.48 447.19 241.72 403.09 241.49 413.95 229.27 430.25 222.48" fill="#c45937"/>
      <g>
        <path d="M484.52,204.82l4.18-7.23c-11.83-44.8-13.68-81.87-14.2-117.91L423.79,61.43c-66.74-14.5-123.38,46.7-27.38,51.73,8.11,9.38,2.66,34.86,2.66,34.86l7.48,15.85a176.3,176.3,0,0,1,6.68-27.45c3.79-11,9.28-21.33,16.65-22.25,10.41-1.16,11,11.79,9.6,23.13a118.81,118.81,0,0,1-3.26,16.17s15.59,10.65,22.06,15.21C475.77,182.76,484.52,204.82,484.52,204.82Z" fill="#750511"/>
        <g>
          <path d="M403.51,360.38q-18.29,14.6-36.75,28.94l-9.23,7.17c-3.07,2.39-6.14,4.8-9.37,7-6.41,4.42-12.72,9-19.08,13.47L310,430.46a53.92,53.92,0,0,1-22.79,9A61.73,61.73,0,0,1,262.82,438a78.38,78.38,0,0,1-11.49-4c-1.86-.8-3.68-1.68-5.48-2.62a58.91,58.91,0,0,1-5.35-3.15l-.17-.11-.18-.17-96.61-91.28-1.64-1.55,1-2,11.41-22.82,1.35-2.71L158.4,309c25,12.34,50.35,23.89,76.78,32.23,3.29,1.08,6.63,2,9.95,2.94,1.66.49,3.35.86,5,1.28s3.34.89,5,1.38c3.32,1,6.68,1.76,10,2.65s6.76,1.48,10.14,2.23a209.62,209.62,0,0,0,41.47,4.13,191.07,191.07,0,0,1-42.1,0c-3.49-.46-7-.81-10.5-1.37s-7-1.1-10.44-1.81-6.9-1.55-10.27-2.59-6.79-1.91-10.14-3c-26.91-8.49-52.56-20.18-77.65-32.58l4.07-1.37-11.41,22.82-.63-3.57,96.61,91.28-.35-.29c12.33,7.79,27.81,12.35,42.3,10.18a47.8,47.8,0,0,0,20.25-8l19-13.46c6.34-4.53,12.73-9,19-13.57,3.12-2.33,6.4-4.43,9.68-6.55l9.82-6.35Q383.67,372.79,403.51,360.38Z" fill="#750511"/>
          <path d="M407.56,511l1.08,19,1,19,.87,19c.42,6.34.05,12.68.14,19l-3.72-3c6.66-1.44,13.21-2.52,19.85-3.49s13.28-1.73,19.95-2.31a312.64,312.64,0,0,1,40.18-1.07c6.71.28,13.42.78,20.1,1.67a175.5,175.5,0,0,1,19.91,3.64,135.36,135.36,0,0,1,19.38,6.2,109.68,109.68,0,0,1,18.16,9.5L559.71,601q-2.24-31.5-3.56-63.06t-1.23-63.18c.07-21.08.74-42.16,2.28-63.24,1.18-10.5,2.93-21,4.92-31.34,2.26-10.34,4.82-20.64,8.73-30.43L569,357.4c-.34,1.26-.53,2.57-.76,3.86l-.66,3.88-.68,3.86-.49,3.9-1,7.79c-.39,5.23-1,10.41-1.28,15.64s-.62,10.44-.79,15.67c-1.75,20.84-2.25,41.81-2.37,62.77s.36,41.95,1.23,62.91,2.05,41.92,3.54,62.86l.44,6.12-5.16-3.37A103.65,103.65,0,0,0,544,594.36a129.31,129.31,0,0,0-18.52-5.92,169.45,169.45,0,0,0-19.25-3.51c-6.48-.86-13-1.35-19.58-1.62a306.6,306.6,0,0,0-39.4,1,334.84,334.84,0,0,0-39,5.68l-3.77.8.05-3.76c.09-6.34-.28-12.68.14-19l.87-19,1-19Z" fill="#750511"/>
          <path d="M353.3,395.37a170.93,170.93,0,0,1,8.74,25c.63,2.13,1.15,4.28,1.68,6.43a53.33,53.33,0,0,1,1.41,6.5c.42,4.41,1.27,8.76,1.61,13.17a357.85,357.85,0,0,1,1.68,53,372.17,372.17,0,0,1-6.17,52.6L359.6,565c-.1.52-.24,1.11-.31,1.58l-.2,1.37a19.73,19.73,0,0,0-.08,2.78,13.12,13.12,0,0,0,1.3,5.13,17.25,17.25,0,0,0,8.13,7.36,33.19,33.19,0,0,0,5.63,2.13,38.07,38.07,0,0,0,5.88,1.2l-2.62,1.08c3.9-5,7-11.29,9.64-17.57s5.06-12.84,7.2-19.43a93.45,93.45,0,0,1,3.47-9.82c1.23-3.26,2.42-6.53,3.55-9.83,2.31-6.59,4.47-13.24,6.37-20-.56,7-1.57,14-2.79,20.94-.63,3.47-1.33,6.93-2.06,10.39l-1.15,5.18c-.4,1.73-1,3.37-1.59,5-2.22,6.7-4.62,13.36-7.4,19.91l-2.17,4.89c-.8,1.61-1.55,3.23-2.41,4.83a60.09,60.09,0,0,1-6,9.36l-1,1.27-1.61-.18a43.42,43.42,0,0,1-7-1.4,39.23,39.23,0,0,1-6.65-2.53,23.25,23.25,0,0,1-10.89-10.11c-2.41-4.72-2.31-10.38-1.22-14.82L356.27,551a366.06,366.06,0,0,0,6.07-51.76,351.78,351.78,0,0,0-1.65-52l-.33-3.24-.44-3.23c-.29-2.15-.59-4.3-1-6.44-.7-4.28-.81-8.66-1.42-13A249.1,249.1,0,0,0,353.3,395.37Z" fill="#750511"/>
          <g>
            <path d="M519.37,250.67q7.47,2.3,15,5a14.48,14.48,0,0,0-8,.07c-.09.66-.22,1.35-.35,2-.09.46-.18.92-.26,1.36-2.36-.79-4.7-1.55-7.06-2.27-39.9-12.45-79-16.26-116.85-11.34a0,0,0,0,0,0,0c-1.53.18-3.06.41-4.57.63l-2,1.68c-42.65,36.45-98.78,90.59-113.66,105l-3.41,3.32-.33.33-.39-.41-3.87-3.95s.28-.26.68-.66c2-1.94,8.19-8,17.09-16.5,1.18-1.12,2.4-2.3,3.67-3.54,1.09-1,2.21-2.08,3.36-3.19l8.48-8.08,2.25-2.14c4.9-4.65,10.14-9.59,15.62-14.71,10.77-10.09,22.4-20.87,34-31.38,2.54-2.32,5.11-4.61,7.63-6.88,9.4-8.44,18.68-16.58,27.33-23.93l.22-.18.66-.55.85-.13c2.21-.33,4.43-.65,6.64-.9.81-.11,1.62-.22,2.43-.31,1.86-.2,3.72-.41,5.59-.57,31.16-2.91,63.1-.13,95.55,8.32q3.62.94,7.25,2C515.05,249.36,517.21,250,519.37,250.67Z" fill="#750511"/>
            <path d="M600.48,430.89,561,477.21l-2.32-2-2.3-2,2.08-2.45,2.62-3.06,20.12-23.6,14.73-17.28c.33-.39,27-32.69-22.13-137.15q-2-4.18-4.09-8.5c-.85-1.73-1.71-3.5-2.62-5.27q-7-3.37-14.05-6.38c-2.3-1-4.61-2-6.9-2.89a12.7,12.7,0,0,0,.18-1.73c-.31-1-2.58-4.28-6.58-6.84a21.73,21.73,0,0,0-2.69-1.46q8.19,3,16.41,6.49v0q8.57,3.6,17.19,7.76l.94.46.46.9C633.15,393,601.84,429.39,600.48,430.89Z" fill="#750511"/>
          </g>
          <path d="M565.56,602.14s5.47,21.73-17.15,16.41l-2.66-26.17Z" fill="#750511"/>
          <path d="M508.17,253.44l-11.24-29.63c-.56-1.09-9.11-14.86-73.07,4-11.82,5.53-16.57,14.65-16.62,14.74l-5.44-2.73c.23-.45,5.71-11.17,19.7-17.63l.41-.16c46.64-13.8,66.55-11,75-6.22,4.26,2.4,5.49,5.18,5.79,6.11l11.13,29.33Z" fill="#750511"/>
          <path d="M353.81,79.94a48.66,48.66,0,0,0,.27,7.25q.27,3.62.62,7.24c.45,4.83.89,9.64,1.43,14.45.2,9.62.57,19.24,1.29,28.82s1.76,19.12,3.32,28.55a152.64,152.64,0,0,0,6.91,27.55,60.79,60.79,0,0,0,6.07,12.37c2.47,3.74,5.57,7,9.24,8.73a16.46,16.46,0,0,0,12,.63,29.81,29.81,0,0,0,3.1-1.1l3.28-1.4c2.19-.93,4.33-2,6.48-3a119.93,119.93,0,0,0,12.35-6.89,63,63,0,0,0,10.9-8.58,37.4,37.4,0,0,0,9-10.16,20.72,20.72,0,0,0,2.4-6.41,14.9,14.9,0,0,0-.19-7,15.69,15.69,0,0,1,2,7.16,23.32,23.32,0,0,1-1,7.61A37.26,37.26,0,0,1,435.45,199c-7.48,7-16.08,12.15-24.93,16.49-2.23,1.06-4.45,2.12-6.71,3.08l-3.39,1.45a36,36,0,0,1-3.74,1.32,25.41,25.41,0,0,1-8.14,1,20.65,20.65,0,0,1-8.16-2c-5.11-2.45-8.85-6.58-11.7-10.85A66.72,66.72,0,0,1,362,195.93a158.47,158.47,0,0,1-7.21-28.68c-1.61-9.67-2.66-19.38-3.39-29.1s-1.15-19.45-1.27-29.17c.39-4.87.78-9.73,1.34-14.58S352.46,84.66,353.81,79.94Z" fill="#750511"/>
          <path d="M414.21,233.94l-5.44-2.72c3.2-6.41-4.92-13.79-5-13.86l4-4.55C408.29,213.24,419.51,223.36,414.21,233.94Z" fill="#750511"/>
          <rect x="482.24" y="175.51" width="6.09" height="42.27" transform="translate(-35.07 138.31) rotate(-15.66)" fill="#750511"/>
          <path d="M158.48,309l-.09-.06-16.8-10.45-1.68,2.21c-.18.26-.39.52-.59.77-.9,1.2-1.81,2.42-2.69,3.67-.37.52-.74,1-1.09,1.57-.5.7-1,1.44-1.46,2.16a69.18,69.18,0,0,0-6.16,11,20.53,20.53,0,0,0-1.7,6.14,8.21,8.21,0,0,0,0,1.79v0a5.41,5.41,0,0,0,1,2.51s.79,1,2,2.27c2.82,3,8.19,7.91,13,7.91a6.45,6.45,0,0,0,1.2-.11,6.38,6.38,0,0,0,2.64-1.2,7,7,0,0,0,2.3-3.45l.11-.33-.29-.09-5.53-1.66a2.1,2.1,0,0,1-.33.74l-.09,0c-1.51.28-6.75-3.43-10.1-7.67-.35-2.42,4.55-11.36,10.92-20.1l10,6.2,2.36,1.46,3.21-5.16Z" fill="#750511"/>
          <path d="M121.54,326c-9,0-19.26-.63-22-3.3a4.07,4.07,0,0,1-1.29-2.94A54.39,54.39,0,0,0,96,313.32c-4-10.36-9.4-24.55-2-29.52,2.49-1.66,6-2.07,10.34-1.22l-1.17,6c-2.62-.51-4.73-.4-5.79.31-3.4,2.27,2.17,16.81,4.27,22.28a53.67,53.67,0,0,1,2.52,7.38c3.24,1.2,15.28,1.64,25.39,1.28l.22,6.08C127.36,326,124.51,326,121.54,326Z" fill="#750511"/>
          <path d="M137.61,308.65c-3.51-2.34-5.32-7.58-7.07-12.64-1-3-2.13-6.16-3.37-7.93-.43-.62-2.26-.71-5.37.47l-2.15-5.69c7.38-2.79,10.87-.59,12.51,1.74s2.89,5.85,4.13,9.43,2.89,8.36,4.7,9.56Z" fill="#750511"/>
        </g>
        <path d="M554.81,653.49l-5.25-58.82c-49.19-26.37-142-7.61-142-7.61v-71.5s-23.83,72.52-27.89,74-20.29-7.1-20.29-7.1-16.72,32.1-36.63,71Z" fill="#750511"/>
        <path d="M582,445.57c-10.42-17.94-12.89-50.8-13.19-87.73-1.49-.37-12.83,72.36-10.14,117.4C572.38,453.18,582,445.57,582,445.57Z" fill="#750511"/>
        <path d="M366.23,512.51c4.86-64.67,21.4-124.1,37.27-152.14l-50.2,35C361.48,410.27,364.69,476.66,366.23,512.51Z" fill="#750511"/>
        <path d="M412.13,230.3c34.38-21.78,36-38.58,31.95-54.52-3.48,18.5-18,29.86-36.77,38.54C415.49,229.23,412.13,230.3,412.13,230.3Z" fill="#750511"/>
        <path d="M394.85,244.76a50,50,0,0,1,15.39,3,38.26,38.26,0,0,1,13.34,8,32.82,32.82,0,0,1,4.95,6,33.53,33.53,0,0,1,3.32,7,44.7,44.7,0,0,1,2.09,15.12,44.33,44.33,0,0,0-2.81-14.86,32.58,32.58,0,0,0-3.55-6.61,31.49,31.49,0,0,0-5-5.51,36.37,36.37,0,0,0-13-7,47.59,47.59,0,0,0-14.59-2.08Z" fill="#750511"/>
        <path d="M540.43,323.87a19.19,19.19,0,0,0-3.17,5.38,61.84,61.84,0,0,0-2.12,5.9c-.6,2-1.23,4-1.65,6.05s-1,4.06-1.36,6.13c-.75,4.12-1.59,8.22-2.1,12.38l-.9,6.22c-.26,2.08-.46,4.17-.69,6.25-1,8.32-1.56,16.69-2.2,25.05-.4,8.38-1.08,16.74-1.24,25.14L524.54,435c-.16,4.19-.14,8.39-.25,12.59L524,460.13c-.08,4.2,0,8.4-.09,12.6l-.24,50.43c-.56-8.39-.92-16.79-1.38-25.2s-.55-16.81-.76-25.23c-.08-4.21-.22-8.41-.2-12.62l0-12.62c0-4.21,0-8.42.16-12.62l.4-12.62c.15-4.21.3-8.41.61-12.62l.81-12.61c.35-4.2.8-8.39,1.19-12.59s1-8.38,1.52-12.55c.29-2.09.55-4.18.87-6.26l1.1-6.23c.67-4.16,1.67-8.27,2.61-12.39.46-2.06,1.14-4.07,1.7-6.1s1.29-4,2-6C535.9,331,537.42,326.88,540.43,323.87Z" fill="#750511"/>
        <path d="M477,371a59.39,59.39,0,0,1,3.62,8.87l1.41,4.59,1.2,4.65c.43,1.55.68,3.13,1,4.69s.66,3.14.91,4.72c.46,3.17,1,6.33,1.33,9.52s.7,6.37.87,9.57l.47,9.6c0,6.4.09,12.81-.31,19.2-.23,6.4-.9,12.76-1.52,19.13-.27,3.19-.8,6.34-1.23,9.51l-1.39,9.48q-1.73,9.42-3.67,18.8c-1.56,6.19-3,12.4-4.67,18.56,1-6.31,2.14-12.57,3.2-18.84L481,484.14c1.48-12.62,3-25.23,3.45-37.91.45-6.33.38-12.67.48-19l-.25-9.5c-.11-3.17-.4-6.32-.57-9.48s-.66-6.3-.94-9.46-.85-6.28-1.42-9.4A95.73,95.73,0,0,0,477,371Z" fill="#750511"/>
        <path d="M570.81,273.3a188,188,0,0,1,4.26,28.75c.53,9.66-.19,19.55-3.46,28.66,2.78-9.27,3-19,1.94-28.54a185.8,185.8,0,0,0-5.7-28.16Z" fill="#750511"/>
        <polygon points="151.43 327.07 179.1 349.73 150.49 328.27 151.43 327.07" fill="#750511"/>
        <path d="M281.74,571.41c-3.65-2.22-9.57-9-5.83-18.89.63-1.66,1.34-3.45,2.11-5.37,8.28-20.79,22.14-55.58,2.46-106.56l5.68-2.19c20.54,53.21,5.56,90.8-2.49,111-.75,1.89-1.45,3.65-2.07,5.27-2.9,7.66,3,11.38,3.3,11.54Z" fill="#750511"/>
        <path d="M231.29,653.49l2.29-2.72c23.37-27.75,45.47-54,52.27-79.58a119.07,119.07,0,0,1,48.05-5.27,89.21,89.21,0,0,1,18.33,3.69c6.68,26.54,35.15,44.77,82.52,52.79,35.86,6.07,70.51,4.24,70.85,4.22l-.34-6.08c-1.36.07-134.48,6.73-147.47-53.89l-.34-1.59-1.5-.6c-.33-.13-8.15-3.22-21.16-4.57a125.47,125.47,0,0,0-52.44,6l-1.6.53-.39,1.64c-5.93,24.73-29.06,52.19-51.43,78.75l-5.58,6.64Z" fill="#750511"/>
        <path d="M508.46,653.49c-1.75-16.6-2-25.79-1.06-27.89a2.17,2.17,0,0,1-1.75,1l-.44-6.07a3.85,3.85,0,0,0-3,1.86c-.93,1.46-2.66,4.2.12,31.09Z" fill="#750511"/>
        <path d="M199.06,429.88c-3.83,0-13-3-47.18-52.17C134.17,352.2,118.1,326.23,117.94,326l5.18-3.2c.16.26,16.15,26.1,33.77,51.48,33.76,48.6,41.78,49.56,42.55,49.52,14.25-.95,29.88-10.6,30-10.7l3.22,5.16c-.69.43-17.06,10.56-32.85,11.61C199.61,429.86,199.35,429.88,199.06,429.88Z" fill="#750511"/>
        <path d="M125.13,287.67c-.28-.35-.57-.66-.87-1a24.77,24.77,0,0,0-2.93-2.8c-.48-.39-1-.76-1.46-1.09-5.73-4-11.93-4.41-17.61-1.11l-.89.52-.57.33-.09,3a20.24,20.24,0,0,1-.3,2.42l-.06.33c-.77,5.07-1.73,13.24,10.44,19.32a18.94,18.94,0,0,0,8.26,2.3l1.48-.09a9.06,9.06,0,0,0,3.48-1.24,10.51,10.51,0,0,0,4.31-5.83,21.24,21.24,0,0,0,.94-6.23C129.28,294.09,127.62,290.72,125.13,287.67Zm-11.6,14.46c-8.48-4.24-7.8-8.63-7.1-13.29.15-.9.28-1.77.33-2.6,3.48-1.4,7.08-.59,10.73,2.38s5.62,6.84,5.7,7.87c0,2.64-.65,5.83-2.34,6.86C119.43,304.21,116.83,303.79,113.53,302.13Z" fill="#750511"/>
        <path d="M302.95,331.84l-4.78-3.77c7.56-9.57,18.89-63,4.28-92.15-6.34-12.67-16.84-18.92-31.23-18.54-56,1.44-70.7,111.85-70.84,113l-6-.77a278.1,278.1,0,0,1,14.82-57.95c14.91-38.81,36.32-59.68,61.91-60.33,16.67-.43,29.44,7.15,36.82,21.9C323.34,264,312.05,320.3,302.95,331.84Z" fill="#750511"/>
        <path d="M360.29,272c-21.46,0-52.64-24.4-54.14-25.59l3.77-4.78c10.85,8.57,42.14,29.44,56.35,23.18l2.45,5.57A20.83,20.83,0,0,1,360.29,272Z" fill="#750511"/>
        <path d="M335,222.7c-38.24,0-42.62-99.29-42.79-103.52l6.08-.24c1.08,27.17,9.79,97.68,36.71,97.68,23.18,0,28.82-16.69,29-17.4l5.8,1.82C369.83,201.25,362.83,222.7,335,222.7Z" fill="#750511"/>
        <path d="M315.26,234.74a92.23,92.23,0,0,1-12.6-.92l.88-6c9.14,1.33,23.34,1.44,26.29-2.48.25-.33,1-1.32-.22-4l5.55-2.49c2.23,5,1,8.29-.47,10.2C331.19,233.61,322.71,234.74,315.26,234.74Z" fill="#750511"/>
        <path d="M301.07,176.8S264.55,126.6,298,87s76.2.31,65.55,9c-11,0-12.3-3.42-11.28,30.55C332.65,105.35,292.42,114.41,301.07,176.8Z" fill="#750511"/>
        <circle cx="341.27" cy="69.58" r="17.12" fill="#750511"/>
        <path d="M366.49,202.16s43.61,42.6,3.55,48.68c-5.1-.19-61-13.1-64.4-18.26C333,235.12,335,219.65,335,219.65,346.42,219.83,357.28,216.53,366.49,202.16Z" fill="#750511"/>
        <path d="M246.1,653.49c2.74-2.06,5.47-4.13,8.22-6.18q27.58-20.54,55.63-40.46-28.45,19.33-56.53,39.23-5.17,3.69-10.32,7.41Z" fill="#750511"/>
        <path d="M287.24,529.42c5.57-12.87,10.79-26,15.46-39.2,2.32-6.63,4.51-13.31,6.31-20.1.89-3.39,1.71-6.81,2.27-10.28s1-7,.18-10.46c.9,3.42.6,7,.19,10.52s-1.13,7-1.91,10.41c-1.56,6.88-3.51,13.67-5.6,20.4-4.21,13.47-9,26.73-14.1,39.9Z" fill="#750511"/>
        <path d="M290.19,341.85c2-10.86,3.37-21.9,4.33-32.93a252.46,252.46,0,0,0,.86-33.21,129.45,129.45,0,0,0-1.78-16.49,62.09,62.09,0,0,0-4.81-15.79c-2.37-4.92-5.95-9.52-11-11.83s-10.94-2-16.26-.54a30.9,30.9,0,0,1,8.22-1.35,20.13,20.13,0,0,1,8.2,1.54c5.23,2.24,9,6.88,11.54,11.84A63,63,0,0,1,294.71,259a130.78,130.78,0,0,1,2.18,16.62,254.31,254.31,0,0,1-.1,33.47c-.72,11.14-1.09,18.91-2.82,30Z" fill="#750511"/>
        <path d="M212.57,336.15a6.33,6.33,0,0,1-1.06-1.56,13.84,13.84,0,0,1-.64-1.48,18.6,18.6,0,0,1-.77-3,30.83,30.83,0,0,1-.45-5.92,51,51,0,0,1,.43-5.81c.25-1.92.6-3.81,1-5.69-.12,1.92-.22,3.83-.21,5.74a49.81,49.81,0,0,0,.33,5.68,29,29,0,0,0,1.14,5.45,16.13,16.13,0,0,0,1,2.48,11.06,11.06,0,0,0,.65,1.08,3.75,3.75,0,0,0,.64.75Z" fill="#750511"/>
        <path d="M404.52,244.25c-17,0-26.73-22.2-27.14-23.14l5.59-2.4c.08.19,8.54,19.46,21.55,19.46Z" fill="#750511"/>
        <path d="M262,611.4S307.2,559,355.84,574.89c-1-7.61,2-8.24,2-8.24s-49.57-8-73,2.16Z" fill="#750511"/>
        <path d="M313,248.56c3.43,23.82,3.8,55.91,12.93,54.77l-21.3,23.58S318.31,291.92,313,248.56Z" fill="#750511"/>
        <path d="M119.07,309.87l18.54-1.23s-6.43-23.83-9-23.83-6.85,3.73-6.85,3.73S133.32,304.5,119.07,309.87Z" fill="#750511"/>
        <path d="M142.29,340.48c28.46,26.48,54.26,53.87,74.85,83l15.56-5.28-84.15-82.85Z" fill="#750511"/>
        <path d="M553.46,263.15v0c-1.05-3.95-5.51-8.54-9.74-11.25-7.26-4.65-15.23-5.4-22.44-2.08l-1.92.87-.13.06-.17,3.52a18,18,0,0,1-.31,2.08c0,.17-.06.33-.09.5-.94,4.92-2.08,13.48,12.94,19.4a26.63,26.63,0,0,0,9.7,2.14,12.19,12.19,0,0,0,7-2,11.67,11.67,0,0,0,4.7-6.82,18.17,18.17,0,0,0,.66-4.76v0A5.7,5.7,0,0,0,553.46,263.15Zm-9.24,7.12c-1.81,1.22-5.33.9-9.92-.9-8.72-3.47-9.15-6.68-8.57-10.27.07-.44.17-.9.26-1.36.13-.65.26-1.33.35-2a14.48,14.48,0,0,1,8-.07h0a17,17,0,0,1,2.67,1,21.73,21.73,0,0,1,2.69,1.46c4,2.56,6.27,5.83,6.58,6.84a12.7,12.7,0,0,1-.18,1.73A5.4,5.4,0,0,1,544.22,270.27Z" fill="#750511"/>
      </g>
    </g>
  </g>
</svg>
