<svg xmlns="http://www.w3.org/2000/svg" viewBox="0 0 700 700">
  <title>Artboard 2 copy 6</title>
  <g id="Midtones">
    <path d="M103.08,327.94l3.23-8.62,35.54,28s81.86,81.86,112,74.32c18.79-4.7,84.13-43.64,131.4-67.32,28.6-14.33,51.16-18.85,51.16-18.85L287.26,442.11s-30.16,21.54-76.47-7.54C158,382.87,103.08,327.94,103.08,327.94Z" fill="#f7982d"/>
    <path d="M401.43,359.18c5.54,98.46,19,186.34,44.16,258.49l-60.32,9.69L353,619.82l-7.54-18.31s15.08-49.54,14-79.7C344.77,488.92,385.86,356,401.43,359.18Z" fill="#f7982d"/>
    <path d="M419.74,347.33s-20.46,14-16.16,51.7C394.43,365.64,389.58,352.71,419.74,347.33Z" fill="#f7982d"/>
    <path d="M596.67,346.3s8.86,85.58,41.17,75.35c-9.16,23.7-31.23,44.16-31.23,44.16S584.82,386.15,596.67,346.3Z" fill="#f7982d"/>
    <path d="M435.35,587s-4,23.43,93.7,19.39,50.08,50.89,50.08,50.89l-59.78-23.43-88-13.73Z" fill="#f7982d"/>
    <path d="M310.15,427s8.35,105.55-6.73,119.55-39.51,46.5-42,52.78c-2.29,5.76,58.35-8.18,54.39-4.31l29.62,6.46s20.46-105.82,10.77-155.9l-8.08-46Z" fill="#f7982d"/>
    <path d="M271.37,469.84c4.85,11.21,9.8,22.18,22.89,12.92,0,0-11.58,42.81-21.27,59L272.18,482Z" fill="#f7982d"/>
    <path d="M77.5,324.44s74.32,114.71,87.24,112.28S192.21,427,192.21,427l-90.47-94.51Z" fill="#f7982d"/>
    <path d="M295.87,314.48s-25.31,39.31-3.77,38.24l-33.93-.54Z" fill="#f7982d"/>
    <path d="M381.23,237.6s45.24-6.87,57.35,29.89c1.62-21-12.92-40.79-47.26-42.41C378.81,235.18,381.23,237.6,381.23,237.6Z" fill="#f7982d"/>
    <path d="M286.72,330.9s100.57-91.68,109.46-94.11S380,233.56,380,233.56l-89.67,85.22Z" fill="#f7982d"/>
    <path d="M516.13,231s19.39,8.08,18.85,14.54c3.23,10.23,9.16,22.08,20.46,19.93s17.77,3.77,18.85-7a78,78,0,0,1-32.85-9.16l1.08-12.92Z" fill="#f7982d"/>
    <path d="M454.2,195.46c18.87,8.37,30.74,17.26,65.7,19.39l5.92,17.23s-83.47-19.39-117.4-11.85a37,37,0,0,1,11.31-14.54Z" fill="#f7982d"/>
    <path d="M551.68,344.1s-20.46,61.93-17.77,112,9.16,82.4,9.16,82.4C540.32,467.44,541.19,400.41,551.68,344.1Z" fill="#f7982d"/>
    <path d="M298.57,230.47s23.7,11.85,30.16,18.31S325.49,266,339.5,266c-18.31,21.54-30.16,31.23-30.16,31.23S294.26,283.24,298.57,230.47Z" fill="#f7982d"/>
    <path d="M236.64,207.31s42-14,40.93,56-4.31,71.62-4.31,71.62L252.79,350s-15.35.67-26.66-5.79C256,318.79,277.95,214.05,236.64,207.31Z" fill="#f7982d"/>
    <path d="M177.94,304.25l-5.39,22.62,10.77,3.23S174.7,324.17,177.94,304.25Z" fill="#f7982d"/>
    <path d="M89.62,306.94s12.39,11.85,19.93,4.85c-10.77,20.46-7.81,20.73-7.81,20.73L81.54,320.94Z" fill="#f7982d"/>
    <path d="M462.26,701.26,353,619.82l-7.54-18.31s-77.55,4.31-86.16,15.08c0,0-30.7,53-57.45,84.67Z" fill="#f7982d"/>
    <path d="M337.61,220.23s-19.66,11.31-8.89,28.54c-33.93-22.08-30.16-18.31-30.16-18.31l-10.23-23.16Z" fill="#f7982d"/>
    <path d="M274.87,236.93s19.39,24.23,19.39,0V306.4s-10.23,23.7-18.31,23.7S274.87,236.93,274.87,236.93Z" fill="#f7982d"/>
  </g>
  <g id="Darker_Mids" data-name="Darker Mids">
    <polygon points="87.23 327.83 106.18 333.1 193.55 425.74 173.55 433.1 87.23 327.83" fill="#c45937"/>
    <path d="M238.17,347.58s42.45-31.58,39-98.76c3.89,45.08,16.62,39.8,16.62,39.8l-10.19,37.71-30.46,23.91Z" fill="#c45937"/>
    <path d="M309,237.46s1.72,43.5,22.32,39.06l-28.79,24.84-7.67-68.81L294,222.46Z" fill="#c45937"/>
    <path d="M220.92,437.31s70.27-4.74,138.17-51.32l-55.27,41.84s-24.48,17.37-41.06,17.37S220.92,437.31,220.92,437.31Z" fill="#c45937"/>
    <path d="M322,414.16S333.9,555,296,594.46c10.26,2.37,49.67-1.61,49.67-1.61,10.61-25.41,12.34-66.22,13.42-108.16l-13.42-88.43Z" fill="#c45937"/>
    <path d="M284.08,699.26H327.6c10.35-31.43,20.32-61.24,29.12-86.67-11.05-1.58-11.05-19.74-11.05-19.74l-37.11-2.37C320.5,606.41,305.06,652.2,284.08,699.26Z" fill="#c45937"/>
    <path d="M197.16,699.26h20.76L255.4,672c-19.26,2.87-22.25-8.2-15.79-27.37Z" fill="#c45937"/>
    <path d="M591.84,406.21c6.09,19.72,18.75,30.06,33.16,37.9L602.1,467S589.47,423.58,591.84,406.21Z" fill="#c45937"/>
    <polygon points="433.3 198.09 453 220.46 401.72 220.2 414.36 205.98 433.3 198.09" fill="#c45937"/>
  </g>
  <g id="Main">
    <g>
      <path d="M496.4,177.56l4.86-8.4C487.51,117.06,485.37,74,484.76,32.07l-59-21.23C348.2-6,282.35,65.14,394,71c9.43,10.91,3.1,40.54,3.1,40.54l8.7,18.43A205,205,0,0,1,413.52,98c4.41-12.79,10.79-24.8,19.35-25.87C445,70.82,445.67,85.87,444,99.06a138.15,138.15,0,0,1-3.79,18.8s18.13,12.38,25.65,17.69C486.23,151.91,496.4,177.56,496.4,177.56Z" fill="#750511"/>
      <g>
        <path d="M402.21,358.43q-21.26,17-42.73,33.64l-10.73,8.34c-3.57,2.78-7.14,5.58-10.9,8.11-7.46,5.13-14.78,10.45-22.18,15.66l-22.23,15.73A62.69,62.69,0,0,1,267,450.42a71.77,71.77,0,0,1-28.32-1.72,91.14,91.14,0,0,1-13.35-4.59c-2.16-.93-4.28-2-6.37-3a68.49,68.49,0,0,1-6.22-3.66l-.2-.13-.21-.2L100,330.93,98,329.12l1.17-2.35,13.27-26.53,1.57-3.15,3.16,1.56c29,14.35,58.55,27.78,89.27,37.47,3.82,1.26,7.71,2.29,11.57,3.42,1.93.57,3.89,1,5.84,1.49s3.88,1,5.81,1.61c3.85,1.15,7.77,2,11.66,3.08s7.86,1.72,11.79,2.59a243.73,243.73,0,0,0,48.22,4.8,222.15,222.15,0,0,1-48.94,0c-4.06-.54-8.16-.94-12.21-1.59s-8.12-1.28-12.14-2.11-8-1.81-11.94-3-7.9-2.22-11.79-3.51C173.08,333,143.26,319.41,114.08,305l4.73-1.59-13.27,26.53-.73-4.15L217.14,431.92l-.41-.33c14.34,9.06,32.34,14.36,49.18,11.83a55.58,55.58,0,0,0,23.54-9.35l22.11-15.65c7.37-5.26,14.8-10.43,22.11-15.77,3.63-2.71,7.44-5.15,11.25-7.61l11.42-7.38Q379.15,372.86,402.21,358.43Z" fill="#750511"/>
        <path d="M406.93,533.55l1.26,22.11,1.11,22.11,1,22.11c.48,7.37.06,14.74.16,22.11l-4.32-3.45c7.74-1.67,15.36-2.93,23.08-4.06s15.44-2,23.19-2.69a363.5,363.5,0,0,1,46.72-1.24c7.8.33,15.61.9,23.37,1.94a204.05,204.05,0,0,1,23.15,4.23,157.38,157.38,0,0,1,22.54,7.21,127.53,127.53,0,0,1,21.11,11l-5.49,3.2q-2.61-36.62-4.13-73.32t-1.43-73.45c.08-24.5.86-49,2.65-73.53,1.37-12.21,3.41-24.37,5.72-36.44,2.63-12,5.61-24,10.16-35.38L594.65,355c-.4,1.47-.62,3-.88,4.49L593,364l-.79,4.49-.57,4.53L590.51,382c-.45,6.08-1.2,12.1-1.49,18.19s-.72,12.14-.92,18.22c-2,24.23-2.62,48.61-2.76,73s.42,48.77,1.42,73.15,2.39,48.74,4.12,73.09l.51,7.12-6-3.92a120.52,120.52,0,0,0-19.86-10.38A150.35,150.35,0,0,0,544,623.59a197,197,0,0,0-22.38-4.09c-7.54-1-15.15-1.57-22.77-1.88A356.49,356.49,0,0,0,453,618.84a389.31,389.31,0,0,0-45.33,6.6l-4.38.92.06-4.37c.1-7.37-.32-14.74.16-22.11l1-22.11,1.11-22.11Z" fill="#750511"/>
        <path d="M343.84,399.11A198.73,198.73,0,0,1,354,428.2c.73,2.47,1.33,5,2,7.48a62,62,0,0,1,1.64,7.55c.48,5.13,1.47,10.19,1.87,15.32a416.07,416.07,0,0,1,2,61.59,432.72,432.72,0,0,1-7.17,61.16l-3.08,15.05c-.12.61-.28,1.3-.36,1.84l-.24,1.59a23,23,0,0,0-.09,3.23,15.26,15.26,0,0,0,1.51,6c1.84,3.65,5.31,6.56,9.45,8.56A38.59,38.59,0,0,0,368,620a44.27,44.27,0,0,0,6.84,1.39l-3,1.26c4.54-5.81,8.09-13.13,11.21-20.43s5.88-14.93,8.37-22.59a108.65,108.65,0,0,1,4-11.41c1.42-3.79,2.81-7.6,4.13-11.43,2.68-7.66,5.2-15.4,7.4-23.26-.65,8.15-1.83,16.27-3.24,24.35-.73,4-1.54,8.06-2.4,12.08L400,576c-.46,2-1.21,3.92-1.85,5.87-2.59,7.79-5.37,15.53-8.61,23.15L387,610.7c-.93,1.87-1.81,3.76-2.8,5.61a69.86,69.86,0,0,1-7,10.88L376,628.67l-1.87-.21a50.49,50.49,0,0,1-8.12-1.63,45.61,45.61,0,0,1-7.73-2.94c-5-2.41-9.88-6.23-12.66-11.75s-2.69-12.07-1.42-17.23l3-14.9a425.62,425.62,0,0,0,7.06-60.18,409,409,0,0,0-1.92-60.51l-.38-3.77-.51-3.75c-.34-2.5-.68-5-1.11-7.49-.81-5-.94-10.07-1.65-15.08A289.63,289.63,0,0,0,343.84,399.11Z" fill="#750511"/>
        <g>
          <path d="M536.92,230.87q8.68,2.67,17.43,5.81a16.83,16.83,0,0,0-9.33.09c-.11.77-.26,1.56-.41,2.32-.11.54-.21,1.07-.3,1.59-2.74-.92-5.47-1.8-8.21-2.64-46.39-14.47-91.86-18.91-135.86-13.18a0,0,0,0,0,0,0c-1.78.21-3.56.47-5.32.73l-2.29,2C343,269.91,277.75,332.85,260.45,349.64c-2,2-3.34,3.26-4,3.86l-.39.39-.45-.47-4.5-4.59s.32-.3.79-.77c2.32-2.25,9.52-9.26,19.87-19.19,1.37-1.31,2.79-2.68,4.27-4.12,1.27-1.2,2.57-2.42,3.9-3.71l9.86-9.39,2.62-2.49c5.7-5.4,11.79-11.15,18.16-17.11,12.52-11.73,26-24.27,39.55-36.49,3-2.7,5.94-5.36,8.88-8,10.93-9.82,21.72-19.27,31.77-27.83l.26-.21.77-.64,1-.15c2.57-.39,5.15-.75,7.72-1.05.94-.13,1.89-.26,2.83-.36,2.17-.24,4.33-.47,6.5-.66,36.23-3.39,73.36-.15,111.1,9.67q4.21,1.09,8.43,2.32C531.91,229.34,534.42,230.07,536.92,230.87Z" fill="#750511"/>
          <path d="M631.23,440.41l-45.9,53.85-2.7-2.29L580,489.67l2.42-2.85,3-3.56,23.39-27.44,17.13-20.09c.39-.45,31.41-38-25.73-159.46q-2.28-4.86-4.76-9.88c-1-2-2-4.07-3-6.13q-8.17-3.92-16.34-7.42c-2.68-1.16-5.36-2.27-8-3.37a14.76,14.76,0,0,0,.21-2c-.36-1.18-3-5-7.65-8a25.27,25.27,0,0,0-3.13-1.69q9.52,3.51,19.08,7.55v0q10,4.18,20,9l1.09.54.54,1.05C669.22,396.31,632.82,438.67,631.23,440.41Z" fill="#750511"/>
        </g>
        <path d="M590.63,639.53S597,664.79,570.7,658.6l-3.09-30.42Z" fill="#750511"/>
        <path d="M523.9,234.09l-13.07-34.45c-.65-1.27-10.59-17.28-85,4.68-13.75,6.43-19.27,17-19.32,17.14l-6.32-3.18c.26-.53,6.64-13,22.91-20.5l.48-.18c54.23-16,77.37-12.79,87.24-7.23,5,2.79,6.38,6,6.73,7.11l12.94,34.1Z" fill="#750511"/>
        <path d="M344.43,32.36a56.57,56.57,0,0,0,.31,8.43q.31,4.21.73,8.42c.53,5.61,1,11.21,1.67,16.8.23,11.19.66,22.37,1.5,33.51s2,22.24,3.87,33.2a177.48,177.48,0,0,0,8,32,70.68,70.68,0,0,0,7.06,14.39c2.88,4.35,6.47,8.11,10.75,10.15s9.16,2.14,14,.73a34.65,34.65,0,0,0,3.61-1.27l3.82-1.63c2.55-1.08,5-2.27,7.53-3.45a139.44,139.44,0,0,0,14.36-8,73.25,73.25,0,0,0,12.67-10c4.06-3.4,7.87-7.18,10.45-11.82a24.09,24.09,0,0,0,2.79-7.45,17.32,17.32,0,0,0-.22-8.19,18.25,18.25,0,0,1,2.3,8.33,27.11,27.11,0,0,1-1.22,8.85,43.32,43.32,0,0,1-9.05,15.45c-8.69,8.14-18.7,14.13-29,19.17-2.59,1.23-5.18,2.47-7.81,3.58l-3.94,1.68a41.86,41.86,0,0,1-4.34,1.53A29.55,29.55,0,0,1,384.8,198a24,24,0,0,1-9.49-2.35c-5.94-2.85-10.3-7.65-13.6-12.62a77.57,77.57,0,0,1-7.8-15.83,184.25,184.25,0,0,1-8.38-33.34c-1.87-11.24-3.09-22.53-3.94-33.83s-1.34-22.61-1.48-33.92c.45-5.66.91-11.31,1.55-17S342.86,37.85,344.43,32.36Z" fill="#750511"/>
        <path d="M414.66,211.42l-6.33-3.16c3.73-7.45-5.72-16-5.82-16.12l4.7-5.29C407.77,187.35,420.82,199.11,414.66,211.42Z" fill="#750511"/>
        <rect x="493.75" y="143.48" width="7.08" height="49.14" transform="translate(-26.9 140.49) rotate(-15.66)" fill="#750511"/>
        <path d="M117.33,298.72l-.11-.06L97.69,286.5l-2,2.57c-.21.3-.45.6-.69.9-1.05,1.39-2.1,2.81-3.13,4.27-.43.6-.86,1.2-1.27,1.82-.58.81-1.16,1.67-1.69,2.51A80.43,80.43,0,0,0,81.8,311.3a23.87,23.87,0,0,0-2,7.14,9.54,9.54,0,0,0,0,2.08v0A6.29,6.29,0,0,0,81,323.46s.92,1.11,2.36,2.64c3.28,3.49,9.52,9.2,15.14,9.2a7.5,7.5,0,0,0,1.39-.13,7.42,7.42,0,0,0,3.07-1.39,8.18,8.18,0,0,0,2.68-4l.13-.39-.34-.11L99,327.34a2.44,2.44,0,0,1-.39.86l-.11,0c-1.76.32-7.85-4-11.75-8.92-.41-2.81,5.29-13.21,12.69-23.37l11.6,7.2,2.74,1.69,3.73-6Z" fill="#750511"/>
        <path d="M74.37,318.51c-10.51,0-22.4-.73-25.62-3.84a4.73,4.73,0,0,1-1.5-3.41,63.23,63.23,0,0,0-2.62-7.54c-4.62-12-10.93-28.54-2.28-34.32,2.9-1.93,6.94-2.41,12-1.41L53,274.92c-3-.6-5.5-.46-6.73.36-4,2.64,2.52,19.54,5,25.9a62.41,62.41,0,0,1,2.93,8.58c3.77,1.4,17.76,1.9,29.52,1.49l.25,7.07C81.14,318.43,77.83,318.51,74.37,318.51Z" fill="#750511"/>
        <path d="M93.05,298.28c-4.09-2.72-6.19-8.81-8.22-14.69-1.22-3.52-2.48-7.16-3.91-9.22-.5-.72-2.63-.82-6.24.54l-2.5-6.62c8.58-3.24,12.64-.69,14.54,2,2,2.86,3.37,6.8,4.8,11C93,285.61,94.87,291,97,292.39Z" fill="#750511"/>
      </g>
      <path d="M578.13,699.22,572,630.84c-57.19-30.66-165.1-8.84-165.1-8.84V538.85s-27.71,84.32-32.43,86.09-23.59-8.25-23.59-8.25S331.47,654,308.33,699.22Z" fill="#750511"/>
      <path d="M609.76,457.49c-12.12-20.86-15-59.07-15.33-102-1.73-.43-14.91,84.13-11.79,136.5C598.56,466.33,609.76,457.49,609.76,457.49Z" fill="#750511"/>
      <path d="M358.87,535.32c5.66-75.19,24.88-144.29,43.34-176.89l-58.37,40.68C353.34,416.44,357.08,493.63,358.87,535.32Z" fill="#750511"/>
      <path d="M412.23,207.19c40-25.32,41.9-44.86,37.15-63.39-4.05,21.51-21,34.72-42.75,44.81C416.14,205.94,412.23,207.19,412.23,207.19Z" fill="#750511"/>
      <path d="M392.14,224a58.16,58.16,0,0,1,17.9,3.44,44.49,44.49,0,0,1,15.51,9.29,38.16,38.16,0,0,1,5.75,7,39,39,0,0,1,3.86,8.12,52,52,0,0,1,2.43,17.58,51.54,51.54,0,0,0-3.26-17.28,37.88,37.88,0,0,0-4.13-7.68,36.61,36.61,0,0,0-5.83-6.4,42.28,42.28,0,0,0-15.16-8.08,55.33,55.33,0,0,0-17-2.42Z" fill="#750511"/>
      <path d="M561.41,316c-1.72,1.76-2.64,4.09-3.69,6.26a71.9,71.9,0,0,0-2.46,6.86c-.69,2.33-1.43,4.65-1.92,7s-1.17,4.72-1.58,7.12c-.87,4.79-1.85,9.56-2.44,14.4l-1,7.23c-.31,2.42-.53,4.84-.81,7.26-1.15,9.67-1.81,19.41-2.56,29.13-.47,9.74-1.25,19.47-1.44,29.23l-.55,14.63c-.19,4.88-.17,9.76-.29,14.64l-.31,14.64c-.09,4.88,0,9.76-.11,14.65L542,547.7c-.65-9.76-1.07-19.53-1.61-29.3s-.64-19.55-.88-29.33c-.09-4.89-.26-9.78-.23-14.67l.06-14.68c0-4.89,0-9.79.18-14.68l.47-14.68c.17-4.89.35-9.78.71-14.67l.94-14.66c.4-4.88.93-9.76,1.39-14.63s1.11-9.74,1.77-14.6c.34-2.43.64-4.86,1-7.28l1.28-7.25c.78-4.84,1.94-9.62,3-14.4.54-2.39,1.33-4.73,2-7.09s1.5-4.68,2.32-7C556.14,324.26,557.91,319.48,561.41,316Z" fill="#750511"/>
      <path d="M487.68,370.75a69,69,0,0,1,4.2,10.31l1.64,5.33,1.4,5.41c.5,1.8.79,3.64,1.18,5.46s.77,3.65,1.06,5.49c.53,3.68,1.17,7.36,1.55,11.06s.82,7.41,1,11.13l.54,11.16c0,7.44.1,14.89-.36,22.32-.26,7.44-1,14.84-1.76,22.24-.31,3.71-.93,7.37-1.43,11.05l-1.62,11q-2,11-4.27,21.86c-1.82,7.2-3.51,14.42-5.43,21.58,1.13-7.34,2.49-14.61,3.73-21.9l3.24-21.94c1.72-14.67,3.47-29.34,4-44.07.53-7.36.44-14.73.55-22.1l-.29-11c-.13-3.68-.46-7.35-.66-11s-.76-7.32-1.09-11c-.5-3.64-1-7.3-1.65-10.93A111.3,111.3,0,0,0,487.68,370.75Z" fill="#750511"/>
      <path d="M596.74,257.19a218.57,218.57,0,0,1,5,33.43c.61,11.24-.22,22.73-4,33.32,3.23-10.78,3.44-22.14,2.26-33.18A216,216,0,0,0,593.3,258Z" fill="#750511"/>
      <polygon points="109.12 319.7 141.3 346.05 108.03 321.09 109.12 319.7" fill="#750511"/>
      <path d="M260.63,603.79c-4.24-2.58-11.12-10.48-6.78-22,.73-1.92,1.56-4,2.45-6.25,9.63-24.17,25.74-64.62,2.86-123.89l6.6-2.55c23.88,61.86,6.46,105.58-2.89,129.06-.88,2.2-1.69,4.24-2.41,6.13-3.37,8.91,3.54,13.23,3.83,13.41Z" fill="#750511"/>
      <path d="M202,699.22l2.67-3.17c27.17-32.26,52.86-62.77,60.77-92.53a138.44,138.44,0,0,1,55.87-6.12,103.73,103.73,0,0,1,21.31,4.29c7.76,30.85,40.87,52.06,95.94,61.38,41.7,7.06,82,4.93,82.38,4.91l-.39-7.07c-1.58.08-156.36,7.83-171.46-62.66l-.4-1.84-1.75-.7c-.38-.15-9.48-3.74-24.61-5.32a145.89,145.89,0,0,0-61,7l-1.86.62-.46,1.91c-6.9,28.75-33.79,60.68-59.8,91.56l-6.49,7.72Z" fill="#750511"/>
      <path d="M524.24,699.22c-2-19.3-2.34-30-1.23-32.43a2.52,2.52,0,0,1-2,1.18l-.51-7.06a4.47,4.47,0,0,0-3.48,2.16c-1.08,1.69-3.1,4.88.13,36.15Z" fill="#750511"/>
      <path d="M164.5,439.24c-4.45,0-15.15-3.49-54.85-60.66C89,348.92,70.37,318.73,70.19,318.42l6-3.72c.19.3,18.77,30.35,39.27,59.86,39.26,56.51,48.57,57.62,49.47,57.58,16.57-1.1,34.74-12.33,34.92-12.44l3.75,6c-.8.5-19.83,12.28-38.2,13.5C165.14,439.22,164.84,439.24,164.5,439.24Z" fill="#750511"/>
      <path d="M78.54,273.89c-.32-.41-.66-.77-1-1.16a28.8,28.8,0,0,0-3.41-3.26c-.56-.45-1.11-.88-1.69-1.26-6.67-4.63-13.87-5.12-20.47-1.29l-1,.6-.66.39-.11,3.45a23.53,23.53,0,0,1-.34,2.81l-.06.39c-.9,5.9-2,15.39,12.13,22.47a22,22,0,0,0,9.6,2.68l1.72-.11a10.53,10.53,0,0,0,4.05-1.44,12.22,12.22,0,0,0,5-6.77,24.69,24.69,0,0,0,1.09-7.25C83.37,281.36,81.44,277.43,78.54,273.89ZM65.06,290.7c-9.86-4.93-9.07-10-8.25-15.46.17-1.05.32-2.06.39-3,4.05-1.63,8.23-.69,12.48,2.77s6.54,8,6.62,9.15c0,3.07-.75,6.77-2.72,8C71.92,293.13,68.9,292.63,65.06,290.7Z" fill="#750511"/>
      <path d="M285.29,325.24l-5.55-4.38c8.79-11.13,22-73.2,5-107.15-7.38-14.74-19.58-22-36.31-21.56-65.16,1.67-82.21,130-82.37,131.34l-7-.89a323.34,323.34,0,0,1,17.23-67.38c17.33-45.13,42.22-69.39,72-70.15,19.38-.51,34.23,8.31,42.81,25.47C309,246.42,295.88,311.83,285.29,325.24Z" fill="#750511"/>
      <path d="M352,255.64c-25,0-61.2-28.38-62.94-29.75l4.39-5.55c12.62,10,49,34.23,65.52,27l2.85,6.48A24.21,24.21,0,0,1,352,255.64Z" fill="#750511"/>
      <path d="M322.61,198.34c-44.46,0-49.55-115.45-49.75-120.37l7.07-.28c1.26,31.59,11.38,113.57,42.68,113.57,26.95,0,33.51-19.41,33.77-20.23l6.75,2.12C363.06,173.41,354.91,198.34,322.61,198.34Z" fill="#750511"/>
      <path d="M299.61,212.35A107.23,107.23,0,0,1,285,211.28l1-7c10.63,1.54,27.14,1.67,30.57-2.88.29-.38,1.16-1.54-.26-4.7l6.45-2.9c2.59,5.77,1.13,9.63-.55,11.86C318.13,211,308.28,212.35,299.61,212.35Z" fill="#750511"/>
      <path d="M283.11,145s-42.45-58.37-3.54-104.36,88.6.35,76.21,10.47c-12.82,0-14.3-4-13.12,35.53C319.83,61.9,273.06,72.44,283.11,145Z" fill="#750511"/>
      <circle cx="329.85" cy="20.31" r="19.9" fill="#750511"/>
      <path d="M359.17,174.46s50.71,49.53,4.13,56.6c-5.93-.22-70.9-15.23-74.88-21.23,31.84,2.95,34.2-15,34.2-15C335.84,195,348.47,191.18,359.17,174.46Z" fill="#750511"/>
      <path d="M219.19,699.22c3.18-2.4,6.36-4.81,9.55-7.19q32.07-23.89,64.68-47-33.08,22.48-65.72,45.62-6,4.28-12,8.62Z" fill="#750511"/>
      <path d="M267,555c6.47-15,12.55-30.17,18-45.58,2.7-7.71,5.24-15.48,7.33-23.37,1-3.95,2-7.92,2.64-12s1.12-8.15.21-12.16c1.05,4,.7,8.18.23,12.23s-1.32,8.1-2.22,12.1c-1.82,8-4.08,15.89-6.51,23.72-4.9,15.66-10.42,31.08-16.4,46.39Z" fill="#750511"/>
      <path d="M270.46,336.89c2.27-12.63,3.91-25.46,5-38.29a293.54,293.54,0,0,0,1-38.61,150.52,150.52,0,0,0-2.07-19.17,72.19,72.19,0,0,0-5.59-18.36c-2.75-5.72-6.91-11.07-12.8-13.76s-12.72-2.33-18.91-.63a35.93,35.93,0,0,1,9.56-1.56,23.41,23.41,0,0,1,9.53,1.79c6.08,2.61,10.48,8,13.41,13.76a73.26,73.26,0,0,1,6.11,18.5,152.06,152.06,0,0,1,2.53,19.32,295.68,295.68,0,0,1-.12,38.91c-.83,13-1.27,22-3.28,34.87Z" fill="#750511"/>
      <path d="M180.21,330.26a7.36,7.36,0,0,1-1.23-1.81,16.09,16.09,0,0,1-.75-1.72,21.63,21.63,0,0,1-.9-3.46,35.85,35.85,0,0,1-.52-6.88,59.25,59.25,0,0,1,.5-6.75c.29-2.23.7-4.43,1.13-6.62-.14,2.23-.25,4.45-.25,6.67a57.92,57.92,0,0,0,.39,6.6,33.66,33.66,0,0,0,1.33,6.33,18.76,18.76,0,0,0,1.17,2.88,12.85,12.85,0,0,0,.76,1.26,4.36,4.36,0,0,0,.74.87Z" fill="#750511"/>
      <path d="M403.39,223.4c-19.79,0-31.08-25.81-31.55-26.91l6.5-2.79c.1.23,9.92,22.62,25.05,22.62Z" fill="#750511"/>
      <path d="M237.7,650.29s52.54-61,109.08-42.45c-1.18-8.84,2.28-9.59,2.28-9.59s-57.64-9.36-84.83,2.51Z" fill="#750511"/>
      <path d="M297,228.41c4,27.7,4.42,65,15,63.68l-24.76,27.42S303.15,278.83,297,228.41Z" fill="#750511"/>
      <path d="M71.49,299.71l21.56-1.43s-7.47-27.71-10.42-27.71-8,4.34-8,4.34S88.07,293.46,71.49,299.71Z" fill="#750511"/>
      <path d="M98.49,335.29c33.09,30.79,63.09,62.64,87,96.55l18.09-6.14-97.84-96.32Z" fill="#750511"/>
      <path d="M576.56,245.38v0c-1.22-4.59-6.41-9.93-11.32-13.08-8.45-5.4-17.71-6.28-26.09-2.42l-2.23,1-.15.06-.19,4.09a20.92,20.92,0,0,1-.36,2.42c0,.19-.06.39-.11.58-1.09,5.72-2.42,15.67,15.05,22.55a31,31,0,0,0,11.28,2.49,14.18,14.18,0,0,0,8.17-2.29,13.57,13.57,0,0,0,5.47-7.93,21.12,21.12,0,0,0,.77-5.53v0A6.63,6.63,0,0,0,576.56,245.38Zm-10.74,8.28c-2.1,1.41-6.2,1.05-11.53-1.05-10.14-4-10.63-7.76-10-11.94.09-.51.19-1.05.3-1.59.15-.75.3-1.54.41-2.32a16.83,16.83,0,0,1,9.33-.09h0a19.74,19.74,0,0,1,3.11,1.14,25.27,25.27,0,0,1,3.13,1.69c4.65,3,7.29,6.77,7.65,8a14.76,14.76,0,0,1-.21,2A6.28,6.28,0,0,1,565.82,253.66Z" fill="#750511"/>
    </g>
  </g>
</svg>
