<svg xmlns="http://www.w3.org/2000/svg" viewBox="0 0 700 700">
  <title>Artboard 2 copy 3</title>
  <g id="Midtones">
    <path d="M189.33,203.11l2-5.33,22,17.33s50.67,50.67,69.33,46c11.63-2.91,52.07-27,81.33-41.67,17.7-8.87,31.67-11.67,31.67-11.67l-92.33,66s-18.67,13.33-47.33-4.67C223.33,237.11,189.33,203.11,189.33,203.11Z" fill="#f7982d"/>
    <path d="M374,222.44c3.43,60.94,11.75,115.34,27.33,160l-37.33,6-20-4.67-4.67-11.33s9.33-30.67,8.67-49.33C338.93,302.75,364.36,220.5,374,222.44Z" fill="#f7982d"/>
    <path d="M385.33,215.11s-12.67,8.67-10,32C369.67,226.44,366.67,218.44,385.33,215.11Z" fill="#f7982d"/>
    <path d="M495.67,215.44s4.67,52,24.67,45.67C514.67,275.77,501,288.44,501,288.44S488.33,240.11,495.67,215.44Z" fill="#f7982d"/>
    <path d="M395,363.44s-2.5,14.5,58,12,31,31.5,31,31.5l-37-14.5-54.5-8.5Z" fill="#f7982d"/>
    <path d="M317.5,264.44s5.17,65.33-4.17,74-24.46,28.78-26,32.67c-1.42,3.57,36.12-5.06,33.67-2.67l18.33,4s12.67-65.5,6.67-96.5l-5-28.5Z" fill="#f7982d"/>
    <path d="M293.5,290.94c3,6.94,6.06,13.73,14.17,8,0,0-7.17,26.5-13.17,36.5l-.5-37Z" fill="#f7982d"/>
    <path d="M173.5,200.94s46,71,54,69.5,17-6,17-6l-56-58.5Z" fill="#f7982d"/>
    <path d="M308.67,194.77s-15.67,24.33-2.33,23.67l-21-.33Z" fill="#f7982d"/>
    <path d="M361.5,147.19s28-4.25,35.5,18.5c1-13-8-25.25-29.25-26.25C360,145.69,361.5,147.19,361.5,147.19Z" fill="#f7982d"/>
    <path d="M303,204.94s62.25-56.75,67.75-58.25-10-2-10-2l-55.5,52.75Z" fill="#f7982d"/>
    <path d="M445,143.11s12,5,11.67,9c2,6.33,5.67,13.67,12.67,12.33s11,2.33,11.67-4.33a48.25,48.25,0,0,1-20.33-5.67l.67-8Z" fill="#f7982d"/>
    <path d="M406.67,121.11c11.68,5.18,19,10.68,40.67,12L451,143.77s-51.67-12-72.67-7.33a22.89,22.89,0,0,1,7-9Z" fill="#f7982d"/>
    <path d="M467,213.11s-12.67,38.33-11,69.33,5.67,51,5.67,51C460,289.45,460.51,248,467,213.11Z" fill="#f7982d"/>
    <path d="M310.33,142.77S325,150.11,329,154.11s-2,10.67,6.67,10.67C324.33,178.11,317,184.11,317,184.11S307.67,175.44,310.33,142.77Z" fill="#f7982d"/>
    <path d="M272,128.44s26-8.67,25.33,34.67-2.67,44.33-2.67,44.33L282,216.77s-9.5.42-16.5-3.58C284,197.44,297.57,132.61,272,128.44Z" fill="#f7982d"/>
    <path d="M235.67,188.44l-3.33,14,6.67,2S233.67,200.77,235.67,188.44Z" fill="#f7982d"/>
    <path d="M181,190.11s7.67,7.33,12.33,3c-6.67,12.67-4.83,12.83-4.83,12.83L176,198.77Z" fill="#f7982d"/>
    <path d="M286,381.77s-34,58.67-50.67,66c-18.67,30.67-26,37.33-26,59.33-4,26.67-12.67,73.33-2.67,76.67s15.33-43.33,36.67-50c3.33,2,6,32,6,32s5.33,36.67,13.33,36,20,6,42-6S384,565.11,384,565.11s57.33-9.33,57.33-25.33S412,434.44,412,434.44l-68-50.67-4.67-11.33S291.33,375.11,286,381.77Z" fill="#f7982d"/>
    <path d="M334.5,136.44s-12.17,7-5.5,17.67c-21-13.67-18.67-11.33-18.67-11.33L304,128.44Z" fill="#f7982d"/>
    <path d="M295.67,146.77s12,15,12,0v43s-6.33,14.67-11.33,14.67S295.67,146.77,295.67,146.77Z" fill="#f7982d"/>
    <path d="M213.33,591.11c.64,7.43,1.84,13.57,8,8.33-.19-.55-5.17,26.87,3.33,57l-10-26.67Z" fill="#f7982d"/>
    <path d="M219.67,613.11s.33,45.33,39,32l-4.67,13-27.33,4.33S211.33,630.77,219.67,613.11Z" fill="#f7982d"/>
    <path d="M258.67,645.11S311.5,616.94,375,629.44l33.5,17.5-147,6Z" fill="#f7982d"/>
    <path d="M339.5,609.44c21.72,12.73,75.35,27.87,148.5,44.5v5.5l-97.5-14.5C382.16,642.28,360.31,625.3,339.5,609.44Z" fill="#f7982d"/>
    <path d="M424.5,561.44s12.5,44.5,19.5,48.5,36.5,40,27,40l10,4,7,5.5-10-52-38-60.5Z" fill="#f7982d"/>
    <polygon points="242 647.94 255.5 594.44 268.5 607.44 257.5 652.44 241 652.44 242 647.94" fill="#f7982d"/>
  </g>
  <g id="Darker_Mids" data-name="Darker Mids">
    <polygon points="177.33 203.11 189.33 206.44 244.67 265.11 232 269.77 177.33 203.11" fill="#c45937"/>
    <path d="M272.92,215.61s26.88-20,24.68-62.55c2.46,28.55,10.53,25.2,10.53,25.2l-6.45,23.88L282.4,217.29Z" fill="#c45937"/>
    <path d="M318.24,148.41s.63,25,13.67,22.2l-18.23,15.73-4.86-43.58,4,.56Z" fill="#c45937"/>
    <path d="M262,272.44s44.5-3,87.5-32.5l-35,26.5s-15.5,11-26,11S262,272.44,262,272.44Z" fill="#c45937"/>
    <path d="M326,257.77s9.5,85.67-14.5,110.67c6.5,1.5,29.5,2.5,29.5,2.5l8.5-68.5-8.5-56Z" fill="#c45937"/>
    <path d="M255,591.44s3-60,8-74,71-126,54.5-148l23.5,1.5s0,11.5,7,12.5c-28,81-75,232-75,232Z" fill="#c45937"/>
    <path d="M280.67,419.77c-12.2,1.82-14.09-5.19-10-17.33l-44,56.67Z" fill="#c45937"/>
    <path d="M246.67,513.11s-22.67,34-33.33,6c-4.67,44.67-2.67,56.67-2.67,56.67l34-48.67Z" fill="#c45937"/>
    <path d="M392.67,473.11l23.72,54.16c5.48,10.14-3.54,19.66-12.89,29.17l24.5-2.67s18.67,50,22.67,50.67,34,32.67,34,32.67l-3.33-48L406,449.11Z" fill="#c45937"/>
    <path d="M495,248.94c3.86,12.49,11.88,19,21,24l-14.5,14.5S493.5,259.94,495,248.94Z" fill="#c45937"/>
    <polygon points="396.5 120.94 405 136.94 376.5 134.94 384.5 125.94 396.5 120.94" fill="#c45937"/>
    <path d="M339.5,525.44s28,12,56.5,13" fill="#c45937"/>
  </g>
  <g id="Main">
    <g>
      <g>
        <path d="M433.77,109.64l3-5.23c-8.56-32.42-9.89-59.23-10.27-85.3L389.83,5.9C341.55-4.59,300.57,39.69,370,43.33c5.87,6.79,1.93,25.22,1.93,25.22L377.36,80a127.55,127.55,0,0,1,4.83-19.86c2.75-8,6.71-15.43,12-16.1,7.53-.84,8,8.53,6.95,16.74a86,86,0,0,1-2.36,11.7s11.28,7.7,16,11C427.44,93.68,433.77,109.64,433.77,109.64Z" fill="#750511"/>
        <g>
          <path d="M375.16,222.19q-13.23,10.56-26.59,20.93l-6.68,5.19c-2.22,1.73-4.44,3.47-6.78,5-4.64,3.19-9.2,6.5-13.8,9.75l-13.83,9.79A39,39,0,0,1,291,279.43a44.66,44.66,0,0,1-17.62-1.07,56.71,56.71,0,0,1-8.31-2.86c-1.35-.58-2.66-1.21-4-1.9a42.62,42.62,0,0,1-3.87-2.28l-.12-.08-.13-.13-69.89-66L185.89,204l.73-1.46L194.88,186l1-2,2,1c18.06,8.93,36.43,17.29,55.55,23.32,2.38.78,4.8,1.43,7.2,2.13,1.2.36,2.42.62,3.63.93s2.41.64,3.61,1c2.4.72,4.83,1.27,7.26,1.92s4.89,1.07,7.34,1.61a151.66,151.66,0,0,0,30,3,138.23,138.23,0,0,1-30.46,0c-2.53-.33-5.08-.58-7.6-1s-5.05-.8-7.55-1.31-5-1.12-7.43-1.88-4.92-1.38-7.33-2.19c-19.47-6.14-38-14.6-56.18-23.57l2.95-1-8.26,16.51-.46-2.58,69.89,66-.25-.21c8.92,5.64,20.12,8.94,30.6,7.36A34.58,34.58,0,0,0,305,269.25l13.76-9.74c4.58-3.28,9.21-6.49,13.76-9.81,2.26-1.69,4.63-3.21,7-4.74l7.1-4.59Q360.81,231.17,375.16,222.19Z" fill="#750511"/>
          <path d="M378.09,331.15l.78,13.76.69,13.76.63,13.76c.3,4.59,0,9.17.1,13.76L377.61,384c4.82-1,9.56-1.83,14.36-2.53s9.61-1.25,14.43-1.67a226.19,226.19,0,0,1,29.07-.77c4.85.2,9.71.56,14.54,1.2a127,127,0,0,1,14.41,2.63,97.93,97.93,0,0,1,14,4.48,79.35,79.35,0,0,1,13.14,6.87l-3.42,2q-1.62-22.79-2.57-45.62t-.89-45.71c0-15.25.54-30.5,1.65-45.75.85-7.6,2.12-15.16,3.56-22.67a139.37,139.37,0,0,1,6.32-22L494.9,220c-.25.91-.39,1.86-.55,2.79l-.48,2.8-.49,2.79-.36,2.82-.7,5.63c-.28,3.78-.75,7.53-.93,11.32s-.45,7.55-.57,11.34c-1.26,15.08-1.63,30.25-1.72,45.41s.26,30.35.89,45.52,1.49,30.33,2.56,45.48l.32,4.43-3.73-2.44a75,75,0,0,0-12.36-6.46,93.56,93.56,0,0,0-13.4-4.28,122.6,122.6,0,0,0-13.92-2.54c-4.69-.62-9.42-1-14.17-1.17a221.82,221.82,0,0,0-28.5.76,242.25,242.25,0,0,0-28.21,4.11l-2.73.58,0-2.72c.06-4.59-.2-9.17.1-13.76l.63-13.76.69-13.76Z" fill="#750511"/>
          <path d="M338.84,247.5a123.66,123.66,0,0,1,6.32,18.1c.46,1.54.83,3.1,1.22,4.65a38.59,38.59,0,0,1,1,4.7c.3,3.19.92,6.34,1.16,9.53a258.9,258.9,0,0,1,1.21,38.32,269.26,269.26,0,0,1-4.46,38.06l-1.92,9.37c-.07.38-.17.81-.22,1.14l-.15,1a14.28,14.28,0,0,0-.06,2,9.49,9.49,0,0,0,.94,3.71,12.48,12.48,0,0,0,5.88,5.33,24,24,0,0,0,4.07,1.54,27.54,27.54,0,0,0,4.26.87l-1.9.78a57.65,57.65,0,0,0,7-12.71c1.94-4.58,3.66-9.29,5.21-14.05a67.61,67.61,0,0,1,2.51-7.1c.89-2.36,1.75-4.73,2.57-7.11,1.67-4.77,3.23-9.58,4.61-14.47-.41,5.07-1.14,10.12-2,15.15-.46,2.51-1,5-1.49,7.52l-.83,3.75c-.29,1.25-.75,2.44-1.15,3.65-1.61,4.85-3.34,9.67-5.36,14.41l-1.57,3.54c-.58,1.16-1.12,2.34-1.74,3.49a43.47,43.47,0,0,1-4.33,6.77l-.73.92-1.17-.13a31.41,31.41,0,0,1-5.06-1,28.38,28.38,0,0,1-4.81-1.83,16.82,16.82,0,0,1-7.88-7.31,15.84,15.84,0,0,1-.88-10.72l1.9-9.27a264.84,264.84,0,0,0,4.39-37.45A254.51,254.51,0,0,0,344.18,285l-.24-2.34-.32-2.33c-.21-1.56-.42-3.11-.69-4.66-.51-3.09-.58-6.27-1-9.39A180.22,180.22,0,0,0,338.84,247.5Z" fill="#750511"/>
          <g>
            <path d="M459,142.81q5.4,1.66,10.85,3.62a10.47,10.47,0,0,0-5.8.05c-.07.48-.16,1-.25,1.44s-.13.67-.19,1c-1.71-.57-3.4-1.12-5.11-1.64-28.87-9-57.16-11.77-84.54-8.2a0,0,0,0,0,0,0c-1.11.13-2.21.29-3.31.45l-1.43,1.21c-30.86,26.37-71.46,65.54-82.23,76l-2.47,2.4-.24.24-.28-.29-2.8-2.85.49-.48c1.44-1.4,5.92-5.76,12.37-11.94.85-.81,1.73-1.67,2.65-2.56s1.6-1.51,2.43-2.31l6.14-5.84,1.63-1.55c3.55-3.36,7.34-6.94,11.3-10.65,7.79-7.3,16.21-15.1,24.61-22.7,1.84-1.68,3.7-3.34,5.52-5,6.8-6.11,13.51-12,19.77-17.32l.16-.13.48-.4.61-.09c1.6-.24,3.2-.47,4.8-.65l1.76-.23c1.35-.15,2.69-.29,4-.41a199.46,199.46,0,0,1,69.13,6q2.62.68,5.24,1.44C455.86,141.87,457.42,142.32,459,142.81Z" fill="#750511"/>
            <path d="M517.67,273.2,489.1,306.71l-1.68-1.43-1.67-1.43,1.51-1.77,1.89-2.21,14.55-17.08,10.66-12.5c.24-.28,19.54-23.65-16-99.22q-1.42-3-3-6.15c-.61-1.25-1.24-2.53-1.89-3.82q-5.08-2.44-10.17-4.62c-1.67-.72-3.34-1.41-5-2.09a9.19,9.19,0,0,0,.13-1.25,12.82,12.82,0,0,0-4.76-4.95,15.72,15.72,0,0,0-1.95-1.05q5.92,2.18,11.87,4.7h0q6.2,2.6,12.43,5.62l.68.33.33.65C541.3,245.76,518.65,272.12,517.67,273.2Z" fill="#750511"/>
          </g>
          <path d="M492.4,397.1s4,15.72-12.41,11.87L478.07,390Z" fill="#750511"/>
          <path d="M450.88,144.82l-8.13-21.44c-.4-.79-6.59-10.75-52.87,2.91a26.92,26.92,0,0,0-12,10.67l-3.93-2c.16-.33,4.13-8.08,14.26-12.75l.3-.11c33.75-10,48.14-8,54.28-4.5,3.08,1.74,4,3.75,4.19,4.42l8,21.22Z" fill="#750511"/>
          <path d="M339.2,19.29a35.2,35.2,0,0,0,.2,5.25q.2,2.62.45,5.24c.33,3.49.65,7,1,10.45.14,7,.41,13.92.94,20.85s1.27,13.84,2.41,20.66a110.43,110.43,0,0,0,5,19.93,44,44,0,0,0,4.39,9,17.43,17.43,0,0,0,6.69,6.31,11.91,11.91,0,0,0,8.69.45,21.56,21.56,0,0,0,2.24-.79l2.38-1c1.59-.67,3.13-1.41,4.69-2.15a86.77,86.77,0,0,0,8.94-5,45.58,45.58,0,0,0,7.88-6.21,27.06,27.06,0,0,0,6.5-7.35,15,15,0,0,0,1.74-4.64,10.78,10.78,0,0,0-.13-5.1,11.35,11.35,0,0,1,1.43,5.18,16.87,16.87,0,0,1-.76,5.51,27,27,0,0,1-5.63,9.61,72.62,72.62,0,0,1-18,11.93c-1.61.76-3.22,1.53-4.86,2.23l-2.45,1a26,26,0,0,1-2.7,1,18.39,18.39,0,0,1-5.89.76,14.94,14.94,0,0,1-5.91-1.46,21.73,21.73,0,0,1-8.46-7.85,48.27,48.27,0,0,1-4.85-9.85,114.65,114.65,0,0,1-5.21-20.75c-1.16-7-1.92-14-2.45-21.05s-.83-14.07-.92-21.11c.28-3.52.57-7,1-10.55A68.93,68.93,0,0,1,339.2,19.29Z" fill="#750511"/>
          <path d="M382.91,130.71l-3.94-2c2.32-4.64-3.56-10-3.62-10l2.92-3.29C378.62,115.73,386.74,123.05,382.91,130.71Z" fill="#750511"/>
          <rect x="432.12" y="88.44" width="4.4" height="30.58" transform="translate(-11.88 121.1) rotate(-15.66)" fill="#750511"/>
          <path d="M197.89,185l-.07,0-12.15-7.56-1.21,1.6c-.13.19-.28.37-.43.56-.65.87-1.31,1.75-1.95,2.65-.27.37-.53.75-.79,1.13s-.72,1-1.05,1.56a50,50,0,0,0-4.46,7.92,14.85,14.85,0,0,0-1.23,4.44,5.94,5.94,0,0,0,0,1.29h0a3.92,3.92,0,0,0,.72,1.81s.57.69,1.47,1.64c2,2.17,5.92,5.72,9.42,5.72a4.67,4.67,0,0,0,.87-.08,4.62,4.62,0,0,0,1.91-.87,5.09,5.09,0,0,0,1.67-2.49l.08-.24-.21-.07-4-1.2a1.52,1.52,0,0,1-.24.53h-.07c-1.09.2-4.88-2.48-7.31-5.55-.25-1.75,3.29-8.22,7.9-14.54l7.22,4.48,1.71,1.05L198,185.1Z" fill="#750511"/>
          <path d="M171.16,197.34c-6.54,0-13.94-.46-15.94-2.39a3,3,0,0,1-.94-2.12,39.35,39.35,0,0,0-1.63-4.69c-2.87-7.49-6.8-17.76-1.42-21.36,1.8-1.2,4.32-1.5,7.48-.88l-.84,4.32c-1.9-.37-3.42-.29-4.19.22-2.46,1.64,1.57,12.16,3.09,16.12a38.83,38.83,0,0,1,1.82,5.34c2.34.87,11.05,1.18,18.37.92l.16,4.4C175.37,197.3,173.31,197.34,171.16,197.34Z" fill="#750511"/>
          <path d="M182.79,184.76c-2.54-1.7-3.85-5.48-5.12-9.14a26.65,26.65,0,0,0-2.44-5.74c-.31-.45-1.63-.51-3.89.34l-1.55-4.12c5.34-2,7.87-.43,9,1.26a28.59,28.59,0,0,1,3,6.82c.93,2.69,2.09,6,3.4,6.92Z" fill="#750511"/>
        </g>
        <path d="M480.82,391.69,497.33,576.6l48.43,81.45-23.11,12.11-68.24-74.84L404.88,467.64l-90.26,83.65L269.49,672.36l-18.71-5.5s15.62-122.39,18.71-135.38,73.75-148.59,73.75-148.59S355,389.12,357.91,388s20.18-53.57,20.18-53.57v51.73S445.23,372.61,480.82,391.69Z" fill="#750511"/>
        <path d="M255.73,668.51s-7.15,14.31-33.57,14.86c-5,.55-10.46,16.51-10.46,16.51h53.93s-4.4-18.16,3.3-35.22Z" fill="#750511"/>
        <path d="M527.67,662.74s20.74,26.68-15,25.58c-3.11,3.89-2.83,11.56-2.83,11.56h45.86l1.19-22s-16-9.73-22.57-27.24Z" fill="#750511"/>
        <path d="M504.3,283.82c-7.54-13-9.32-36.75-9.54-63.47-1.07-.27-9.28,52.35-7.34,84.94C497.33,289.33,504.3,283.82,504.3,283.82Z" fill="#750511"/>
        <path d="M348.19,332.25c3.52-46.79,15.48-89.78,27-110.07L338.84,247.5C344.75,258.28,347.07,306.31,348.19,332.25Z" fill="#750511"/>
        <path d="M381.4,128.08c24.87-15.75,26.07-27.91,23.11-39.44-2.52,13.38-13.06,21.6-26.6,27.88C383.83,127.3,381.4,128.08,381.4,128.08Z" fill="#750511"/>
        <path d="M368.89,138.54A36.19,36.19,0,0,1,380,140.67a27.68,27.68,0,0,1,9.65,5.78,23.74,23.74,0,0,1,3.58,4.34,24.25,24.25,0,0,1,2.4,5,32.34,32.34,0,0,1,1.51,10.94,32.07,32.07,0,0,0-2-10.75,23.57,23.57,0,0,0-2.57-4.78,22.78,22.78,0,0,0-3.63-4,26.31,26.31,0,0,0-9.44-5,34.43,34.43,0,0,0-10.56-1.5Z" fill="#750511"/>
        <path d="M474.22,195.77a13.88,13.88,0,0,0-2.29,3.89,44.74,44.74,0,0,0-1.53,4.27c-.43,1.45-.89,2.89-1.2,4.38s-.73,2.94-1,4.43c-.54,3-1.15,5.95-1.52,9l-.65,4.5c-.19,1.5-.33,3-.5,4.52-.71,6-1.13,12.08-1.59,18.12-.29,6.06-.78,12.11-.9,18.19l-.34,9.1c-.12,3-.1,6.07-.18,9.11l-.19,9.11c-.06,3,0,6.08-.07,9.11L462.11,340c-.4-6.07-.66-12.15-1-18.23s-.4-12.16-.55-18.25c-.06-3-.16-6.09-.14-9.13l0-9.13c0-3,0-6.09.11-9.13l.29-9.13c.1-3,.22-6.09.44-9.13l.58-9.12c.25-3,.58-6.07.86-9.11s.69-6.06,1.1-9.08c.21-1.51.4-3,.63-4.53l.8-4.51c.49-3,1.21-6,1.89-9,.34-1.49.83-2.94,1.23-4.41s.93-2.91,1.45-4.35C470.94,200.93,472,197.95,474.22,195.77Z" fill="#750511"/>
        <path d="M428.34,229.86a43,43,0,0,1,2.62,6.42l1,3.32.87,3.36c.31,1.12.49,2.26.73,3.4s.48,2.27.66,3.41c.33,2.29.73,4.58,1,6.88s.51,4.61.63,6.92l.34,6.94c0,4.63.06,9.27-.23,13.89s-.65,9.23-1.1,13.84c-.19,2.31-.58,4.59-.89,6.88L433,312q-1.25,6.82-2.66,13.6c-1.13,4.48-2.19,9-3.38,13.43.71-4.56,1.55-9.09,2.32-13.63l2-13.65c1.07-9.13,2.16-18.25,2.5-27.42.33-4.58.27-9.16.34-13.75l-.18-6.87c-.08-2.29-.29-4.57-.41-6.86s-.47-4.56-.68-6.84-.61-4.54-1-6.8A69.26,69.26,0,0,0,428.34,229.86Z" fill="#750511"/>
        <path d="M496.2,159.19a136,136,0,0,1,3.08,20.8c.38,7-.14,14.14-2.5,20.73a52.42,52.42,0,0,0,1.4-20.65,134.42,134.42,0,0,0-4.12-20.37Z" fill="#750511"/>
        <polygon points="192.79 198.09 212.81 214.48 192.11 198.96 192.79 198.09" fill="#750511"/>
        <path d="M488.62,654.83c4,1.22,16.52,19-105.76,5.42C263.5,647,236.75,667.68,236.75,667.68s-12.38,4.13-17.34-15.13c7.15,8.81,11.56,9.91,33.57,1.65s87-37.42,192.07-3.85C498.43,666.86,488.62,654.83,488.62,654.83Z" fill="#750511"/>
        <path d="M320.12,515c3,1.56,6,3.09,9.12,4.47,1.53.72,3.08,1.39,4.62,2.09l4.66,2c6.24,2.58,12.57,4.9,19,6.9a173.87,173.87,0,0,0,19.56,5l5,.92,5,.69,2.51.37,2.53.21q2.53.2,5.07.47a101.52,101.52,0,0,1-20.38-1c-.84-.12-1.7-.2-2.53-.36l-2.51-.49c-1.67-.35-3.36-.61-5-1l-5-1.26c-1.65-.42-3.27-1-4.91-1.44a150.59,150.59,0,0,1-19-7.43A122.27,122.27,0,0,1,320.12,515Z" fill="#750511"/>
        <path d="M287.06,374.86a11.08,11.08,0,0,1-4.22-13.67c.45-1.2,1-2.49,1.52-3.89,6-15,16-40.21,1.78-77.09l4.11-1.59c14.86,38.49,4,65.69-1.8,80.31-.54,1.37-1.05,2.64-1.5,3.82-2.1,5.55,2.2,8.23,2.39,8.35Z" fill="#750511"/>
        <path d="M209.54,590.89c-13.82-9.5-10.41-30.49-6.09-57.06,1.67-10.27,3.39-20.88,4.4-32.17.06-23.6,20.87-48.32,41-72.22,16.18-19.21,32.91-39.08,37.21-57l.28-1.19,1.16-.39a90.78,90.78,0,0,1,37.94-4.37,62.09,62.09,0,0,1,15.31,3.31l1.09.44.25,1.15c9.4,43.86,105.71,39,106.69,39l.24,4.4a263.05,263.05,0,0,1-51.26-3.05c-34.27-5.8-54.87-19-59.7-38.19a64.53,64.53,0,0,0-13.26-2.67A86.14,86.14,0,0,0,290,374.7c-4.92,18.52-20.91,37.5-37.82,57.58-19.65,23.33-40,47.46-40,69.48v.2c-1,11.49-2.85,22.7-4.45,32.58-4.07,25-7.28,44.81,4.24,52.73Z" fill="#750511"/>
        <path d="M225.66,663.84l-.87-1.18c-1-1.32-23.53-33.09-11-100l4.33.81c-6.34,33.93-3.21,58.4.54,73,3.14,12.23,7.23,19.69,8.93,22.45,6.75-1.69,35.29-9.06,67.62-20.48,52.91-17.18,118.32,1,157.4,11.78,15.11,4.19,32.23,8.94,34.28,6.78h0a3,3,0,0,0-.29-1.32c-4.37-11.56-16.43-73.07-25.56-125.87-5.3-30.63-9.52-57.5-12.2-77.72-4.8-36.23-3.06-39-2.22-40.27a2.78,2.78,0,0,1,2.16-1.35l.32,4.39a1.57,1.57,0,0,0,1.26-.73c-1.77,3.89,2.24,41.28,15.2,116,10.31,59.48,21.36,113.92,25.15,124,1.15,3,.32,4.86-.58,5.84-3.66,4-13.88,1.37-38.7-5.5-38.6-10.7-103.21-28.61-154.81-11.86-37,13.08-69.18,20.88-69.5,21Z" fill="#750511"/>
        <path d="M227.25,272.47c-2.77,0-9.43-2.17-34.13-37.74-12.82-18.46-24.44-37.24-24.55-37.43L172.3,195c.12.19,11.68,18.89,24.43,37.25,24.43,35.16,30.22,35.85,30.78,35.83,10.31-.69,21.61-7.67,21.73-7.74l2.33,3.73c-.5.31-12.34,7.64-23.77,8.4Z" fill="#750511"/>
        <path d="M173.76,169.59c-.2-.25-.41-.48-.63-.72a17.92,17.92,0,0,0-2.12-2c-.35-.28-.69-.55-1.05-.79-4.15-2.88-8.63-3.19-12.74-.8l-.64.37-.41.24L156.1,168a14.64,14.64,0,0,1-.21,1.75l0,.24c-.56,3.67-1.25,9.58,7.55,14a13.7,13.7,0,0,0,6,1.67l1.07-.07a6.55,6.55,0,0,0,2.52-.89,7.6,7.6,0,0,0,3.12-4.22,15.36,15.36,0,0,0,.68-4.51C176.76,174.23,175.56,171.79,173.76,169.59ZM165.37,180c-6.14-3.07-5.64-6.24-5.14-9.62.11-.65.2-1.28.24-1.88,2.52-1,5.12-.43,7.76,1.72s4.07,4.95,4.12,5.7c0,1.91-.47,4.22-1.69,5C169.64,181.55,167.76,181.25,165.37,180Z" fill="#750511"/>
        <path d="M302.41,201.54,299,198.81c5.47-6.93,13.67-45.55,3.1-66.67-4.59-9.17-12.19-13.69-22.59-13.42-40.54,1-51.15,80.92-51.25,81.73l-4.37-.55A201.2,201.2,0,0,1,234.56,158c10.79-28.08,26.27-43.17,44.79-43.65,12.06-.31,21.3,5.17,26.64,15.85C317.16,152.49,309,193.19,302.41,201.54Z" fill="#750511"/>
        <path d="M343.89,158.22c-15.53,0-38.08-17.66-39.17-18.51l2.73-3.45c7.85,6.2,30.49,21.3,40.77,16.77l1.77,4A15.07,15.07,0,0,1,343.89,158.22Z" fill="#750511"/>
        <path d="M325.63,122.57c-27.66,0-30.83-71.84-31-74.9l4.4-.17c.78,19.66,7.08,70.67,26.56,70.67,16.77,0,20.85-12.08,21-12.59l4.2,1.32C350.8,107.06,345.73,122.57,325.63,122.57Z" fill="#750511"/>
        <path d="M311.31,131.29a66.72,66.72,0,0,1-9.12-.67l.64-4.36c6.61,1,16.89,1,19-1.79.18-.24.72-1-.16-2.92l4-1.8c1.61,3.59.7,6-.34,7.38C322.84,130.47,316.71,131.29,311.31,131.29Z" fill="#750511"/>
        <path d="M301,89.37S274.63,53,298.84,24.43s55.13.22,47.42,6.51c-8,0-8.9-2.48-8.16,22.11C323.9,37.67,294.79,44.23,301,89.37Z" fill="#750511"/>
        <circle cx="330.13" cy="11.8" r="12.38" fill="#750511"/>
        <path d="M348.38,107.72s31.55,30.82,2.57,35.22c-3.69-.14-44.12-9.48-46.6-13.21,19.81,1.83,21.28-9.36,21.28-9.36C333.86,120.5,341.72,118.12,348.38,107.72Z" fill="#750511"/>
        <path d="M242,661.36s-8.81,11.56-17.61,12.11-14.31,8.26-10.46,8.81,45.68,2.2,47.88-1.65-6.6-18.71-5-21.46S242,661.36,242,661.36Z" fill="#750511"/>
        <path d="M451.66,661.36s-8.81,11.56-17.61,12.11-14.31,8.26-10.46,8.81,45.68,2.2,47.88-1.65-6.6-18.71-5-21.46S451.66,661.36,451.66,661.36Z" fill="#750511"/>
        <path d="M272.43,610a15,15,0,0,1-10.82-4.84c-14.56-14.63-17-60.17-17.36-76.59-4,4.7-10.44,12.62-16.7,21.17-17,23.22-18.41,31.67-17.73,34.64.06.23.82,2.9,2.78,2.55l.79,4.33c-4.79.87-7.22-3.43-7.85-5.83-3.47-15,34.81-59.21,39.18-64.19l3.88-4.42,0,5.88c0,.63-.08,63.07,16.15,79.36a10.62,10.62,0,0,0,7.7,3.55c11.32,0,28.73-9.26,47.16-19.05,23.31-12.39,49.72-26.44,72.08-26.44,15.33,0,65.77-44.78,65.77-48.28h0c0,4.89-51,52.68-65.77,52.68-21.26,0-47.16,13.77-70,25.93C301.91,600.92,284.85,610,272.43,610Z" fill="#750511"/>
        <path d="M227.24,460a13.81,13.81,0,0,1,2.19-2.64c.76-.76,1.54-1.46,2.32-2.16,1.57-1.39,3.19-2.71,4.81-4,3.25-2.61,6.55-5.13,9.87-7.62,6.65-5,13.38-9.84,20.14-14.66q20.29-14.43,40.9-28.39-20.27,14.44-40.25,29.27c-6.65,5-13.26,10-19.78,15.08-3.26,2.56-6.49,5.14-9.65,7.8-1.58,1.33-3.14,2.68-4.65,4.07-.75.7-1.49,1.4-2.18,2.12A12.85,12.85,0,0,0,229.2,461Z" fill="#750511"/>
        <path d="M437.23,649.89,422,646.53l-7.53-2-3.76-1-1.88-.5-1.86-.59-7.43-2.35c-1.23-.4-2.48-.75-3.7-1.2l-3.66-1.34-7.31-2.7-7.18-3a206,206,0,0,1-27.57-14.4,153.32,153.32,0,0,1-12.7-9A85.73,85.73,0,0,1,326,597.95a85.53,85.53,0,0,0,11.67,10.17,152.72,152.72,0,0,0,12.88,8.58,204.74,204.74,0,0,0,27.77,13.58l7.2,2.81,7.32,2.49,3.66,1.24c1.22.41,2.47.73,3.71,1.1l7.43,2.13,1.86.53,1.88.45,3.76.9,7.51,1.79,15.17,2.93Z" fill="#750511"/>
        <path d="M291,344.49c4-9.31,7.81-18.77,11.19-28.36,1.68-4.8,3.26-9.63,4.56-14.54.65-2.46,1.24-4.93,1.64-7.44a20.34,20.34,0,0,0,.13-7.57,20.46,20.46,0,0,1,.14,7.61c-.32,2.54-.82,5-1.38,7.53-1.13,5-2.54,9.89-4.05,14.76-3,9.74-6.49,19.34-10.2,28.86Z" fill="#750511"/>
        <path d="M293.18,208.78c1.41-7.86,2.44-15.84,3.13-23.83a182.65,182.65,0,0,0,.62-24A93.66,93.66,0,0,0,295.64,149a44.92,44.92,0,0,0-3.48-11.42c-1.71-3.56-4.3-6.89-8-8.56s-7.92-1.45-11.76-.39a22.36,22.36,0,0,1,5.95-1,14.56,14.56,0,0,1,5.93,1.11c3.78,1.62,6.52,5,8.35,8.57a45.58,45.58,0,0,1,3.8,11.51,94.62,94.62,0,0,1,1.58,12,184,184,0,0,1-.08,24.21,214.91,214.91,0,0,1-2,21.7Z" fill="#750511"/>
        <path d="M211.89,501.66c.5,6.58,1.17,13.18,2.06,19.73q.66,4.92,1.59,9.78a59.21,59.21,0,0,0,2.52,9.54l-.59.24a60,60,0,0,1-2.93-9.57q-1.14-4.86-2-9.78c-1.16-6.55-2.09-13.13-2.85-19.75Z" fill="#750511"/>
        <path d="M237,204.66a4.58,4.58,0,0,1-.76-1.13,10,10,0,0,1-.46-1.07,13.46,13.46,0,0,1-.56-2.16,22.31,22.31,0,0,1-.32-4.28,36.87,36.87,0,0,1,.31-4.2c.18-1.39.43-2.76.7-4.12-.09,1.39-.16,2.77-.15,4.15A36,36,0,0,0,236,196a20.94,20.94,0,0,0,.82,3.94,11.67,11.67,0,0,0,.73,1.79,8,8,0,0,0,.47.78,2.71,2.71,0,0,0,.46.54Z" fill="#750511"/>
        <path d="M244.73,502.31a21.86,21.86,0,0,1,2.51,5.73,31.19,31.19,0,0,1,1.18,6.15,30,30,0,0,1,0,6.26,23.13,23.13,0,0,1-1.44,6.08c-.16-2.1-.15-4.12-.28-6.14s-.25-4-.43-6C245.88,510.38,245.3,506.43,244.73,502.31Z" fill="#750511"/>
        <path d="M375.89,138.17c-12.32,0-19.34-16.06-19.63-16.74l4-1.74c.06.14,6.18,14.08,15.59,14.08Z" fill="#750511"/>
        <path d="M226.05,661.55a131.73,131.73,0,0,1-5.5-23.39,122.61,122.61,0,0,1-1.19-24,88.84,88.84,0,0,1,4.33-23.55,68.77,68.77,0,0,1,11.32-21A68.63,68.63,0,0,0,224,590.73a88.42,88.42,0,0,0-4,23.49A121.92,121.92,0,0,0,221.36,638a130.88,130.88,0,0,0,5.72,23.13Z" fill="#750511"/>
        <path d="M210.79,589.08s5-17.7,3.39-21.55C207.58,578.53,206.85,585.87,210.79,589.08Z" fill="#750511"/>
        <path d="M210.79,589.08c8.6-21.95,19.95-39.95,36.14-51,0,0,2.69-15.77-3.12-12.47-6.65,3.77-22.33,27.47-29.63,41.92C200.52,594.58,210.79,589.08,210.79,589.08Z" fill="#750511"/>
        <path d="M332.78,584.31s42.69-22.2,84-17.8C388.13,561.55,380.11,554.59,332.78,584.31Z" fill="#750511"/>
        <path d="M272.8,403.8s32.69-37.94,67.88-26.42c-.73-5.5,1.42-6,1.42-6s-35.87-5.82-52.78,1.56Z" fill="#750511"/>
        <path d="M309.67,141.29c2.48,17.24,2.75,40.45,9.36,39.62L303.61,198A128.31,128.31,0,0,0,309.67,141.29Z" fill="#750511"/>
        <path d="M169.37,185.65l13.41-.89s-4.65-17.24-6.48-17.24-5,2.7-5,2.7S179.68,181.76,169.37,185.65Z" fill="#750511"/>
        <path d="M186.17,207.79c20.59,19.16,39.26,39,54.15,60.08L251.58,264,190.7,204.11Z" fill="#750511"/>
        <path d="M244.73,502.31s3.64,15.2-3.12,22.93l7-2.56Z" fill="#750511"/>
        <path d="M416.75,566.51s24-10.67,23.35-24.68c-3.34-8-6.67-5.34-6.67-5.34s-34.82,27.33-41.75,28Z" fill="#750511"/>
      </g>
      <path d="M483.65,151.84h0c-.76-2.85-4-6.18-7-8.14-5.26-3.36-11-3.91-16.24-1.51l-1.39.63-.09,0-.12,2.55a13,13,0,0,1-.23,1.51c0,.12,0,.24-.07.36-.68,3.56-1.51,9.75,9.36,14a19.26,19.26,0,0,0,7,1.55,8.82,8.82,0,0,0,5.08-1.43,8.44,8.44,0,0,0,3.4-4.94,13.14,13.14,0,0,0,.48-3.44h0A4.12,4.12,0,0,0,483.65,151.84ZM477,157c-1.31.88-3.86.65-7.18-.65-6.31-2.51-6.62-4.83-6.2-7.43.05-.32.12-.65.19-1s.19-1,.25-1.44a10.47,10.47,0,0,1,5.8-.05h0a12.28,12.28,0,0,1,1.93.71,15.72,15.72,0,0,1,1.95,1.05,12.82,12.82,0,0,1,4.76,4.95,9.19,9.19,0,0,1-.13,1.25A3.91,3.91,0,0,1,477,157Z" fill="#750511"/>
    </g>
  </g>
</svg>
