<svg xmlns="http://www.w3.org/2000/svg" viewBox="0 0 700 700">
  <title>Artboard 2</title>
  <g id="Midtones">
    <path d="M58.5,207,109,190.5,66,215S53,214.5,58.5,207Z" fill="#f7982d"/>
    <path d="M39,259.5s-15.1,22.12-12.93,30.43c3.62,13.84,21.89,26.78,93.57-2.6-10,27.67-20,61.67-20,61.67l-90-26.12S-11.5,310,39,259.5Z" fill="#f7982d"/>
    <path d="M56.44,239.84S31,268.33,27,273,7,310.33,7,310.33s-2-35.88,17-66.94C35.67,235,56.44,239.84,56.44,239.84Z" fill="#f7982d"/>
    <path d="M46.5,248.5s27.25,1,30.25-.5S151,220.5,155,211.5c-73.5,29-79,29-79,29S45,234.5,46.5,248.5Z" fill="#f7982d"/>
    <path d="M24,227.33s48,6,54,4,84.67-24.67,84.67-24.67S87.33,241,76,240.5s-50.67-7.17-50.67-7.17S17.33,231.33,24,227.33Z" fill="#f7982d"/>
    <path d="M58.5,207s5.5,4.5,12.5,2.5L62.5,217l-25,2.5Z" fill="#c45937"/>
    <path d="M208,223.33S159.22,255.57,160.67,250c1.3-5,34.76-26.67,46.67-44.67,5.75-8.7-2.67-27-33-39.67-2.61-4.43,27.85,9.89,23.81,8.1l20.24,7.14S252.67,187.33,208,223.33Z" fill="#f7982d"/>
    <path d="M120,167s37-21,54-14c3.53,1.54,12.59.9,16.25,2.75C180.25,161.08,210,172,210,172s-28-21-95,4Z" fill="#f7982d"/>
    <path d="M130,256.5s9.74,1.57,6.79,5.42c-7.44,9.71-22.44,27.59-35.79,33.08,7.5.5,17.5-2,17.5-2s7.83-22,47.83-44c-1,.33-2-.3-3,0C138,258.38,130,256.5,130,256.5Z" fill="#f7982d"/>
    <path d="M559.33,277.33s-18,8-18.67,16.67,2,69.33,2,69.33S532,398.67,532,430.67s-2,70,4.67,74S650,393.33,650,393.33L660.67,368l-5.33-19.33s1.33-59.33-16-68S608,271.33,608,271.33L620.67,314s4,16.67-2.67,16.67A55,55,0,0,0,606,332l1.33,12.67s.67,10-13.33,9.33-8.67-7.33-8.67-7.33,1.33-12,5.33-15.33S566,326,562,314A362.08,362.08,0,0,0,559.33,277.33Z" fill="#f7982d"/>
    <path d="M234.33,192s8,5.67,9.67,10.67S239.33,223,239.33,223Z" fill="#f7982d"/>
    <path d="M212.5,172.25s10.5,4.75,4-5.25c12.25,11.75,14.25,16.5,14.25,16.5l.75,8.25Z" fill="#f7982d"/>
    <path d="M562,314s55.5,16,50.5-1S596,246.5,596,246.5C618,302,620.67,314,620.67,314s3.83,14.33-2.67,16.67S571.5,331,562,314Z" fill="#f7982d"/>
    <path d="M606,445.33S526,499,537,510c10.19-5.82,109.29-87.5,112.33-74.67,6,25.33,25.33,70.67,25.33,70.67l14.67,28.67L656.67,380Z" fill="#f7982d"/>
    <path d="M659.33,475.33s19.83,64.33-.67,70.67S578,560.5,567,563c0,0,119.67,25,129,13.67C694,554,690.67,530,690.67,530Z" fill="#f7982d"/>
    <path d="M588,222l27,50.5,20.5,5.5S639.5,256.5,588,222Z" fill="#f7982d"/>
    <path d="M510.67,228.67c19.9,6.61,41.2,14.54,45.33,6.33l.67,15.67Z" fill="#f7982d"/>
    <path d="M442.5,244s-6-5.5-3.5-31c5.82,12.82,8.83,4,9.5,2Z" fill="#f7982d"/>
    <path d="M464.5,178.75c-.39,3.34-4.62,8.42-10.5,14.25,0,0,9.5-7.5,11.5-5s56.5-9.5,56.5-9.5l3.5-3S489.5,169,464.5,178.75Z" fill="#f7982d"/>
    <path d="M593.5,375s10-22.5,17.5-22.5l-3.5-3.5L594,354Z" fill="#c45937"/>
    <path d="M646,339.5s5.5-34.5-2-51l8,16.5c1.74,16.73,3.33,43.67,3.33,43.67C660.77,358.49,656.79,354.13,646,339.5Z" fill="#c45937"/>
    <path d="M648.33,341.67s-3-6.67-19-10.67c0,2.12,21.07,26.95,20.89,29.72-.7,11.21-3.51,27-12.56,41.61L652.33,390l8.33-22C659.45,360.37,654.92,351.42,648.33,341.67Z" fill="#c45937"/>
    <path d="M497,271.33s51,7,61.67,1.33l.67,4.67L541.67,289Z" fill="#f7982d"/>
    <path d="M442.75,252.75s-7,12,1.75,20.75l1.75-8.5Z" fill="#c45937"/>
    <path d="M18.5,283.5s-17,35,29.5,34c16.88-.36,32.39,5.17,41.33,2.17A26.24,26.24,0,0,0,107,299.5l-3.5,40-48,2.5L9.64,322.88S-4,321,18.5,283.5Z" fill="#c45937"/>
    <path d="M24,243.39S10,281.67,23.33,276l-13,21-5,17.67S11,255.46,24,243.39Z" fill="#c45937"/>
    <path d="M214,182.5c3.7,2.32,12.7,20.57,8.75,23.25,7-5.75,9.5-11.25,9.5-11.25Z" fill="#c45937"/>
    <path d="M235.25,194.5l4.25,25.75,4.25-14.5S241.5,193.25,235.25,194.5Z" fill="#c45937"/>
    <path d="M115.75,173.5,168,162.75c2.52-2.27-37.37-.81-48,4.25C113.5,173.5,115.75,173.5,115.75,173.5Z" fill="#c45937"/>
    <path d="M18.33,263.33S33,244.25,60.75,241.25c-21.25-4.25-37.08-.58-37.08-.58Z" fill="#c45937"/>
    <polygon points="629.5 275 604.5 234 588 222 615 272.5 629.5 275" fill="#c45937"/>
    <path d="M638.5,411s14-11.5,18,5,30,103.5,30,103.5L656.67,380Z" fill="#c45937"/>
    <path d="M634,570s61.5,1.5,56-26l6,32.67S646.5,577.5,634,570Z" fill="#c45937"/>
    <path d="M618.75,332.5s8.5,1.75,7-11-4.5-33,0-33,18.25-.5,21.5,12.25A123.76,123.76,0,0,0,647.5,288s-7.75-10-14.25-10.25S608,271.33,608,271.33,626.5,320.25,618.75,332.5Z" fill="#c45937"/>
    <path d="M509.33,272.67s-49.5-22.17-48-38.67,6.17-36,11.67-44.5C454,193,445.5,240,445.5,240S463.33,270.67,509.33,272.67Z" fill="#f7982d"/>
    <path d="M518,188l38,9.5L528.5,180S518,178,518,188Z" fill="#f7982d"/>
    <path d="M510.67,228.67S569,265.5,547.5,274.5c0,6,11,6,11,6l.17-7.83-2-22Z" fill="#f7982d"/>
  </g>
  <g id="Main">
    <g>
      <path d="M210.54,148.87l-5.29-2c20-17.56,32.77-34.64,44.58-51.65l30,7.56c36.46,14.49,43.84,61.82-3.53,33.44-6.88,1.87-12.45,15.77-12.45,15.77l-8.65,5.16a101.28,101.28,0,0,0,5.62-15.23c1.72-6.46,2.42-13.14-.8-15.94-4.59-3.89-9,2.09-12,7.95a68.26,68.26,0,0,0-3.63,8.75s-10.85.08-15.39.18C216.17,144,210.54,148.87,210.54,148.87Z" fill="#750511"/>
      <path d="M245.3,198.33h-.87l-.36-.14a43.82,43.82,0,0,1-11.5-7.18l2.88-3.24a40.19,40.19,0,0,0,9.88,6.25c18.59,0,39.48-31.55,49.55-46.77,3.83-5.78,4.37-7.06,4.42-7.19a1.88,1.88,0,0,0-.1.56l4.33.17c0,.56-.05,1.32-5,8.85C288,165.47,266.24,198.33,245.3,198.33Z" fill="#750511"/>
      <path d="M686.29,580.13c-14.54,0-40.29-3.43-67.85-11.23-23.93-6.77-46.16-3.26-60.87-.93-12.18,1.93-19.53,3.09-21.25-2.45-.11-.35-10.22-36.27-1-60.85l4.06,1.52c-8.63,23,1,57.71,1.09,58.06.61,1.95,9,.62,16.43-.55,15.09-2.38,37.89-6,62.73,1,39.21,11.1,69.42,12.08,75.06,10.47-.09-14.05-31-165.79-39.72-198l4.18-1.13c3.81,14.13,14.34,62.52,24,110.17,5,24.87,9.15,46.25,11.91,61.83,5.07,28.58,4.27,29.22,2.95,30.28S692.41,580.13,686.29,580.13Z" fill="#750511"/>
      <path d="M604.4,592c-7.67,0-14.83-1-16.48-3.85-.41-.71-1.13-2.6,1-4.71,5.72-5.7,26.64-16.18,27.52-16.62l.67-.33,9.42,1.92,2.91,17.14v.19c0,2.91-3.89,3.92-5.55,4.35C620.23,591.07,612.07,592,604.4,592Zm-12.2-5.71c4.69,2.24,28.37,1.49,32.79-1.11l-2.23-13.13-5-1C614.14,572.87,597.2,581.59,592.2,586.32Z" fill="#750511"/>
      <path d="M591.64,592c-15.31,0-16.59-3.09-17.07-4.25-.34-.83-.64-2.49,1.19-4.31,5.72-5.7,26.64-16.18,27.52-16.62l.67-.33,8,1.62-.87,4.25-6.5-1.32c-3.57,1.81-20.45,10.5-25.48,15.24,1.54.65,5.6,1.4,12.58,1.4h.11V592Z" fill="#750511"/>
      <path d="M536.34,507.95a3.77,3.77,0,0,1-2.81-1.36c-6.8-7.56-4.4-60.34-3.85-70.84.33-6.25,3.34-60,10.52-71-.54-6.44-1.17-24.91-1.73-41.29-.42-12.35-.86-25.12-1.08-26.68-.67-4.71,5.4-16.28,23-22.92L562,277.9C545.67,284,541.38,294,541.68,296.15c.24,1.71.59,11.43,1.12,27.15.59,17.1,1.25,36.48,1.79,41.84l.09.93-.61.71c-6.83,7.93-13.28,86.13-10.15,123.06.79,9.39,2,12.5,2.55,13.48,8.35-7,111.48-94.43,121.64-137.14-1-10.68-4.91-15.8-4.95-15.85l-.49-.63,0-.81a227.2,227.2,0,0,0-1.52-32.73c-2.7-21.11-8.43-33.39-16.57-35.52l-.13,0c-.22-.07-22.36-7.32-28.56-8l.48-4.31c6.54.73,27.81,7.66,29.37,8.17,22.45,6,21.51,64.18,21.28,71.84,1.28,1.91,4.57,7.73,5.41,17.84l0,.33-.07.33c-4.39,19.23-26.58,48.71-66,87.62-29.18,28.83-57.46,52.41-57.74,52.65l-.15.12A3.92,3.92,0,0,1,536.34,507.95Z" fill="#750511"/>
      <path d="M696.63,576.68c-2.89,11.18-97.68-.44-156.11-7.89l46-7.23C628,570.76,691.76,582.79,696.63,576.68Z" fill="#750511"/>
      <path d="M657.09,358.88c-.94-2.24-2-4.49-3.1-6.68s-2.3-4.36-3.59-6.46a47.27,47.27,0,0,0-4.3-6,14.63,14.63,0,0,0-5.78-4.49,14.89,14.89,0,0,1,6.17,4.12,48,48,0,0,1,4.8,5.77c1.47,2,2.82,4.13,4.12,6.27s2.51,4.32,3.65,6.58Z" fill="#750511"/>
      <path d="M5.92,321.73,25.06,446,30,583.43H50.58l56-240.64C74.57,328.48,40.81,322.4,5.92,321.73Z" fill="#750511"/>
      <path d="M39.47,602.07c-9,0-9.42-.85-9.88-1.89a2.29,2.29,0,0,1,.37-2.43c.81-1.56,2.22-10.37,3.16-18.22a2.33,2.33,0,0,1-.17-1,2.23,2.23,0,0,1,2.47-2.13h2.43l0,.23,5.83.31,1.93.1L45.7,579c.42,6.28,11.71,8.83,11.83,8.86l1.05.22,6.17,13.1-3.22.17C51.08,601.85,44.13,602.07,39.47,602.07Zm-4.95-4.44c4.26.2,14,0,23.55-.49l-2.52-5.35c-3.13-.84-12-3.79-13.86-10.62l-4.38-.24C36.2,590.23,35.25,595.06,34.52,597.63Zm-4.44,0h0Z" fill="#750511"/>
      <path d="M61.31,596.38,61.14,592l5-.21-2.51-5.34c-3.13-.84-12-3.79-13.86-10.62l-4.39-.24c-.12,1-.28,2.25-.47,3.65l-4.3-.58c.25-1.85.45-3.45.57-4.48a2.34,2.34,0,0,1-.17-1,2.23,2.23,0,0,1,2.47-2.13h2.43l0,.23,5.83.31,1.93.1.13,1.92c.42,6.28,11.71,8.83,11.83,8.86l1.05.22,6.17,13.1-3.22.17S66,596.19,61.31,596.38Z" fill="#750511"/>
      <polygon points="690.81 538.87 658.73 474.25 692.73 537.87 690.81 538.87" fill="#750511"/>
      <polygon points="541.55 365.05 573.66 341.97 542.87 366.77 541.55 365.05" fill="#750511"/>
      <path d="M108.42,346.09l-2.75-1.35c-.43-.21-43.17-20.86-97-20.86l-2.69,0-1.51,0-.54-1.41c-4.34-11.29,1.7-35.12,5.69-50.89.53-2.09,1-4,1.45-5.79,3.64-14.95,14.28-33.1,14.73-33.86l3.73,2.2c-.11.18-10.76,18.37-14.26,32.69-.43,1.76-.93,3.72-1.46,5.82-3.69,14.56-9.18,36.24-6.3,46.86H8.63c47.09,0,85.84,15.49,96.22,20.05,1-7.75,4.19-29,9.52-45,6.46-19.38,44-43.37,74.32-60.08,25.84-14.23,42.36-40.67,42.52-40.93l3.69,2.27c-.69,1.12-17.26,27.66-44.12,42.45-41.93,23.09-67.6,43.56-72.3,57.65-6.35,19.06-9.67,46.84-9.7,47.12Z" fill="#750511"/>
      <path d="M33.79,223.41l-2.3-3.67c3-1.87,73.69-46,103.93-53.23l1,4.22C106.88,177.81,34.52,223,33.79,223.41Z" fill="#750511"/>
      <path d="M231.27,193.91a2.55,2.55,0,0,1-2.12-1.14c-28.52-42.9-105.15-21-115.38-14.64h0a2.54,2.54,0,0,1-3.6-3.33c12-22.86,54.85-37.42,62.8-39.34,9.8-2.61,24.93,3.06,38.49,14.47,15.17,12.76,23.51,28.34,22.33,41.68a2.53,2.53,0,0,1-1.9,2.22A2.5,2.5,0,0,1,231.27,193.91Zm-61.51-31.52c21.91,0,44.92,5.49,59.6,23.4-1.51-12.31-11.22-24.57-20.7-32.54-12.32-10.37-26.24-15.83-34.63-13.59-6.67,1.61-42.35,13.74-56.72,32.08C127.75,167.69,148.22,162.38,169.76,162.38ZM114,176.8h0Z" fill="#750511"/>
      <path d="M237.41,232.07l-6.73-45.25,3.73,1.88c.53.27,13,6.68,11.51,18.1a68.15,68.15,0,0,1-5.46,18.92Zm-1.1-36.84,3.12,21a60.88,60.88,0,0,0,2.2-10C242.25,201.4,239.09,197.58,236.31,195.23Z" fill="#750511"/>
      <path d="M3.77,319.29a85.76,85.76,0,0,1,4.43-17A87.26,87.26,0,0,1,16,286.56c6.21-9.92,14.19-18.56,22.79-26.34-8.36,8-16,16.9-21.86,26.9a85.9,85.9,0,0,0-7.2,15.7,83.9,83.9,0,0,0-3.81,16.77Z" fill="#750511"/>
      <path d="M127.32,280.1q-10.93,11.08-21.75,22.27c-3.6,3.74-7.19,7.48-10.72,11.28-1.75,1.91-3.55,3.8-5.13,5.83a3.22,3.22,0,0,0-.25.39.45.45,0,0,0,0,.08s0,0,0,0-.07,0-.05,0l.17-.08a8,8,0,0,0,.78-.55c.51-.4,1-.81,1.5-1.23,1-.84,2-1.7,2.93-2.56-.94.9-1.88,1.79-2.84,2.66-.48.44-1,.87-1.46,1.29a8.16,8.16,0,0,1-.79.6.75.75,0,0,1-.27.12.18.18,0,0,1-.17-.06.21.21,0,0,1,0-.15.58.58,0,0,1,0-.15,3.4,3.4,0,0,1,.26-.44c1.53-2.12,3.26-4.06,4.95-6,3.4-3.93,6.86-7.8,10.33-11.66q10.42-11.58,21-23Z" fill="#750511"/>
      <path d="M190.23,237.34c-8.7,4.29-17.5,8.43-26.54,12a140.31,140.31,0,0,1-13.8,4.66,63.38,63.38,0,0,1-14.33,2.39,63.12,63.12,0,0,0,14.17-2.91,139.48,139.48,0,0,0,13.54-5.14c8.86-3.86,17.45-8.31,26-12.9Z" fill="#750511"/>
      <path d="M637.31,278.85l-4.29-.61c2.11-15-27.14-40.33-49.33-58.11l2.71-3.38C623.47,246.46,639.18,265.61,637.31,278.85Z" fill="#750511"/>
      <path d="M560.22,202.07c-19.89-14.15-35.17-21.43-36.79-22l1.52-4.06c2,.75,17.47,8.11,37.78,22.56Z" fill="#750511"/>
      <path d="M540.44,291.15c-2.08-3.14-13.42-6.47-25.43-10-25.62-7.52-60.72-17.81-72.74-41.5l3.86-2c11.18,22,45.24,32,70.1,39.3,14.44,4.24,24.87,7.29,27.82,11.76Z" fill="#750511"/>
      <path d="M608.61,334c-17.21,0-36.66-7.72-44.27-14.51-2.94-2.63-4.3-5.2-4-7.65.76-6.83-3.21-45.5-5.42-65l4.31-.49c.26,2.32,6.42,56.94,5.42,66,0,.34,0,1.65,2.6,3.94,8.37,7.47,33.69,16.15,50.4,12.51a4.1,4.1,0,0,0,1.14-2.4c1.66-8.46-4.55-31.91-17-64.33-10.61-27.56-21.51-50.62-23.37-52.64-1.77-1.63-19.51-8-44.33-14.7-32.31-8.7-44-9.19-45.6-8.22l.1-.08-3.05-3.08c1.2-1.19,4.85-4.81,48.87,7,16.39,4.39,43.66,12.63,47.08,16,5.06,5.06,45.69,97.63,41.65,120.58-.52,3-1.79,4.94-3.76,5.86l-.44.15A46.5,46.5,0,0,1,608.61,334Z" fill="#750511"/>
      <path d="M557.09,253.39c-19.63-11.62-40.4-21.46-61.43-30.61,21.57,7.81,42.94,16.32,63.52,26.81Z" fill="#750511"/>
      <path d="M583.23,348.07l-1-4.44c-1.18-5.29,6.41-13.65,7.94-15.27l3.15,3c-3.67,3.89-7.3,9.38-6.86,11.36l1,4.44Z" fill="#750511"/>
      <path d="M592.08,355.62c-3.4,0-6.37-.48-7.54-1.36-.92-.69-3.36-2.52,2.29-15l3.95,1.79c-1.77,3.89-3.16,8.14-3.24,9.79,2.45.6,10.39.73,14.42-1.42,1.79-1,1.92-1.88,2-2.18.93-6.48-.47-15-.49-15.12l4.27-.71c.06.38,1.52,9.29.5,16.45-.26,1.8-1.41,4.29-5.42,6A30.17,30.17,0,0,1,592.08,355.62Z" fill="#750511"/>
      <path d="M440.87,248.59c-.78-4.47-1.36-8.91-1.8-13.4s-.71-9-.75-13.47a77.06,77.06,0,0,1,1-13.46,32.59,32.59,0,0,1,1.76-6.51,15,15,0,0,1,3.63-5.61,14.86,14.86,0,0,0-3.38,5.71,32.2,32.2,0,0,0-1.48,6.5,76.27,76.27,0,0,0-.41,13.34c.22,4.45.67,8.89,1.28,13.31s1.37,8.83,2.31,13.15Z" fill="#750511"/>
      <path d="M447.68,261.53l-4.85-6.47c-17.46-23.29-16.69-53.53-8.58-71.78,5.47-12.31,14.1-19.6,24.29-20.54,25.62-2.35,62.89,5.31,68.36,10.77a3.41,3.41,0,0,1,1.14,2.76c-.32,3.59-6.12,4.68-24.39,7.57-14,2.22-31.39,5-38.28,9.27l-.14.08c-24,12.54-18.57,59.83-18.51,60.3Zm21-94.88c-3.36,0-6.65.13-9.78.42-8.57.79-15.93,7.17-20.73,18-7,15.81-7.55,40.56,3.65,60.58a122.36,122.36,0,0,1,.79-18.35c2.33-18.94,9.42-32,20.5-37.88,7.68-4.73,24.75-7.44,39.82-9.83,7.37-1.17,16.28-2.58,19.76-3.81C516.68,172.35,491,166.65,468.71,166.65Z" fill="#750511"/>
      <path d="M354.53,156.75c3.15,3.75,6.22,7.49,9.37,11.14,2.57,4,5.33,7.93,8.17,11.75s5.85,7.51,9,11a77.89,77.89,0,0,0,10.26,9.59,37.35,37.35,0,0,0,5.76,3.66,19.76,19.76,0,0,0,6.15,2,13.49,13.49,0,0,0,3.06,0,12,12,0,0,0,2.9-.76,14.89,14.89,0,0,0,5-3.77A31.54,31.54,0,0,0,421,189.83a49.77,49.77,0,0,0,4.34-13.52,40.39,40.39,0,0,1-.24,14.9,35.63,35.63,0,0,1-7.66,13.21,24.73,24.73,0,0,1-2.91,2.69,17.5,17.5,0,0,1-3.58,2.11,16.33,16.33,0,0,1-4.07,1.08,17.78,17.78,0,0,1-4.15-.05,24,24,0,0,1-7.52-2.47,41.61,41.61,0,0,1-6.43-4.08,82.08,82.08,0,0,1-10.85-10.12c-3.31-3.63-6.38-7.43-9.31-11.33s-5.68-7.91-8.38-12A125.78,125.78,0,0,1,354.53,156.75Z" fill="#750511"/>
      <path d="M369.37,180c.62,3-46.94-15.31-10.49-51.93,45.57-42.26,75.25,28.2,69.51,41.59-2.09.36-20.84-14.26-19.06-13.6,9.26-4.89-6.93-19.81-13.88-11.34-2.07,3.94,3.09,14.17,2.61,18.77C382.35,145.08,361.8,158.76,369.37,180Z" fill="#750511"/>
      <circle cx="376.28" cy="117.08" r="9.86" transform="translate(20.77 287.09) rotate(-42.84)" fill="#750511"/>
      <path d="M428.68,211.76c-1.93-4.25-8.73-10-11.19-11.83l2.61-3.46c.4.3,9.75,7.39,12.53,13.51Z" fill="#750511"/>
      <path d="M442.18,176.16a33.79,33.79,0,0,1-19-10.7l3.16-3A29.6,29.6,0,0,0,443,171.9Z" fill="#750511"/>
      <path d="M449.66,280.4l-4.17-3.62c-5.15-4.46-7.91-9.39-8.22-14.63a18.58,18.58,0,0,1,4.39-12.68l1.63,1.48,3.14-.34Zm-7-24.33A13.09,13.09,0,0,0,441.6,262a13.77,13.77,0,0,0,2.43,6.81Z" fill="#750511"/>
      <path d="M537.34,505.42s94.54-76.77,113.61-107c12.49-19.73,4.6-19.56,4.6-19.56S622.77,434.17,537.34,505.42Z" fill="#750511"/>
      <polygon points="594.32 353.51 593.73 390.51 592.16 353.54 594.32 353.51" fill="#750511"/>
      <path d="M584.86,348a32.36,32.36,0,0,1-6.9,9.27,74.94,74.94,0,0,1-8.9,7.07,74.42,74.42,0,0,0,8.11-7.82,30.74,30.74,0,0,0,5.69-9.38Z" fill="#750511"/>
      <path d="M606.8,346.81a30.46,30.46,0,0,0,6.49,5.3,16.45,16.45,0,0,0,8.06,2.4,17,17,0,0,1-8.54-1.43,32.05,32.05,0,0,1-7.48-4.68Z" fill="#750511"/>
      <path d="M85.73,212.49q-7.44,1.81-14.89,3.54l-7.45,1.71-3.72.87a35.56,35.56,0,0,1-3.74.73c-5,.73-10,1.65-15,2.55-2.49.46-5,.94-7.4,1.48a26.2,26.2,0,0,0-6.67,2.15c-2,1-3.2,2.53-3,3.7a1.69,1.69,0,0,0,.29.83c.18.24.24.33.48.35a5.77,5.77,0,0,0,.68.2l.85.23,1.81.42c4.88,1.09,9.89,2,14.87,2.87s10,1.67,15,2.4c2.5.36,5,.7,7.5,1,1.25.16,2.48.25,3.72.38l1.8.1a5.63,5.63,0,0,0,.82,0h1.38l.32.11a3.68,3.68,0,0,0,.92.09,13.07,13.07,0,0,0,1.37-.08c1-.1,2-.28,3-.48,2-.42,4.06-.95,6.09-1.53,4.07-1.16,8.12-2.51,12.15-3.92,8.06-2.83,16.05-5.94,24-9.18q5.95-2.44,11.85-5l5.88-2.59c1-.44,1.93-.93,2.92-1.35s2-.76,3-1.14c4-1.51,8-3.1,12-4.72q3-1.23,5.9-2.57c1-.45,1.94-.91,2.87-1.43a15.15,15.15,0,0,0,1.36-.83,4.48,4.48,0,0,0,.61-.5c.16-.17.41-.43.22-.67.24.21,0,.56-.11.76a4.67,4.67,0,0,1-.54.62,15.56,15.56,0,0,1-1.23,1.08c-.85.68-1.74,1.31-2.63,1.93-1.79,1.23-3.63,2.37-5.48,3.51-3.7,2.27-7.49,4.36-11.28,6.45-1,.51-1.89,1.05-2.86,1.53s-2,.86-3,1.29L134.49,222q-5.94,2.57-11.93,5c-8,3.26-16,6.39-24.2,9.26-4.09,1.43-8.2,2.79-12.4,4-2.1.6-4.22,1.15-6.42,1.61-1.1.22-2.21.42-3.39.55a17.3,17.3,0,0,1-1.85.1,7.47,7.47,0,0,1-2.26-.31l1,.09-1.16,0a8.81,8.81,0,0,1-1.09,0l-2-.11c-1.29-.13-2.6-.23-3.87-.39-2.56-.29-5.1-.63-7.63-1q-7.59-1.1-15.13-2.42c-5-.89-10-1.79-15.08-2.91L25.14,235l-1-.27A8,8,0,0,1,23,234.4a4.73,4.73,0,0,1-2.43-2,6,6,0,0,1-1-2.72,6.53,6.53,0,0,1,.29-2.82,7.8,7.8,0,0,1,1.29-2.32,11.22,11.22,0,0,1,3.65-2.89,30.05,30.05,0,0,1,7.78-2.56c2.53-.57,5-1,7.56-1.51,5-1,10.06-1.74,15.07-2.65a32.74,32.74,0,0,1,3.79-.49l3.81-.34,7.63-.65C75.54,213.11,80.63,212.76,85.73,212.49Z" fill="#750511"/>
      <path d="M19.29,246.68c-.33-.54-8.09-13.24-3.22-21.62,2.75-4.72,8.71-6.95,17.73-6.6l-.16,4.33c-7.29-.28-11.95,1.22-13.82,4.45-3,5.11,1.27,14.12,3.16,17.16Z" fill="#750511"/>
      <polygon points="60.91 213.63 128.52 181.62 62.88 217.49 60.91 213.63" fill="#750511"/>
      <polygon points="554.89 246.81 555.25 226.4 559.21 246.43 554.89 246.81" fill="#750511"/>
      <path d="M425.6,184.14s4,14.08,5.42,14.45c-2.89,9-.72,9.75-7.22,5.06S425.6,184.14,425.6,184.14Z" fill="#750511"/>
      <path d="M446.91,245.17s7.58-49.47,23.83-54.89C464.22,191.28,438.24,204.73,446.91,245.17Z" fill="#750511"/>
      <path d="M522.74,188.84s-1.81-7.58,5.42-6.86l-4-4-23.83,4.69Z" fill="#750511"/>
      <polygon points="589.91 223.33 619.16 272.08 606.16 270.45 589.91 223.33" fill="#750511"/>
      <path d="M589.37,333.83s14.73,4.65,15.71,9.21l.49-11.22S589.94,327.46,589.37,333.83Z" fill="#750511"/>
      <path d="M20.05,251.68s16.61-14.45,35.39-10.83c-10.83-4.33-27.81-7.76-27.81-7.76Z" fill="#750511"/>
      <path d="M89.12,319.75s11.92-4.6,11.78,2.44S99.14,336,93.18,334.92c9.21,10.29,13.44,7.88,13.44,7.88l12-54.46Z" fill="#750511"/>
      <path d="M485.05,267.23c8.32,1.92,16.73,3.62,25.17,5,4.22.7,8.46,1.3,12.72,1.75l3.2.29,3.2.17c1.07.05,2.14,0,3.21,0s2.13-.16,3.2-.23c-1.06.12-2.12.31-3.2.37s-2.15.12-3.22.12l-3.22,0-3.22-.16c-4.29-.27-8.56-.69-12.83-1.21q-12.79-1.59-25.47-4Z" fill="#750511"/>
      <path d="M519.94,174.57c-4.58-.47-9.23-.74-13.86-.89s-9.28-.16-13.92.05A128.11,128.11,0,0,0,478.3,175a70.92,70.92,0,0,0-13.51,3.35,71.18,71.18,0,0,1,13.42-3.88,128.86,128.86,0,0,1,13.89-1.83c4.66-.4,9.33-.55,14-.6s9.34.05,14,.35Z" fill="#750511"/>
      <path d="M116.74,168.22c4.57-2.5,9.21-4.71,13.94-6.78s9.55-3.92,14.45-5.51a101,101,0,0,1,15-3.73,49.9,49.9,0,0,1,15.38-.38,49.64,49.64,0,0,0-15.28.91A100.18,100.18,0,0,0,145.49,157c-4.81,1.75-9.52,3.77-14.13,6s-9.16,4.58-13.52,7.17Z" fill="#750511"/>
      <path d="M230.92,186a96.18,96.18,0,0,0-6-9.28,86.66,86.66,0,0,0-7.1-8.55,54.08,54.08,0,0,0-8.37-7.3,29.53,29.53,0,0,0-10.06-4.67,29.8,29.8,0,0,1,10.35,4.22,54.86,54.86,0,0,1,8.84,7,88,88,0,0,1,7.62,8.32,97.81,97.81,0,0,1,6.63,9.18Z" fill="#750511"/>
      <path d="M175,167.17s40.45,7.94,54.89,31.06l3.57-7.59S214,165.73,175,167.17Z" fill="#750511"/>
    </g>
  </g>
</svg>
