<svg xmlns="http://www.w3.org/2000/svg" viewBox="0 0 700 700">
  <title>Artboard 2 copy 9</title>
  <g id="Midtones">
    <path d="M213.06,259s-24,8-24,10.67-12,60,7.33,59.33,22-24,22-24,22-29.33,39.33-17.33l17.33,12S282.39,315,282.39,325s-5.33,154-5.33,154l-8,38.67s.67,28.67,12.67,26.67,10.67-32.67,10.67-32.67-5.33-27.33-4.67-38,8.67-120,8.67-120,4.67-62,42.67-66.67,70,14,70,14,21.33,18,22,48.67-3.33,60,13.33,60,.67-33.33.67-33.33-5.33-48.67,21.33-70S509.06,319,509.06,319s16,2,4.67-38-180.67-31.33-180.67-31.33A724.42,724.42,0,0,0,213.06,259Z" fill="#f7982d"/>
    <path d="M245.2,38.2s232.49-16.5,324,18V633c0,10-2.48,15.26-9,18.17-19.86,8.83-77.15,26.66-216,26.66,0,0,192-24.68,192-108.67v-465C536.18,57.7,360.69,38.2,245.2,38.2Z" fill="#f7982d"/>
    <path d="M350.23,210.18s-30.5-2-25.5-27l7.5-18s6.5,9.5,10,5.5,7.5-28,7.5-28,16.5,20,16.5,28S378.73,200.68,350.23,210.18Z" fill="#f7982d"/>
  </g>
  <g id="Darker_Mids" data-name="Darker Mids">
    <path d="M569.48,630.68c0-19.25-.66-574.37-.66-574.37l-34.19-9.77s24.42,9.77,24.42,28.08v577.3S569.48,649.93,569.48,630.68Z" fill="#c45937"/>
    <path d="M198.73,298.68s16-29.5,39.5-34l-16.5,3.5s-16.5,3.5-21.5,9C197.73,282.18,198.73,298.68,198.73,298.68Z" fill="#c45937"/>
    <path d="M470.73,269.18s26.25,4.75,28.75,7.25,7.5,11.25,7.5,11.25" fill="#c45937"/>
    <path d="M442,327.68s1.25-13.75,15-28.75" fill="#c45937"/>
    <path d="M296.73,303.93s15-23.25,33.25-24.25" fill="#c45937"/>
  </g>
  <g id="Main">
    <g>
      <path d="M506.87,608.94c6.41.55,12.8,1.33,19.15,2.41s12.67,2.39,18.91,4A101.74,101.74,0,0,1,563.18,622a37,37,0,0,1,8.19,5.33,15.53,15.53,0,0,1,3.13,3.79,8.34,8.34,0,0,1,1.19,4.68,8.83,8.83,0,0,0-1.63-4.4,14.79,14.79,0,0,0-3.31-3.32,40.6,40.6,0,0,0-8.22-4.67q-4.37-1.89-8.93-3.36t-9.18-2.72c-6.17-1.68-12.42-3.09-18.68-4.45Z" fill="#750511"/>
      <path d="M125.64,635.78a8.29,8.29,0,0,1,1.14-4.6,15.18,15.18,0,0,1,3-3.75,36,36,0,0,1,8-5.29,98.76,98.76,0,0,1,17.87-6.56c3.06-.82,6.13-1.57,9.22-2.25s6.19-1.28,9.31-1.79c6.22-1.08,12.49-1.85,18.78-2.4l-18.49,3.93c-6.14,1.36-12.26,2.76-18.3,4.43q-4.54,1.21-9,2.7t-8.74,3.34a39.5,39.5,0,0,0-8,4.63C128,630,125.89,632.57,125.64,635.78Z" fill="#750511"/>
      <path d="M351.27,698.38c-64.22,0-124.09-4.64-168.59-13.06-51.81-9.81-78.08-23.62-78.08-41V38.89c0-12.69,25.58-22.23,78.19-29.16C227.26,3.87,287.09.65,351.27.65s124,3.22,168.47,9.08c52.62,6.93,78.19,16.47,78.19,29.16V644.28c0,17.42-26.27,31.23-78.08,41C475.36,693.74,415.49,698.38,351.27,698.38Zm0-693.75c-64,0-123.66,3.21-168,9-23.74,3.13-42.26,6.91-55.06,11.24s-19.67,9.19-19.67,14V644.28c0,14.8,26.58,28,74.84,37.12,44.26,8.38,103.87,13,167.84,13s123.59-4.61,167.84-13c48.26-9.14,74.84-22.32,74.84-37.12V38.89c0-4.62-7.28-16.33-74.73-25.21C474.94,7.85,415.29,4.63,351.27,4.63Z" fill="#750511"/>
      <path d="M350.39,656.54c-41.23,0-79.68-2.67-108.26-7.51-33.65-5.7-50.72-13.92-50.72-24.42V330.28h4V624.61c0,15.93,66.63,27.94,155,27.94s155-12,155-27.94V317.82h4V624.61C509.37,649.81,409.44,656.54,350.39,656.54Z" fill="#750511"/>
      <path d="M345.93,251.2a2,2,0,0,1-1.87-1.29c-3.69-9.82-3.7-20.22,0-30.92a2,2,0,0,1,3.77,1.3c-3.37,9.8-3.38,19.3,0,28.22a2,2,0,0,1-1.87,2.7Z" fill="#750511"/>
      <path d="M346.43,221.62A34.43,34.43,0,0,1,312,187.23c0-10.25,9.51-30.26,15.17-41.28l1.8-3.5,1.76,3.52c1.06,2.12,3.5,4.3,4.84,4.33.18,0,.51,0,.94-.76,4-7.27,1-26.15-.53-32.81l-1.25-5.5,4.43,3.49A140.11,140.11,0,0,1,359.95,136c9.52,12,20.87,30.65,20.87,51.24A34.43,34.43,0,0,1,346.43,221.62Zm-17.17-70.9c-8.44,16.81-13.23,30-13.23,36.51a30.4,30.4,0,0,0,60.81,0c0-29.89-25.48-56.21-35.83-65.66,1.37,8.11,3,22.7-1,29.91a5,5,0,0,1-4.4,2.8h-.11C333.21,154.24,330.93,152.6,329.26,150.72Z" fill="#750511"/>
      <path d="M346.48,212.14a24.26,24.26,0,0,1-24.23-24.23c0-4.72,2.76-12.65,8.44-24.22l2.1-4.28,1.57,4.5c1,2.92,4.91,6.32,7,6.08,1.14-.14,1.51-2.18,1.62-3.39l0-.15c1.32-7.58,4.63-23.82,4.66-24l.73-3.55,2.61,2.52c.81.78,19.74,19.34,19.74,46.47A24.26,24.26,0,0,1,346.48,212.14ZM332.65,168.8c-5.26,11.21-6.42,16.57-6.42,19.11a20.25,20.25,0,0,0,40.49,0c0-19.61-10.88-34.78-16-40.79-1.06,5.27-2.93,14.68-3.85,19.95-.56,5.52-3.44,6.68-5.11,6.88C338.57,174.34,335,171.74,332.65,168.8Z" fill="#750511"/>
      <path d="M282.63,546.37c-3.86,0-7.48-2-10.2-5.74-4.84-6.58-7.95-20.21-2.16-38.71,4.62-14.78,5.76-49,7.09-88.55.8-23.87,1.62-48.54,3.29-72.47,1.54-22.12-2.62-37.7-12.36-46.31-10.95-9.66-25.48-6.94-25.63-6.92l-.39,0c-11,0-16.22,10-21.71,20.54-4.87,9.35-9.9,19-19.44,22.69-5.61,2.16-9.33.25-11.46-1.73-9.93-9.2-8-41.54-3.64-56.07,6-18.55,78.23-23.72,120.74-25.15,44-1.49,93.48-.18,132.24,3.49,44.27,4.19,68.4,10.49,71.74,18.73,14.31,33.31,8.75,45.87.6,54.47L509.17,327,508,324c-3.89-10.28-10.21-24.19-20.25-26.28-6.18-1.29-13.34,2.16-21.25,10.25-24.5,30.68-19.34,59.46-15.93,78.5,1.8,10,3.1,17.29-.46,21.55-1.88,2.24-4.89,3.33-9.2,3.33a8.47,8.47,0,0,1-6.25-2.48C429.9,404,430,392.72,430,378.39c.13-22.35.3-53-18.79-72.17-12.63-12.7-32.59-19.14-59.35-19.14-19.38,0-32.92,7.07-41.39,21.61-8,13.76-10.63,32.37-12.45,48.73-4.86,43.76-11.6,123.79-6,146.11,4.49,18,4.1,32.09-1.08,38.73A10.27,10.27,0,0,1,282.63,546.37ZM247.76,283.28c5.9,0,15.2,1.32,23.12,8.28,10.76,9.46,15.38,26.16,13.75,49.61-1.66,23.86-2.49,48.5-3.29,72.33-1.33,39.88-2.49,74.32-7.26,89.61-4.4,14.08-3.78,27.88,1.57,35.16,1.38,1.88,3.71,4.12,7,4.12a6.24,6.24,0,0,0,5.19-2.59c1.63-2.09,6.48-10.81.35-35.31C281,475.85,293.57,361.81,294.1,357c4.15-37.38,12-73.88,57.8-73.88,27.85,0,48.77,6.83,62.18,20.31,20.26,20.37,20.08,51.95,20,75-.07,12.88-.14,24,3.51,27.66a4.51,4.51,0,0,0,3.42,1.3c3.06,0,5.07-.62,6.14-1.91,2.36-2.82,1.14-9.65-.41-18.28-3.54-19.77-8.9-49.65,16.8-81.77l.13-.15c9-9.18,17.35-13,25-11.44,10.88,2.27,17.64,15,22,25.67,5.9-7.67,8.57-19.68-3.48-47.73l0,0c-1-2.39-8.71-10.61-68.43-16.26-38.6-3.66-87.85-5-131.73-3.48-68.5,2.31-113.35,10.88-117.07,22.35-4.08,13.61-5.79,44.24,2.54,52,1.95,1.81,4.27,2.1,7.32.93,8.13-3.13,12.8-12.12,17.33-20.81,5.78-11.1,11.75-22.57,25.06-22.68A33.67,33.67,0,0,1,247.76,283.28Z" fill="#750511"/>
      <path d="M199.39,304.36c-.59-3.54-1-7.1-1.27-10.68a70.87,70.87,0,0,1-.11-10.83c0-.45.1-.91.15-1.37a11.48,11.48,0,0,1,.23-1.38,6.52,6.52,0,0,1,.4-1.44,3.51,3.51,0,0,1,.37-.71,3.7,3.7,0,0,1,.44-.63,16.37,16.37,0,0,1,4.41-3.56,60.29,60.29,0,0,1,9.94-4.47,136.84,136.84,0,0,1,20.88-5.43,145.14,145.14,0,0,1,21.38-2.36c-7.09,1-14.11,2.34-21.07,3.88-3.47.8-6.94,1.62-10.36,2.6s-6.83,2-10.16,3.19a61,61,0,0,0-9.66,4.22,14.77,14.77,0,0,0-4,3,4.06,4.06,0,0,0-.95,2.05,10.22,10.22,0,0,0-.26,1.26c-.07.43-.16.85-.2,1.29a85.4,85.4,0,0,0-.46,10.62C199.08,297.21,199.25,300.78,199.39,304.36Z" fill="#750511"/>
      <path d="M460.87,266.92c5,.54,10,1.33,15,2.24s9.9,2,14.81,3.25a57.9,57.9,0,0,1,7.32,2.4,10.94,10.94,0,0,1,3.26,2.48,21.58,21.58,0,0,1,2.42,3.07,35.25,35.25,0,0,1,3.53,6.82,31.23,31.23,0,0,1,1.94,7.36,42.29,42.29,0,0,0-2.83-7,41.33,41.33,0,0,0-3.9-6.32,25.56,25.56,0,0,0-2.4-2.74,9.2,9.2,0,0,0-2.78-2,61.39,61.39,0,0,0-7.07-2.2c-4.84-1.3-9.74-2.45-14.62-3.66S465.74,268.28,460.87,266.92Z" fill="#750511"/>
      <path d="M487.81,333.6c.22,7.14.32,14.29.49,21.43l.28,21.43c.16,14.29.15,28.58.23,42.86-.08,14.29-.07,28.58-.23,42.86l-.28,21.43c-.17,7.14-.26,14.29-.49,21.43-.23-7.14-.32-14.29-.49-21.43L487,462.19c-.16-14.29-.15-28.58-.23-42.86.08-14.29.07-28.58.23-42.86l.28-21.43C487.49,347.89,487.58,340.74,487.81,333.6Z" fill="#750511"/>
      <path d="M317.36,545.91c.41,5,.63,10,.77,14.94s.2,10,.22,14.94-.06,10-.22,14.94-.36,10-.78,14.94c-.41-5-.63-10-.78-14.94s-.2-10-.22-14.94.06-10,.22-14.94S316.95,550.89,317.36,545.91Z" fill="#750511"/>
      <path d="M386.14,326.12c.41,5,.63,10,.77,14.94s.2,10,.22,14.94-.06,10-.22,14.94-.36,10-.78,14.94c-.41-5-.63-10-.78-14.94s-.2-10-.22-14.94.06-10,.22-14.94S385.72,331.1,386.14,326.12Z" fill="#750511"/>
      <path d="M209.71,366.49c.41,5,.63,10,.77,14.94s.2,10,.22,14.94-.06,10-.22,14.94-.36,10-.78,14.94c-.41-5-.63-10-.78-14.94s-.2-10-.22-14.94.06-10,.22-14.94S209.29,371.47,209.71,366.49Z" fill="#750511"/>
      <path d="M223.16,406.86c.41,5,.63,10,.77,14.94s.2,10,.22,14.94-.06,10-.22,14.94-.36,10-.78,14.94c-.41-5-.63-10-.78-14.94s-.2-10-.22-14.94.06-10,.22-14.94S222.75,411.84,223.16,406.86Z" fill="#750511"/>
      <path d="M400.25,182.05c4.86-.41,9.72-.63,14.58-.77s9.72-.2,14.58-.22,9.72.06,14.58.22,9.72.36,14.58.78c-4.86.41-9.72.63-14.58.78s-9.72.2-14.58.22-9.72-.06-14.58-.22S405.11,182.46,400.25,182.05Z" fill="#750511"/>
      <path d="M232.3,180.06c4.86-.41,9.72-.63,14.58-.77s9.72-.2,14.58-.22,9.72.06,14.58.22,9.72.36,14.58.78c-4.86.41-9.72.63-14.58.78s-9.72.2-14.58.22-9.72-.06-14.58-.22S237.16,180.47,232.3,180.06Z" fill="#750511"/>
      <path d="M276.91,91.6c2.68,2.1,5.22,4.33,7.71,6.61s4.92,4.63,7.32,7,4.73,4.82,7,7.32,4.52,5,6.61,7.71c-2.68-2.09-5.22-4.33-7.71-6.61s-4.92-4.63-7.32-7-4.73-4.82-7-7.32S279,94.28,276.91,91.6Z" fill="#750511"/>
      <path d="M393.41,122.24c1.88-2.47,3.9-4.79,6-7.07s4.21-4.49,6.37-6.68,4.39-4.31,6.68-6.37,4.6-4.09,7.07-6c-1.88,2.47-3.9,4.79-6,7.07s-4.21,4.49-6.37,6.68-4.39,4.3-6.68,6.36S395.88,120.36,393.41,122.24Z" fill="#750511"/>
      <path d="M475.51,39.51c13.52,1.18,27,2.7,40.46,4.43,6.73.9,13.44,1.88,20.14,3s13.38,2.36,20,4.05a51.2,51.2,0,0,1,9.78,3.35,8.94,8.94,0,0,1,2.3,1.58,5,5,0,0,1,.51.62,2.82,2.82,0,0,1,.34.79l.26,1.39.24,2.58.15,2.55c.34,6.8.45,13.58.56,20.37.2,13.57.26,27.14.28,40.7-.1,27.13-.28,54.26-.67,81.39L569.19,247c-.31,13.56-.57,27.12-1,40.68V247l.12-40.69c.07-27.13.27-54.25.21-81.38,0-13.56,0-27.12-.1-40.68-.09-6.77-.16-13.56-.47-20.31l-.13-2.52L567.62,59l-.19-1.11a.41.41,0,0,0-.07-.21c0-.05,0-.11-.08-.17a3.51,3.51,0,0,0-.3-.36,7.81,7.81,0,0,0-1.87-1.29,50,50,0,0,0-9.39-3.35c-6.51-1.76-13.16-3.07-19.82-4.29s-13.36-2.27-20.06-3.28C502.43,42.85,489,41.13,475.51,39.51Z" fill="#750511"/>
      <path d="M122.64,47.18a5.06,5.06,0,0,0,1.42,3.23,12.83,12.83,0,0,0,2.8,2.25,36.34,36.34,0,0,0,6.53,3,110,110,0,0,0,13.9,3.84c9.41,2,19,3.4,28.51,4.58,19.12,2.36,38.34,3.83,57.57,5,38.47,2.19,77,3.1,115.55,3s77.08-.85,115.55-3c19.23-1.12,38.45-2.59,57.57-4.95,9.56-1.17,19.1-2.56,28.51-4.58a110,110,0,0,0,13.9-3.84,36.34,36.34,0,0,0,6.53-3,12.83,12.83,0,0,0,2.8-2.25,5.07,5.07,0,0,0,1.42-3.23,5.1,5.1,0,0,1-1.38,3.27A12.93,12.93,0,0,1,571,52.76a36.51,36.51,0,0,1-6.51,3.16A110.31,110.31,0,0,1,550.65,60c-9.4,2.18-18.94,3.73-28.49,5.07-19.13,2.57-38.36,4.21-57.6,5.51s-38.52,2.08-57.8,2.65-38.56.83-57.85.86-38.57-.31-57.85-.86-38.55-1.34-57.8-2.65-38.47-2.94-57.6-5.51c-9.55-1.33-19.09-2.88-28.49-5.07a110.36,110.36,0,0,1-13.88-4.09,36.51,36.51,0,0,1-6.51-3.16A12.92,12.92,0,0,1,124,50.44,5.1,5.1,0,0,1,122.64,47.18Z" fill="#750511"/>
      <path d="M458.9,296.39c-1.86,2.67-3.68,5.32-5.45,8s-3.5,5.37-5,8.16c-.42.68-.78,1.38-1.16,2.09s-.76,1.4-1.09,2.12l-1,2.14c-.29.73-.61,1.46-.92,2.19a41.06,41.06,0,0,0-2.58,9.21,24.78,24.78,0,0,1,1.11-9.72,44.41,44.41,0,0,1,4-9,61.3,61.3,0,0,1,5.51-8.08A52.67,52.67,0,0,1,458.9,296.39Z" fill="#750511"/>
      <path d="M295.09,306.85a50.15,50.15,0,0,1,6.15-10.42,54.2,54.2,0,0,1,8.35-8.87,50.14,50.14,0,0,1,5-3.59A37.37,37.37,0,0,1,320,281.2a31.25,31.25,0,0,1,5.88-1.71,27.29,27.29,0,0,1,6.06-.38,42.93,42.93,0,0,0-5.83,1.33,39.82,39.82,0,0,0-5.48,2.18,49.46,49.46,0,0,0-9.8,6.47,76.07,76.07,0,0,0-8.42,8.32A108.92,108.92,0,0,0,295.09,306.85Z" fill="#750511"/>
      <path d="M219,310.34c.56-5.1,33.66-28.32,52.17-12.79C265.18,287.08,231.62,272.46,219,310.34Z" fill="#750511"/>
      <path d="M310,309.34c0-21.65,82.24-27.41,104.33,0,0,0-11.3-22.93-52.83-22.93C317,282.1,310,309.34,310,309.34Z" fill="#750511"/>
      <path d="M458.9,318.65s26.25-26.58,42.2-10a27.81,27.81,0,0,0-12.63-13S470.86,293.4,458.9,318.65Z" fill="#750511"/>
      <path d="M194.91,338.75s15.62-7,24.09-28.41c-20,22.07-18.5,22.28-25.59,19.94Z" fill="#750511"/>
    </g>
  </g>
</svg>
