<svg width="67" height="26" viewBox="0 0 67 26" fill="none" xmlns="http://www.w3.org/2000/svg">
<g clip-path="url(#clip0)">
<path d="M1.53363 26C1.35836 26 1.16847 25.9706 0.993194 25.897C0.394327 25.6763 -0.0146548 25.0877 -4.82855e-05 24.4403L0.0291647 1.54499C0.0291647 0.691568 0.71567 0 1.56285 0C2.41002 0 3.09653 0.691568 3.09653 1.54499L3.06732 20.2762L19.9086 0.544426C20.4637 -0.102999 21.4277 -0.17657 22.0704 0.382569C22.7131 0.941709 22.7861 1.91285 22.231 2.56027L2.70215 25.4703C2.39542 25.8087 1.97183 26 1.53363 26Z" fill="#750511"/>
<path d="M24.7434 25.9265C24.3636 25.9265 23.9839 25.7793 23.6917 25.4998L11.0863 13.4194C10.4729 12.8308 10.4436 11.8597 11.0279 11.2417C11.6122 10.6237 12.5762 10.5943 13.1897 11.1828L23.2097 20.7912V12.2275C23.2097 11.3741 23.8962 10.6826 24.7434 10.6826C25.5906 10.6826 26.2771 11.3741 26.2771 12.2275V24.3815C26.2771 24.9995 25.9119 25.5586 25.3423 25.8088C25.1524 25.8823 24.9479 25.9265 24.7434 25.9265Z" fill="#750511"/>
<path d="M38.0791 25.9411C33.259 25.9411 29.3444 21.6887 29.3444 16.4505C29.3444 16.4063 29.3444 16.3769 29.3444 16.3328V1.57441C29.3444 0.720987 30.0309 0.0294189 30.8781 0.0294189C31.7253 0.0294189 32.4118 0.720987 32.4118 1.57441V16.4063C32.4118 16.4358 32.4118 16.4799 32.4118 16.5093C32.441 20.0113 34.9679 22.8364 38.0791 22.8364C41.2049 22.8364 43.7464 19.9672 43.7464 16.4358C43.7464 12.9043 41.2049 10.0351 38.0791 10.0351C37.8162 10.0351 37.5387 10.0498 37.2757 10.0939C37.1005 10.1234 36.9106 10.1675 36.7353 10.2116C35.9173 10.4324 35.0702 9.94679 34.8511 9.1228C34.632 8.2988 35.114 7.44538 35.932 7.22467C36.2095 7.15109 36.5016 7.09224 36.7937 7.03338C37.2173 6.95981 37.6409 6.93038 38.0791 6.93038C42.8993 6.93038 46.8138 11.1828 46.8138 16.421C46.8138 21.6593 42.8993 25.9411 38.0791 25.9411Z" fill="#750511"/>
<path d="M58.2653 25.9412C53.4452 25.9412 49.5306 21.6888 49.5306 16.4505C49.5306 11.2122 53.4452 6.95984 58.2653 6.95984C63.0855 6.95984 67 11.2122 67 16.4505C67 21.6888 63.0855 25.9412 58.2653 25.9412ZM58.2653 10.0351C55.1395 10.0351 52.598 12.9044 52.598 16.4358C52.598 19.9672 55.1395 22.8365 58.2653 22.8365C61.3911 22.8365 63.9326 19.9672 63.9326 16.4358C63.9326 12.9044 61.3911 10.0351 58.2653 10.0351Z" fill="#750511"/>
<path d="M24.6996 8.54892C25.6676 8.54892 26.4523 7.67933 26.4523 6.60664C26.4523 5.53395 25.6676 4.66437 24.6996 4.66437C23.7315 4.66437 22.9468 5.53395 22.9468 6.60664C22.9468 7.67933 23.7315 8.54892 24.6996 8.54892Z" fill="#750511"/>
<path d="M62.0484 5.62083C61.8877 5.62083 61.727 5.5914 61.5664 5.54726L54.0148 3.04584C53.2114 2.78098 52.7732 1.91285 53.0362 1.08885C53.2991 0.264855 54.1609 -0.161857 54.9788 0.102999L62.5304 2.60441C63.3337 2.86927 63.7719 3.73741 63.509 4.5614C63.2899 5.20883 62.6911 5.62083 62.0484 5.62083Z" fill="#750511"/>
</g>
<defs>
<clipPath id="clip0">
<rect width="67" height="26" fill="white"/>
</clipPath>
</defs>
</svg>
