<svg xmlns="http://www.w3.org/2000/svg" viewBox="0 0 700 700">
  <title>Artboard 3 copy 7</title>
  <g id="Midtones">
    <path d="M16.77,303.37s60-75.5,62-93.5c-2.5,22.5-8,37-8,37l-49.5,61Z" fill="#f7982d"/>
    <path d="M7.77,190.87s11.5,53.5,27,28.5l-.5,15.5-12,35-12-45Z" fill="#f7982d"/>
    <path d="M70.77,250.37s-41.5,65.5-43.5,79l-11.5,26.5,4-44.5,1.5-3.5Z" fill="#f7982d"/>
    <path d="M45.27,306.87s-28,50-4,47.5,89.5-5.5,82-54.5l10.5,43.5,3,23s-9.5,13-17,14-89.5,0-89.5,0l-15.5-10.5,1-14S16.27,338.37,45.27,306.87Z" fill="#f7982d"/>
    <path d="M7.27,169.87s30-30.5,34-32.5,55.5-25,74-2l-3-9s-29.5-10-39.5-7-36.5,2.5-65.5,40.5Z" fill="#f7982d"/>
    <path d="M9.44,131.7s0,11,7.33,7.33,39.33-25.33,51-26.33C62.1,118,69.44,117,69.44,117s26.33-6.67,34.33-.67,8.5,10,8.5,10S94.44,120,89.1,120s-28.33-3.67-37.67,5.33-39.33,29-39.33,29l-4.83,5.5S4.44,144.7,9.44,131.7Z" fill="#f7982d"/>
    <path d="M115.27,135.37l11,27,3-21C122.86,135.55,118.11,133.37,115.27,135.37Z" fill="#f7982d"/>
    <polygon points="114.27 238.87 121.27 204.37 119.27 258.87 114.27 238.87" fill="#f7982d"/>
    <path d="M18.77,157.37c6.78-7.25,14.39,6.66,22,20.5,0,0-13-28,.5-40.5C25.77,143.37,18.77,157.37,18.77,157.37Z" fill="#f7982d"/>
    <path d="M565.87,330.59l-29.33,2.67s-13.33,6-16.67,73.33v29.33s-14,24.67-14,120c.67,24.67,2,46.67,6.67,44.67,4.67-3.33,129.33-124,129.33-124l14.67-40-7.33-19.33-3.33-46s-2.67-29.33-17.33-35.33c-4.67,19.33-9.33,42.67-9.33,42.67s-4,23.33-26.67,18.67c.67,14,0,19.33,0,19.33s-6,10-22,4.67c-1.33-8.67-2-16-2-16l7.33-10.67-22-13.33C547,376.1,554.83,355.06,565.87,330.59Z" fill="#f7982d"/>
    <polygon points="523.71 182.42 514.21 200.42 518.71 212.42 523.71 182.42" fill="#f7982d"/>
    <path d="M523.71,182.42s14.23-44.88,36.73-51.38,40,19,40,19-11.73-20.12-38.23-5.62A100.66,100.66,0,0,0,523.71,182.42Z" fill="#f7982d"/>
    <path d="M577.1,120.7s27.1,9.72,30.1,35.72c7.5,17,20,34,20,34s3-1.5,2.5-12.5-16.6-44.22-16.6-44.22S596.77,117.37,577.1,120.7Z" fill="#f7982d"/>
    <path d="M551.87,375.92c.4,7.35,67.71,18.72,79.33-87-2,29.33-6,61-6,61s-8.67,46-20.67,46.67S557.87,393.25,551.87,375.92Z" fill="#f7982d"/>
    <path d="M574.54,253.25s11.33,46.67,16,40.67l-14,19.33Z" fill="#f7982d"/>
    <path d="M615.87,211.25c5.32,9.23,10.23,12.48,14-.67,0,0,.67,36-1.33,42.67C620.54,229.92,615.87,211.25,615.87,211.25Z" fill="#f7982d"/>
    <path d="M534.54,269.25l17.33,44.67c5.93,13.46,15,8,24.67-.67l-10.67,17.33-29.33,2.67Z" fill="#f7982d"/>
    <path d="M509.87,625.92s5.06-24.14,71.53-75.74,75.8-80.26,75.8-80.26l-2.67-14.67-32,43.33-55.33,52.67-54.67,49.33S508.54,615.92,509.87,625.92Z" fill="#f7982d"/>
    <path d="M658.54,571.92s44.67,104,11.33,109.33c26,2.67,29.33,0,29.33,0l-10.67-55.33Z" fill="#f7982d"/>
    <path d="M515.21,669.92s140.67-14.67,169.33-1.33l-3.33,14.67-94-11.33Z" fill="#f7982d"/>
    <path d="M523.71,182.42s44.5-40,61-36,41,59.5,41,59.5l-3,16.5,8.5-5.5-4-26.5-32-45.5s-6.5-10.5-25-4.5S523.71,182.42,523.71,182.42Z" fill="#f7982d"/>
  </g>
  <g id="Darker_Mids" data-name="Darker Mids">
    <path d="M97.89,374.09s38,2,36.67-34.67l5.33,20s8,11.33-9.33,15.33A70.05,70.05,0,0,1,97.89,374.09Z" fill="#c45937"/>
    <polygon points="19.06 329.26 54.39 269.92 21.06 309.92 19.06 329.26" fill="#c45937"/>
    <path d="M20.56,343.26s4.67,35.33,32,34l-24,4-14-12S15.89,346.59,20.56,343.26Z" fill="#c45937"/>
    <path d="M13.39,226.92c6,10.08,12,15,18,13.33l-8.67,27.33Z" fill="#c45937"/>
    <polygon points="116.44 135.7 125.77 165.7 126.44 150.37 116.44 135.7" fill="#c45937"/>
    <polygon points="23.94 337.54 24.6 313.54 17.94 324.87 15.27 356.2 23.94 337.54" fill="#c45937"/>
    <path d="M17.06,149.92s18-9,18.5,3.5l2-12,4.5-4,10-11A92.79,92.79,0,0,0,17.06,149.92Z" fill="#c45937"/>
    <path d="M584.86,120.26s26.67,11.67,38,43l-7-28.33S601.86,122.26,584.86,120.26Z" fill="#c45937"/>
    <path d="M547.2,154.09s-8.67-8.33,9.67-22.67c-20.67,12.67-33,46-33,46l10-8.33Z" fill="#c45937"/>
    <path d="M618.86,225.76c3.48,5.45,7,4,10.67-2.33l-1.67,31.33Z" fill="#c45937"/>
    <path d="M535.53,323.42s0-37.33,6.67-33l-7.67-20Z" fill="#c45937"/>
    <path d="M576.53,286.09s5,11.67,7,11.67c-9.67,12.33-7.67,8.67-7.67,8.67Z" fill="#c45937"/>
    <path d="M576.2,392.42s34,2.67,42.33-29.67l-2,16.67S615.2,409.42,576.2,392.42Z" fill="#c45937"/>
    <path d="M519.86,409.42s4.83,17.83,17.83,9.83c-19,15.5-20.33,15.67-20.33,15.67Z" fill="#c45937"/>
    <path d="M558.36,426.67l11.75,2.25a10.3,10.3,0,0,1,6.5,9.75V421.92l-9-1.25-1.75-6.25Z" fill="#c45937"/>
    <path d="M576.86,431.17s16-11.75,20.25-11.5l-5.25-4-17.25,5.5Z" fill="#c45937"/>
    <path d="M636.86,404.42s10,4.25,10-3.5l.5,17Z" fill="#c45937"/>
    <path d="M505.2,578.09s53.33-19.33,80-48.67l-69.33,68-8,2Z" fill="#c45937"/>
    <path d="M681.86,619.42s13.33,56-2,56-64.67-3.33-64.67-3.33l58.67,12,23.33-3.33-8.67-56.67Z" fill="#c45937"/>
    <path d="M536.86,303.42s5.67,28,18.67,26.67l-20,3.33Z" fill="#c45937"/>
    <path d="M624.86,347.42s21.5,17,22,53.5l-4-43s-9-22.5-17.5-22C626.36,349.92,624.86,347.42,624.86,347.42Z" fill="#c45937"/>
    <path d="M591.86,415.67S596.44,399,604.77,399l-12.67-.67Z" fill="#c45937"/>
  </g>
  <g id="Main">
    <g>
      <path d="M50.57,79.51l-5.64,1.36c7-26.47,8.08-48.36,8.39-69.64L83.27.44C122.69-8.12,156.14,28,99.44,31c-4.79,5.54-1.57,20.59-1.57,20.59l-4.42,9.36A104.13,104.13,0,0,0,89.5,44.73c-2.24-6.5-5.48-12.6-9.83-13.14-6.15-.68-6.5,7-5.67,13.66a70.18,70.18,0,0,0,1.93,9.55s-9.21,6.29-13,9C52.56,72.11,50.57,79.51,50.57,79.51Z" fill="#750511"/>
      <path d="M97.28,106.85a39.93,39.93,0,0,1-5.28-.34l.59-4.42a41.29,41.29,0,0,0,12-.34C120.47,91.07,120.18,52.18,120,33.42c-.05-7.13-.32-8.53-.35-8.67a1.93,1.93,0,0,0,.23.54l3.79-2.34c.3.49.71,1.15.78,10.44.14,19.7.44,60.68-17.84,72.35l-.34.22-.39.08A44.92,44.92,0,0,1,97.28,106.85Z" fill="#750511"/>
      <polygon points="22.8 378.22 41.98 679.97 63.14 679.97 107.45 374.88 22.8 378.22" fill="#750511"/>
      <polygon points="24.55 376.74 154.48 677.74 169.33 670.31 134.19 373.39 24.55 376.74" fill="#750511"/>
      <path d="M51.72,699.13c-9.3,0-9.68-.87-10.16-1.94a2.35,2.35,0,0,1,.38-2.5c.83-1.6,2.28-10.66,3.25-18.74a2.39,2.39,0,0,1-.18-1,2.29,2.29,0,0,1,2.54-2.19H50l0,.24c1.24.07,3.13.18,6,.32l2,.1.13,2c.43,6.45,12,9.08,12.16,9.11l1.08.23,6.34,13.47-3.31.17C63.66,698.9,56.51,699.13,51.72,699.13Zm-5.08-4.57c4.38.21,14.41-.05,24.21-.51l-2.59-5.5C65,687.7,55.92,684.67,54,677.65l-4.51-.25C48.36,687,47.38,691.92,46.63,694.57Zm-4.56,0h0Z" fill="#750511"/>
      <path d="M163.67,699.13c-9.3,0-9.68-.87-10.16-1.94a2.35,2.35,0,0,1,.38-2.5c.85-1.62,2.32-10.9,3.29-19.06-.94-1.29-2.27-3.7-1.19-6,1.58-3.37,6.89-3.11,8.63-3l2,.1.13,2c.35,5.2,10.08,12.6,16.14,16l.62.35,6.17,13.11-3.31.17C175.6,698.9,168.45,699.13,163.67,699.13Zm-5.08-4.57c4.38.21,14.41-.05,24.21-.51l-2.74-5.83c-3.19-1.88-15.07-9.32-17.39-17.2a5.44,5.44,0,0,0-2.62.5,4.88,4.88,0,0,0,1.1,1.92l.67.75-.11,1C160.45,686.21,159.38,691.73,158.58,694.57Zm-4.56,0h0Z" fill="#750511"/>
      <path d="M57.12,384.91a151.57,151.57,0,0,1-16.68-.83c-14.84-1.66-23.64-5.84-26.17-12.43-4.82-12.54-.77-38.1,3.8-63.2l4.38.8c-3.29,18.09-8.8,48.38-4,60.8,1.69,4.41,8.39,7.58,19.38,9.19,14.52,2.13,36.13,1.42,59.28-1.93,22.91-3.32,35.67-7.56,37.08-9.39,2.1-3.13-1-16.41-4.52-31.78-4.4-19-10.42-45.12-13-75.56v-.34c.12-1.79.27-3.92.45-6.35,2.21-30.82,8.08-112.7-9.82-130.6l3.15-3.15c17.14,17.14,14.95,80.66,11.12,134.07-.17,2.34-.32,4.41-.43,6.16,2.59,30,8.56,55.89,12.91,74.77,4.55,19.69,7.05,30.54,3.87,35.28-3.6,5.38-29.93,9.76-37.91,11A292,292,0,0,1,57.12,384.91Z" fill="#750511"/>
      <path d="M19.87,273.94c-.46-2.34-.93-5.21-1.43-8.25-1.3-7.88-2.92-17.69-5.28-24.62C3.91,214,2,180.64,4.24,159.66l4.43.47c-2.17,20.5-.32,53,8.69,79.51,2.48,7.28,4.13,17.29,5.46,25.33.5,3,1,5.85,1.41,8.12Z" fill="#750511"/>
      <path d="M87.1,150.13c.56.17.73.82.89,1.3a11.77,11.77,0,0,1,.32,1.61c.15,1.08.22,2.17.27,3.25.09,2.17.07,4.34,0,6.51q-.24,6.5-.85,13t-1.4,12.91c-.25,2.15-.62,4.28-1.08,6.39L84,201.43c-1.68,8.48-3.53,16.93-5.69,25.32-1.09,4.2-2.24,8.38-3.6,12.55-.68,2.08-1.41,4.16-2.28,6.23A33.26,33.26,0,0,1,71,248.66a15.59,15.59,0,0,1-1,1.6,6.72,6.72,0,0,1-1.7,1.72l.77-.87a25.09,25.09,0,0,1-1.38,2.25q-.69,1-1.39,2c-.93,1.29-1.88,2.55-2.83,3.81-1.91,2.51-3.84,5-5.79,7.45Q51.81,274,45.87,281.26,34,295.86,22,310.28l-.9,1.08L19.76,311a4.4,4.4,0,0,1-.61-.2l-.44-.2a6.82,6.82,0,0,1-.78-.45,8.22,8.22,0,0,1-1.32-1.1,9.83,9.83,0,0,1-1.8-2.65,15.48,15.48,0,0,1-1.32-5.62,35.7,35.7,0,0,1,1.18-10.5c.85-3.38,1.85-6.44,2.77-9.65l2.81-9.52L31.5,233l-.07.34L33,221.71c.3-1.94.39-3.91.78-5.83l1.18-5.78q2.34-11.56,4.93-23.09-.53,11.81-1.31,23.58l-.38,5.89c-.14,2-.56,3.88-.78,5.83L35.84,234l0,.17,0,.17L24.52,272.4l-2.81,9.52c-.91,3.16-2,6.4-2.71,9.44a31.48,31.48,0,0,0-1.07,9.16,11.13,11.13,0,0,0,.9,4,5.39,5.39,0,0,0,1,1.45,3.8,3.8,0,0,0,.58.49l.29.17.12.06s.12,0,0,0l-2.22.74q12-14.42,23.85-29,5.91-7.28,11.74-14.62c1.93-2.45,3.86-4.91,5.74-7.38.94-1.24,1.87-2.48,2.77-3.72.45-.62.89-1.24,1.31-1.86s.81-1.24,1.09-1.74l.4-.73.37-.14a3,3,0,0,0,.52-.6,11.25,11.25,0,0,0,.7-1.14,29.07,29.07,0,0,0,1.28-2.71c.79-1.9,1.49-3.89,2.15-5.89,1.31-4,2.45-8.14,3.52-12.28,2.13-8.28,4-16.66,5.63-25.07.41-2.1.83-4.21,1.19-6.32s.72-4.23,1.2-6.32q1.42-6.28,2.67-12.6c.81-4.21,1.63-8.43,2.25-12.68.31-2.12.6-4.25.79-6.38.09-1.07.16-2.13.15-3.2a11.59,11.59,0,0,0-.11-1.59C87.69,151,87.61,150.36,87.1,150.13Z" fill="#750511"/>
      <path d="M5.38,164.78,4.3,160.44C-2.51,133.22,21,86.28,29.67,80.11c4.08-2.91,15.83.43,25,3.74A179.41,179.41,0,0,1,93,103.32c9.68,6.61,21.84,16.86,24.78,28.17l1.64,6.3-5.16-4c-21.39-16.48-45.66-16.95-72.14-1.37-20,11.77-33.79,28.69-33.93,28.86ZM34.19,83.42a3.93,3.93,0,0,0-1.93.31C26,88.22,4.57,128.41,7.81,154.94a143.64,143.64,0,0,1,32-26.35c25.12-14.77,49.31-15.72,70.44-2.9-9.11-14.22-33.61-28.93-56.24-37.31C43.59,84.51,37.2,83.42,34.19,83.42Z" fill="#750511"/>
      <path d="M125.1,173.78l-12.79-45.26,4.06,1.43c.58.2,14.11,5.12,14.11,17a70,70,0,0,1-3.08,20Zm-6-37.45,5.94,21A62.52,62.52,0,0,0,126,146.9C126,141.83,122.29,138.36,119.15,136.33Z" fill="#750511"/>
      <path d="M42,129c5.14-3.85,10.39-7.48,15.79-10.91,2.71-1.7,5.47-3.33,8.3-4.82A33.35,33.35,0,0,1,75,109.77a33.09,33.09,0,0,0-8.64,3.94c-2.72,1.64-5.36,3.42-7.95,5.26-5.16,3.71-10.18,7.64-15,11.72Z" fill="#750511"/>
      <polygon points="117.76 260.65 112.65 233.04 119.93 260.16 117.76 260.65" fill="#750511"/>
      <polygon points="35.79 230.84 33.93 263.12 33.56 230.79 35.79 230.84" fill="#750511"/>
      <path d="M40.62,178.46A83.78,83.78,0,0,1,36.94,168,71.83,71.83,0,0,1,34.73,157a34.32,34.32,0,0,1,.33-11.34,15,15,0,0,1,2.37-5.43,10.29,10.29,0,0,1,4.85-3.67l.77,2.07a8.52,8.52,0,0,0-3.85,2.9,12.9,12.9,0,0,0-2.05,4.63,34.79,34.79,0,0,0-.62,10.68A88.65,88.65,0,0,0,38,167.71C38.76,171.32,39.63,174.9,40.62,178.46Z" fill="#750511"/>
      <path d="M13.52,363.59a88.17,88.17,0,0,1,4.56-17.51,89.72,89.72,0,0,1,8-16.15c6.38-10.2,14.59-19.08,23.43-27.08C40.93,311.12,33,320.23,27,330.51a88.32,88.32,0,0,0-7.4,16.14,86.27,86.27,0,0,0-3.92,17.25Z" fill="#750511"/>
      <path d="M14.12,325.13c-3.5,0-5.32-4.79-6-6.64-3.36-8.82-2-14.69-.27-18.06a13.23,13.23,0,0,1,5-5.49l2.11,3.92-1.06-2,1.08,2c-.32.18-7.82,4.62-2.71,18a11.47,11.47,0,0,0,1.89,3.6c1.23-1.28,3-6.7,3.93-12l4.39.75c-1,5.73-3.31,15.42-8,15.88Z" fill="#750511"/>
    </g>
    <g>
      <path d="M684.51,686.06c-16.29,0-45.08-3.53-78.54-13-27.86-7.88-53.74-3.79-70.86-1.09-14,2.22-22.51,3.56-24.45-2.7-.13-.4-11.86-42.09-1.17-70.59l4.3,1.61c-10.07,26.86,1.14,67.23,1.26,67.63.76,2.46,10.21,1,19.35-.48,17.52-2.77,44-7,72.83,1.2A353.23,353.23,0,0,0,668,680.55c15.89,1.57,24.26.91,26.76.2.1-15.51-36-192.64-46.18-230.34l4.43-1.2c4.43,16.42,16.67,72.66,27.87,128.05,5.84,28.91,10.63,53.76,13.84,71.87,5.87,33.1,4.93,33.85,3.51,35S691.89,686.06,684.51,686.06Zm10.2-4.56Z" fill="#750511"/>
      <path d="M538,699.91c-8.86,0-17.13-1.08-19-4.31-.45-.78-1.24-2.86,1.12-5.21,6.62-6.6,30.9-18.77,31.94-19.28l.71-.35,10.72,2.19,3.35,19.75v.2c0,2.84-3.37,4.08-6.28,4.85C556.44,698.81,546.92,699.91,538,699.91Zm-14.56-6.34c1.21.6,4.62,1.54,12,1.75,12.42.34,24.08-1.47,26.7-3L559.5,676.8l-6.09-1.24C549.36,677.61,529,688.06,523.43,693.57Z" fill="#750511"/>
      <path d="M650,699.91c-8.86,0-17.13-1.08-19-4.32-.45-.78-1.24-2.86,1.12-5.21,2.14-2.13,6.09-4.9,12.1-8.48l.54-.32H677l1.89,11.1v.2c0,2.84-3.37,4.08-6.28,4.85C668.5,698.81,659,699.91,650,699.91Zm-14.56-6.34c1.21.6,4.62,1.54,12,1.75,12.41.34,24.08-1.47,26.7-3l-1.05-6.18H646.09C639.62,690.05,636.76,692.33,635.49,693.57Z" fill="#750511"/>
      <path d="M510.48,602.21a4.16,4.16,0,0,1-3.1-1.5c-7.85-8.73-5.06-70-4.42-82.18,1.71-32.56,5.91-73,12.25-82.53-.67-11.69.72-84.08,15-101.13,2-2.41,4.27-3.72,6.71-3.92h.18c2.33,0,18.59-1.9,29-3.18l.56,4.55c-2.64.32-25.67,3.15-29.41,3.21a5.56,5.56,0,0,0-3.48,2.28c-12.45,14.91-15.08,86.48-13.85,98.64l.1,1-.64.75c-8.48,9.85-16,105.89-11.51,146.81,1,8.73,2.24,11.54,2.8,12.39,8.18-6.86,129.8-109.67,141.68-159.73-1.12-12.53-5.76-18.52-5.8-18.58l-.52-.66,0-.85a264,264,0,0,0-1.77-38.07c-3.15-24.64-9.87-39-19.42-41.48l1.16-4.44c26.08,6.83,24.9,74.78,24.65,83.38,1.44,2.13,5.31,8.86,6.29,20.69l0,.35-.08.35c-5.09,22.31-30.87,56.54-76.61,101.75C546.3,573.58,513.43,601,513.1,601.26l-.16.12A4.33,4.33,0,0,1,510.48,602.21Zm-.21-4.56h0Z" fill="#750511"/>
      <path d="M696.8,682.33c-3.35,13-113.55-.51-181.47-9.17l53.51-8.41C617,675.45,691.14,689.43,696.8,682.33Z" fill="#750511"/>
      <path d="M650.94,429.1c-1.1-2.61-2.34-5.22-3.63-7.77s-2.69-5.06-4.2-7.5a55,55,0,0,0-5-7c-1.87-2.13-4-4.21-6.73-5.19,2.81.8,5.12,2.77,7.15,4.8a55.76,55.76,0,0,1,5.55,6.72c1.69,2.36,3.26,4.81,4.76,7.3s2.9,5,4.22,7.65Z" fill="#750511"/>
      <polygon points="690.13 638.32 652.74 563.26 692.17 637.27 690.13 638.32" fill="#750511"/>
      <polygon points="517.44 433.48 554.7 406.56 518.83 435.3 517.44 433.48" fill="#750511"/>
      <polygon points="533.17 263.91 547.38 306.35 531.01 264.69 533.17 263.91" fill="#750511"/>
      <path d="M522.25,178.22c2.27-4.75,4.71-9.36,7.31-13.9s5.36-9,8.36-13.27a89.56,89.56,0,0,1,10-12.1,37.88,37.88,0,0,1,6-5,17.42,17.42,0,0,1,7.22-2.87,17.28,17.28,0,0,0-7.06,3.11,37.41,37.41,0,0,0-5.8,5.15,88.71,88.71,0,0,0-9.42,12.34c-2.81,4.36-5.39,8.86-7.8,13.45s-4.67,9.27-6.72,14Z" fill="#750511"/>
      <path d="M615.32,138.74c-4.78-5.61-10.18-10.82-16.65-14.39a33.54,33.54,0,0,0-10.38-3.72,30.14,30.14,0,0,0-11.1.16,30.42,30.42,0,0,1,11.18-.72,34.4,34.4,0,0,1,10.82,3.27c6.84,3.33,12.66,8.4,17.84,13.89Z" fill="#750511"/>
      <path d="M628.73,262.89l-4.48-1c5.14-23.13,1.7-58.76.52-69.12l4.56-.52C630.53,202.8,634,239.06,628.73,262.89Z" fill="#750511"/>
      <path d="M537.05,332.5l-4.58-.32c0-.49,3.29-49.06-6-72.35-10-23.52-11.71-47.21-5.36-74.52l4.47,1c-6.12,26.31-4.48,49.11,5.13,71.73C540.42,282.39,537.19,330.46,537.05,332.5Z" fill="#750511"/>
      <path d="M595.29,400c-16.14,0-33.22-6.72-42.11-14.66-4.16-3.71-6.16-7.44-5.79-10.79,1.23-11.09,22.31-64.61,35.14-76.26l3.09,3.39c-12.15,11-32.56,63.48-33.66,73.38-.19,1.75,1.37,4.26,4.29,6.86,10.08,9,31.58,16.3,48.86,12.49,11.65-6,17.58-54.57,20.77-80.75,1.18-9.65,2.11-17.28,3-20.83,2.7-10.79-15.34-75.62-22.52-99.69l4.4-1.31c2.68,9,26.07,88.15,22.58,102.12-.82,3.27-1.73,10.77-2.89,20.27-4.81,39.4-10.59,78.38-23.59,84.45l-.46.16A50,50,0,0,1,595.29,400Z" fill="#750511"/>
      <path d="M573.18,311.71c0-.72-.4-72.71-10.31-90.33l4-2.25c10.49,18.65,10.89,89.55,10.9,92.56Z" fill="#750511"/>
      <path d="M565.2,416.54l-1.15-5.16c-1.34-6,7.4-15.68,9.17-17.55l3.33,3.15c-4.28,4.54-8.57,11-8,13.41l1.15,5.16Z" fill="#750511"/>
      <path d="M575.24,425.15c-3.88,0-7.27-.54-8.6-1.54-.93-.7-3.77-2.83,2.73-17.12l4.18,1.9c-2.14,4.71-3.79,9.83-3.79,11.65,2.66.75,12.12,1,17-1.59,2.25-1.17,2.42-2.35,2.48-2.74,1.08-7.59-.55-17.54-.57-17.64l4.52-.75c.07.44,1.76,10.77.58,19-.29,2-1.6,4.85-6.16,6.75A34.94,34.94,0,0,1,575.24,425.15Z" fill="#750511"/>
      <path d="M627.21,194.95H627c-2.65-.23-4.91-3.83-11.67-15.19-8.25-13.88-22.07-37.1-32.51-37.75l-.17,0c-31.31-4.34-58.18,44.2-58.45,44.69l-4.1,7.52-.2-8.56c-.8-33.74,20.28-61.76,40.21-73.53,13.41-7.91,26.42-9,36.63-3,17.82,10.4,28.45,39.48,32.46,63.23.93,5.51,2.81,18.65.24,21.66A2.84,2.84,0,0,1,627.21,194.95Zm-44.06-57.53c12.83.9,26.27,23.48,36.08,40,2.44,4.1,5.1,8.58,6.91,11.13.43-12.69-8.18-61.75-31.77-75.51-8.71-5.08-20.07-4-32,3-17.57,10.37-35,33.92-37.64,60.88a142.93,142.93,0,0,1,13.62-17.56C553.32,143.06,568.8,135.48,583.15,137.42Z" fill="#750511"/>
      <path d="M518.48,28.35c-.37,5.67-.78,11.27-1,16.86-1,5.47-1.73,11-2.32,16.49s-.95,11-1,16.55a90.75,90.75,0,0,0,1.17,16.32,43.62,43.62,0,0,0,2,7.72A23.19,23.19,0,0,0,521,109a15.9,15.9,0,0,0,2.62,2.49,14.21,14.21,0,0,0,3.13,1.67,17.54,17.54,0,0,0,7.35.76,36.88,36.88,0,0,0,15-4.62A57.37,57.37,0,0,0,563.35,101a47.35,47.35,0,0,1-12.09,12.31,41.21,41.21,0,0,1-16.88,5.17,28.55,28.55,0,0,1-4.57,0,20.11,20.11,0,0,1-4.66-1,18.76,18.76,0,0,1-4.27-2.27,20.43,20.43,0,0,1-3.46-3.28,27.7,27.7,0,0,1-4.42-8,48.16,48.16,0,0,1-2.24-8.52,95.21,95.21,0,0,1-1.24-17.16c0-5.7.43-11.36,1-17S512,50,512.86,44.43A151.91,151.91,0,0,1,518.48,28.35Z" fill="#750511"/>
      <path d="M512.76,59.88c-1.84,3-27.91-50.15,32.11-52.55,72.24,0,41.85,83.51,26.37,90.39-2.07-1.34-6.49-28.63-5.5-26.66,11.75,3.15,9.75-22.36-2.87-20.64-4.87,1.72-8.57,14.52-12.61,18.06C551.41,40.39,523.08,35.8,512.76,59.88Z" fill="#750511"/>
      <circle cx="568.38" cy="11.72" r="11.47" fill="#750511"/>
      <path d="M540.38,134.31,536,132.86c2.15-6.45,2.18-18.27,2.18-18.38h4.59C542.79,115,542.76,127.16,540.38,134.31Z" fill="#750511"/>
      <rect x="572.99" y="89.64" width="4.59" height="19.85" transform="translate(-5.54 158.81) rotate(-15.64)" fill="#750511"/>
      <path d="M518.63,219.84l-3-5c-4.07-6.72-5.37-13.09-3.85-18.94A21.35,21.35,0,0,1,521,183.57l1.16,2,0,0,0,0,3.38.7ZM520,190.26a15.7,15.7,0,0,0-3.87,6.84,16.59,16.59,0,0,0,.53,9.37Z" fill="#750511"/>
      <polygon points="582.43 298.34 599.26 284.46 585.71 301.55 582.43 298.34" fill="#750511"/>
      <polygon points="562.98 221.55 559.13 211.94 566.75 218.95 562.98 221.55" fill="#750511"/>
      <path d="M606.28,192.88a38.26,38.26,0,0,0-.67-4.41c-.3-1.53-.64-3.06-1-4.59q-1-4.6-2.21-9.2,2.23,4.18,4.37,8.42c.71,1.42,1.41,2.85,2.09,4.29a41.64,41.64,0,0,1,1.91,4.63Z" fill="#750511"/>
      <path d="M511.63,599.5S621.53,510.26,643.7,475.1c14.52-22.93,5.35-22.74,5.35-22.74S610.95,516.67,511.63,599.5Z" fill="#750511"/>
      <polygon points="577.76 422.91 577.19 465.92 575.47 422.94 577.76 422.91" fill="#750511"/>
      <path d="M566.78,416.5a37.55,37.55,0,0,1-8,10.78,87.13,87.13,0,0,1-10.3,8.26,86.54,86.54,0,0,0,9.47-9,35.82,35.82,0,0,0,6.68-10.9Z" fill="#750511"/>
      <path d="M592.3,415.2a35.47,35.47,0,0,0,7.6,6.13,19.15,19.15,0,0,0,9.39,2.74,19.73,19.73,0,0,1-9.91-1.71,37.16,37.16,0,0,1-8.64-5.47Z" fill="#750511"/>
    </g>
  </g>
</svg>
