<svg xmlns="http://www.w3.org/2000/svg" viewBox="0 0 700 700">
  <title>Artboard 2 copy 4</title>
  <g id="Midtones">
    <path d="M145.69,322.44l30.67,9.33,21.33,15.33s-5.83,6.83-16.33-2.67-21-7-21-7-7.5,24.5-.5,30,115.43,13.37,116-1c0,0,7.6-14.17,1-17-3-1.28-11.31-.74-17-.13-8.32.9-19,7.13-23.5-.37,14-7.33,20-9.17,20-9.17l36-4.67s5.33,51.33-6.67,53.33-145.33-.67-145.33-.67l-2.67-16.67Z" fill="#f7982d"/>
    <path d="M142.85,235.09s14.85,59.4,27.5,69.85l-25.3-16.5Z" fill="#f7982d"/>
    <path d="M299.35,239.09s-14.85,59.4-27.5,69.85l25.3-16.5Z" fill="#f7982d"/>
    <polygon points="260.85 326.94 280.35 319.94 283.35 331.94 262.35 334.94 260.85 326.94" fill="#f7982d"/>
    <polygon points="163.35 313.94 178.85 324.94 176.35 331.77 157.35 324.94 163.35 313.94" fill="#f7982d"/>
    <path d="M159.35,314.44s-59-19.5-61.5-26-6.5-25.5-1.5-44.5l-5.5,11s-7.5,32-7.5,34.5,20.5,15,20.5,15l53.5,20.5Z" fill="#f7982d"/>
    <path d="M281.35,323.44l41.5-13s29-4.5,18.5-43.5l10.5,21.5s5,28.5-39.5,38-29,5.5-29,5.5Z" fill="#f7982d"/>
    <path d="M191.1,194.19s13.75,30.5,13.5,43.25-2,37.25-2,37.25A650,650,0,0,0,191.1,194.19Z" fill="#f7982d"/>
    <path d="M232.1,286.69s-1.75-33.42.75-42.5,12.5-34.5,12.5-34.5C238.26,236.36,233.44,262.17,232.1,286.69Z" fill="#f7982d"/>
    <path d="M126.35,285.94s8.25-.5,14.75,3.5l-10.75-10.25Z" fill="#f7982d"/>
    <path d="M293.7,298.48s13.46-7.9,16.32-2.33l-2-9.31Z" fill="#f7982d"/>
    <path d="M120.69,166.77s6-5.33,10.33,12l-6-25S122,161.77,120.69,166.77Z" fill="#f7982d"/>
    <path d="M299.85,185.19s2.5-16.25,7.25-11.25l-4.25-15.75Z" fill="#f7982d"/>
    <path d="M188.1,120.44s-1.08,7.56-.5,10.25c1.44,6.62,59.18,9.68,60.5,3,0,0,3-1.5,1.25-9l8.25,16.25-45.5,2.75s-31.75-5.25-33.5-10.5C183.85,126.44,188.1,120.44,188.1,120.44Z" fill="#f7982d"/>
    <path d="M532.36,300.44c-2-1.31-1.86,38.12-59.77,39.75-60.47,0-64.56-50.77-64.56-50.77s7.53,26.07,4.78,34.31S405.93,365,405.93,365s19.93-12.37,66.65-12.37,68.77,2.18,68.77,2.18C531.25,343.68,530.19,323.11,532.36,300.44Z" fill="#f7982d"/>
    <path d="M391.85,208.19s8.76,10.75-.52,23.64-46.91,7.19-54.64-1.05c10.82,12.88,18.05,27.34,51.55,30.43l7.21-7.21,15.46-51.54Z" fill="#f7982d"/>
    <path d="M522,258.83s-29.2,10.31-49.82,10.31-55.3-11.69-55.3-11.69C452.53,259.92,489,261.61,522,258.83Z" fill="#f7982d"/>
    <polygon points="537.69 274.09 549.36 234.44 541.36 204.44 537.69 274.09" fill="#f7982d"/>
    <polygon points="408.03 289.42 396.36 249.77 404.36 219.77 408.03 289.42" fill="#f7982d"/>
    <path d="M409.89,158.13c-1,9.28-1.5-18.5-3.26-11.34-1.37,29.55-8,57.21-13.23,62.87l11.85-1S413.15,211,409.89,158.13Z" fill="#f7982d"/>
    <path d="M553,362.9s-4.12-8.25-18.55-8.25-85.89-8.25-120.25,5.5c-25.42,9.62-20.83,22.79-20.83,22.79l-26,84-8.5,17.5-4.45,87.35s-18.23,39-6.55,45.15c25.42-16.49,98.62-67.83,98.62-67.83s81.77-83.83,103.07-121.62c13.06-26.8,17.18-33,10.31-48.79Z" fill="#f7982d"/>
    <path d="M560.43,464.74c-3-9.56-7-16.86-17.52-9.79,0,0-38,34.56-58.22,69.49-11.44,19.79-11.25,40.74-9.83,53l-13-35,11.48-22,74.21-91.9s10.82-12.71,10.82-4S560.43,464.74,560.43,464.74Z" fill="#f7982d"/>
    <path d="M462.35,546.44s4.77-14.71-10.18,8-66.32,55.53-66.32,55.53l1.39-10.18,87.09-79.36Z" fill="#f7982d"/>
    <path d="M380.85,629.19s4.81-14.8-1.37-13.77-25.25,18.38-25.25,18.38l3.61-16.49,30.41-18.55Z" fill="#f7982d"/>
    <path d="M571.19,525.66s.34,37.79-31.26,7.9c12.44,19.18,32,37,37.11,41.57Z" fill="#f7982d"/>
    <path d="M567.41,564.54s38.48,98.95-2.06,92.76S396.31,647,358.52,671c76-5.16,181.66-4,211.64,2.06h20.61S607.27,587.91,567.41,564.54Z" fill="#f7982d"/>
    <path d="M397.57,141.71s-5.5-11.68-21.64-5.15-26.8,34.7-26.8,34.7S372.15,130.37,397.57,141.71Z" fill="#f7982d"/>
    <path d="M557.85,208.44s-7.35,11.5,1.92,24.39,46.91,7.19,54.64-1.05c-10.82,12.88-18.05,27.34-51.55,30.43L555.65,255l-15.46-51.54Z" fill="#f7982d"/>
    <path d="M541.22,159.13c1,9.28,6.36,51.21,16.49,51.54l-11.85-1S538,212,541.22,159.13Z" fill="#f7982d"/>
    <path d="M551.69,181.44s4-43,15-40.67,34.66,38.17,34.66,38.17L585,145.11s-13.33-18.33-22-14S550.69,143.44,551.69,181.44Z" fill="#f7982d"/>
  </g>
  <g id="Darker_Mids" data-name="Darker Mids">
    <polygon points="147.02 330.44 181.69 337.77 175.02 329.77 147.02 321.77 147.02 330.44" fill="#c45937"/>
    <polygon points="252.69 345.77 293.69 343.11 293.35 334.77 257.02 339.11 252.69 345.77" fill="#c45937"/>
    <path d="M143,355.44s-5.67,24,13.67,24.67,118,.67,118,.67,16.67,2,17-17L291,382.11s1.33,7.67-10.33,6-140-.67-140-.67S136,383.11,143,355.44Z" fill="#c45937"/>
    <polygon points="161.35 318.44 176.69 327.44 175.02 329.77 157.69 324.11 161.35 318.44" fill="#c45937"/>
    <path d="M85,282.44s-6.33,11.67,76.33,36c-4.67,7.33-3.67,5.67-3.67,5.67l-55.33-20.33S82.35,296.77,85,282.44Z" fill="#c45937"/>
    <path d="M261.35,333.44l20-8.33,1,6.67S261.35,339.44,261.35,333.44Z" fill="#c45937"/>
    <path d="M284,326.65s59-13.64,65-21.21l-12.33,12.12s-45.33,17-52,14.24Z" fill="#c45937"/>
    <polygon points="145.02 267.11 157.02 299.11 144.02 288.44 145.02 267.11" fill="#c45937"/>
    <polygon points="296.02 276.77 285.02 301.44 297.02 293.11 296.02 276.77" fill="#c45937"/>
    <path d="M532.31,327.27s-9.33,22-36.67,24l44,.67Z" fill="#c45937"/>
    <path d="M410.64,334.94S418,355.6,438,355.6l-30.67,8Z" fill="#c45937"/>
    <path d="M539.31,372.6s16.74,1.95,6.07,22.28c12.33-17.67,11.6-19.61,11.6-19.61l-3.33-9.33L549,364.27Z" fill="#c45937"/>
    <path d="M539.31,372.6s12.67-11.67-8.67-18.67h10l10,6.67S549.64,368.6,539.31,372.6Z" fill="#c45937"/>
    <path d="M560,408.21s3.67-22.33-3-30.33l-7.33,12c-1.56,7.27-99.1,87.82-99.29,86.06C450.35,475.94,558.39,387.68,560,408.21Z" fill="#c45937"/>
    <path d="M561,446.44s-10-10.68-15-3c-3.48,5.36-57.56,66.46-75.48,87.36-5.47,6.38,0,35.64,0,35.64l-9.33-23.33-57,47.67L508.35,481.11l41.33-54.33H557Z" fill="#c45937"/>
    <path d="M572.17,542.1c.28,10.32-5,13.53-18,7l12,14,13,12Z" fill="#c45937"/>
    <path d="M590.14,657.44c3.05,7.66-63.37,17.84-149,8.5l48,7.5h51l47.5-2.5Z" fill="#c45937"/>
    <path d="M361.17,251.1s32,1.33,39-17.33L388.5,262.1Z" fill="#c45937"/>
    <path d="M398.17,207.77s5,7.33-1.67,33.33l13.33-40.33Z" fill="#c45937"/>
    <path d="M398.17,207.77s11.67-14.67,10-34.67l1.67,27.67S402.84,211.44,398.17,207.77Z" fill="#c45937"/>
    <path d="M588.17,251.1s-32,1.33-39-17.33l11.67,28.33Z" fill="#c45937"/>
    <path d="M551.17,207.77s-5,7.33,1.67,33.33L539.5,200.77Z" fill="#c45937"/>
    <path d="M551.17,207.77s-11.67-14.67-10-34.67l-1.67,27.67S546.5,211.44,551.17,207.77Z" fill="#c45937"/>
    <path d="M428.5,260.1c28.84,8.55,58.53,8.34,89,0" fill="#c45937"/>
    <path d="M380.35,427.11s-5,37.17,72.67-18c-79.33,58-91.33,66-91.33,66Z" fill="#c45937"/>
    <path d="M386.35,458.44s-23,32-17,65,7,52,42,17c-42,42-62,46-62,46l12.33-111.33S378.35,458.44,386.35,458.44Z" fill="#c45937"/>
    <path d="M365.69,578.44s-7.33,26,35.33,1.33l-34.67,28.67L343,613.11l6.33-26.67Z" fill="#c45937"/>
  </g>
  <g id="Main">
    <g>
      <g>
        <path d="M203.1,102.92l-4.49-1c8.08-30.6,9.34-55.92,9.7-80.54L242.95,8.94c45.59-9.9,84.27,31.9,18.71,35.33-5.54,6.41-1.82,23.81-1.82,23.81l-5.11,10.82a120.42,120.42,0,0,0-4.56-18.75c-2.59-7.51-6.34-14.57-11.37-15.2-7.11-.79-7.52,8.05-6.56,15.8a81.16,81.16,0,0,0,2.23,11s-10.65,7.27-15.07,10.39C207.44,91.81,203.1,102.92,203.1,102.92Z" fill="#750511"/>
        <path d="M237.13,125.35a20.71,20.71,0,0,1-2.53-5.71,24.57,24.57,0,0,1-.79-5.9,39.11,39.11,0,0,1,1.64-11.21,37.82,37.82,0,0,0,.91,10.88,17.86,17.86,0,0,0,4.79,8.72Z" fill="#750511"/>
        <path d="M259.15,132a46.17,46.17,0,0,1-6.11-.39l.68-5.11a47.8,47.8,0,0,0,13.9-.4c18.34-12.35,18-57.33,17.85-79-.06-8.24-.37-9.87-.41-10a2.18,2.18,0,0,0,.27.62l4.39-2.7c.35.56.82,1.33.9,12.07.17,22.78.51,70.17-20.63,83.66l-.39.25-.45.1A52,52,0,0,1,259.15,132Z" fill="#750511"/>
        <path d="M220.91,146.13c-18.81,0-35.9-2.58-43-11.63a4,4,0,0,1-.19-4.48l7-13.39a4.55,4.55,0,0,1,6.06-1.93c8.47,4.3,46.26,8.76,57,5.84A4.5,4.5,0,0,1,253,123c1,2.05,1.82,3.95,2.61,5.69h0c.51,1.14.94,2.07,1.29,2.85a26.29,26.29,0,0,1,2.55,7.27,4.48,4.48,0,0,1-.9,3.72,4.59,4.59,0,0,1-3.53,1.7c-.87,0-2.88.19-5.43.41C240.32,145.47,230.39,146.13,220.91,146.13ZM182.47,132c11.28,12.39,52.88,8.77,66.71,7.56,2.31-.2,4-.35,5.11-.4a22.26,22.26,0,0,0-2-5.42c-.36-.79-.79-1.73-1.31-2.88-.72-1.6-1.51-3.31-2.36-5.17-12.42,2.95-49.35-1.43-59.58-6.1Z" fill="#750511"/>
        <path d="M177.42,334.72l-2.26-.8c-75.24-26.72-89.94-34.75-93.63-44-.82-2.06-2.75-6.89,17.94-73.08,10.1-32.32,20.82-63.86,20.93-64.17l.33-1,.92-.48c22.06-11.38,40.82-18.48,57.37-21.71l1,5.06c-15.83,3.09-33.85,9.88-55.07,20.76C104.69,215,84.35,281.48,86.33,288.05c3.46,8.65,31.26,19.92,88.3,40.2l4.7-10.72-51.84-37.85,3-4.16,55.19,40.29Z" fill="#750511"/>
        <path d="M258.6,339.29l-2.56-20,51-35.67,3,4.22-48.42,33.89,1.51,11.8c46.29-5.84,74.26-16,83.15-30.31,3.41-5.48,3.9-11.48,1.5-18.35-5.67-16.21-42.71-115.43-46.29-125-9.85-6.93-24.3-12-45.34-15.85L257,139c22.28,4.1,37.55,9.57,48.06,17.19l.63.46.27.73c.41,1.09,40.65,108.86,46.6,125.86,2.91,8.32,2.24,16-2,22.78-9.92,15.93-40,27-89.45,33Z" fill="#750511"/>
        <rect x="186.49" y="100.91" width="28.13" height="5.15" transform="translate(45.92 267.87) rotate(-74.04)" fill="#750511"/>
        <path d="M138.67,213c1.36,3.09,4.05,15.73,4.34,18.92l1.77,19.16,1.77,19.16,1.91,21c-.48,3.27-2-4.87-2.7-1.58-1.32-3.1-1.91.09-3-3l-1.35-15.89-1.77-19.16-1.77-19.16C137.57,229.18,137.9,216.27,138.67,213Z" fill="#750511"/>
        <path d="M301.62,223.28c.84,3,1.42,15,1.17,18L301.39,259,300,276.78l-1.15,14.64c-1,2.9-1.55,0-2.81,2.93-.8-3-2.22,2.89-2.77-.14l1.6-17.83,1.4-17.77,1.4-17.77C297.87,237.89,300.31,226.16,301.62,223.28Z" fill="#750511"/>
        <path d="M284.08,391.76a10.81,10.81,0,0,1-3.11-.48c-10.25-3.08-104.25-1.89-139.61-1.18h-.19l-.18,0a5.32,5.32,0,0,1-3.74-2.28c-3.9-5.46-1.17-20.23,3.43-42.14,2.1-10,4.08-19.42,3.8-23.21l5.14-.38c.33,4.51-1.63,13.85-3.89,24.65-2.85,13.56-7.15,34.05-4.27,38.09a.58.58,0,0,0,.12.13c8.54-.17,128-2.47,140.89,1.4,2,.6,3,.1,3.65-.41,6.62-5.12,5.47-35,4.78-52.84l5.15-.2c1.29,33.41.59,51.41-6.78,57.11A8.32,8.32,0,0,1,284.08,391.76Z" fill="#750511"/>
        <polygon points="141.3 387.52 136.9 675.33 154.94 676.62 208.29 466.1 250.26 675.33 268.29 675.33 281.71 388.81 141.3 387.52" fill="#750511"/>
        <rect x="151.5" y="313.02" width="19.85" height="5.15" transform="translate(-191.42 349.71) rotate(-68.43)" fill="#750511"/>
        <rect x="278.65" y="307.35" width="5.15" height="25.94" transform="translate(-62.33 68.01) rotate(-12.42)" fill="#750511"/>
        <path d="M141.46,245a46,46,0,0,1,.51,6.16c-.69,1.74-1.3,3.5-2,5.25l-3.86,10.52-3.86,10.52s-4.67,8.23-6.28,9.63c-.33-2.11,1.45-11.41,1.45-11.41l3.86-10.52,3.86-10.52c.63-1.76,3.94-10.9,4.53-12.67C141.07,240.44,139.81,246.35,141.46,245Z" fill="#750511"/>
        <path d="M299.9,259.57c1.54,1.28-.37-7.74.88-6.36.47,1.63,4.18,13.62,4.69,15.23l3.11,9.66s1.2,4.28,3.11,9.66-1.14,10.69-1.14,10.69l-3.76-9.11-3.11-9.66L300.56,270c-.53-1.61-1-3.23-1.58-4.82A39.94,39.94,0,0,1,299.9,259.57Z" fill="#750511"/>
        <path d="M124.93,154.58a50.21,50.21,0,0,1,3.68,7.44,73.61,73.61,0,0,1,2.69,7.83,55,55,0,0,1,1.64,8.15,22.08,22.08,0,0,1-.28,8.35,61.5,61.5,0,0,0-1.69-8c-.71-2.61-1.39-5.23-2.15-7.84s-1.44-5.24-2.11-7.89S125.4,157.33,124.93,154.58Z" fill="#750511"/>
        <path d="M303.08,158.31c-.33,3.85-.77,7.66-1.23,11.46s-1,7.58-1.36,11.36-.86,7.56-1.16,11.35-.51,7.57-.46,11.44a43.36,43.36,0,0,1-1.55-11.5,85.83,85.83,0,0,1,.61-11.58,111.69,111.69,0,0,1,1.95-11.4A82.69,82.69,0,0,1,303.08,158.31Z" fill="#750511"/>
        <polygon points="161.21 316.5 141.89 303.79 162.5 314.27 161.21 316.5" fill="#750511"/>
        <polygon points="282.61 320.58 305.25 315.9 283.27 323.07 282.61 320.58" fill="#750511"/>
        <path d="M140,672.19c-.48,3.88.86,13.1-3.86,19-.82,1.77.33,9.34,2.28,9.34h16.2c1.91,0,2.88-7.58,2.13-9.34-5.15-7.08-4.83-16-4.83-19s-7.56-3.12-9-2C142.24,670.6,140,671.47,140,672.19Z" fill="#750511"/>
        <path d="M253.53,672.19c-.48,3.88.86,13.1-3.86,19-.82,1.77.33,9.34,2.28,9.34h16.2c1.91,0,2.88-7.58,2.13-9.34-5.15-7.08-4.83-16-4.83-19s-7.56-3.12-9-2C255.81,670.6,253.62,671.47,253.53,672.19Z" fill="#750511"/>
        <path d="M197.58,348.64c-7.71,0-19.17-12.31-21.58-15l3.84-3.44c9.25,10.31,16.25,13.73,18,13.28,4-2.21,7.31-5.87,10.38-11.48,0-.64-.3-1.91-4.15-3.51-1.17-.49-1.9-1.58-3.32-3.81-.46-.72-1.18-1.87-1.6-2.36-2.48-.64-5.34-.23-8.36.19-3.43.48-7.32,1-11.35.13l1.13-5c3.11.7,6.22.26,9.51-.2,3.6-.51,7.31-1,11,.1,1.48.46,2.45,1.9,4,4.42.41.64,1,1.56,1.31,2,5.43,2.35,7.7,5.57,6.78,9.56l-.08.33-.16.3c-3.67,6.82-7.75,11.27-12.84,14l-.27.12A5.93,5.93,0,0,1,197.58,348.64Zm1.37-26.48Z" fill="#750511"/>
        <path d="M206.19,326.64a26.89,26.89,0,0,1-1.95,2.92,22.32,22.32,0,0,1-2.29,2.6,12.75,12.75,0,0,1-2.75,2.1,6.83,6.83,0,0,1-3.25.93,6.5,6.5,0,0,0,2.89-1.46,11.8,11.8,0,0,0,2.13-2.41,20.71,20.71,0,0,0,1.63-2.78,24.78,24.78,0,0,0,1.23-2.93Z" fill="#750511"/>
        <path d="M240,350.79a5.93,5.93,0,0,1-2.21-.4l-.27-.12c-5.09-2.75-9.17-7.2-12.84-14l-.16-.3-.08-.33c-.93-4,1.35-7.21,6.78-9.56.33-.41.91-1.33,1.31-2,1.59-2.52,2.57-4,4-4.42,3.67-1.12,7.38-.6,11-.1,3.29.46,6.4.9,9.51.2l1.13,5c-4,.9-7.92.36-11.35-.13-3-.43-5.88-.83-8.36-.19-.41.49-1.14,1.64-1.6,2.36-1.41,2.23-2.14,3.32-3.32,3.81-3.85,1.61-4.2,2.88-4.15,3.51,3.07,5.61,6.38,9.26,10.38,11.48,1.7.45,8.71-3,18-13.28l3.84,3.44C259.21,338.48,247.74,350.79,240,350.79Zm-1.37-26.48" fill="#750511"/>
        <path d="M233.79,327.75a24.79,24.79,0,0,0,1.23,2.93,20.73,20.73,0,0,0,1.63,2.78,11.8,11.8,0,0,0,2.13,2.41,6.5,6.5,0,0,0,2.89,1.46,6.84,6.84,0,0,1-3.25-.93,12.73,12.73,0,0,1-2.75-2.1,22.28,22.28,0,0,1-2.29-2.6,26.83,26.83,0,0,1-1.95-2.92Z" fill="#750511"/>
        <path d="M249.66,198.17q-2.22,6.87-4,13.84c-.6,2.32-1.2,4.64-1.73,7s-1.1,4.66-1.6,7q-3,14-5.2,28.25c-.65,4.74-1.41,9.47-1.9,14.24l-.85,7.14-.68,7.16-.35,3.58-.27,3.59-.55,7.18c-.4,4.79-.52,9.59-.91,14.39q-.15-3.6-.23-7.21c0-2.41-.17-4.82-.12-7.22.12-4.81.07-9.64.43-14.44.42-9.63,1.56-19.22,2.89-28.77a288.12,288.12,0,0,1,5.8-28.34A178.21,178.21,0,0,1,249.66,198.17Z" fill="#750511"/>
        <path d="M184.4,175.84a178.21,178.21,0,0,1,9.27,27.36,288.12,288.12,0,0,1,5.8,28.34c1.32,9.55,2.47,19.14,2.89,28.77.36,4.81.31,9.63.43,14.44,0,2.41-.09,4.82-.12,7.22s-.13,4.81-.23,7.21c-.39-4.8-.52-9.6-.91-14.39l-.55-7.18L200.7,264l-.35-3.58-.68-7.16-.85-7.14c-.49-4.77-1.25-9.5-1.9-14.24q-2.15-14.21-5.2-28.25-.75-3.51-1.6-7c-.53-2.34-1.13-4.66-1.73-7Q186.63,182.7,184.4,175.84Z" fill="#750511"/>
        <path d="M429.83,32c-.41,6.37-.88,12.66-1.18,18.94-1.11,6.14-1.94,12.33-2.61,18.53s-1.07,12.4-1.12,18.59a102,102,0,0,0,1.31,18.34,49,49,0,0,0,2.27,8.67,26.05,26.05,0,0,0,4.11,7.49,17.86,17.86,0,0,0,2.94,2.8,16,16,0,0,0,3.51,1.87,19.7,19.7,0,0,0,8.25.85,41.43,41.43,0,0,0,16.86-5.18,64.45,64.45,0,0,0,16-9.32,53.19,53.19,0,0,1-13.58,13.83,46.29,46.29,0,0,1-19,5.81,32.07,32.07,0,0,1-5.14,0,22.59,22.59,0,0,1-5.24-1.15,21.07,21.07,0,0,1-4.79-2.55,23,23,0,0,1-3.88-3.69,31.12,31.12,0,0,1-5-9,54.1,54.1,0,0,1-2.52-9.57A107,107,0,0,1,419.77,88c.05-6.4.49-12.76,1.15-19.09s1.58-12.61,2.6-18.87A170.65,170.65,0,0,1,429.83,32Z" fill="#750511"/>
        <path d="M423.4,67.42c-2.06,3.41-31.35-56.34,36.07-59,81.15,0,47,93.82,29.63,101.55-2.32-1.51-7.29-32.16-6.18-29.95,13.2,3.54,10.95-25.12-3.22-23.19-5.47,1.93-9.63,16.31-14.17,20.29C466.82,45.52,435,40.37,423.4,67.42Z" fill="#750511"/>
        <path d="M474.07,199.88c-55.61,0-67-36.92-67-46.8V150.5h2.58c18.34.06,29.65-2.69,33.54-8.1,1.87-2.61,2.06-6,.57-10.39l4.88-1.66c2,6,1.61,11-1.26,15.05-4.75,6.62-16.19,10-34.93,10.24,1.73,11.31,14.4,39.09,61.61,39.09,44.46,0,58-35,61.13-45.66-22.15-1.2-36.54-7-43.92-17.8-7-10.25-7.27-24.33-.75-43l4.87,1.7c-5.86,16.8-5.82,29.73.14,38.41,6.64,9.69,21.12,15,43,15.7l3,.1-.61,3C540.89,147.68,529.63,199.88,474.07,199.88Z" fill="#750511"/>
        <path d="M561.39,263.43c-2.38,0-5.64,0-14.78-32.26-4.27-15.08-7.87-30.35-7.9-30.5l-.07-.29v-.29c0-.36-.11-36.25-.43-47.36v0c0-.62-.11-15.24,9.28-22.68,5.27-4.18,12.33-5.2,21-3,15.76,3.94,28.46,28.77,36.34,48.9,8.63,22,14.13,45.23,14.13,51.5,0,4.17-4.38,11.58-25.26,23.18C582.42,256.79,567.29,263.43,561.39,263.43Zm-17.6-63.66c7.8,33.16,15.2,55.36,18.12,58.48,4.3-.39,16.63-5.19,29.26-12.21,15.62-8.68,22.61-15.63,22.61-18.68,0-12.2-21.67-89.17-46.57-95.4-7-1.75-12.55-1.06-16.5,2.07-7.29,5.76-7.35,18.07-7.35,18.57C543.66,163.26,543.77,196.29,543.78,199.78Z" fill="#750511"/>
        <path d="M387.92,262.57c-5,0-15.18-4-23-7.71-10.76-5.13-20.07-11.07-25.6-16.32-9.37-5.86-8.44-17.56-8.39-18.06l0-.14c2.5-17.27,22.09-87.28,49.91-94.23,8.64-2.16,15.7-1.14,21,3,9.39,7.44,9.29,22.06,9.28,22.68-.32,11,0,48.09,0,48.46v.32l-.08.31c0,.15-3.73,15.15-8.11,30C393.55,262.57,390.3,262.57,387.92,262.57ZM336.06,221c-.06.84-.47,9.28,6.18,13.29l.25.15.21.2c11.29,10.85,37.39,22.25,44.74,22.77,2.93-3,10.49-24.78,18.52-57.39,0-3.7-.3-37.74,0-48.29,0-.09.06-12.7-7.35-18.54-4-3.12-9.5-3.82-16.5-2.07C358.54,137,338.85,201.93,336.06,221Z" fill="#750511"/>
        <path d="M533.65,323.11l-.34-5.14c16.72-1.12,62-5.62,70.64-12.92,1.78-1.51,5.63-7.87,2.78-34.25-1.62-15-4.62-29-4.65-29.15l5-1.09c0,.14,3.09,14.42,4.74,29.68,2.32,21.5.82,34.17-4.58,38.74-5.08,4.3-18.68,7.86-41.58,10.89C549.17,322.06,533.81,323.1,533.65,323.11Z" fill="#750511"/>
        <path d="M538.42,293.06a23.35,23.35,0,0,0,.3,4.4,11,11,0,0,0,1.47,3.67,8.17,8.17,0,0,0,.55.77l.29.36s0,0,0,0l0-.12a2,2,0,0,0-.12-.22,2.28,2.28,0,0,0-.25-.3c-.28-.25-.18-.31,0-.32a3.67,3.67,0,0,0,.7,0,22.73,22.73,0,0,0,3.84-.9,125,125,0,0,0,16-6.65c5.25-2.55,10.43-5.31,15.41-8.31a71.88,71.88,0,0,0,7.19-4.79c1.32-.6,2.72-1.08,4-1.73a14.6,14.6,0,0,0,1.9-1,3.12,3.12,0,0,0,1.45-1.53,3.51,3.51,0,0,1-.24,2.46,16.51,16.51,0,0,1-1.13,2.21,27.57,27.57,0,0,1-2.87,3.87c-2.56,1.72-5.05,3.42-7.65,5-5.16,3.1-10.44,5.91-15.83,8.53a129.38,129.38,0,0,1-16.75,6.94,27.28,27.28,0,0,1-4.8,1.09,4.31,4.31,0,0,1-3.69-.71,3.53,3.53,0,0,1-.68-.65,2.91,2.91,0,0,1-.29-.44l-.12-.24a.76.76,0,0,1,0-.09l-.19-.64a12.13,12.13,0,0,1-.31-1.28,12,12,0,0,1,.1-5A17,17,0,0,1,538.42,293.06Z" fill="#750511"/>
        <path d="M407.58,291.34a18.15,18.15,0,0,1,1.64,3.83,12.14,12.14,0,0,1,.39,4.44,13.54,13.54,0,0,1-.44,2.29l-.17.57,0,.14a1,1,0,0,1-.09.23,3.29,3.29,0,0,1-.46.71,4.2,4.2,0,0,1-2.07,1.31,5,5,0,0,1-1.53,0c-.45,0-.86-.06-1.25-.11a21.5,21.5,0,0,1-2.21-.43,60,60,0,0,1-7.86-2.65c-2.51-1-5-2.12-7.39-3.27a153.18,153.18,0,0,1-14.16-7.7c-2.31-1.41-4.53-3-6.8-4.58a2.58,2.58,0,0,1-.7-.81l-.61-.92c-.39-.62-.78-1.25-1.12-1.92a13.4,13.4,0,0,1-.86-2.12,3.29,3.29,0,0,1,0-2.27,2.9,2.9,0,0,0,1.29,1.4,11.48,11.48,0,0,0,1.68.92c.58.27,1.17.54,1.77.78l.91.35a2.3,2.3,0,0,1,.85.42,56.19,56.19,0,0,0,6.28,4.36,148,148,0,0,0,13.68,7.43c2.34,1.12,4.71,2.18,7.1,3.14a55.36,55.36,0,0,0,7.14,2.42,16.51,16.51,0,0,0,1.68.33,6.36,6.36,0,0,0,.72.06c.21,0,.39-.11.44-.08s0,.14-.29.51a1.61,1.61,0,0,0-.16.32c0,.1,0,0,0,0l.06-.08.26-.33a9.59,9.59,0,0,0,.92-1.42,11.06,11.06,0,0,0,1.14-3.41,18.55,18.55,0,0,0,.19-1.93C407.58,292.71,407.54,292,407.58,291.34Z" fill="#750511"/>
        <rect x="570.44" y="257.87" width="5.15" height="32.38" transform="translate(-35.43 91.71) rotate(-8.88)" fill="#750511"/>
        <path d="M409.81,325.65c-1.56-.27-38.56-6.75-61.16-16.94l2.12-4.7c22,9.92,59.55,16.49,59.92,16.56Z" fill="#750511"/>
        <path d="M373.75,286.06l-5.15-.17c.27-8,2.9-17,8.3-28.37l4.65,2.21C376.47,270.43,374,278.8,373.75,286.06Z" fill="#750511"/>
        <path d="M540.19,355.52c-7.56-6.77-12.11-27.62-10.57-48.48.14-1.93,1.21-5.92,3-12.26,1.16-4.23,2.48-9,2.63-10.57,3.32-33.16,10.33-56.92,10.4-57.16l4.94,1.47c-.07.23-6.95,23.56-10.21,56.2-.18,1.84-1.18,5.54-2.79,11.42-1.19,4.32-2.67,9.7-2.78,11.27-1.55,21,3.4,39.36,8.87,44.26Z" fill="#750511"/>
        <path d="M407,362.76l-5-1.14c4.19-18.41,7.87-36.19,7-51.23-.15-2.45-1.69-6.39-3-9.86s-2.63-6.72-3-9.29c-3.47-27.28-9.63-42.11-9.69-42.26l4.74-2c.26.62,6.49,15.55,10.06,43.62a43.15,43.15,0,0,0,2.64,8.06c1.57,4,3.19,8.17,3.39,11.43C415.05,325.8,411.29,344,407,362.76Z" fill="#750511"/>
        <circle cx="485.88" cy="13.32" r="12.88" fill="#750511"/>
        <path d="M347.6,615.89a6.84,6.84,0,0,1-2.14-.32,5.09,5.09,0,0,1-3.48-3.78c-2.26-5.43.82-13.7,3.8-21.71,1.54-4.13,3-8,3.14-10.29q.66-9.62,1.26-18.57c4-59.73,6.21-87.45,14.21-93.87,1.24-3.53,2.51-7.1,3.82-10.76,8.1-22.66,17.28-48.33,24.29-84.45.61-7.37,9-12.72,25.69-16.36,12.4-2.7,29.51-4.49,50.85-5.3,36.2-1.38,72.65.52,73,.54l.45,0,.42.17c1,.41,9,4,10.89,10.57,5.23,3.49,7.45,5.41,8,16.29,4.08,4.65,5.16,11.41,3.2,20.12-5.76,25.62-39.48,71-90.2,121.4-46.24,45.95-93,82.51-116.8,91.28C354.56,614.08,350.74,615.89,347.6,615.89ZM497.33,355.14c-8.94,0-18.54.13-28.13.5-63.76,2.44-71.3,12.72-71.58,17l0,.32c-7.08,36.58-16.35,62.49-24.52,85.35-1.4,3.91-2.76,7.73-4.08,11.5l-.31.89-.81.48c-6.72,4-9.29,42.1-12.54,90.37q-.6,8.94-1.26,18.57c-.21,3-1.71,7-3.46,11.73-2.29,6.15-5.42,14.58-3.82,18.05l.15.32.06.35c.61.48,4,0,7.78-3.78l.4-.4.53-.19c22.58-8.07,70.05-45.19,115.43-90.28,50.06-49.74,83.25-94.17,88.81-118.87,1.65-7.36.8-12.77-2.53-16.11l-.72-.72,0-1c-.35-9.57-1.49-10.33-5.73-13.16l-1.79-1.21-.17-1.11c-.57-3.6-5.4-6.56-7.67-7.62C538.15,356,519.85,355.14,497.33,355.14Z" fill="#750511"/>
        <path d="M344.75,680.72l-1.22-1c-1.54-1.27-1.54-1.27,2.84-23.4,3-15.15,8.56-43.35,7.75-46.94l4.92-1.53c1.15,3.57-1.42,18.15-7.61,49.48-1.22,6.19-2.48,12.53-3.17,16.45,18.47-7.07,66.15-22.47,116-15.74,66.64,9,103.18,12.89,121.48,12.89h.66c6.32-21.36,6.45-79-8.4-94.41a4.5,4.5,0,0,1-1.22-2.42l-.72-4.5c-9.7-60.94-20.69-130-20.69-160.18h5.15c0,29.77,11,98.63,20.62,159.37l.68,4.28c10.11,10.64,12.77,35.13,13.45,48.82,1,19.07-.73,40-4.1,51a4.51,4.51,0,0,1-4.28,3.2c-18.17.22-55-3.7-123.34-12.93-52.79-7.13-103.21,11.2-117.4,17Z" fill="#750511"/>
        <path d="M412.24,254.84c.09.66.76,1,1.29,1.22a11.32,11.32,0,0,0,1.78.58,35.83,35.83,0,0,0,3.7.72c2.49.37,5,.59,7.52.77,5,.39,10.07.6,15.11.78q15.13.47,30.28.44t30.28-.44c5-.18,10.09-.39,15.11-.78,2.51-.18,5-.4,7.52-.77a35.48,35.48,0,0,0,3.7-.72,11.2,11.2,0,0,0,1.78-.58c.54-.26,1.2-.57,1.29-1.23,0,.68-.68,1.09-1.2,1.4a11.49,11.49,0,0,1-1.75.78,34.6,34.6,0,0,1-3.68,1c-2.48.56-5,1-7.5,1.35-5,.7-10.09,1.18-15.14,1.53-10.12.73-20.25,1-30.39,1s-20.27-.29-30.39-1c-5.06-.36-10.11-.84-15.14-1.53-2.51-.37-5-.79-7.51-1.35a34.67,34.67,0,0,1-3.69-1,11.57,11.57,0,0,1-1.76-.78C412.93,255.93,412.26,255.52,412.24,254.84Z" fill="#750511"/>
        <path d="M559.53,372.5a9.64,9.64,0,0,1-.76,5.35,26.48,26.48,0,0,1-2.29,4.38,70.77,70.77,0,0,1-5.75,7.7c-4.11,4.86-8.55,9.37-13.07,13.79-9.08,8.79-18.58,17.1-28.21,25.23S490,445,480.1,452.79s-19.91,15.46-30,23q15-11.52,29.62-23.47T508.62,428c9.48-8.28,18.82-16.74,27.69-25.63,4.42-4.46,8.74-9,12.69-13.85a68.55,68.55,0,0,0,5.42-7.53,24.11,24.11,0,0,0,2-4,7.36,7.36,0,0,0,.58-3.87Z" fill="#750511"/>
        <polygon points="361.17 473.81 474.23 394.82 362.67 475.91 361.17 473.81" fill="#750511"/>
        <path d="M556,415.21s-31.38,50.62-81.62,106.95c-29.16,32.7-74.69,77.26-118.69,100.44-1.93-18,24.47-27.69,24.47-27.69S471.65,538.23,556,415.21Z" fill="#750511"/>
        <path d="M350,585.58a173.87,173.87,0,0,0,20.68-12.05q10-6.7,19.33-14.33c1.57-1.25,3.07-2.59,4.6-3.88s3.06-2.6,4.53-4l4.46-4.06,4.32-4.2c2.93-2.76,5.63-5.74,8.43-8.63s5.36-6,8-9c-2.61,3.06-5.13,6.21-7.81,9.21s-5.35,6-8.21,8.87l-4.22,4.33-4.36,4.19c-1.44,1.42-2.93,2.77-4.44,4.11s-3,2.72-4.52,4q-9.15,7.92-19.06,14.94a175.51,175.51,0,0,1-20.68,12.8Z" fill="#750511"/>
        <path d="M541.18,273.15c-1.26,5.09-2.68,10.09-4.22,15.07s-3.21,9.91-5.06,14.78a129.2,129.2,0,0,1-6.35,14.27,56.37,56.37,0,0,1-4.08,6.66,24,24,0,0,1-5.38,5.62,23.84,23.84,0,0,0,5.11-5.8A55.84,55.84,0,0,0,525,317a128.26,128.26,0,0,0,5.72-14.42c1.64-4.91,3.1-9.88,4.42-14.88s2.52-10,3.56-15.09Z" fill="#750511"/>
        <path d="M404.64,272.6c1,5,2.24,10.09,3.56,15.09s2.78,10,4.42,14.88A128.26,128.26,0,0,0,418.33,317a55.84,55.84,0,0,0,3.77,6.77,23.84,23.84,0,0,0,5.11,5.8,24,24,0,0,1-5.38-5.62,56.37,56.37,0,0,1-4.08-6.66A129.21,129.21,0,0,1,411.4,303c-1.86-4.87-3.52-9.81-5.06-14.78s-3-10-4.22-15.07Z" fill="#750511"/>
        <path d="M542.09,199.14a34.22,34.22,0,0,0,4.06,3.43,36.92,36.92,0,0,0,4.6,2.85,28.92,28.92,0,0,0,5,2.06,25,25,0,0,0,5.4,1,25.31,25.31,0,0,1-5.55-.37,29.88,29.88,0,0,1-5.41-1.51,38.54,38.54,0,0,1-5.12-2.4,36.18,36.18,0,0,1-4.78-3.18Z" fill="#750511"/>
        <path d="M408.12,201a36.19,36.19,0,0,1-4.78,3.18,38.54,38.54,0,0,1-5.12,2.4,29.87,29.87,0,0,1-5.41,1.51,25.31,25.31,0,0,1-5.55.37,25,25,0,0,0,5.4-1,28.91,28.91,0,0,0,5-2.06,36.93,36.93,0,0,0,4.6-2.85,34.21,34.21,0,0,0,4.06-3.43Z" fill="#750511"/>
        <path d="M359.84,149.08a58.47,58.47,0,0,1,7.69-7.6,39.57,39.57,0,0,1,9.12-5.74,18.76,18.76,0,0,1,10.59-1.55,15.13,15.13,0,0,1,5,1.94,19.7,19.7,0,0,1,4.06,3.41,19.52,19.52,0,0,0-4.22-3.13,14.66,14.66,0,0,0-4.92-1.58,17.81,17.81,0,0,0-10,2.08,38,38,0,0,0-8.4,6,56.42,56.42,0,0,0-6.9,7.69Z" fill="#750511"/>
        <path d="M447,134.62s2.58,23.83,14.81,23.83,13.74-41,13.74-41C475.92,122.16,444.81,133.83,447,134.62Z" fill="#750511"/>
        <path d="M583.69,582.11c-9.91-9.75-19.48-19.77-28.67-30.17q-6.9-7.78-13.27-16c-4.2-5.5-8.29-11.17-11.28-17.43,3.19,6.16,7.43,11.68,11.79,17s9,10.53,13.72,15.55c9.47,10.08,19.34,19.79,29.48,29.16Z" fill="#750511"/>
        <path d="M576.63,280.61c1.84-10.36,6.26-21,29-30.7l-1-8.8s-34.19,17.6-34.19,20.18S576.63,280.61,576.63,280.61Z" fill="#750511"/>
        <path d="M338.56,252.56c8.69.64,33.47,16.33,33.9,36,2.36-20.61,5.15-32,5.15-32l-40.36-21.9Z" fill="#750511"/>
        <path d="M420.84,152.68c6.38,1.72,12.67,3.64,18.87,5.86,3.1,1.12,6.17,2.32,9.15,3.73a39.64,39.64,0,0,1,4.34,2.37c1.34.91,2.81,1.9,3.42,3.47-.7-1.51-2.21-2.38-3.59-3.19a39.16,39.16,0,0,0-4.43-2.05c-3-1.19-6.15-2.18-9.29-3.09-6.28-1.8-12.66-3.29-19-4.58Z" fill="#750511"/>
        <path d="M526.9,148.33c-6.38,1.28-12.77,2.78-19,4.58-3.14.91-6.25,1.9-9.29,3.09a39.16,39.16,0,0,0-4.43,2.05c-1.38.81-2.88,1.68-3.59,3.19.61-1.57,2.08-2.56,3.42-3.47a39.64,39.64,0,0,1,4.34-2.37c3-1.4,6.05-2.61,9.15-3.73,6.2-2.22,12.49-4.14,18.87-5.86Z" fill="#750511"/>
        <path d="M563.75,131.14a9.29,9.29,0,0,0-3.47,1.82,13.73,13.73,0,0,0-2.65,3.21,29.93,29.93,0,0,0-3.27,8.1,86.41,86.41,0,0,0-2.35,17.8,169.3,169.3,0,0,0,.29,18.1,154.78,154.78,0,0,0,2.2,18,155.08,155.08,0,0,1-2.85-17.95,170.29,170.29,0,0,1-.94-18.18,87.94,87.94,0,0,1,1.76-18.22A32,32,0,0,1,555.7,135a16,16,0,0,1,3-3.87,11.77,11.77,0,0,1,4.43-2.5Z" fill="#750511"/>
        <path d="M389.16,594.75c-1.3,7.54-2.76,15-4.49,22.46-.87,3.72-1.81,7.42-2.92,11.07-.56,1.83-1.17,3.64-1.88,5.41a14.2,14.2,0,0,1-2.87,4.91,14.07,14.07,0,0,0,2.57-5c.61-1.8,1.11-3.63,1.56-5.47.9-3.69,1.62-7.42,2.28-11.16,1.3-7.48,2.34-15,3.2-22.55Z" fill="#750511"/>
        <path d="M459.46,532c2.7,8.76,5.57,17.5,8.56,26.19s6.12,17.33,9.46,25.89,6.87,17,10.91,25.3A122,122,0,0,0,495,621.39a45.07,45.07,0,0,0,4.08,5.53,19.58,19.58,0,0,0,2.47,2.39,7.8,7.8,0,0,0,3,1.59,7.85,7.85,0,0,1-3.07-1.52A19.72,19.72,0,0,1,499,627a45.31,45.31,0,0,1-4.23-5.46,122.5,122.5,0,0,1-7-11.94c-4.24-8.18-8-16.61-11.52-25.11s-6.88-17.09-10.08-25.72-6.28-17.31-9.19-26.06Z" fill="#750511"/>
        <path d="M344.13,681.21s38.64,6.87,109.92-6.87c37.78-6.87,130.53,2.15,130.53,2.15s-122.37-17.17-158-17.17S344.13,681.21,344.13,681.21Z" fill="#750511"/>
        <path d="M529.19,453.64c12.29-12.5,24.82-25.43,30.06-24.9L556,415.21S530,448.92,529.19,453.64Z" fill="#750511"/>
        <path d="M537.34,320.22s-1-11.92,10.3-15.46c-6.12-1-10,.64-12.24-11.92-4.83,23.83-3.86,31.56-3.86,31.56S530.58,319.89,537.34,320.22Z" fill="#750511"/>
        <path d="M552.15,362.15a3.36,3.36,0,0,1-.14.68,3.55,3.55,0,0,1-.19.5,5.21,5.21,0,0,1-.45.88,11.94,11.94,0,0,1-1.08,1.52c-.4.45-.82.86-1.23,1.29l-1.33,1.13a36.09,36.09,0,0,1-5.75,3.63,77.37,77.37,0,0,1-12.38,4.94c-2.12.64-4.22,1.32-6.37,1.84s-4.27,1.13-6.43,1.57c-4.29,1-8.64,1.76-13,2.56,4.28-1,8.58-2,12.8-3.19,2.13-.54,4.22-1.22,6.31-1.87s4.16-1.39,6.22-2.13a75.87,75.87,0,0,0,11.87-5.42,34.1,34.1,0,0,0,5.23-3.66l1.14-1.07,1-1.15a9.56,9.56,0,0,0,.77-1.21,3,3,0,0,0,.27-.6,1.56,1.56,0,0,0,.09-.27c0-.06,0-.21,0-.13Z" fill="#750511"/>
        <path d="M341.23,609.24S344.13,628.72,356,621s3.7-15.3-.48-14.65C345.25,610.53,341.23,609.24,341.23,609.24Z" fill="#750511"/>
        <path d="M397.15,671.77s1.29,12.24-3.86,16.75-2.58,12.88,6.44,12.88h20s8.37-5.8-.64-13.53a93.84,93.84,0,0,1-5.8-19.32Z" fill="#750511"/>
        <path d="M520.38,671.77s1.29,12.24-3.86,16.75-2.58,12.88,6.44,12.88h20s8.37-5.8-.64-13.53a93.84,93.84,0,0,1-5.8-19.32Z" fill="#750511"/>
        <rect x="333.56" y="237.72" width="9.32" height="5.15" transform="translate(-53 378.45) rotate(-54.84)" fill="#750511"/>
        <path d="M237.55,350.26s14.06.5,22.65-7.36C276.52,340.28,292,339,292,339l-1.09-5.88-29.26,2.06Z" fill="#750511"/>
      </g>
      <polygon points="301.62 223.28 311.69 287.76 298.98 265.19 301.62 223.28" fill="#750511"/>
      <polygon points="138.67 212.98 126 287.05 141.46 244.97 138.67 212.98" fill="#750511"/>
    </g>
  </g>
</svg>
