<svg xmlns="http://www.w3.org/2000/svg" viewBox="0 0 700 700">
  <title>Artboard 3 copy 9</title>
  <g id="Midtones">
    <path d="M10.77,312.37s8,14,35-105l1,33-8,97-31-3Z" fill="#f7982d"/>
    <path d="M309.27,311.37s-14.5,6.5-41.5-112.5c-1,33,1,41.5,1,41.5l8,97,31-3Z" fill="#f7982d"/>
    <path d="M71.77,210.37c2,14.43,5.38,22.84,10.75,22L73.77,271.7Z" fill="#f7982d"/>
    <path d="M231.52,217.62c6.16-1.45,10.58-6.06,13.58-13.25l-3.33,55.33Z" fill="#f7982d"/>
    <path d="M80.27,245.37s-4.5,65.5,19,64,118.5.5,118.5.5,27.5-5,18-72.5c8.5,35.5,17.5,79,17.5,79s5,20-6,21-174.5,0-174.5,0-6.5,7-6-22.5S80.27,245.37,80.27,245.37Z" fill="#f7982d"/>
    <polygon points="60.77 122.37 55.27 180.37 66.28 156.37 60.77 122.37" fill="#f7982d"/>
    <polygon points="254.78 122.37 260.27 180.37 249.28 156.37 254.78 122.37" fill="#f7982d"/>
    <path d="M261.77,69.7s10-19.33,11.67-19.67c-1.67-6.33-3.33-9-3.33-9Z" fill="#f7982d"/>
    <path d="M39.44,53c5.13-.55,9.21,8,13.33,16.33l-8.33-28Z" fill="#f7982d"/>
    <path d="M95.77,18s4-12,22,13c7.33,6.33,25.67,13.67,25.67,13.67l-8,4.67S98.77,33.7,95.77,18Z" fill="#f7982d"/>
    <path d="M213.11,18s-4-12-22,13c-7.33,6.33-25.67,13.67-25.67,13.67l8,4.67S210.11,33.7,213.11,18Z" fill="#f7982d"/>
    <path d="M147.77,47a18.65,18.65,0,0,0,14.33.33c8-3,2,3.67,2,3.67s1,3.67-8.67,3.67S142.44,50,147.77,47Z" fill="#f7982d"/>
    <polygon points="135.11 65.7 147.78 53.7 140.44 49.37 135.11 65.7" fill="#f7982d"/>
    <path d="M162.77,55l12,8.67-5-15S161.44,52.7,162.77,55Z" fill="#f7982d"/>
    <path d="M456.77,16.88s3.48-10.45,19.15,11.32c6.38,5.51,22.34,11.9,22.34,11.9l-7,4.06S459.39,30.51,456.77,16.88Z" fill="#f7982d"/>
    <path d="M563.58,17.21S560.1,6.76,544.43,28.53C538,34,522.09,40.42,522.09,40.42l7,4.06S561,30.85,563.58,17.21Z" fill="#f7982d"/>
    <path d="M503,42.79a16.23,16.23,0,0,0,12.48.29c7-2.61,1.74,3.19,1.74,3.19s.87,3.19-7.54,3.19S498.4,45.4,503,42.79Z" fill="#f7982d"/>
    <polygon points="492.01 59.04 503.04 48.59 496.66 44.82 492.01 59.04" fill="#f7982d"/>
    <path d="M518.76,51.42,529.21,59,524.86,45.9S517.6,49.39,518.76,51.42Z" fill="#f7982d"/>
    <path d="M339.77,241.7s42.67,12.67,53.33-4.67,40-104,40-104V161.7l-37.33,96S348.44,257,339.77,241.7Z" fill="#f7982d"/>
    <path d="M691.11,237.7s-42.67,12.67-53.33-4.67-40-104-40-104V157.7l37.33,96S682.44,253,691.11,237.7Z" fill="#f7982d"/>
    <path d="M429.77,211.37s-2.32,49.56,10.5,60c15.56,12.67,150.1,7.63,151-5.5,0,0,14-23,9-66.5,8,45,13,75.5,13,75.5s-8,9-17.5,9-86.5,21-157.5,4c-16.5-3.5-19-2.5-16-22S429.77,211.37,429.77,211.37Z" fill="#f7982d"/>
    <path d="M605.77,51.87s10-12.5,14-10.5l-3-7.5Z" fill="#f7982d"/>
    <path d="M409.27,44.87s11,5,13,10.5l-10.5-18Z" fill="#f7982d"/>
    <path d="M438.27,287.87s-11.5-.5-8.5,10.5-2,17-2,17-22,169-17,185,123,102,123,102,15,5,20,1,104-74,105-106-17.33-76-17.33-76-19.67-129-37.67-137S438.27,287.87,438.27,287.87Z" fill="#f7982d"/>
    <path d="M416.44,548.37s.59-1.5,1.58-3.61c3.35-7.15,11.27-21.4,16.42-9.05,6.67,16,7.33,57.33,7.33,57.33l-.67-65.33-23.33-16Z" fill="#f7982d"/>
    <path d="M441.77,549s3.33-8,9.33-.67,74.67,61.33,74.67,61.33,15.33,11.33,24.67,4,30-18.67,30-18.67L441.11,527.7Z" fill="#f7982d"/>
    <path d="M550.44,613.7s46.33-25.83,55.83-16.83l-9-16.5Z" fill="#f7982d"/>
    <path d="M602.77,590.37s50-60,55.5-50.5l-4-23-57,63.5Z" fill="#f7982d"/>
  </g>
  <g id="Darker_Mids" data-name="Darker Mids">
    <path d="M13.77,332.37s26-8,29.33-41.33l-4,44.67Z" fill="#c45937"/>
    <path d="M273.11,286.37l2,51.33,23.33-3.33S276.44,311,273.11,286.37Z" fill="#c45937"/>
    <path d="M233.77,229c3,3.15,5.46,1.09,7.33-5.33L240.44,255Z" fill="#c45937"/>
    <path d="M72.11,238.37c1.54,6.77,3.89,10.5,7.67,9l-7,25.67Z" fill="#c45937"/>
    <path d="M73.77,269.7s-.67,56.67,6,56.33,161-.33,161-.33,10.33,1.33,3.67-45l9,48.33s.33,9-7.33,9.67-175,0-175,0-6.67-1-4.67-15.67S73.77,269.7,73.77,269.7Z" fill="#c45937"/>
    <path d="M167.77,44s37.33-14.67,36.33-12.67c-19,15.33-29.33,16.33-29.33,16.33S165.77,50.7,167.77,44Z" fill="#c45937"/>
    <path d="M143.11,44l-35-9.33s20.67,14,25.33,13.67S143.11,44,143.11,44Z" fill="#c45937"/>
    <polygon points="139.44 49.7 133.78 64.7 148.11 53.7 139.44 49.7" fill="#c45937"/>
    <polygon points="161.78 54.04 174.78 65.04 170.44 47.7 161.78 54.04" fill="#c45937"/>
    <path d="M440.44,334.37s-6-30.67,5.33-26l-12-20s-6,8.67-6,12S440.44,334.37,440.44,334.37Z" fill="#c45937"/>
    <path d="M424.44,356.37s4-34,10-28c6,22,45.33,134,45.33,134l-48-156.67Z" fill="#c45937"/>
    <path d="M458.27,319.37s-23.5-27,.5-26.5l-25-4.5S448.77,313.87,458.27,319.37Z" fill="#c45937"/>
    <path d="M630.44,448.37S641.11,421,649.11,457l-11.33-64.67S635.11,437,630.44,448.37Z" fill="#c45937"/>
    <path d="M438.44,495.7c-9.53-17.49-8-67.81-3.33-127.33" fill="#c45937"/>
    <path d="M419.77,519.7S531.11,614.37,543.11,611l12-5.33-12-.67L520.44,593.7,415.11,507Z" fill="#c45937"/>
    <path d="M444.77,293.37s59.5,22.44,83,18,78-21.44,78-21.44l-4-8C516.85,311.15,429.47,284.85,444.77,293.37Z" fill="#c45937"/>
    <path d="M425.11,259.37S423.44,284,444.77,287.7l-22.67-4S418.44,266.7,425.11,259.37Z" fill="#c45937"/>
    <path d="M581.44,285.7s26.33-9.33,26.33-37l5,27.67Z" fill="#c45937"/>
    <path d="M377.27,255.37s22-9,30.5-25l-12.5,28.5Z" fill="#c45937"/>
    <path d="M626.27,236.37l8.5,19.5,32.5-4S640.77,254.87,626.27,236.37Z" fill="#c45937"/>
    <polygon points="495.77 46.87 490.77 58.37 505.27 50.37 495.77 46.87" fill="#c45937"/>
    <polygon points="516.77 50.37 529.77 60.37 525.27 44.87 516.77 50.37" fill="#c45937"/>
    <path d="M521.27,40.37l34-10.5S539.27,49.37,521.27,40.37Z" fill="#c45937"/>
    <path d="M500.27,39.87l-30.5-6S492.27,50.37,500.27,39.87Z" fill="#c45937"/>
  </g>
  <g id="Main">
    <polygon points="249.38 336.46 254.93 699.25 232.2 700.87 164.95 435.5 112.05 699.25 89.31 699.25 72.4 338.08 249.38 336.46" fill="#750511"/>
    <path d="M72.66,340.86l-.55-.06a8.5,8.5,0,0,1-6-3.18c-4.14-5.24-2.73-16-.6-32.28,1.38-10.53,3.09-23.64,3.66-38.39-.12-3.82-3.58-113.34-8.89-145.2l5.4-.9c5.44,32.63,8.82,141.41,9,146v.19c-.58,15-2.31,28.31-3.71,39-1.81,13.83-3.23,24.75-.52,28.18a2.85,2.85,0,0,0,1.86,1.06c19.16-4.65,167.44-1.77,176.94-1.58a.91.91,0,0,0,.45-.39c3.76-5.27-1.7-31.23-5.31-48.41-.83-4-1.64-7.82-2.35-11.4-2.06-10.4-2.8-16.06-2.54-19.53,0,0,.52-16.81,1.62-41.06L250,116.2l5.45.5-8.93,96.61c-1.09,24.08-1.61,40.8-1.61,41-.28,3.79,1.16,11.7,2.45,18.17.71,3.57,1.51,7.4,2.34,11.34,5.77,27.48,9.2,46,4.4,52.72a6.21,6.21,0,0,1-4.36,2.66l-.2,0h-.2c-55.45-1.12-163.62-2.25-176.14,1.51Z" fill="#750511"/>
    <g>
      <g>
        <path d="M272.56,339.89,262.15,198.1l5.46-.4,10,136.1,29.53-3.4c.17-49.67.61-130.38,1.78-133.3,2.18-5.45-10.59-61.15-38.54-153.72-19.76-10.14-37.12-17.38-53-22.13L218.91,16c16.52,4.93,34.51,12.47,55,23l1,.53.33,1.11c7.29,24.12,43.23,144.45,38.81,158.19-.79,5.29-1.32,82.82-1.49,134v2.43ZM314,199.13h0Z" fill="#750511"/>
        <rect x="254.3" y="155.32" width="5.47" height="44.03" transform="translate(-46.33 103.29) rotate(-20.89)" fill="#750511"/>
        <path d="M271.3,43.33c-2.62,6.33-5,12.81-7.08,19.37q-1.57,4.92-2.71,10a40.12,40.12,0,0,0-1.22,10.23,40.44,40.44,0,0,1,.55-10.36c.54-3.43,1.23-6.83,2.07-10.2,1.65-6.75,3.61-13.39,5.85-20Z" fill="#750511"/>
      </g>
      <polygon points="267.04 195.17 273.12 220.69 261.87 196.98 267.04 195.17" fill="#750511"/>
    </g>
    <g>
      <g>
        <path d="M42.21,339.87,6.31,336l-.08-2.37C4.49,282.09,1.59,204,.7,198.92-3.79,185.34,32.2,64.84,39.5,40.7l.33-1.11,1-.53c20.5-10.57,38.49-18.11,55-23l1.57,5.24c-15.91,4.75-33.26,12-53,22.13C23.48,112.69,2.94,189.82,5.86,197.11c1.15,2.89,4.07,84.05,5.76,134l25.56,2.76,10-136.12,5.46.4ZM.73,199l.05.15Z" fill="#750511"/>
        <rect x="35.72" y="174.6" width="44.03" height="5.47" transform="translate(-128.53 168.04) rotate(-69.11)" fill="#750511"/>
        <path d="M46,42.35c2.23,6.6,4.2,13.24,5.85,20,.83,3.37,1.53,6.77,2.07,10.2a40.44,40.44,0,0,1,.55,10.36,40.12,40.12,0,0,0-1.22-10.23q-1.14-5-2.71-10c-2.07-6.56-4.46-13-7.08-19.37Z" fill="#750511"/>
      </g>
      <polygon points="52.9 196.98 41.65 220.69 47.73 195.17 52.9 196.98" fill="#750511"/>
    </g>
    <polygon points="249.98 116.25 254.43 92.13 255.43 116.64 249.98 116.25" fill="#750511"/>
    <polygon points="60.56 123.14 61.57 98.63 66.02 122.75 60.56 123.14" fill="#750511"/>
    <path d="M545.46,607.9c-16.4,0-66.33-41.63-117.85-86.62-8.59-7.5-14.8-12.92-17.07-14.62-2-1.53-4.13-5.07-3.11-27.85.59-13.16,2.19-31.39,4.75-54.18,4.71-41.86,11.67-90.24,15.4-115.35.24-1.58-.3-3.74-.81-5.82a16.94,16.94,0,0,1-.8-6.3c1.27-8.4,5.59-11.65,6.08-12l.91-.64,1.09.22c.39.08,39.91,7.94,80.07,6.76,25.63-.75,51.71-5.52,69-8.68,9.2-1.68,15.29-2.8,18.32-2.8,5.27,0,11.94,6.86,25,56.59,8.2,31.27,16.46,70.15,23.1,101.39,5,23.69,9,42.4,11.28,50,2.44,8.15-2.5,20.58-14.69,37C619,561.39,562.55,607.9,545.46,607.9ZM413.72,502.58c2.48,1.88,8.71,7.31,17.29,14.8,29.25,25.54,97.73,85.34,114.45,85.34,14.34,0,68.6-43.37,96.49-80.86,10.85-14.58,15.78-26.08,13.88-32.39-2.33-7.78-6.33-26.58-11.39-50.39-6.58-31-14.77-69.49-22.88-100.54-13.12-50.18-19.08-53.24-20.15-53.34-2.56,0-9.1,1.2-17.38,2.71-17.42,3.19-43.73,8-69.76,8.76-36.64,1.07-72.67-5.25-79.93-6.61a11.77,11.77,0,0,0-2.55,12.15c.61,2.45,1.3,5.23.91,7.83C412.75,444.27,410,497.61,413.72,502.58Z" fill="#750511"/>
    <path d="M526.74,699.37c-27.54,0-60.91-6.11-85.28-10.58-9.75-1.79-18.18-3.33-23.61-4a8.55,8.55,0,0,1-5.83-3.6C395,659,416,517,416.92,511l5.12.76c-6.05,40.5-18.91,149.34-5.92,166.33,1.12,1.47,2,1.57,2.33,1.61,5.6.66,14.1,2.22,23.94,4,33.29,6.1,83.59,15.31,111.32,7.52,17.17-4.82,40.75-7.38,61.56-9.63,22.33-2.42,45.42-4.92,50.06-9.56,1.21-1.37,4.57-11.58-3.41-85.22-4.31-39.74-9.85-78.68-9.91-79.06l5.12-.73c.06.39,5.65,39.68,10,79.65,8.88,82,4,86.92,1.88,89-5.64,5.64-23.88,7.87-53.16,11-20.61,2.23-44,4.77-60.72,9.47C547.08,698.46,537.34,699.37,526.74,699.37Z" fill="#750511"/>
    <path d="M631.09,363.1a140.6,140.6,0,0,1,4.2,21.21,175.65,175.65,0,0,1,1.39,21.49,165.44,165.44,0,0,1-5.41,42.59,159.88,159.88,0,0,1-7.06,20.29,155.84,155.84,0,0,1-9.94,19,157.82,157.82,0,0,1-27.52,32.71,157.5,157.5,0,0,0,27-33.05,155.08,155.08,0,0,0,9.6-19.06,158.72,158.72,0,0,0,6.7-20.24,163.83,163.83,0,0,0,4.73-42.24,173.5,173.5,0,0,0-1.7-21.21,138.61,138.61,0,0,0-4.42-20.71Z" fill="#750511"/>
    <polygon points="432.79 304.06 479.76 462.57 430.31 304.82 432.79 304.06" fill="#750511"/>
    <path d="M435.52,288.54A81.85,81.85,0,0,0,445.89,305a108.47,108.47,0,0,0,13.56,14.16A116.75,116.75,0,0,0,493,339.36a143,143,0,0,0,18.84,5.87c3.23.63,6.43,1.45,9.7,1.88l4.89.77,4.92.53a195.44,195.44,0,0,0,39.56-.17,195.71,195.71,0,0,1-39.62.81l-4.95-.45-4.92-.69c-3.3-.38-6.53-1.15-9.79-1.74a144.08,144.08,0,0,1-19.09-5.61,118.37,118.37,0,0,1-34.38-19.94,110.56,110.56,0,0,1-14.06-14.22,83.82,83.82,0,0,1-11-16.86Z" fill="#750511"/>
    <path d="M435.43,366.52l-1.51,32.75c-.47,10.91-.94,21.81-1.19,32.72q-.24,8.18-.26,16.35c0,5.45,0,10.9.21,16.34s.51,10.87,1.22,16.26a56.94,56.94,0,0,0,1.52,8,23.17,23.17,0,0,0,1.41,3.79,7.93,7.93,0,0,0,2.49,3.15,8.12,8.12,0,0,1-2.83-3,23.2,23.2,0,0,1-1.72-3.77,57.85,57.85,0,0,1-2.12-8,141.7,141.7,0,0,1-2-16.35c-.77-10.95-.76-21.92-.52-32.86s.88-21.87,1.77-32.78S433.92,377.35,435.43,366.52Z" fill="#750511"/>
    <path d="M441.9,528.1q1.24,28.24,1,56.47c-.11,9.41-.38,18.82-1,28.22l-.54,7c-.2,2.34-.51,4.68-.76,7-.11,1.17-.29,2.34-.49,3.49l-.57,3.48a30.35,30.35,0,0,1-.74,3.45L438,640.7l.77-3.44a30.26,30.26,0,0,0,.66-3.46l.49-3.49c.18-1.16.33-2.32.41-3.5.2-2.34.45-4.68.6-7l.38-7c.36-9.39.41-18.79.31-28.18q-.42-28.18-2.33-56.31Z" fill="#750511"/>
    <polygon points="595.17 575.78 616.92 613.11 592.98 577.15 595.17 575.78" fill="#750511"/>
    <path d="M408.06,501c-.52,2.67,7.45,21.66,10.13,19.83,1.92-1.31,1.29-11.21-1.29-13.36S408.06,501,408.06,501Z" fill="#750511"/>
    <path d="M661.11,492.61s.65,14.55-4.2,22.31C656.91,514.92,649.47,511,661.11,492.61Z" fill="#750511"/>
    <path d="M553.77,605.13s20,11.64,100.88-79.54c-1.29-12.93-.07-18.21-.07-18.21C658.49,502.78,613,570.72,553.77,605.13Z" fill="#750511"/>
    <path d="M137.71,50.8a30.82,30.82,0,0,1-3.29-.18C120.65,49.15,106,38.84,90.94,20a2.73,2.73,0,0,1-.46-2.57C91.12,15.5,97-1.15,107.85.52,112.34,1.21,116.56,7,122.4,15c8.19,11.22,18.39,25.17,30.17,25.17A2.74,2.74,0,0,1,154.29,45,25.88,25.88,0,0,1,137.71,50.8Zm-41.53-33c17.15,21,30.55,26.54,38.83,27.43a22.14,22.14,0,0,0,9.77-1c-10.83-4.1-19.53-16-26.79-25.95-3.88-5.32-8.72-11.93-11-12.28C102.2,5.2,97.92,13.38,96.18,17.76Z" fill="#750511"/>
    <path d="M172.22,50.8A25.88,25.88,0,0,1,155.63,45a2.74,2.74,0,0,1,1.72-4.86c11.78,0,22-14,30.17-25.17C193.36,7,197.58,1.21,202.08.52c10.85-1.67,16.74,15,17.37,16.88A2.73,2.73,0,0,1,219,20C203.9,38.84,189.27,49.15,175.5,50.63A30.8,30.8,0,0,1,172.22,50.8Zm-7.07-6.65a22.12,22.12,0,0,0,9.77,1c8.28-.89,21.68-6.4,38.83-27.43C212,13.38,207.7,5.2,202.91,5.93c-2.25.35-7.08,7-11,12.28C184.68,28.15,176,40.06,165.15,44.16Z" fill="#750511"/>
    <path d="M154.62,57.93c-9.38,0-12.87-5.65-13.41-8.64l5.37-1c.1.43,1.15,4.19,8,4.19s8.16-4.2,8.27-4.68l5.35,1.12C167.62,52,164,57.93,154.62,57.93Z" fill="#750511"/>
    <path d="M133.19,68a2.73,2.73,0,0,1-2.71-2.4c-.78-6.21,6.15-16.36,7.55-18.33a2.74,2.74,0,0,1,3.73-.71l7.29,4.79a2.73,2.73,0,0,1,.78,3.79c-.3.45-7.33,11-16.09,12.8A2.73,2.73,0,0,1,133.19,68ZM141,52.59a49.66,49.66,0,0,0-4.24,8.14,31.65,31.65,0,0,0,6.85-6.43Z" fill="#750511"/>
    <path d="M176,68a2.73,2.73,0,0,1-.55-.06c-8.76-1.8-15.8-12.35-16.09-12.8a2.73,2.73,0,0,1,.78-3.79l7.3-4.79a2.74,2.74,0,0,1,3.73.71c1.4,2,8.32,12.12,7.55,18.33A2.73,2.73,0,0,1,176,68ZM165.57,54.3a31.68,31.68,0,0,0,6.85,6.43,49.6,49.6,0,0,0-4.25-8.14Z" fill="#750511"/>
    <path d="M155.52,9.38A350.25,350.25,0,0,1,107,5.93l.85-5.4a344.52,344.52,0,0,0,47.66,3.39A317.94,317.94,0,0,0,202,.53l.9,5.4A323.63,323.63,0,0,1,155.52,9.38Z" fill="#750511"/>
    <path d="M163,43.24a49.44,49.44,0,0,0,10.32-2.49,52.74,52.74,0,0,0,9.74-4.57c1.58-.88,3-2,4.51-3a51.92,51.92,0,0,0,4.12-3.52,49.7,49.7,0,0,0,7-8.31,50.07,50.07,0,0,1-6.55,8.79,52.65,52.65,0,0,1-4,3.84c-1.45,1.13-2.85,2.35-4.41,3.34a54.42,54.42,0,0,1-9.73,5.33A51.45,51.45,0,0,1,163.33,46Z" fill="#750511"/>
    <path d="M145.57,46a51.45,51.45,0,0,1-10.74-3.3,54.42,54.42,0,0,1-9.73-5.33c-1.56-1-3-2.21-4.41-3.34a52.65,52.65,0,0,1-4-3.84,50.07,50.07,0,0,1-6.55-8.79,49.7,49.7,0,0,0,7,8.31,51.92,51.92,0,0,0,4.12,3.52c1.49,1,2.93,2.11,4.51,3a52.74,52.74,0,0,0,9.74,4.57,49.44,49.44,0,0,0,10.32,2.49Z" fill="#750511"/>
    <path d="M244.24,277.77q-4.27-19.17-8.37-38.36-2-9.6-4-19.22L230,210.55c-.56-3.22-1.22-6.43-1.52-9.7.41,3.25,1.19,6.43,1.86,9.63l2.21,9.56q2.27,9.54,4.66,19.06,4.75,19,9.7,38Z" fill="#750511"/>
    <path d="M67.81,291.49q4.93-19,9.7-38,2.38-9.52,4.66-19.06l2.21-9.56c.67-3.2,1.45-6.38,1.86-9.63-.3,3.26-1,6.47-1.52,9.7l-1.88,9.64q-1.93,9.62-4,19.22-4.08,19.2-8.37,38.36Z" fill="#750511"/>
    <path d="M598.12,285l-.07-5.17c4.9-.07,11.29-4.43,12.27-6l-.52-3.55C600.7,209,590.28,131,592.28,108l5.15.45c-1.52,17.51,4.69,74.73,17.49,161.11.3,2,.5,3.39.6,4.08l0,.37C615.55,279.1,604.18,285,598.12,285Zm12.3-11.31h0Z" fill="#750511"/>
    <path d="M632.62,258.5l-.67-1.68c-1.48-3.69-36.21-90.66-38.8-117.23l5.15-.5c2.33,23.86,32.83,101.62,37.79,114.12,18.09-.86,59.22-6.92,59.22-26.44,0-11.24-21.43-50.3-39.18-75.15l-.18-.25-.11-.28C640,112.16,626.6,69.89,620.17,49.57c-1.87-5.91-3.22-10.19-3.76-11.58-1.54-4-15.8-12.91-47.55-19.66l1.08-5.06c.11,0,11.51,2.46,23.3,6.31,16.67,5.44,25.83,10.86,28,16.56.59,1.54,1.89,5.65,3.86,11.87,6.39,20.2,19.68,62.19,35.4,100.85,16.75,23.51,40,64.35,40,77.91,0,12.61-11.35,21.78-33.74,27.25a175.53,175.53,0,0,1-32.3,4.44Z" fill="#750511"/>
    <polygon points="431.59 111.12 431.82 88.01 436.74 110.59 431.59 111.12" fill="#750511"/>
    <polygon points="592.36 108.17 597.28 85.58 597.51 108.69 592.36 108.17" fill="#750511"/>
    <path d="M447.89,292.15c-2.28-.16-22.42-1.72-28-8.59a6.82,6.82,0,0,1-1.56-5.35c1.57-11,15.73-137.82,13.19-167.13l5.15-.45c2.67,30.7-12.33,162.07-13.22,168.31a1.65,1.65,0,0,0,.46,1.37c3.13,3.87,16.58,6.15,24.31,6.68Z" fill="#750511"/>
    <path d="M396.16,261.08l-1.63,0a175.53,175.53,0,0,1-32.3-4.44c-22.39-5.47-33.74-14.64-33.74-27.25,0-13.55,23.22-54.4,40-77.91,15.72-38.65,29-80.64,35.4-100.85,2-6.22,3.27-10.33,3.86-11.87,2.14-5.6,10-11.41,24.15-17.75a211.12,211.12,0,0,1,19.7-7.64l1.58,4.92c-14.14,4.55-37.66,14.63-40.6,22.31-.53,1.4-1.89,5.67-3.76,11.58-6.43,20.32-19.8,62.59-35.66,101.52L373,154l-.18.25c-17.75,24.85-39.18,63.9-39.18,75.15,0,19.6,41.4,25.63,59.4,26.45,5.06-10,34.36-69.72,38.42-113.25l5.15.48c-2.37,25.37-13.05,55.74-21.6,76.75-9.23,22.7-18,39.69-18.12,39.86Z" fill="#750511"/>
    <path d="M375.11,148.25a71.69,71.69,0,0,0-3.59,10.67,74.72,74.72,0,0,0-2,11.17,57.09,57.09,0,0,0,0,11.37,47.46,47.46,0,0,0,2.6,11.11,47.79,47.79,0,0,1-3.24-11,58,58,0,0,1-.68-11.54,76.32,76.32,0,0,1,1.36-11.52,73.58,73.58,0,0,1,3.11-11.26Z" fill="#750511"/>
    <path d="M657.28,145.29a73.58,73.58,0,0,1,3.11,11.26,76.3,76.3,0,0,1,1.36,11.52,58,58,0,0,1-.68,11.54,47.79,47.79,0,0,1-3.24,11,47.46,47.46,0,0,0,2.6-11.11,57.07,57.07,0,0,0,0-11.37,74.7,74.7,0,0,0-2-11.17,71.69,71.69,0,0,0-3.59-10.67Z" fill="#750511"/>
    <path d="M494.56,46.56a29.15,29.15,0,0,1-3.11-.17c-13-1.4-26.85-11.15-41.12-29A2.59,2.59,0,0,1,449.9,15c.6-1.8,6.19-17.54,16.43-16,4.25.65,8.24,6.11,13.76,13.67,7.75,10.61,17.39,23.8,28.53,23.8a2.59,2.59,0,0,1,1.63,4.59A24.47,24.47,0,0,1,494.56,46.56ZM455.29,15.32C471.51,35.2,484.18,40.41,492,41.25a20.93,20.93,0,0,0,9.24-1C491,36.4,482.78,25.14,475.91,15.74c-3.67-5-8.24-11.28-10.37-11.61C461,3.44,456.94,11.17,455.29,15.32Z" fill="#750511"/>
    <path d="M527.19,46.56a24.47,24.47,0,0,1-15.68-5.48,2.59,2.59,0,0,1,1.63-4.59c11.14,0,20.78-13.2,28.53-23.8,5.52-7.56,9.51-13,13.76-13.67,10.28-1.58,15.83,14.16,16.43,16a2.59,2.59,0,0,1-.43,2.43c-14.27,17.83-28.1,27.58-41.12,29A29.13,29.13,0,0,1,527.19,46.56Zm-6.68-6.29a20.91,20.91,0,0,0,9.24,1c7.83-.84,20.5-6,36.72-25.93-1.65-4.14-5.71-11.88-10.25-11.19-2.12.33-6.69,6.58-10.37,11.61C539,25.14,530.75,36.4,520.51,40.28Z" fill="#750511"/>
    <path d="M510.55,53.3c-8.87,0-12.17-5.34-12.68-8.17l5.08-1c.09.41,1.08,4,7.6,4s7.71-4,7.82-4.43l5.06,1.06C522.85,47.71,519.39,53.3,510.55,53.3Z" fill="#750511"/>
    <path d="M490.29,62.79a2.59,2.59,0,0,1-2.57-2.27c-.73-5.87,5.82-15.47,7.14-17.34a2.59,2.59,0,0,1,3.53-.67l6.9,4.53a2.59,2.59,0,0,1,.74,3.59c-.28.42-6.93,10.4-15.22,12.1A2.58,2.58,0,0,1,490.29,62.79Zm7.41-14.54a47,47,0,0,0-4,7.69,29.92,29.92,0,0,0,6.48-6.08Z" fill="#750511"/>
    <path d="M530.78,62.79a2.58,2.58,0,0,1-.52-.05C522,61,515.32,51.06,515,50.63a2.59,2.59,0,0,1,.74-3.59l6.9-4.53a2.59,2.59,0,0,1,3.53.67c1.32,1.86,7.87,11.46,7.14,17.34a2.59,2.59,0,0,1-2.57,2.27Zm-9.87-12.92a30,30,0,0,0,6.48,6.08,46.9,46.9,0,0,0-4-7.7Z" fill="#750511"/>
    <path d="M511.41,7.39a331.19,331.19,0,0,1-45.88-3.26L466.34-1a325.78,325.78,0,0,0,45.07,3.2,300.64,300.64,0,0,0,44-3.2l.85,5.1A306,306,0,0,1,511.41,7.39Z" fill="#750511"/>
    <path d="M518.48,39.41a46.75,46.75,0,0,0,9.76-2.36,49.87,49.87,0,0,0,9.21-4.33c1.49-.83,2.85-1.86,4.26-2.83a49.1,49.1,0,0,0,3.9-3.33,47,47,0,0,0,6.65-7.86A47.34,47.34,0,0,1,546.07,27a49.79,49.79,0,0,1-3.75,3.63c-1.37,1.07-2.7,2.22-4.17,3.16a51.46,51.46,0,0,1-9.2,5A48.65,48.65,0,0,1,518.79,42Z" fill="#750511"/>
    <path d="M502,42a48.65,48.65,0,0,1-10.16-3.12,51.46,51.46,0,0,1-9.2-5c-1.47-.94-2.8-2.09-4.17-3.16A49.79,49.79,0,0,1,474.71,27a47.34,47.34,0,0,1-6.19-8.31,47,47,0,0,0,6.65,7.86,49.1,49.1,0,0,0,3.9,3.33c1.41,1,2.77,2,4.26,2.83a49.87,49.87,0,0,0,9.21,4.33,46.75,46.75,0,0,0,9.76,2.36Z" fill="#750511"/>
    <path d="M104.95,3.23S111.1.95,125,25.34c24.62,18.46,19.11,17.55,27.56,17.55S169.23,39,169.23,39,201.14,2.77,205.7,2.77A571.11,571.11,0,0,1,104.95,3.23Z" fill="#750511"/>
    <path d="M464.23,1.57s5.82-2.16,19,20.91c23.28,17.46,18.07,16.6,26.06,16.6S525,35.41,525,35.41,555.19,1.14,559.5,1.14A540,540,0,0,1,464.23,1.57Z" fill="#750511"/>
    <path d="M412.93,36.49c2.33,4.14,4.59,8.29,6.75,12.51,1.08,2.11,2.13,4.23,3.12,6.38q.75,1.61,1.4,3.27c.2.56.44,1.1.59,1.68.08.29.17.57.24.86l.11.88L425,61.2c-.09-.28-.2-.56-.3-.83-.18-.56-.46-1.08-.69-1.62q-.75-1.6-1.61-3.15c-1.12-2.07-2.31-4.11-3.53-6.13-2.43-4-5-8-7.55-12Z" fill="#750511"/>
    <path d="M616.89,34.61c-2.58,3.94-5.12,7.93-7.55,12-1.22,2-2.41,4.06-3.53,6.13q-.85,1.55-1.61,3.15c-.23.54-.51,1.06-.69,1.62-.1.28-.21.55-.3.83l-.17.87.11-.88c.07-.29.16-.57.24-.86.15-.58.39-1.12.59-1.68q.65-1.65,1.4-3.27c1-2.16,2-4.28,3.12-6.38,2.16-4.22,4.42-8.37,6.75-12.51Z" fill="#750511"/>
  </g>
</svg>
