<svg xmlns="http://www.w3.org/2000/svg" viewBox="0 0 700 700">
  <title>Artboard 2 copy</title>
  <g id="Midtones">
    <path d="M165.33,299.77s4.67,57.33,63.33,57.33,62.67-60.67,62.67-60.67-7.33,30.67-4.67,38.67,6.67,40,6.67,40-19.33-12-64.67-12h-68S179.33,336.44,165.33,299.77Z" fill="#f7982d"/>
    <path d="M305.5,224.44s-7,9,2,21.5,43.5,6.5,51-1.5c-10.5,12.5-15.5,27-48,30l-7-7-15-50Z" fill="#f7982d"/>
    <path d="M125.5,213.44s12,12,25,1c18.5-19,22.5-23.5,22.5-32.5l-14.5,60.5S128.5,227.94,125.5,213.44Z" fill="#f7982d"/>
    <path d="M276.5,178.94c6.77-2.82,23.51,89.21,15.5,110l9.5-28.5-13-43,1-43Z" fill="#f7982d"/>
    <path d="M230,225.77s-10,28.33-10,48.33,5.67,45.33,5.67,45.33Z" fill="#f7982d"/>
    <path d="M175,190.44s6.5-11.5,11-13-11-3.5-11-3.5Z" fill="#f7982d"/>
    <polygon points="166.5 222.94 165.5 286.94 158.5 242.44 167 218.44 166.5 222.94" fill="#f7982d"/>
    <path d="M289.5,174.44c1,9,1.45-17.95,3.17-11,1.33,28.67,7.77,55.5,12.83,61l-11.5-1S286.33,225.77,289.5,174.44Z" fill="#f7982d"/>
    <path d="M150.67,373.11s4-8,18-8,83.33-8,116.67,5.33C310,379.77,302,393.77,302,393.77l3.33,54,24,81.33,14,46.67s4.67,38-6.67,44c-24.67-16-82.67-66-82.67-66s-79.33-81.33-100-118c-12.67-26-16.67-32-10-47.33Z" fill="#f7982d"/>
    <path d="M141.5,470.94s7-26,17-9.5,67,72,39.5,128.5a155.6,155.6,0,0,0,13.5-30l14.5-35-72-89.17s-10.5-12.33-10.5-3.83S141.5,470.94,141.5,470.94Z" fill="#f7982d"/>
    <path d="M219,542.94s14-7,28.5,15,63,53.5,63,53.5v-9.5l-84.5-77Z" fill="#f7982d"/>
    <path d="M315.5,633.44s-2.5-16.33,3.5-15.33,24.5,17.83,24.5,17.83l-3.5-16-29.5-18Z" fill="#f7982d"/>
    <path d="M133,528.11s-.33,36.67,30.33,7.67c-12.07,18.61-31.09,35.87-36,40.33Z" fill="#f7982d"/>
    <path d="M136.67,567.77s-37.33,96,2,90,164-10,200.67,13.33c-114.67,3.33-205.33,2-205.33,2H114S98,590.44,136.67,567.77Z" fill="#f7982d"/>
    <path d="M423.5,291.94s-15,79.5,15,77.5,45.5-10,45.5-10l.5,27-71-2.5S403,358.94,423.5,291.94Z" fill="#f7982d"/>
    <path d="M493.5,361.44s23.5,11.5,41.5,8,14.5-46.5,14.5-46.5,10,61,.5,62-57,.5-57,.5Z" fill="#f7982d"/>
    <path d="M412.5,211.94l15.5,22.5s-13,61-3,51.5l-9,29.5Z" fill="#f7982d"/>
    <path d="M541.67,279.77c5.5,2.39,7.9-2.13,8.67-10.33l1,41.67Z" fill="#f7982d"/>
    <path d="M574.5,273.94c-4.66,20.26-.37,29.86,14,27.5l-32.5,18S560,280.94,574.5,273.94Z" fill="#f7982d"/>
    <path d="M554.5,213.94c3.94,17.68,11.77,36.92,23,57.5-7.19,2.38-16.06-13.94-25-31Z" fill="#f7982d"/>
    <path d="M276.67,19.77s79.33,116,83.33,116,64.67,63.33,64.67,63.33S416,210.44,428,234.44c-20.67-28.67-80-96-80-96l-76-114Z" fill="#f7982d"/>
    <path d="M484.67,143.77s11.67,4,22.33-8.67l4.67-6.33,2.33,9.33-23,18.67Z" fill="#f7982d"/>
    <path d="M473.33,143.77s-8.67,8.33-28-14.67l-1,8.33,22,19.67Z" fill="#f7982d"/>
    <path d="M473,151.44s8,64.5,6,216l5-2.5,1-126-8-89.5S473,144.94,473,151.44Z" fill="#f7982d"/>
    <path d="M475,164.69c-5-2.25-6-2.5-10.75-1.25A198,198,0,0,1,449,145.94l19.5,13.5,5-11Z" fill="#f7982d"/>
    <path d="M480.25,164.19s4.5-4.75,10.5-3.25c7-3,9.75-7,9.75-7l-9.5,2.83-8.25-13.08Z" fill="#f7982d"/>
    <path d="M413.67,133.44c-2.47-7.46-3.34-13.36.83-14.33L397,107.94Z" fill="#f7982d"/>
    <path d="M299.67,160.77s5.33-11.33,21-5,26,33.67,26,33.67S324.33,149.77,299.67,160.77Z" fill="#f7982d"/>
    <path d="M566,156.44l-9,26.67s10.67-18,14-19.67C567.67,157.11,566,156.44,566,156.44Z" fill="#f7982d"/>
  </g>
  <g id="Darker_Mids" data-name="Darker Mids">
    <path d="M133.33,227.11c15.32,5,26.69,2.56,32.67-10l-8.67,24.67Z" fill="#c45937"/>
    <path d="M290.67,187.11,298,221.77s0,22.92,11.52,33.69c2.95,6.93,28.73,4.57,34,3.48-10,6-35.5,16.83-35.5,16.83l-19.33-58.67Z" fill="#c45937"/>
    <path d="M169.33,339.77s9.33,22,36.67,24l-44,.67Z" fill="#c45937"/>
    <path d="M288.67,345.11s-7.33,20.67-27.33,20.67l30.67,8Z" fill="#c45937"/>
    <path d="M163.33,383.11s-16,0-5.33,20.33l-12.33-17.67,3.33-9.33,4.67-1.67Z" fill="#c45937"/>
    <path d="M163.33,383.11s-12.67-11.67,8.67-18.67H162l-10,6.67S153,379.11,163.33,383.11Z" fill="#c45937"/>
    <path d="M142.67,416.11s-3.67-22.33,3-30.33l7.33,12s29.67,50.67,94.33,31.67c-31.33,8.67-37,5.67-37,5.67s-20.69-2.12-33.67-10.33C157.81,412.83,144.25,395.57,142.67,416.11Z" fill="#c45937"/>
    <path d="M313.25,523.94c7.75,8,13.91,14.7,18.25,10.5l12,46C329.75,556.94,317.58,535.45,313.25,523.94Z" fill="#c45937"/>
    <path d="M144,451.11s6-9.33,11-1.67c3.81,5.85,41.35,49.59,59,70,5.48,6.36,0,35.64,0,35.64l9.33-23.33,57,47.67-86.67-88.67-42.33-58H144Z" fill="#c45937"/>
    <path d="M130.5,546.44c-.28,10.32,5,13.53,18,7l-12,14-13,12Z" fill="#c45937"/>
    <path d="M114.5,657.94s64.5,15,149,8.5l-48,7.5h-51l-47.5-2.5Z" fill="#c45937"/>
    <path d="M268,366.44c9.06-2.33,33.75,30.25,33.5,55.5l1.5-39C299.79,376.15,275,362.31,268,366.44Z" fill="#c45937"/>
    <path d="M332.67,561.77s30.67,84.67-77.33-8l73.33,61.33L340,617.77s9-24.67,3.5-37.33S332.67,561.77,332.67,561.77Z" fill="#c45937"/>
    <path d="M345.5,133.94l76.5,73s-.5,16,5.5,26L408,206.44Z" fill="#c45937"/>
    <polygon points="420.5 223.94 417.5 305.44 411 209.94 420.5 223.94" fill="#c45937"/>
    <path d="M412,338.44s-8,43,36.5,39l35.5-6.5.5,18.5-71.5-6S406.5,371.44,412,338.44Z" fill="#c45937"/>
    <path d="M494.5,374.94c22.55.68,48.53,7.14,60.17-10.5l-.17,17.5-60.5,1Z" fill="#c45937"/>
    <path d="M566,284.44s-1,28,4,28l-15.5,7S559,287.94,566,284.44Z" fill="#c45937"/>
    <polygon points="481.5 159.44 489.5 156.94 485 145.44 481.5 159.44" fill="#c45937"/>
    <polygon points="477.5 161.44 466.5 155.94 474.5 146.94 477.5 161.44" fill="#c45937"/>
    <path d="M230,240.44s-11,28-3.5,61Z" fill="#c45937"/>
  </g>
  <g id="Main">
    <g>
      <path d="M551.23,387a5,5,0,0,1-1.42-.21c-10-3-101.27-1.85-135.61-1.15H414l-.17,0a5,5,0,0,1-3.39-2c-4.64-6-2.32-26.67,1.19-53,1.21-9.11,2.26-17,2.26-20.77,0-13.14-3.49-77-4.65-95.8-.76-3.73-20-26.75-34-41.36-18-18.71-29-30.39-30.52-34.56-2.1-6-45.73-70.87-74.55-113.05l-.84-1.23L281.24,3.89l118.2,101.38L445,133.65l-2.26,4.06L396.76,109.1l-.18-.15L282.41,11l-7.52,12.63c10.45,15.31,71.36,104.72,74.25,112.9,1.22,3.44,16.24,19.09,29.49,32.89,23.78,24.78,35,39.93,35.29,44.3,1.16,18.82,4.66,82.86,4.66,96.09,0,4.1-1.07,12.11-2.3,21.38-2.22,16.69-5.94,44.62-2.12,49.58a1.14,1.14,0,0,0,.23.23c8.08-.16,123.88-2.4,136.71,1.34,2.18-2.61,1-20.68-.06-38.18-.67-10.61-1.42-22.63-1.92-36A733.31,733.31,0,0,1,550.72,230l4.64.38a728.31,728.31,0,0,0-1.6,77.6c.5,13.32,1.25,25.31,1.92,35.89,1.74,27.64,2.28,39-1.82,42.24A4.18,4.18,0,0,1,551.23,387Z" fill="#750511"/>
      <polygon points="414.16 383.35 409.88 662.8 427.39 664.05 479.19 459.65 519.95 662.8 537.45 662.8 550.48 384.6 414.16 383.35" fill="#750511"/>
      <path d="M412.85,659.76c-.47,3.76.83,25.51-3.75,31.24-.8,1.72.32,9.07,2.21,9.07H427c1.86,0,2.8-7.36,2.07-9.07-5-6.88-4.69-28.37-4.69-31.24s-7.34-3-8.78-2C415.06,658.21,412.94,659.05,412.85,659.76Z" fill="#750511"/>
      <path d="M523.12,659.76c-.47,3.76.83,25.51-3.75,31.24-.8,1.72.32,9.07,2.21,9.07h15.73c1.86,0,2.8-7.36,2.07-9.07-5-6.88-4.69-28.37-4.69-31.24s-7.34-3-8.78-2C525.33,658.21,523.21,659.05,523.12,659.76Z" fill="#750511"/>
      <path d="M549.67,290.18q9.52-7.1,19.16-14c3.22-2.29,6.45-4.57,9.73-6.79,1.64-1.11,3.29-2.2,5-3.26.84-.53,1.68-1,2.54-1.53a11.3,11.3,0,0,1,2.7-1.22,11.16,11.16,0,0,0-2.54,1.47c-.8.57-1.59,1.16-2.36,1.77-1.56,1.21-3.08,2.45-4.6,3.71-3,2.52-6,5.09-9,7.68q-8.9,7.78-17.63,15.75Z" fill="#750511"/>
      <path d="M554.3,322.48l-1.61-4.36c38.91-14.37,55-36.52,58-43.85,1.36-4.65-14.17-46.73-45.66-115.55-20.69-10.62-38.26-17.25-53.7-20.26l.89-4.57c16,3.13,34.25,10,55.65,21.06l.71.37.33.73c.12.27,12.6,27.54,24.46,55.61C617.66,269.25,615.77,274,615,276,614.85,276.28,603.1,304.46,554.3,322.48Z" fill="#750511"/>
      <path d="M553.49,234.82c.59,1,1,1.8,1.65,2.64.3.41.55.83.83,1.23l.89,1.22a1.54,1.54,0,0,1,.19.68,6.65,6.65,0,0,0,.18.68l.44,1.36c.3.9.58,1.81.92,2.71,1.27,3.62,2.73,7.22,4.2,10.8s3,7.14,4.62,10.69l2.4,5.31c.17,2.06.37,4.11.36,6.28a55.65,55.65,0,0,1-4.59-4.34l-2.42-5.36c-1.59-3.58-3.17-7.18-4.67-10.81s-3-7.28-4.29-11c-.66-1.88-1.29-3.75-1.86-5.71,0-.53.06-1.06.09-1.6s.11-1.09.21-1.63A12.91,12.91,0,0,1,553.49,234.82Z" fill="#750511"/>
      <path d="M467.11,159.8a4.19,4.19,0,0,1-2.18-.61c-5.38-3.28-18.39-11.89-23.09-21a4.17,4.17,0,0,1-.19-3.35h0l4.55-12.34a4.19,4.19,0,0,1,6.95-1.45c9.44,9.84,17.66,16.76,22,18.51a4.14,4.14,0,0,1,2.32,2.41,4.21,4.21,0,0,1-.23,3.4l-6.4,12.16a4.2,4.2,0,0,1-2.59,2.09A4.16,4.16,0,0,1,467.11,159.8Zm-21-23.5c4.24,7.91,16.5,16,20.84,18.65l5.93-11.27c-6.62-3-16.71-12.8-22.55-18.84Zm-.07.19h0Z" fill="#750511"/>
      <path d="M491,159.8a4.16,4.16,0,0,1-1.11-.15,4.21,4.21,0,0,1-2.59-2.09l-6.4-12.16a4.21,4.21,0,0,1-.23-3.4A4.13,4.13,0,0,1,483,139.6c4.32-1.75,12.53-8.67,22-18.51a4.18,4.18,0,0,1,6.95,1.45l4.55,12.34a4.16,4.16,0,0,1-.19,3.35c-4.69,9.06-17.71,17.67-23.08,21A4.2,4.2,0,0,1,491,159.8Zm-5.74-16.11L491.16,155c4.34-2.68,16.6-10.75,20.84-18.65l-4.22-11.46C501.95,130.89,491.85,140.71,485.23,143.69Z" fill="#750511"/>
      <path d="M487.09,381.4l-4.65-.08c3.42-200.67-9.31-235.8-9.44-236.13l4.32-1.73C477.85,144.79,490.54,178.56,487.09,381.4Z" fill="#750511"/>
      <path d="M481.25,164.35l-4.62-.56c.07-.55,1.66-13.46,4.12-20.25l4.37,1.59C482.85,151.41,481.27,164.22,481.25,164.35Z" fill="#750511"/>
      <path d="M488.83,164.45c1.09,4.62,1.89,9.28,2.58,14s1.23,9.37,1.67,14.08.73,9.43.82,14.17a117.75,117.75,0,0,1-.42,14.2c-.5-4.72-1-9.4-1.4-14.09l-1.32-14.07c-.39-4.69-.83-9.39-1.15-14.09S489,169.2,488.83,164.45Z" fill="#750511"/>
      <polygon points="492.68 382.24 492.13 315.06 495 382.18 492.68 382.24" fill="#750511"/>
      <polygon points="413.48 320.54 429.32 272.81 415.7 321.22 413.48 320.54" fill="#750511"/>
      <polygon points="553.43 321.22 539.81 272.81 555.65 320.54 553.43 321.22" fill="#750511"/>
      <path d="M512.5,75.65a68.77,68.77,0,0,1-1.14,16.15,109.36,109.36,0,0,1-6.08,15,71.9,71.9,0,0,1-4.07,7.09,40.41,40.41,0,0,1-5.24,6.56,17,17,0,0,1-3.63,2.8,8.76,8.76,0,0,1-2.54.94,6.61,6.61,0,0,1-.77.09l-.39,0h-19.1a6.81,6.81,0,0,1-2.88-.77,15.17,15.17,0,0,1-3.73-2.82,43,43,0,0,1-5.23-6.54c-1.52-2.27-2.89-4.61-4.18-7a124.82,124.82,0,0,1-6.65-14.72,7.52,7.52,0,0,1-.56-1.95l-.37-2c-.23-1.34-.44-2.68-.6-4a52.41,52.41,0,0,1-.37-8.1c.89,2.53,1.89,5,3,7.37.54,1.2,1.1,2.38,1.68,3.55l.89,1.74a8.18,8.18,0,0,1,.77,1.78A103.54,103.54,0,0,0,457.6,105c1.22,2.27,2.53,4.49,3.95,6.6a38.63,38.63,0,0,0,4.63,5.82,10.82,10.82,0,0,0,2.54,2,2.29,2.29,0,0,0,.9.29h19.1l.21,0a4.22,4.22,0,0,0,1.15-.45,12.61,12.61,0,0,0,2.61-2,49.49,49.49,0,0,0,8.42-12.43,83.3,83.3,0,0,0,5.67-14.34C508.89,85.64,510.8,80.75,512.5,75.65Z" fill="#750511"/>
      <path d="M445.44,89.3a5.25,5.25,0,0,1-2.52-.66c-3.26-1.76-5.75-7.19-7.59-16.59a17.75,17.75,0,0,1,5.78-17l2.9,3.64a13.09,13.09,0,0,0-4.12,12.42c2.21,11.24,4.75,13.13,5.24,13.39a.6.6,0,0,0,.62,0l1.75,4.31A5.46,5.46,0,0,1,445.44,89.3Z" fill="#750511"/>
      <path d="M512.83,89.2a5.46,5.46,0,0,1-2.06-.42l1.75-4.31a.61.61,0,0,0,.62,0c.49-.26,3-2.15,5.24-13.39a13.09,13.09,0,0,0-4.12-12.42l2.9-3.64a17.76,17.76,0,0,1,5.78,17c-1.85,9.4-4.33,14.82-7.59,16.59A5.25,5.25,0,0,1,512.83,89.2Z" fill="#750511"/>
      <path d="M443.67,66.76s-7.56-20.93-6.11-26.46,26.85-28.11,47.2-28.4,13.57,5,24,8.53,11.82,30.43,6,45C506.66,52,497.62,35.88,494.45,39.82,488.28,47.49,442.64,47.49,443.67,66.76Z" fill="#750511"/>
      <rect x="443.76" y="112.7" width="20.94" height="4.65" transform="translate(326.61 565.88) rotate(-88.4)" fill="#750511"/>
      <rect x="492.02" y="115.03" width="20.94" height="4.65" transform="translate(371.2 616.39) rotate(-88.4)" fill="#750511"/>
      <path d="M475.37,141.74c-1.19-8.59,2.86-13,15.12-17.64l-23-3.49s-11.92-10.47-12.21-12.21c-.95,5.37-.48,17.06-.48,17.06S471,139.75,475.37,141.74Z" fill="#750511"/>
      <path d="M577,272.1s-20.79,27.23-17.3,45.84c-7.37,4.26-8.53,1.16-8.53,1.16l-.78-24.42S552.56,285.67,577,272.1Z" fill="#750511"/>
      <path d="M553.29,230.23s18.32,39.83,24.13,40.12L565.5,280.53s1.45-6.69-7.27-27.33S553.29,230.23,553.29,230.23Z" fill="#750511"/>
      <path d="M276.1,179.18c-3.41,0-7.67-.13-13-.3-8.84-.28-21-.65-36.91-.65-51,0-52.67-2-53.48-2.91l-.7-.81.14-1.09,4.6.69a2.21,2.21,0,0,0-1.17-2.33c.48.18,6,1.79,50.61,1.79,16,0,28.18.38,37.05.66,11,.34,18.26.57,21.13-.38-13-.61-22.71-4.46-28.78-11.45-7.69-8.87-6.72-19.6-6.54-21.1l.42-28,4.65.07-.45,28.46c0,.09-1.26,9.89,5.47,17.61,5.72,6.56,15.49,9.89,29,9.89h2.33v2.33a6.6,6.6,0,0,1-1.83,5C286.58,178.61,283.13,179.18,276.1,179.18Z" fill="#750511"/>
      <path d="M171.42,167.94l-.38-4.64c31.06-2.55,32.34-17.76,32.39-19.31l-4.24-23.6,4.58-.82,4.32,24.14C208.11,144.57,208.38,164.91,171.42,167.94Z" fill="#750511"/>
      <path d="M158.15,243.61c-8.33,0-25-15.44-28.27-18.59-7.08-6.74-8.91-9.66-9.37-11.09-1.83-2.28-10.19-12.76-18.12-23.57-19-25.92-17.14-28.34-15.77-30.11,5.52-7.1,52.63-36,63.07-27.87l.58.45.22.7c1.66,5.39,7,12.2,12.24,18.78,6.31,8,12.84,16.26,14.56,23.84l.06.52c0,17.25-16,63.41-16.7,65.37l-.5,1.44-1.52.11ZM125,212.71c1.79,4,23.53,24.08,31.82,26.1,2.91-8.57,15.7-47,15.85-61.86-1.59-6.5-7.7-14.24-13.61-21.74-5.44-6.9-10.6-13.43-12.74-19.41-2.47-.94-10.54.08-28,9.07-13.14,6.77-24.87,14.68-27.77,17.93.51,3.93,13.07,22.83,33.93,48.68l.54.67Zm-.06-.14" fill="#750511"/>
      <path d="M309.06,276.81c-2.24,0-5.31,0-14.29-30.38-4.21-14.24-7.77-28.67-7.8-28.82l-.07-.28V217c0-.36.3-36,0-46.6,0-.63-.1-14.62,8.87-21.73,5-4,11.78-5,20-2.9,26.69,6.67,45.51,74,47.91,90.54v.12c0,.48.94,11.65-8,17.24C343.87,265,316.94,276.81,309.06,276.81Zm-17.5-60c7.8,31.65,15.12,52.67,17.91,55.36,7-.44,32.3-11.46,43.22-22l.19-.18.22-.13c6.47-3.9,6.07-12.1,6-12.93-2.68-18.36-21.68-80.94-44.42-86.62-6.78-1.7-12.17-1-16,2-7.18,5.67-7.13,17.88-7.12,18C291.85,180.47,291.59,213.32,291.56,216.78Z" fill="#750511"/>
      <path d="M318.07,315.73c-.06-1.91,0-4.7,0-7.92.15-10.1.4-27-2.77-33.66l4.2-2c3.63,7.64,3.38,24.54,3.21,35.72,0,3.16-.09,5.9,0,7.7Z" fill="#750511"/>
      <path d="M162.44,366.28l-3.1-3.47c5.29-4.74,10.08-22.42,8.58-42.72a109,109,0,0,0-2.68-10.88,99.51,99.51,0,0,1-2.68-11c-.31-3.06-.65-6.62-1-10.46-1.55-16.17-3.69-38.32-5.36-46l4.55-1c1.74,8,3.79,29.38,5.45,46.57.37,3.84.71,7.4,1,10.45.15,1.5,1.42,6.11,2.54,10.19,1.68,6.09,2.7,9.92,2.84,11.77C174,339.79,169.69,359.79,162.44,366.28Z" fill="#750511"/>
      <path d="M290.83,373.33c-4.11-18.07-7.72-35.54-6.81-50.65.19-3.12,1.74-7.1,3.25-11a41.51,41.51,0,0,0,2.55-7.79c3.43-27,9.42-41.33,9.67-41.93l4.28,1.81c-.06.14-6,14.43-9.34,40.7-.31,2.45-1.54,5.58-2.83,8.9s-2.79,7.15-2.94,9.54c-.87,14.49,2.68,31.61,6.71,49.34Z" fill="#750511"/>
      <path d="M340.8,620.31l-1.69-.6c-22.51-8-67.93-44.6-113-91-48.88-50.26-81.46-95.43-87.18-120.83-1.94-8.63-.92-15.26,3-19.73.49-10.44,2.61-12.27,7.61-15.61l0,0c1.79-6.42,10-10,10.4-10.13l.34-.15.37,0a694.74,694.74,0,0,1,69.47-1.61c47.58,1.61,72.72,9.74,74.71,24.17l.07.48-.13.47c-1.28,4.53,1.4,52.05,3.26,63.94,2.7,17.36,9.88,38.51,17.48,60.89,7.91,23.3,16.09,47.4,20.85,71.33,1.34,6.75,1,28.79-4.59,36.92ZM161.47,366.84c-2.18,1-7,3.91-7.52,7.47l-.16,1-1.67,1.12c-4.13,2.76-5.24,3.5-5.58,12.78l0,.91-.65.65c-3.27,3.27-4.08,8.69-2.41,16.11,5.53,24.6,37.67,68.94,86,118.61,43.45,44.68,87,80.07,109.44,89.14,3.79-7.91,4.13-26,3-31.82-4.7-23.63-12.83-47.58-20.69-70.75-7.66-22.58-14.9-43.91-17.67-61.67-1.6-10.3-4.69-57.26-3.26-65.35-2.07-11.3-27-18.32-70.19-19.78C197.65,364.17,165.38,366.54,161.47,366.84Z" fill="#750511"/>
      <path d="M349.29,678.61c-6.35-2.59-40.91-15.12-97.86-7.42-48.81,6.6-95,4.86-119.8,3.93-5.89-.22-10.54-.4-14-.43a4.18,4.18,0,0,1-4-3c-3.23-10.52-4.85-30.66-3.94-49,.66-13.16,3.21-36.72,12.94-46.92l.65-4.1c9.31-58.49,19.86-124.78,19.86-153.45h4.65c0,29-10.58,95.52-19.92,154.18l-.68,4.26a4.16,4.16,0,0,1-1.13,2.25c-14.35,14.84-14.21,70.61-8.08,91.1,3.52,0,8.09.21,13.83.43,24.67.92,70.59,2.65,119-3.89,51.07-6.9,84.73,2.23,96.59,6.35-.62-3.25-1.7-8.34-2.76-13.32-5.58-26.28-8-39.39-7-42.8l4.43,1.42v0c-.83,3.26,4.31,27.44,7.07,40.43,3.91,18.42,3.91,18.42,2.52,19.59Z" fill="#750511"/>
      <path d="M230.26,225.52c.26,7.94.15,15.88,0,23.81s-.5,15.86-.87,23.78-.85,15.84-1.45,23.75c-.28,4-.62,7.91-1,11.86l-.6,5.93-.32,3-.19,1.48-.11.74,0,.18,0,.09s0,0,0,.06,0,0,0-.07,0-.25,0-.37c0,.12,0,.25,0,.37s0,0,0-.09v-.19l0-.74,0-1.49.05-3,.07-6c.08-4,.17-7.93.29-11.89.23-7.93.57-15.85.94-23.77s.84-15.84,1.38-23.75l.86-11.87Z" fill="#750511"/>
      <path d="M146.19,382.52A102.12,102.12,0,0,0,164.37,410a16.9,16.9,0,0,0,1.45,1.48l1.5,1.42a40.58,40.58,0,0,0,3.07,2.77l3.21,2.62,3.39,2.37a74.76,74.76,0,0,0,14.68,7.61,84.5,84.5,0,0,0,32.66,5,104.24,104.24,0,0,0,32.61-6.49,104.51,104.51,0,0,1-32.58,7.07,85.36,85.36,0,0,1-33.09-4.49,76.09,76.09,0,0,1-15.08-7.48l-3.5-2.36-3.32-2.61a41.81,41.81,0,0,1-3.18-2.77l-1.56-1.43a17.55,17.55,0,0,1-1.5-1.48,104.16,104.16,0,0,1-19-27.72Z" fill="#750511"/>
      <path d="M343.92,586.59c-2.27-6-5-11.88-7.8-17.69s-5.83-11.54-9-17.18-6.37-11.31-9.23-17.14c-1.44-2.91-2.78-5.88-3.94-8.91a49.9,49.9,0,0,1-2.71-9.34,49.77,49.77,0,0,0,3,9.23c1.25,3,2.67,5.9,4.19,8.75,3,5.72,6.39,11.26,9.72,16.82s6.57,11.22,9.58,17,5.89,11.58,8.42,17.65Z" fill="#750511"/>
      <path d="M163.94,286.63c1,4.85,2.17,9.71,3.44,14.52s2.68,9.59,4.27,14.31a123.56,123.56,0,0,0,5.52,13.87,53.8,53.8,0,0,0,3.64,6.51,23,23,0,0,0,4.93,5.57,23.1,23.1,0,0,1-5.16-5.41,54.15,54.15,0,0,1-3.92-6.42,124.28,124.28,0,0,1-6.09-13.74c-1.78-4.68-3.38-9.44-4.85-14.23s-2.83-9.61-4-14.5Z" fill="#750511"/>
      <path d="M295.32,287.13c-1.21,4.89-2.57,9.7-4,14.5s-3.07,9.54-4.85,14.23a124.28,124.28,0,0,1-6.09,13.74,54.15,54.15,0,0,1-3.92,6.42,23.1,23.1,0,0,1-5.16,5.41,23,23,0,0,0,4.93-5.57,53.8,53.8,0,0,0,3.64-6.51,123.45,123.45,0,0,0,5.52-13.87c1.59-4.72,3-9.5,4.27-14.31s2.44-9.67,3.44-14.52Z" fill="#750511"/>
      <path d="M291.26,216a33.1,33.1,0,0,0,3.93,3.3,35.62,35.62,0,0,0,4.44,2.73,27.89,27.89,0,0,0,4.85,2,24,24,0,0,0,5.2.94,24.33,24.33,0,0,1-5.33-.37,28.74,28.74,0,0,1-5.19-1.47,37,37,0,0,1-4.91-2.32,34.74,34.74,0,0,1-4.58-3.06Z" fill="#750511"/>
      <path d="M334.16,169.21a54.37,54.37,0,0,0-6.67-7.4,36.6,36.6,0,0,0-8.1-5.79,17.15,17.15,0,0,0-9.6-2,14.12,14.12,0,0,0-4.74,1.54,18.81,18.81,0,0,0-4.05,3,19,19,0,0,1,3.91-3.28,14.56,14.56,0,0,1,4.8-1.86,18,18,0,0,1,10.18,1.5,38,38,0,0,1,8.75,5.53,56.23,56.23,0,0,1,7.38,7.31Z" fill="#750511"/>
      <path d="M117.6,203.48a54.37,54.37,0,0,0,6.67,7.4,36.62,36.62,0,0,0,8.1,5.79,17.16,17.16,0,0,0,9.6,2,14.12,14.12,0,0,0,4.74-1.54,18.78,18.78,0,0,0,4.05-3,19,19,0,0,1-3.91,3.28,14.56,14.56,0,0,1-4.8,1.86,18,18,0,0,1-10.18-1.5,38,38,0,0,1-8.75-5.53,56.23,56.23,0,0,1-7.38-7.31Z" fill="#750511"/>
      <path d="M119,582.67c9.74-9,19.24-18.39,28.34-28.09q6.85-7.26,13.19-15a97,97,0,0,0,11.33-16.4A97.25,97.25,0,0,1,161,540q-6.12,7.92-12.78,15.4T134.7,570.1c-4.61,4.83-9.28,9.59-14.06,14.26Z" fill="#750511"/>
      <path d="M310.63,600.91c.84,7.24,1.86,14.5,3.12,21.7.64,3.6,1.34,7.19,2.21,10.73.44,1.77.92,3.53,1.51,5.26a13.55,13.55,0,0,0,2.48,4.83,13.66,13.66,0,0,1-2.75-4.73c-.68-1.71-1.27-3.45-1.8-5.21-1.06-3.52-2-7.08-2.79-10.66-1.65-7.16-3-14.36-4.28-21.61Z" fill="#750511"/>
      <path d="M226.64,524.45c-3.46,10.12-7.21,20.1-11.19,30s-8.22,19.7-12.85,29.32a232.8,232.8,0,0,1-15.56,28,83.56,83.56,0,0,1-10,12.51,33.35,33.35,0,0,1-6.22,5,19.22,19.22,0,0,1-3.61,1.72,13.36,13.36,0,0,1-3.93.66,13.33,13.33,0,0,0,3.91-.73,19.13,19.13,0,0,0,3.56-1.78,33.15,33.15,0,0,0,6.09-5.11,83.15,83.15,0,0,0,9.69-12.63,231.87,231.87,0,0,0,15-28.14c4.44-9.67,8.48-19.52,12.28-29.46s7.36-20,10.61-30.09Z" fill="#750511"/>
      <path d="M351.2,679.78s-26.85,8.14-95.44-5.08c-35.47,0-135.93.54-135.93.54s146.41-7.52,180.7-7.52S351.2,679.78,351.2,679.78Z" fill="#750511"/>
      <path d="M173.14,460.81c-11.83-12-23.88-24.47-28.92-24l3.1-13S172.31,456.27,173.14,460.81Z" fill="#750511"/>
      <path d="M153.43,372.64c0-.06,0,.07,0,.14a1.55,1.55,0,0,0,.09.27,3,3,0,0,0,.27.58,9.34,9.34,0,0,0,.75,1.17c.31.37.64.74,1,1.11l1.1,1a32.84,32.84,0,0,0,5,3.52c.92.49,1.8,1,2.75,1.49l2.84,1.35c1,.43,1.94.81,2.91,1.22s1.94.81,2.94,1.14c2,.71,4,1.45,6,2s4,1.27,6.08,1.79c4.07,1.16,8.2,2.08,12.33,3-4.16-.78-8.34-1.51-12.47-2.48-2.08-.43-4.13-1-6.18-1.52s-4.09-1.15-6.12-1.77a74.49,74.49,0,0,1-11.9-4.77,34.76,34.76,0,0,1-5.52-3.49l-1.27-1.09c-.39-.41-.79-.81-1.18-1.24a11.46,11.46,0,0,1-1-1.45,5,5,0,0,1-.43-.84,3.38,3.38,0,0,1-.18-.48,3.23,3.23,0,0,1-.14-.63Z" fill="#750511"/>
      <path d="M300.18,670.69s-1.24,11.77,3.72,16.11,2.48,12.39-6.2,12.39H278.49s-8.06-5.58.62-13a90.3,90.3,0,0,0,5.58-18.59Z" fill="#750511"/>
      <path d="M181.92,673.54s-1.55,8.93,3.41,13.27,2.48,12.39-6.2,12.39H159.91s-8.06-5.58.62-13c4.34-10.54,5.1-13.81,5.1-13.81Z" fill="#750511"/>
      <path d="M306.29,417.3a10,10,0,0,1-2.59-.35l1.2-4.5a4,4,0,0,0,3.72-.6c4.19-3.17,5.24-14.11,5.3-18.06v-.44l.16-.41c.91-2.25,2.45-6.24,4.41-11.29,10.18-26.3,20.45-52.36,24.36-56.88,2.8-3.42,4.37-37.16,4.29-67.8h4.65c0,15.1-.21,64.85-5.42,70.86-3.72,4.29-17.11,38.89-23.54,55.51-1.85,4.79-3.34,8.62-4.27,11-.08,3-.81,16.47-7.13,21.26A8.37,8.37,0,0,1,306.29,417.3Z" fill="#750511"/>
      <path d="M302.1,391.46l-1.44-9.69c9.52-12.5,17.33-65.89,17.43-66.5l4.57-2.5C323,318.77,312.32,378,302.1,391.46Z" fill="#750511"/>
      <path d="M350,261.83s-29.08,15.12-26.17,26.75l-6.38-15.42,27.89-15.4S351.14,254.85,350,261.83Z" fill="#750511"/>
      <path d="M338.92,625.85c-44.57-24.92-60.29-43.7-76.57-62.61,0,0,59.7,49.62,71.33,52.72C339.89,616,338.92,612.67,338.92,625.85Z" fill="#750511"/>
      <path d="M257.59,97.93c-3.84-18-15.78-30.65-29-30.65-12.25,0-23.57,10.9-28.15,27.12l-4.48-1.27c5.23-18.53,18-30.51,32.62-30.51,15.46,0,29.27,14.12,33.57,34.34Z" fill="#750511"/>
      <path d="M264,116.09S289.51,48.9,230.21,48.9s-37.55,66.72-37.55,66.72c1.43,6.59,7.6,12.43,10.57,17.73,6.2,11,15.37,19.72,25.89,27.92,7.52-9.58,15.92-19.62,21.94-28.44C255.46,126.38,263.41,120.58,264,116.09Z" fill="#750511"/>
      <circle cx="230.21" cy="47.77" r="11.83" fill="#750511"/>
      <path d="M255.74,128.16a5.44,5.44,0,0,1-2.05-.4l1.75-4.31a1.93,1.93,0,0,0,1.44-.31c3.55-1.92,7.87-9.41,8.4-12.13a12.13,12.13,0,0,0-3.79-11.47l2.89-3.65a16.77,16.77,0,0,1,5.46,16c-.73,3.74-5.66,12.57-10.76,15.32A7,7,0,0,1,255.74,128.16Z" fill="#750511"/>
      <path d="M201.87,127.25a7.2,7.2,0,0,1-3.44-1c-5.17-2.8-10.31-11.72-11-15.29-1.93-9.82,6.38-18.2,6.73-18.55l3.28,3.3-1.64-1.65,1.64,1.65c-.07.07-6.89,7-5.45,14.36.52,2.66,5,10.09,8.66,12.1a2.09,2.09,0,0,0,1.54.34l1.75,4.31A5.44,5.44,0,0,1,201.87,127.25Z" fill="#750511"/>
      <path d="M270.32,25.2a35.46,35.46,0,0,0-25-11.35l-1,0-.66-.7c-2.76-2.93-2.21-5.57-1.64-6.88,2.11-4.87,10.67-7,18.26-7h.15c10.91,0,19.19,4.2,22.13,11.13l-4.28,1.82c-2.59-6.08-10.93-8.28-17.87-8.3h-.14c-7.92,0-13.2,2.45-14,4.24-.06.14-.21.48.22,1.16a39.42,39.42,0,0,1,27.41,13Z" fill="#750511"/>
      <polygon points="407.02 202.45 435.53 244.22 405.13 203.81 407.02 202.45" fill="#750511"/>
      <polygon points="393.06 100.59 421.58 145.36 391.17 101.95 393.06 100.59" fill="#750511"/>
      <path d="M112.75,146.1l-4.57-.88c1.72-8.87,17-87,25-95.71,5.49-6,40.39-18.74,75.67-31.23,5-1.77,9-3.21,11.88-4.24a8.9,8.9,0,0,1,4.62-4.09c1-.43,7.89-3.11,13.6.84,1.76,1.22,3.89.48,6.94-.8,2.4-1,4.88-2,7.12-.92a8.08,8.08,0,0,1,3.57,8.8c-2.12,8.54-16.79,10.16-29.06,10L154.89,82l-2.78-3.73L226,23.14l.8,0c21.57.45,24.76-4.71,25.22-6.31a3.71,3.71,0,0,0-1.12-3.63,11.84,11.84,0,0,0-3.23,1.05c-3.12,1.31-7.39,3.1-11.39.34s-9.1-.4-9.15-.38l-.28.11a4.45,4.45,0,0,0-2.32,2.46l-.39.93-.95.35c-2.88,1.06-7.26,2.62-12.82,4.59-22.27,7.89-68.62,24.3-73.78,30C131.24,58.54,119.4,111.76,112.75,146.1Z" fill="#750511"/>
      <polygon points="148.83 133.95 144.22 133.33 155 54.94 156.5 75.44 148.83 133.95" fill="#750511"/>
      <polygon points="550.72 230.03 555.03 203.52 555.36 230.38 550.72 230.03" fill="#750511"/>
      <path d="M118.61,140s25.59-18.61,27.91-27.91l1.74,22.1Z" fill="#750511"/>
    </g>
  </g>
</svg>
