<svg xmlns="http://www.w3.org/2000/svg" viewBox="0 0 700 700">
  <title>Artboard 3 copy 3</title>
  <g id="Midtones">
    <path d="M557.42,280.81l-60,115.49-25.5,67.5S432.68,578.74,332.68,570.41c63,15,73.24,5.89,73.24,13.39s-15,70.5-34.5,73.5,58.5,40.5,58.5,40.5l18-120,34.5-49.5S564.91,316.81,557.42,280.81Z" fill="#f7982d"/>
    <path d="M261,586.22s-20,8,3,15.66c-4.18,9.18-20.75,22-15,37.34,12,32,27,52,27,52l-75-22,24-86Z" fill="#f7982d"/>
    <path d="M284,469.22s10-8,13,10c6-49,6-60,6-60l-20,3Z" fill="#f7982d"/>
    <path d="M300,504.22s20-53,64-71c41-21,22-55,40-68s66-88,86-69l-34-28-32,46s-6,24-31,27l-25,3s12,72-31,81-34-6-34-6C298,446.52,296.1,474.62,300,504.22Z" fill="#f7982d"/>
    <path d="M490,296.22s-10-98,11-133l-36,10-14,104Z" fill="#f7982d"/>
    <path d="M501,163.22l-40-83s8,47,2,79l13,17Z" fill="#f7982d"/>
    <path d="M200,412.22s39.33-2,42.67,26,41.33,31,41.33,31l7.33-57.67s-6.67,9.33-16,9.33S260,434.22,240.68,408.22C245.35,379.55,200,412.22,200,412.22Z" fill="#f7982d"/>
    <path d="M258,407.22s-1-15.5,4.5-17.5,17.5-3.5,17.5-3.5l-2-5.5s-22.5,4.5-24,7C256,399.72,258,407.22,258,407.22Z" fill="#f7982d"/>
    <path d="M306.52,397.72s3.5-44,48-41.5l-3-4a40.75,40.75,0,0,0-36.5,5C305.52,379.22,301,392.22,306.52,397.72Z" fill="#f7982d"/>
    <path d="M376.52,322.72s-11.5-26.5,4.5-41.5c15.17-10.57,31.54-10,32.5-6l-2-10.5s-30.5,2.5-38,13S364.52,321.72,376.52,322.72Z" fill="#f7982d"/>
    <path d="M395.52,156.72s-4.5-20,11-25.5,44.5,2,44.5,3.5l1-7s-14-12.5-41-5.5-21,19-21,19Z" fill="#f7982d"/>
    <path d="M481.52,15.22s-9.5,5-4,16,24,35.5,31,35.5l3.5,4.5s-3,3-10.5.5-33.5-31-32-44.5S481.52,15.22,481.52,15.22Z" fill="#f7982d"/>
    <path d="M317.52,158.22c17.92,27.71,33.38,72.1,47,129l-4.5,13S319,184.72,317.52,158.22Z" fill="#f7982d"/>
    <path d="M234,229.22s40.67,69.17,50,102.5,19,87.5,19,87.5l-23-33Z" fill="#f7982d"/>
    <path d="M399.35,176.22s48.67-6,62-32.67C454,174.22,427.35,184.88,399.35,176.22Z" fill="#f7982d"/>
    <path d="M241.52,273.22s26.5,89.5,22,91.5-7,3-7,3c16.5,3,21.5,13,21.5,13l-2.5-18.5S250.52,271.72,241.52,273.22Z" fill="#f7982d"/>
    <path d="M409.35,590.88s-36.67,17.33-119.33,14c62,10.67,113.33,12.67,113.33,26C416.68,592.88,409.35,590.88,409.35,590.88Z" fill="#f7982d"/>
    <path d="M373.35,148.88s4.67,57.33,9.33,56.67,10,23.33,36,23.33,8-41.33,8-41.33C409.9,191.57,392.13,175.22,373.35,148.88Z" fill="#f7982d"/>
    <path d="M441.35,74.22s16.67,21.33,18,62.67l5.33-30.67S462,72.88,441.35,74.22Z" fill="#f7982d"/>
    <path d="M184.68,489.55s17.33,63.33,62,96l-23.33,5.33s-22-51.33-39.33-57.33A183.34,183.34,0,0,1,184.68,489.55Z" fill="#f7982d"/>
    <path d="M206,409.55s18.67-10,4-23.33c20,.67,20,12,20,12Z" fill="#f7982d"/>
    <path d="M184.68,489.55s-3,24-15,13.67c7,18.67,12.33,26,12.33,26Z" fill="#f7982d"/>
  </g>
  <g id="Darker_Mids" data-name="Darker Mids">
    <path d="M544,346.22,446.67,554c-9,13.41-24.14,16.78-41.65,16.18,15.12,1.23,29.82,2.59,29,9l-7,114,24-114,35-59Z" fill="#c45937"/>
    <path d="M283,458.22s9-17,18-13c11-8,30-14,30-14l-30-10-17,12Z" fill="#c45937"/>
    <path d="M244,418.22s38,26,39,40l6-38-7-4-11,12Z" fill="#c45937"/>
    <path d="M366,399.22s20-45,35-54,28-34,28-34-22,32-50,31l-11,6Z" fill="#c45937"/>
    <path d="M386,178.22s15,48,29,44l-4-32Z" fill="#c45937"/>
    <path d="M469,113.22s4,53,16,53l-14,115-42,30,32-89Z" fill="#c45937"/>
    <path d="M242,586.22s-21,34-23,46l3-48Z" fill="#c45937"/>
  </g>
  <g id="Main">
    <g>
      <path d="M207.53,672.28l-8.23-2.86c18.65-53.67,20.2-82.57,16.8-88.18-1.36-2.25-2.62-4.38-3.84-6.45-7.55-12.84-13.51-23-36.46-44.6-28.12-26.47-31.86-130.54-32-135l.05-.85,21.87-134,8.6,1.4-21.8,133.61c.28,7.25,4.56,105.24,29.25,128.49,23.87,22.47,30.42,33.62,38,46.52,1.2,2,2.43,4.14,3.77,6.35C234,593.88,212,659.33,207.53,672.28Z" fill="#750511"/>
      <path d="M426.44,698.22c.11-.79,10.76-79,18.18-115.77,1.25-6.19,6-13.53,12.57-23.69,8.3-12.84,19.67-30.41,29.46-54.44,36-88.36,71.25-205.19,70.53-225.42-3.39-22-2.92-51.26-2.47-79.59.48-30,1-61.11-4.26-71.45-2.85-5.63-9.76-14.72-17.76-25.25-4-5.32-8.22-10.82-12.35-16.49a15.53,15.53,0,0,1-2.41-7.21c-.54-3.66-.56-3.8-3.18-3.88L512.49,75l-1.25-1.89C500.89,57.41,494.4,42.9,489.19,31.23c-1.13-2.53-2.19-4.9-3.21-7.1-4.37-9.43-11.84-14.45-20-13.42C456.3,11.94,448.51,21.06,446.13,34c-4.91,26.6-3.19,32.75-3.12,33a1.41,1.41,0,0,0-.18-.41l-7.77,3.93c-1-2-2.75-9.63,2.5-38.1,3.08-16.7,13.81-28.59,27.33-30.3,11.92-1.51,23,5.54,29,18.4,1,2.23,2.11,4.64,3.26,7.2,4.89,10.94,10.93,24.44,20.24,38.87,7.72,1.31,8.69,7.82,9.17,11.09a9.82,9.82,0,0,0,.83,3.34c4.08,5.6,8.23,11.06,12.25,16.35,8.26,10.86,15.39,20.25,18.6,26.59,6.2,12.26,5.74,41.58,5.19,75.52-.45,28.08-.91,57.11,2.41,78.36l0,.45c1.14,22.81-36.76,145-71.15,229.35-10.1,24.78-21.73,42.76-30.21,55.88-5.82,9-10.42,16.12-11.34,20.68-7.37,36.54-18,114.44-18.09,115.22Z" fill="#750511"/>
      <path d="M165.7,260.51a40.44,40.44,0,0,1,11.71-21.91c10.86-10.71,28.18-21.21,42.42-20.52a21.31,21.31,0,0,1,15.8,7.61l-6.7,5.57a12.48,12.48,0,0,0-9.53-4.48c-11.53-.57-26.68,8.94-35.87,18a32.29,32.29,0,0,0-9.18,16.77Z" fill="#750511"/>
      <path d="M258.14,429.66c-6.83-1.88-12.95-7.09-16.48-14.08-2.42-4.78-21-53.37-24.35-62.06-6.75-7.52-14.77-22.77-25.86-49.15l8-3.38c6.83,16.24,16.83,38.8,24.77,47.2l.59.63.31.81c8.81,23,22.54,58.57,24.28,62,2,3.87,6,8.46,11.54,9.74,4.51,1,9.25-.27,14.1-3.91,12.06-9.08,6.31-28.29,6.25-28.48l8.32-2.57c.32,1,7.57,25.29-9.33,38C271.58,431,263.9,431,259,429.87Z" fill="#750511"/>
      <path d="M315.24,430.18c-12.47-3.43-23.16-12.59-27.75-24.55-10.27-26.74-57.34-169.71-59.34-175.78l8.28-2.72c.49,1.49,49,148.85,59.2,175.39,4.6,12,17,20.38,30.28,20.44,14.94.06,27.66-10.41,34.92-28.75,9.43-29.64-.07-62.74-4.53-73-3.16-7.27-7.68-23.44-12.92-42.16-3.37-12-6.85-24.5-10.32-35.81-4.74-15.49-8.56-31.27-11.93-45.19-3.73-15.43-7-28.75-10-35.27-3.27-7.11-13.62-11.22-27.69-11-21.9.32-48.6,11.28-57.46,31.62-1,3.78-8.88,34.7-9.71,37.72l-8.4-2.31c.85-3.08,9.66-37.55,9.75-37.9l.08-.32.13-.31c10.19-24,40.66-36.86,65.48-37.22,17.88-.26,30.9,5.6,35.73,16.09,3.36,7.3,6.52,20.35,10.52,36.87,3.34,13.81,7.13,29.45,11.8,44.69,3.49,11.41,7,23.92,10.38,36,4.94,17.65,9.6,34.32,12.52,41,4.83,11.12,15.12,47,4.8,79.27l-.1.27c-8.64,21.94-24.35,34.48-43.12,34.4A40.68,40.68,0,0,1,315.24,430.18Z" fill="#750511"/>
      <path d="M380.42,345.48c-7.86-2.17-14.85-7.79-20.28-16.49l7.39-4.61c6.16,9.88,13.88,14.33,22.95,13.24,12.6-1.51,26.24-14.09,31-28.64,5.82-17.61-2.27-58.84-8.76-92-2.27-11.58-4.42-22.53-5.91-32l8.6-1.36c1.47,9.28,3.6,20.15,5.86,31.65,7,35.91,15,76.6,8.48,96.38-5.88,17.79-22.33,32.65-38.28,34.56A28.66,28.66,0,0,1,380.42,345.48Z" fill="#750511"/>
      <path d="M300.74,150l-8.06-3.31c1.17-2.84,2.17-5.52,3.11-8,3.49-9.34,6.51-17.41,14.25-22.41,26.57-17.16,64.8-3.75,66.42-3.16l-2.94,8.2c-.36-.13-35.83-12.52-58.76,2.28-5.31,3.43-7.62,9.6-10.81,18.14C303,144.29,301.95,147.06,300.74,150Z" fill="#750511"/>
      <path d="M396.42,183.46a21.5,21.5,0,0,1-9.07-4.67c-14.11-13.2-24.78-58.43-10.81-87.11,6.74-13.84,19.95-23.9,36.23-27.61,15.35-3.49,30.6-.76,40.81,7.33,11.89,9.41,15.19,27.83,15.86,41.62.76,15.44-1.41,32.84-5.65,45.42-3.64,10.8-15.9,19.55-33.63,24C419.44,185.16,406.12,186.13,396.42,183.46ZM437.09,72.8a46.5,46.5,0,0,0-22.38-.24C401,75.68,390,84,384.37,95.49c-12.56,25.78-1.84,66.86,8.93,76.94,4.28,4,18.44,5.68,34.73,1.58,14.58-3.67,24.86-10.53,27.5-18.35,7.59-22.5,8.52-64.86-7.36-77.43A31.09,31.09,0,0,0,437.09,72.8Z" fill="#750511"/>
      <polygon points="310.77 161.25 313.31 137.09 319.45 160.6 310.77 161.25" fill="#750511"/>
      <polygon points="228.39 230.79 226.69 206.61 236.83 228.62 228.39 230.79" fill="#750511"/>
      <polygon points="191.62 304.81 189.91 280.64 200.05 302.65 191.62 304.81" fill="#750511"/>
      <polygon points="432.17 258.36 424.04 255.23 452.36 181.62 449.43 170.02 457.88 167.88 461.48 182.17 432.17 258.36" fill="#750511"/>
      <path d="M465.83,134.65s2,34.82,9.65,36.92c-6.6,40.56-4.72,78-13,100.93-9.13,25.1-28.53,33.81-36.79,37.84,1.49-53.56-2.28-68.36,22.29-100.8l9-27.65S448,179.45,465.83,134.65Z" fill="#750511"/>
      <path d="M453.65,169l-42.5,15.41,3.33,2.8-9.89,12.34c7.86,3.93,8.37,32.23,16.2,59.05C420.79,258.55,462.62,199.66,453.65,169Z" fill="#750511"/>
      <path d="M222.9,359.37A78.36,78.36,0,0,1,209,370.68a102.48,102.48,0,0,1-15.51,8.38,106.86,106.86,0,0,1-16.6,5.64c-2.8.82-5.7,1.25-8.54,1.84s-5.77.79-8.64,1.19c2.85-.58,5.72-1,8.53-1.72s5.63-1.37,8.35-2.35a105.15,105.15,0,0,0,16-6.56A99.83,99.83,0,0,0,207.16,368a75.31,75.31,0,0,0,12.4-11.43Z" fill="#750511"/>
      <polygon points="236.67 392.36 195.76 415.73 234.33 388.68 236.67 392.36" fill="#750511"/>
      <path d="M209.48,336.8a21.27,21.27,0,0,1-5,1.35,40.82,40.82,0,0,1-4.85.48,56.66,56.66,0,0,1-9.52-.46,84.23,84.23,0,0,1-9.26-1.71l-4.52-1.21-4.45-1.41,4.57.88,4.59.67a82.38,82.38,0,0,0,9.2.61,54.15,54.15,0,0,0,9.06-.62,37.39,37.39,0,0,0,4.34-.95,18.08,18.08,0,0,0,3.81-1.47Z" fill="#750511"/>
      <path d="M285.9,418.79a636.45,636.45,0,0,1-5.21,80.56,634.3,634.3,0,0,0,.85-80.43Z" fill="#750511"/>
      <path d="M272.42,361.9s10.26,44.62,5.26,59.06l12-24.94Z" fill="#750511"/>
      <path d="M344,252.83,366.44,307s3.79,25.33,2.78,29l-7.82-5.73Z" fill="#750511"/>
      <path d="M284.16,444.58s17.6-23.54,39.14-19.87c-24.81-8.34-37.83-37-37.83-37Z" fill="#750511"/>
      <path d="M394.32,343.51S369.52,348,365,368.19L362,338Z" fill="#750511"/>
      <path d="M370.34,129.07s10.57,74.68,41.65,72.09c13.4-18.9-.84-16.8-.84-16.8C394.68,181.1,381,163,370.34,129.07Z" fill="#750511"/>
      <path d="M194.58,310.54c-1.26,0,10.24,23-4.72,25.53,14.55,1.75,19.82-3.11,19.82-3.11Z" fill="#750511"/>
      <path d="M183.18,337s35.21,23.81,20.4,33.86l18.81-10.63L209.67,333S187.63,338.56,183.18,337Z" fill="#750511"/>
      <path d="M191.29,379.85c23.27,2.76,42.52,25.84,62,47.93l-30.86-67.52Z" fill="#750511"/>
      <path d="M276.78,363.34c-4.48.92-9,1.94-13.45,3.09-2.22.59-4.45,1.19-6.63,1.9a24.13,24.13,0,0,0-6.28,2.76,24.59,24.59,0,0,1,5.87-3.76c2.08-1.06,4.2-2,6.34-3,4.28-1.86,8.58-3.58,13-5.23Z" fill="#750511"/>
      <path d="M234,242c-4.48.92-9,1.94-13.45,3.09-2.22.59-4.45,1.19-6.63,1.9a24.13,24.13,0,0,0-6.28,2.76,24.59,24.59,0,0,1,5.87-3.76c2.08-1.06,4.2-2,6.34-3,4.28-1.86,8.58-3.58,13-5.23Z" fill="#750511"/>
      <path d="M305.33,164.82c-4.83,1-9.59,1.79-14.33,2.62s-9.44,1.67-14.07,2.74a93.84,93.84,0,0,0-13.56,3.89c-4.31,1.72-8.56,3.82-11.43,7.87a13.94,13.94,0,0,1,3.83-6.46,26.77,26.77,0,0,1,6.15-4.48A53.94,53.94,0,0,1,276,165.93a86.54,86.54,0,0,1,14.65-1.85A71,71,0,0,1,305.33,164.82Z" fill="#750511"/>
      <path d="M296.66,343.35a55.83,55.83,0,0,1,10.17-8.27,68.38,68.38,0,0,1,11.61-6.16,51.06,51.06,0,0,1,12.77-3.57,27.91,27.91,0,0,1,13.18,1,59.8,59.8,0,0,0-12.48,2.32A115.54,115.54,0,0,0,320.1,333C312.28,336.11,304.72,339.93,296.66,343.35Z" fill="#750511"/>
      <path d="M412.67,205c-1.54-1-4.32-1.36-6.89-1.39a53.15,53.15,0,0,0-8,.62,114.72,114.72,0,0,0-16,3.67,126.84,126.84,0,0,0-15.5,5.75c-5,2.31-10,4.84-14.05,8.67,3.8-4.09,8.69-7,13.57-9.64A128.51,128.51,0,0,1,381,205.85,117.41,117.41,0,0,1,397.18,201a56.66,56.66,0,0,1,8.51-1.22,27,27,0,0,1,4.49.08,12.29,12.29,0,0,1,4.81,1.42Z" fill="#750511"/>
      <path d="M458.9,180.94a55.83,55.83,0,0,1,10.17-8.27,68.38,68.38,0,0,1,11.61-6.16,51.06,51.06,0,0,1,12.77-3.57,27.91,27.91,0,0,1,13.18,1,59.8,59.8,0,0,0-12.48,2.32,115.58,115.58,0,0,0-11.81,4.27C474.51,173.69,467,177.51,458.9,180.94Z" fill="#750511"/>
      <path d="M278.47,384.26a32.1,32.1,0,0,0-6-.32,36.11,36.11,0,0,0-6.16.74,32.58,32.58,0,0,0-5.95,1.77,34.15,34.15,0,0,0-5.54,2.82l.63-1.37a128.05,128.05,0,0,0,1.49,13.38,29.89,29.89,0,0,0,1.79,6.33,10.92,10.92,0,0,0,3.7,5.05,9.41,9.41,0,0,0,6,1.54,24.34,24.34,0,0,0,3.25-.55c1.06-.34,2.14-.6,3.2-1,2.12-.78,4.24-1.59,6.3-2.51a19.54,19.54,0,0,0,3-1.58,2.45,2.45,0,0,0,.6-.56c.19-.23,0-.47-.27-.54a5.12,5.12,0,0,0-1.67-.15,5.13,5.13,0,0,1,1.7.06.65.65,0,0,1,.39.24.43.43,0,0,1,0,.46,2.57,2.57,0,0,1-.6.63,19.67,19.67,0,0,1-2.93,1.77c-2,1-4.1,2-6.19,2.87-1,.47-2.15.8-3.22,1.21a25.16,25.16,0,0,1-3.4.76,10.71,10.71,0,0,1-6.95-1.41,12.52,12.52,0,0,1-4.56-5.51,31.83,31.83,0,0,1-2.27-6.62,130.18,130.18,0,0,1-2.26-13.55l-.11-.86.75-.51a37.34,37.34,0,0,1,5.9-3.42,36,36,0,0,1,6.43-2.3,39.88,39.88,0,0,1,6.74-1.18,35.63,35.63,0,0,1,7,0Z" fill="#750511"/>
      <path d="M312.18,408.86c-10.16-2.8-12.94-22-10.37-39l0-.22.08-.21c6.28-16.85,28-22.22,41.15-21.72,4.13.16,11.22,1.06,12.58,5.3.59,1.49,6.1,16.17,1.2,36.42-5.55,22.93-36.24,21.24-44.16,19.54Zm-6.09-38.09c-2.5,16.78.81,32.11,7.26,33.89l.26.06a52.48,52.48,0,0,0,21.26-.55c9.83-2.45,15.8-7.75,17.74-15.75,4.71-19.47-1-33.69-1-33.84l-.08-.23c-.15-.53-2.47-2-8.59-2.28C331.57,351.65,311.63,356.35,306.08,370.77Z" fill="#750511"/>
      <path d="M378.3,326.69a70.11,70.11,0,0,1-12.9-5.12l-.79-.4-.29-.84c-8.26-24.21-7.78-35.27,1.81-40.68,2.17-1.6,27.11-19.61,45.56-16.06l1.28.25.39,1.25c7.92,25.51,4.26,35.29,3,37.61-.46,2.73-3.34,16.54-15,22.69C395,328.72,387.27,329.16,378.3,326.69Zm-10.14-8.61c12.91,6.36,23.37,7.52,31.13,3.46,10.75-5.63,12.83-19.75,12.85-19.89l.07-.51.29-.43s4.65-7.94-2.9-33c-17-2.17-40.74,15.38-41,15.57l-.25.16C363.31,286.2,359.12,291.22,368.16,318.08Z" fill="#750511"/>
      <path d="M399.45,164c-7.05-1.94-10.23-8.49-11.88-28.29l-.07-.84.51-.67c.24-.32,25-31.68,64.77-9.87L454,125l-.08,1.37c-1.49,25.47-13.38,38.29-35.35,38.1-2.82,0-5.42.08-7.7.17C406.22,164.83,402.48,164.85,399.45,164ZM392,136.24c2.14,24.7,5.73,24.56,18.71,24.05,2.33-.09,5-.19,7.91-.17,19.1.17,29.2-10.51,30.87-32.62-14.92-7.82-29.14-8.69-42.28-2.58A47.07,47.07,0,0,0,392,136.24Z" fill="#750511"/>
      <path d="M501.9,72.88A32,32,0,0,1,489.6,66c-14.31-12.3-23.22-36.79-22.23-44.37a9.94,9.94,0,0,1,3.91-6.94c4.75-3.56,12-2.5,12.27-2.45l-.66,4.31c-.06,0-5.73-.83-9,1.64a5.66,5.66,0,0,0-2.2,4c-.77,5.91,7.47,29.08,20.75,40.5,7,6,14.37,8,21.83,5.85l1.21,4.19A24.68,24.68,0,0,1,501.9,72.88Z" fill="#750511"/>
      <path d="M184.92,539.08a90.66,90.66,0,0,1-3.79-19.8,91.67,91.67,0,0,1,2.42-29.73c.45-1.6,1-3.17,1.47-4.75.26-.79.47-1.59.77-2.36l1-2.29c2.32-6.21,5.93-11.81,9.68-17.18-3.45,5.58-6.71,11.31-8.66,17.56l-.82,2.3c-.25.77-.41,1.58-.62,2.36-.39,1.58-.82,3.15-1.18,4.73a89.32,89.32,0,0,0-.77,29,87.48,87.48,0,0,0,4.61,18.6Z" fill="#750511"/>
      <path d="M221.81,578.08v0a.68.68,0,0,0,.11.16,2.39,2.39,0,0,0,.32.38,6.92,6.92,0,0,0,.85.79,13.57,13.57,0,0,0,2.17,1.4,26.44,26.44,0,0,0,2.48,1.15l2.66.92A65.88,65.88,0,0,0,241.71,585c3.87.39,7.78.61,11.7.65s7.85-.08,11.78-.21c-3.9.49-7.81,1-11.74,1.3s-7.89.48-11.87.44a68.36,68.36,0,0,1-12-1.15l-3-.73a30.11,30.11,0,0,1-3-1.06,17.34,17.34,0,0,1-2.93-1.53,10.94,10.94,0,0,1-1.41-1.08,6.17,6.17,0,0,1-.69-.69,3.67,3.67,0,0,1-.34-.42,3.88,3.88,0,0,1-.4-.64Z" fill="#750511"/>
      <path d="M448.67,263.27c4.73,2.76,9.27,5.66,13.76,8.7s8.85,6.24,13.08,9.61a114,114,0,0,1,12,10.9c3.67,3.93,7.21,8.21,9.07,13.31-2.2-4.95-6-8.91-9.84-12.54a112.37,112.37,0,0,0-12.56-9.93q-6.59-4.55-13.52-8.59c-4.61-2.68-9.32-5.27-14.05-7.61Z" fill="#750511"/>
      <path d="M306.64,406.34s-1.5-41.22,17.3-51.86C310.57,359.12,296,360.09,306.64,406.34Z" fill="#750511"/>
      <path d="M379.17,275.7s-16.76,36-2,46.9l-16.9-3.15S347,285.68,379.17,275.7Z" fill="#750511"/>
      <path d="M244.62,599.59a363.94,363.94,0,0,0,77.59,3.86c25.9-1.25,51.62-4.84,77.46-8.61a350,350,0,0,1-38.22,8.63,338.65,338.65,0,0,1-39,4.33,271.36,271.36,0,0,1-39.29-.81A198.63,198.63,0,0,1,244.62,599.59Z" fill="#750511"/>
      <path d="M306.91,424.58a152.64,152.64,0,0,0-6.45,31.13,191.47,191.47,0,0,0,3.76,63.87c1,5.28,2.71,10.4,4.24,15.56.69,2.61,1.74,5.09,2.66,7.62l2.84,7.57-3.09-7.47c-1-2.5-2.15-5-2.92-7.54-1.7-5.12-3.55-10.2-4.78-15.47a193.65,193.65,0,0,1-6-64.44,155.71,155.71,0,0,1,5.59-32.26Z" fill="#750511"/>
      <path d="M378.94,559a42.57,42.57,0,0,0,13.37-1.32,49.67,49.67,0,0,0,12.26-5.19c7.68-4.52,14.31-10.61,20.29-17.23a175.89,175.89,0,0,0,16.2-21.39q7.38-11.25,13.74-23.18c8.58-15.82,16.13-32.23,23.36-48.78s13.94-33.36,20.64-50.2c-5.1,17.39-10.88,34.6-17.5,51.5-3.3,8.45-6.85,16.81-10.58,25.11s-7.81,16.42-12.1,24.45c-8.76,15.93-18.55,31.54-31.3,44.81a103.61,103.61,0,0,1-10.16,9.29,75.46,75.46,0,0,1-11.59,7.49C397.36,558.43,387.94,560.59,378.94,559Z" fill="#750511"/>
    </g>
  </g>
</svg>
