<svg xmlns="http://www.w3.org/2000/svg" viewBox="0 0 700 700">
  <title>Artboard 2 copy 10</title>
  <g id="Midtones">
    <path d="M132.62,74.82s-76.94,68.48-28.94,82c-15,25.5,52.94,57.51,223.93,57.51-271.49,0-285.93-30.84-285.93-30.84l2-16.67L78.35,92.13Z" fill="#f7982d"/>
    <path d="M379.69,214.8c1,8.64-207.29,11.31-240.67,16.67-7.56,4.94,24.87,13.6,30.67,21.33-67.9,41.26,128.88,58.6,215,49l-289-4s-22-17-46-81c-10-29-8-33.33-8-33.33C119,201.76,253.69,219.47,379.69,214.8Z" fill="#f7982d"/>
    <path d="M433.69,208.8s93.12,17.31,126.5,22.67c7.56,4.94-24.87,13.6-30.67,21.33,67.9,41.26-128.88,58.6-215,49l289-4s22-17,46-81c10-29,8-33.33,8-33.33C580.25,201.76,433.69,208.8,433.69,208.8Z" fill="#f7982d"/>
    <path d="M415,64.13s121.33,1.33,156.67-3.33S617,88.13,617,88.13l30.67,60.67L659,184.13S641.69,208.8,447.69,210.8c72-16.67,167.33-16,154.67-49.33,11.33-4,25.33-18.67,7.33-25.33S585,63.47,415,64.13Z" fill="#f7982d"/>
    <path d="M87.69,25.47s-19,7.59,22,19.33C152.33,57,564.33,56.21,587,43.47c19.76-11.1,36.67-14.67,17.33-19.33l13.33,2s15.33,18-1.33,32.67-112.67,6-112.67,6L105,63.47,79,56.8S66.35,30.8,87.69,25.47Z" fill="#f7982d"/>
    <path d="M105.67,361.48s-86.47,77-32.52,92.14c-16.86,28.66,59.5,64.63,251.67,64.63-305.12,0-321.35-34.66-321.35-34.66l2.25-18.73,39-83.92Z" fill="#f7982d"/>
    <path d="M383.33,518.8c1.17,9.71-233,12.71-270.48,18.73-8.5,5.55,27.95,15.28,34.47,24-104.07,63,259.21,126.21,280.27,113.63C388.3,689.42,52.27,672.29,59.73,618c0,0-17.86-39.29-47.28-96.94-11.24-32.59-9-37.46-9-37.46C90.31,504.15,241.72,524,383.33,518.8Z" fill="#f7982d"/>
    <path d="M444,512.05s104.66,19.45,142.17,25.47c8.5,5.55-27.95,15.28-34.47,24,50.6,30.75-111,132.29-349,73.29-47,12,94,41,94,41-2.58,6.74,332.31,5,345-62,23.21-45.13,43.36-89,55.58-129.47C610.42,504.9,444,512.05,444,512.05Z" fill="#f7982d"/>
    <path d="M423,349.47s136.36,1.5,176.07-3.75,50.95,30.72,50.95,30.72l34.47,68.18,12.74,39.71s-19.48,27.72-237.51,30c80.92-18.73,188.06-18,173.83-55.44,12.74-4.5,28.47-21,8.24-28.47S614.1,348.72,423,349.47Z" fill="#f7982d"/>
    <path d="M55.16,306s-23.23,11.61,24.73,11.23,510.93-1.59,536.46-1.5,41.21-6,19.48-11.23l15,2.25S668,327,649.31,343.47s-126.62,6.74-126.62,6.74l-448-1.5-29.22-7.49S31.18,312,55.16,306Z" fill="#f7982d"/>
  </g>
  <g id="Darker_Mids" data-name="Darker Mids">
    <path d="M220.69,211.8s-168-20-148,26l-17-5-17-47S143.69,208.8,220.69,211.8Z" fill="#c45937"/>
    <path d="M98.19,244.3s-23.5,33.5,24.5,43l-44-9-23-45.5Z" fill="#c45937"/>
    <path d="M580.35,205.47s60.67,16,24.67,32.67l35.33-4,17.33-47.33S628.35,198.8,580.35,205.47Z" fill="#c45937"/>
    <path d="M591,240.8s35.33,32.67-28.67,53.33L619,282.8l21.33-48.67Z" fill="#c45937"/>
    <path d="M635.69,156.13S647,189.47,629,195.47c27.33-5.33,28.67-8.67,28.67-8.67s.67-17.33-9.33-37.33Z" fill="#c45937"/>
    <path d="M53,146.13l41.33,8.67s-45.33,22-20.67,38l-35-7Z" fill="#c45937"/>
    <path d="M4.69,485.8l80,18s-58,13-16,46l-47-11Z" fill="#c45937"/>
    <path d="M93,555.47S45.35,583.8,88.69,609.8c-13,46,225.67,65.67,225.67,65.67S76.35,676.8,59,616.8c-20-46.67-37.33-78-37.33-78" fill="#c45937"/>
    <path d="M26.19,425.3c-11.42,36.13,1.06,63.09,51.5,75.5l-73-15S2.69,465.3,26.19,425.3Z" fill="#c45937"/>
    <path d="M695.31,485.8l-80,18s61,26.33-10.29,73c47-11,73.29-38,73.29-38Z" fill="#c45937"/>
    <path d="M605,576.8c7.15,71.88-78.94,84.93-219.38,98.67,0,0,238,1.33,255.33-58.67,20-46.67,37.33-78,37.33-78" fill="#c45937"/>
    <path d="M673.81,425.3c11.42,36.13-13.46,70.17-58.5,78.5,31.16-3.12,63.26-5.65,80-18C695.31,485.8,697.31,465.3,673.81,425.3Z" fill="#c45937"/>
    <path d="M635.69,156.13l-17-70.33,29.67,63.67S645.69,168.47,635.69,156.13Z" fill="#c45937"/>
    <path d="M77.69,151.8s-11-18-3-54c-24,54-21.67,48.33-21.67,48.33S68.69,170.8,77.69,151.8Z" fill="#c45937"/>
  </g>
  <g id="Main">
    <g>
      <path d="M351.12,679.74h-2.24c-76-.12-146.65-5.73-199.05-15.79-60.42-11.6-91.33-27.82-91.91-48.21C53.25,606.92,1.09,507.82,1.09,484.25c0-17.85,29.88-79.54,47.69-114.72.22-.41.41-.77.59-1.14a25,25,0,0,0-3-26.48l-.1-.12-.26-.33H44.73v-1.52a25,25,0,0,1,20.11-39.82H635.18a25,25,0,0,1,20.12,39.81v1.5H654l-.27.34-.1.12a25,25,0,0,0-3,26.48c.18.36.36.73.55,1.07,17.84,35.24,47.72,96.92,47.72,114.78,0,23.58-52.16,122.66-56.84,131.49-.58,20.39-31.49,36.61-91.91,48.21C497.76,674,427.07,679.62,351.12,679.74ZM49.76,338.93l0,0a29.64,29.64,0,0,1,6.58,18.58,29.24,29.24,0,0,1-2.92,12.82c-.21.44-.43.87-.65,1.27-30,59.19-47.16,100.25-47.16,112.6,0,23,56,128.78,56.56,129.85l.27.5v.57c0,17.66,31.33,33.4,88.23,44.33,52.13,10,122.52,15.59,198.2,15.71h2.24c75.67-.12,146.06-5.7,198.19-15.71,56.89-10.93,88.23-26.67,88.23-44.33v-.57l.27-.5c.57-1.07,56.56-106.81,56.56-129.85,0-12.35-17.2-53.42-47.2-112.67-.19-.35-.41-.78-.62-1.2a29.25,29.25,0,0,1-2.92-12.82A29.64,29.64,0,0,1,650.21,339l.06-.07c.33-.41.67-.82,1-1.22h0a20.42,20.42,0,0,0-16.12-33H64.82a20.43,20.43,0,0,0-16.12,33C49.07,338.09,49.43,338.51,49.76,338.93Z" fill="#750511"/>
      <path d="M653,339.16s-59,9.56-154.44,9.56c148.32,18.75,148.32,33.53,160.25,45.46C645.9,357.55,640.39,366,653,339.16Z" fill="#750511"/>
      <path d="M47,339.16s59,9.56,154.44,9.56C53.15,367.47,53.15,382.25,41.22,394.18,54.14,357.55,59.65,366,47,339.16Z" fill="#750511"/>
      <path d="M243,349c8.28.11,16.57-.08,24.86-.17l24.86-.21,49.73-.2,49.73.19,24.86.21c8.29.09,16.58.29,24.86.18-16.55,1-33.15,1.06-49.72,1.36s-33.16.24-49.73.33c-16.58-.1-33.16-.1-49.73-.33S259.5,349.94,243,349Z" fill="#750511"/>
      <path d="M4.29,482.17c.8.35,1.76.69,2.67,1s1.86.66,2.8,1c1.88.63,3.76,1.26,5.69,1.79s3.83,1.14,5.76,1.66L27,489.12c3.87,1,7.8,1.85,11.72,2.74,2,.43,3.91.89,5.88,1.3l5.92,1.15c4,.74,7.88,1.58,11.85,2.24l11.9,2,6,1,6,.85,12,1.69c2,.28,4,.58,6,.83l6,.71,12,1.43c8,1,16,1.74,24,2.53,16,1.71,32.11,2.78,48.18,4.08,8,.6,16.09,1,24.14,1.51l12.07.73c4,.25,8,.5,12.08.64l24.17,1c8.06.34,16.11.75,24.17.91l24.18.67c8.06.19,16.12.52,24.19.57l48.39.62-48.39-.05c-8.07,0-16.13-.18-24.2-.28l-24.2-.38c-8.07-.07-16.13-.39-24.19-.63l-24.19-.76c-4-.1-8.06-.3-12.09-.5l-12.09-.58c-8.06-.42-16.12-.72-24.18-1.23-16.1-1.11-32.22-2-48.3-3.52-8-.7-16.09-1.32-24.11-2.25l-12-1.29-6-.64c-2-.23-4-.51-6-.76l-12-1.56-6-.78-6-.92-12-1.85c-4-.62-8-1.41-11.95-2.11l-6-1.08c-2-.38-4-.83-5.95-1.24-4-.85-7.94-1.61-11.87-2.63l-5.92-1.44c-2-.5-3.92-1.08-5.89-1.62s-3.92-1.14-5.87-1.77c-1-.31-2-.61-2.93-1s-1.93-.68-3-1.13Z" fill="#750511"/>
      <path d="M697.1,485.65l-.48.51-.38.33-.76.64c-.5.37-1,.7-1.51,1.05a12.62,12.62,0,0,1-1.53.94l-1.54.86a34.69,34.69,0,0,1-3.13,1.52c-1.05.46-2.08,1-3.16,1.38-2.14.77-4.25,1.66-6.41,2.34l-6.49,2q-13.07,3.51-26.35,5.71L638.73,504c-2.21.36-4.42.73-6.65,1l-13.32,1.67c-4.45.5-8.9.86-13.35,1.29l-6.68.63c-2.22.21-4.46.31-6.69.48-8.92.57-17.83,1.27-26.76,1.54s-17.85.8-26.78.89l-13.39.25-6.69.13h-6.7l-26.78,0,26.77-.53,6.69-.13,6.69-.27,13.37-.54c8.92-.27,17.82-.9,26.72-1.45s17.78-1.34,26.67-2.1c2.22-.21,4.44-.35,6.66-.62l6.64-.77c4.42-.53,8.86-1,13.27-1.57l13.21-1.94c2.21-.29,4.39-.71,6.58-1.11l6.56-1.2c8.73-1.64,17.36-3.71,25.84-6.18l6.27-2.07c2.08-.7,4.07-1.59,6.11-2.37,1-.38,2-.91,2.95-1.36a31.17,31.17,0,0,0,2.86-1.46l1.37-.8a10,10,0,0,0,1.3-.84l1.22-.88.51-.45.25-.22.09-.1Z" fill="#750511"/>
      <path d="M623.41,573.43c-9.85,2.81-19.81,5.23-29.82,7.39s-20.09,4.06-30.2,5.72-20.29,3-30.5,3.9a276.07,276.07,0,0,1-30.71,1.18c10.22-.66,20.38-1.74,30.52-2.94,5.06-.7,10.13-1.29,15.18-2.08s10.1-1.52,15.15-2.31c10.09-1.61,20.15-3.4,30.21-5.21S613.36,575.38,623.41,573.43Z" fill="#750511"/>
      <path d="M559.66,601.58c-6.78,1.5-13.62,2.7-20.49,3.67s-13.77,1.73-20.69,2.32-13.86.89-20.81.92a166.68,166.68,0,0,1-20.8-1.14c6.94,0,13.85-.32,20.75-.63s13.79-.85,20.68-1.41,13.77-1.19,20.66-1.81Z" fill="#750511"/>
      <path d="M186.12,618.33a19.69,19.69,0,0,1-5.21.68c-1.75.07-3.51.09-5.26.09-3.51,0-7-.2-10.5-.46-7-.51-13.95-1.41-20.86-2.6-3.45-.63-6.89-1.32-10.31-2.12s-6.81-1.71-10.16-2.78a81.34,81.34,0,0,1-19.21-8.5,86.4,86.4,0,0,0,9.72,3.83c3.29,1.11,6.63,2.08,10,3,6.72,1.73,13.52,3.17,20.37,4.36s13.73,2.22,20.63,3.08c3.45.41,6.91.81,10.38,1.12,1.73.17,3.47.32,5.21.41.87,0,1.74.08,2.61.09A10.05,10.05,0,0,0,186.12,618.33Z" fill="#750511"/>
      <path d="M683.4,447.67a55.9,55.9,0,0,1-8.5,3.6c-1.43.52-2.89.93-4.33,1.4s-2.92.82-4.38,1.2a154.71,154.71,0,0,1-17.8,3.37c-6,.86-12,1.29-18,1.66-3,.14-6,.2-9,.31h-9l9-.28c3-.2,6-.36,9-.59,6-.55,12-1.17,17.87-2.21a153.28,153.28,0,0,0,17.52-3.89c1.43-.42,2.85-.88,4.28-1.32s2.82-1,4.21-1.51a54.55,54.55,0,0,0,8-3.67Z" fill="#750511"/>
      <path d="M23.94,537.69C34.15,541,44.56,543.9,55,546.54s21,4.93,31.59,6.93,21.27,3.58,32,4.83,21.5,1.84,32.3,2.07c-10.79,0-21.6-.45-32.36-1.5S97,556.45,86.4,554.59s-21.26-3.94-31.79-6.39-21-5.18-31.37-8.35Z" fill="#750511"/>
      <path d="M609.78,302.53l-4-2.13c.5-.95,50.41-95.2,50.41-115.68,0-11-15.33-47.56-42.06-100.36-.17-.31-.37-.69-.55-1.08a26.35,26.35,0,0,1-2.63-11.54A26.68,26.68,0,0,1,616.85,55l.05-.07c.29-.37.6-.73.92-1.09h0a18,18,0,0,0-14.19-29H95a18,18,0,0,0-14.18,29c.33.37.64.74.94,1.12l0,0A26.68,26.68,0,0,1,87.7,71.72a26.33,26.33,0,0,1-2.63,11.54c-.19.39-.39.78-.59,1.15-26.7,52.74-42,89.32-42,100.3,0,20.48,49.91,114.73,50.41,115.68l-4,2.13c-2.08-3.92-50.95-96.21-50.95-117.81,0-16,26.66-71,42.55-102.42.2-.37.36-.69.52-1a22.07,22.07,0,0,0-2.67-23.35l-.1-.12-.16-.2H76.83V56.1A22.52,22.52,0,0,1,95,20.26H603.64a22.52,22.52,0,0,1,18.19,35.83V57.6h-1.24l-.17.21-.1.12a22.07,22.07,0,0,0-2.67,23.35c.15.32.32.64.49.95,15.92,31.45,42.58,86.5,42.58,102.48C660.73,206.32,611.86,298.61,609.78,302.53Z" fill="#750511"/>
      <path d="M619.55,55.32S567,63.85,481.82,63.85c132.27,16.72,132.27,29.9,142.91,40.54C613.21,71.72,608.29,79.24,619.55,55.32Z" fill="#750511"/>
      <path d="M79.12,55.32s52.6,8.52,137.73,8.52C84.59,80.57,84.59,93.75,73.95,104.39,85.47,71.72,90.38,79.24,79.12,55.32Z" fill="#750511"/>
      <path d="M253.85,64.06c7.38.11,14.78-.09,22.17-.18l22.17-.21c14.78-.14,29.57-.1,44.35-.2l44.35.2,22.17.21c7.39.09,14.79.29,22.17.18-14.76,1-29.56,1.06-44.34,1.35s-29.57.24-44.35.33c-14.79-.1-29.57-.1-44.35-.33S268.61,65,253.85,64.06Z" fill="#750511"/>
      <path d="M41.11,182.64c.7.31,1.56.61,2.36.92s1.65.59,2.49.87c1.67.56,3.35,1.12,5.07,1.6s3.41,1,5.13,1.48l5.19,1.33c3.44.93,7,1.65,10.44,2.45,1.75.38,3.49.8,5.24,1.16l5.28,1c3.52.66,7,1.41,10.56,2l10.61,1.77,5.31.88,5.33.76,10.66,1.52c28.47,3.83,57.1,6.48,85.77,8.6,7.17.54,14.35.9,21.52,1.36l10.76.65c3.59.22,7.18.45,10.77.58l21.55.95c7.18.31,14.37.68,21.56.83l21.57.61c7.19.18,14.38.47,21.57.52l43.15.58H339.84c-7.19,0-14.39-.15-21.58-.24l-21.58-.32c-7.19-.06-14.38-.33-21.58-.55l-21.57-.66c-3.6-.09-7.19-.26-10.78-.44L232,212.35c-7.19-.37-14.38-.63-21.56-1.08-28.73-1.75-57.45-4-86.06-7.49l-10.72-1.38-5.36-.69-5.35-.82-10.69-1.64c-3.56-.55-7.11-1.26-10.66-1.88l-5.33-1c-1.77-.34-3.54-.73-5.31-1.1-3.53-.76-7.08-1.44-10.6-2.34L55,191.69c-1.76-.45-3.5-1-5.26-1.44s-3.5-1-5.24-1.58c-.87-.28-1.74-.54-2.62-.87s-1.72-.6-2.68-1Z" fill="#750511"/>
      <path d="M659.05,186.12l-.45.48-.34.3-.69.59c-.46.34-.91.63-1.36.95a11.35,11.35,0,0,1-1.37.84l-1.38.77c-.91.55-1.87.91-2.8,1.36s-1.87.9-2.83,1.23c-1.91.69-3.81,1.48-5.74,2.08l-5.8,1.77q-11.68,3.12-23.53,5.07l-5.92.95c-2,.32-3.95.65-5.93.87L589,204.85c-4,.44-7.94.76-11.91,1.14l-6,.55c-2,.19-4,.27-6,.42-8,.5-15.9,1.11-23.87,1.34s-15.92.7-23.88.76l-11.94.21-6,.1-6,0-23.88-.06,23.87-.51,6-.13,6-.25,11.93-.49c8-.25,15.89-.83,23.83-1.33s15.86-1.22,23.78-1.9c2-.19,4-.32,5.93-.56l5.92-.69c3.94-.48,7.89-.89,11.83-1.42l11.77-1.75c2-.26,3.91-.64,5.86-1l5.84-1.08c7.78-1.47,15.47-3.33,23-5.53l5.58-1.85c1.85-.63,3.62-1.42,5.44-2.12.92-.34,1.74-.81,2.62-1.21a27.64,27.64,0,0,0,2.54-1.3l1.21-.71a8.78,8.78,0,0,0,1.15-.74l1.07-.78.44-.39.22-.19.06-.06Z" fill="#750511"/>
      <path d="M641.34,234.35c-8.95,1.86-18,3.37-27,4.61s-18.14,2.25-27.25,3-18.25,1.24-27.39,1.35a238.77,238.77,0,0,1-27.39-1.16c9.14.07,18.24-.22,27.34-.61,4.55-.28,9.1-.46,13.64-.82s9.08-.66,13.62-1C596,239,605,238.1,614.12,237.2Z" fill="#750511"/>
      <path d="M162.59,164.65c-6.19,0-12.38-.27-18.55-.78s-12.32-1.2-18.46-2.06-12.23-2-18.28-3.36a142.88,142.88,0,0,1-17.84-5.21c6.06,1.3,12.12,2.39,18.18,3.47s12.16,2,18.26,2.85,12.21,1.71,18.32,2.55S156.46,163.78,162.59,164.65Z" fill="#750511"/>
      <path d="M646.71,152.2a49.9,49.9,0,0,1-7.6,3.21c-1.28.46-2.58.83-3.87,1.24l-3.91,1.06a138.06,138.06,0,0,1-15.89,3c-5.33.75-10.7,1.13-16.06,1.45-2.68.12-5.37.17-8,.26l-8,0,8-.27c2.67-.18,5.35-.33,8-.54,5.33-.5,10.66-1.07,15.93-2a136.67,136.67,0,0,0,15.61-3.5l3.81-1.18c1.25-.45,2.52-.86,3.74-1.35a48.55,48.55,0,0,0,7.1-3.28Z" fill="#750511"/>
      <path d="M58.58,232.26c9.1,3,18.38,5.56,27.69,7.92s18.71,4.41,28.16,6.21,19,3.21,28.52,4.33,19.17,1.66,28.8,1.88c-9.63,0-19.26-.38-28.86-1.31s-19.16-2.13-28.66-3.78-19-3.49-28.36-5.67-18.73-4.6-28-7.42Z" fill="#750511"/>
      <path d="M624.46,269s-1.52,31.07-263.69,31.07S75.11,271.29,75.11,271.29l15.75,30.17H607.77Z" fill="#750511"/>
    </g>
  </g>
</svg>
