<svg xmlns="http://www.w3.org/2000/svg" viewBox="0 0 700 700">
  <title>Artboard 2 copy 11</title>
  <g id="Midtones">
    <path d="M20.18,327.31s-7-7-3-12.5,9.5-.5,9.5-.5Z" fill="#f7982d"/>
    <path d="M60.18,264.81s-5-6.5.5-11,8.5.5,8.5.5Z" fill="#f7982d"/>
    <path d="M116.18,209.81l11.5-8.5s-4.5-6-10.5-2.5S116.18,209.81,116.18,209.81Z" fill="#f7982d"/>
    <path d="M180.18,170.31l12.5-6.5s-2.5-6.5-10.5-4S180.18,170.31,180.18,170.31Z" fill="#f7982d"/>
    <path d="M247.18,144.81l14-4s-4-7-9.5-5S247.18,144.81,247.18,144.81Z" fill="#f7982d"/>
    <path d="M609.81,261.11s9.62-2.33,12.24,3.94-4.52,8.37-4.52,8.37Z" fill="#f7982d"/>
    <path d="M650.54,321.32s8.15-.89,9.13,6.15-4.85,7-4.85,7Z" fill="#f7982d"/>
    <path d="M678.18,392.23l1.27,14.24s7.47-.72,7.6-7.66S678.18,392.23,678.18,392.23Z" fill="#f7982d"/>
    <path d="M690.42,469.64l-1,14.06s6.85,1.25,8.88-6.88S690.42,469.64,690.42,469.64Z" fill="#f7982d"/>
    <path d="M685.68,542.48l-2,15.48s8.06.23,9.21-5.51S685.68,542.48,685.68,542.48Z" fill="#f7982d"/>
    <path d="M321.18,133.81l14.5-.5s1.5-8-7-8S321.18,133.81,321.18,133.81Z" fill="#f7982d"/>
    <path d="M387.68,136.31l15.5,2.5s-1-8.5-5.5-8.5S387.68,136.31,387.68,136.31Z" fill="#f7982d"/>
    <path d="M445.18,150.31l14,5s1-8-4.5-10.5S445.18,150.31,445.18,150.31Z" fill="#f7982d"/>
    <path d="M499.18,174.31l13,5s3-9.5-3.5-10S498.68,171.31,499.18,174.31Z" fill="#f7982d"/>
    <path d="M555.68,208.81l10.5,10s5.5-6.5.5-11.5S555.68,208.81,555.68,208.81Z" fill="#f7982d"/>
    <path d="M92.68,378.81l215.5,179.5-183.5-225.5S94.68,367.81,92.68,378.81Z" fill="#c45937"/>
    <path d="M68.18,357.31s23-39,35.5-49.5l-38-46a230,230,0,0,0-40.5,59.5Z" fill="#f7982d"/>
    <path d="M151,260.14s38.67-32,52.67-34.67L187,168.14s-56.67,26-64.67,38.67C131,224.14,151,260.14,151,260.14Z" fill="#f7982d"/>
    <path d="M167,290.14s35.33-28.67,48-31.33c10.67,30.67,92.67,293.33,92.67,293.33l.5,6.17Z" fill="#c45937"/>
    <path d="M267.68,239.48a197,197,0,0,1,57.33-6L310.18,553.81Z" fill="#c45937"/>
    <path d="M593.34,593.81,307.61,560.33l293.06-8S599.24,580,593.34,593.81Z" fill="#c45937"/>
    <path d="M602.34,496.81s-3.73-48-10-59.33C562.17,449.47,311,560.81,311,560.81Z" fill="#c45937"/>
    <path d="M573,382.81C564,365.15,556.56,348.73,543.39,335L311,560.81Z" fill="#c45937"/>
    <path d="M254.68,143.48c26-6.35,50.91-10,74-9.33l-2.33,61.67a232.09,232.09,0,0,0-63.67,7.33Z" fill="#f7982d"/>
    <polygon points="382.68 202.48 430.01 215.48 453.01 151.81 395.34 138.81 382.68 202.48" fill="#f7982d"/>
    <path d="M476,235.48c15.84,6.88,31.6,17.59,47.33,30L561,214.81a418.67,418.67,0,0,0-56-38Z" fill="#f7982d"/>
    <path d="M570,309.48l44-42a363.29,363.29,0,0,1,37.33,62.67l-48,31.67C592.75,342.32,581.77,324.38,570,309.48Z" fill="#f7982d"/>
    <path d="M624.68,422.48l53.67-24A314.84,314.84,0,0,1,689,477.81l-55.67,11.67Q631.67,451.53,624.68,422.48Z" fill="#f7982d"/>
    <path d="M632,551.14l51.67-1-14,52.33-45-6A299.87,299.87,0,0,0,632,551.14Z" fill="#f7982d"/>
    <path d="M375,239.48a151.72,151.72,0,0,1,42.67,11.33l-108,314.67Z" fill="#c45937"/>
    <path d="M459,268.14a169.56,169.56,0,0,1,43.33,27.33L312.6,556.68Z" fill="#c45937"/>
  </g>
  <g id="Main">
    <g>
      <path d="M671.24,604.43,309.92,562.72l-.36-.22-309-191,.5-1.44a355.09,355.09,0,0,1,689.69,93.23,352.81,352.81,0,0,1-19,139.69Zm-360-45.38,357.45,41.26A351.3,351.3,0,0,0,75.53,251.24,348.91,348.91,0,0,0,5.11,369.89Z" fill="#750511"/>
      <path d="M468.34,580.38l-1.89-.13.43-6.32A165,165,0,0,0,176.44,478.1L175,476.87a166.89,166.89,0,0,1,293.78,97V574Z" fill="#750511"/>
      <path d="M626.3,595.12l-1.84-.47c.18-.71,18-72.33,2.81-154.37-8.91-48.14-27.28-90.4-54.6-125.62-34.15-44-82.46-77.11-143.6-98.34s-119.22-24.93-172.61-11c-42.72,11.14-82.57,33.53-118.46,66.55C76.84,328.13,48.07,396.69,47.79,397.38L46,396.65c.28-.69,29.18-69.59,90.63-126.15,36.12-33.24,76.24-55.79,119.27-67,53.78-14,112.24-10.32,173.75,11s110.13,54.67,144.51,99c27.5,35.47,46,78,55,126.47C644.4,522.44,626.48,594.4,626.3,595.12Z" fill="#750511"/>
      <path d="M595.1,592.61l-1.84-.47c.16-.64,16.21-65.14,2.53-139-8-43.35-24.57-81.41-49.17-113.13-30.75-39.64-74.26-69.44-129.33-88.56S309.9,229,261.81,241.52c-38.47,10-74.37,30.21-106.68,60-55.07,50.69-80.95,112.39-81.2,113l-1.75-.72c.26-.62,26.3-62.71,81.67-113.68,32.55-30,68.71-50.28,107.49-60.4,48.47-12.65,101.15-9.3,156.59,9.95s99.25,49.27,130.23,89.22c24.79,32,41.45,70.31,49.53,114C611.41,527.12,595.26,592,595.1,592.61Z" fill="#750511"/>
      <polygon points="309.95 561.61 22.73 320.54 23.95 319.09 303.43 553.67 64.3 261.07 65.77 259.87 311.3 560.29 309.95 561.61" fill="#750511"/>
      <polygon points="309.72 561.33 121.15 205.37 122.83 204.48 306.5 551.21 184.59 165.5 186.4 164.92 311.46 560.6 309.72 561.33" fill="#750511"/>
      <polygon points="309.62 561.01 253.69 144.15 255.57 143.89 310.07 550.14 328.07 133.66 329.97 133.74 311.51 560.93 309.62 561.01" fill="#750511"/>
      <polygon points="311.46 561.2 309.63 560.7 394.66 137.04 396.52 137.41 314.23 547.43 451.04 153.47 452.83 154.09 311.46 561.2" fill="#750511"/>
      <g>
        <polygon points="310.3 561.73 310.06 559.86 688.94 476.28 689.35 478.13 320.34 559.54 685.06 548.67 685.12 550.57 310.3 561.73" fill="#750511"/>
        <polygon points="310.65 561.65 309.74 560 653.12 327 654.18 328.57 319.45 555.7 678.49 397.44 679.26 399.18 310.65 561.65" fill="#750511"/>
        <polygon points="310.93 561.47 309.5 560.23 559.78 213.54 561.32 214.65 317.31 552.65 611.87 267.63 613.19 268.99 310.93 561.47" fill="#750511"/>
        <rect x="192.14" y="367.25" width="432.11" height="1.9" transform="translate(-104.98 565.28) rotate(-63.06)" fill="#750511"/>
      </g>
      <g>
        <path d="M19.19,328.31a9,9,0,1,1,8-16.19l-1.68,3.41a5.22,5.22,0,0,0-4.61,9.37Z" fill="#750511"/>
        <path d="M58.57,266a9,9,0,0,1,11.92-13.54L68,255.29a5.22,5.22,0,0,0-6.9,7.84Z" fill="#750511"/>
        <path d="M114.48,210.9a9,9,0,0,1,14-11.35l-3,2.39a5.22,5.22,0,1,0-8.12,6.57Z" fill="#750511"/>
        <path d="M177.55,169.76a9,9,0,0,1,16.39-7.53l-3.45,1.58a5.22,5.22,0,0,0-9.49,4.36Z" fill="#750511"/>
        <path d="M244.71,143.83a9,9,0,1,1,17.56-4.11l-3.7.86A5.22,5.22,0,0,0,248.41,143Z" fill="#750511"/>
        <path d="M319.74,132.2a9,9,0,0,1,8.93-9.1h.09a9,9,0,0,1,9,8.93l-3.8,0a5.23,5.23,0,0,0-5.22-5.17h-.05a5.22,5.22,0,0,0-5.17,5.27Z" fill="#750511"/>
        <path d="M404.58,138.6l-3.74-.63a5.22,5.22,0,0,0-10.3-1.73l-3.74-.63a9,9,0,0,1,17.79,3Z" fill="#750511"/>
      </g>
      <g>
        <path d="M685,559.14a9,9,0,0,1-1.89-.2l.8-3.71A5.22,5.22,0,1,0,686.06,545l.8-3.71A9,9,0,0,1,685,559.14Z" fill="#750511"/>
        <path d="M690.8,485.61l-.2-3.79a5.22,5.22,0,1,0-.56-10.43l-.2-3.79a9,9,0,1,1,1,18Z" fill="#750511"/>
        <path d="M681.06,407.74l-.84-3.7a5.22,5.22,0,1,0-2.3-10.19l-.84-3.7a9,9,0,0,1,4,17.59Z" fill="#750511"/>
        <path d="M657.05,336.36,655.33,333a5.22,5.22,0,1,0-4.75-9.31l-1.72-3.38a9,9,0,1,1,8.19,16.07Z" fill="#750511"/>
        <path d="M620.42,274.39l-2.36-3a5.22,5.22,0,0,0-6.51-8.17l-2.36-3a9,9,0,0,1,11.24,14.11Z" fill="#750511"/>
        <path d="M568.75,218.76l-3-2.38a5.22,5.22,0,0,0-8.14-6.55l-3-2.38a9,9,0,1,1,14,11.31Z" fill="#750511"/>
        <path d="M514,179.89l-3.33-1.83a5.22,5.22,0,1,0-9.15-5l-3.33-1.83A9,9,0,0,1,514,179.89Z" fill="#750511"/>
      </g>
      <path d="M461.46,154.82l-3.61-1.18a5.22,5.22,0,1,0-9.92-3.26l-3.61-1.18a9,9,0,0,1,17.14,5.62Z" fill="#750511"/>
    </g>
  </g>
</svg>
