<svg xmlns="http://www.w3.org/2000/svg" viewBox="0 0 700 700">
  <title>Artboard 3 copy 2</title>
  <g id="Midtones">
    <path d="M181,418.88s20.67,10,71.33,10,68-16.67,68-21.33l8.67,8.67s20,100.67,20,130.67c-15.33,22-110.67,84.67-110.67,84.67s-45.33-28-71.33-62l-8-19.33S169.65,434.22,181,418.88Z" fill="#f7982d"/>
    <path d="M295,305.55s9.33,58-8.67,80.67-80.67,37.33-100.67,24.67l-4.67,8s48.67,16,80,10.67,59.33-8,59.33-22c-3.33-15.33-20-99.33-20-99.33Z" fill="#f7982d"/>
    <path d="M300.49,289.72s-3-52.5-16.5-69.5c18,21,13,18.5,25,24.5S300.49,289.72,300.49,289.72Z" fill="#f7982d"/>
    <path d="M294.74,235.72c11.5,4.75,12-.59,11.75-8l18.25,10.5-5.12,8.88L307,251.72Z" fill="#f7982d"/>
    <path d="M182.32,319.22s3.33,43.33-15.33,33.67c3.67,12,18,21.33,18,21.33S188,333.55,182.32,319.22Z" fill="#f7982d"/>
    <path d="M278.74,349.47C288.79,332.64,296,330.41,301,339.22L293.74,306Z" fill="#f7982d"/>
    <path d="M162.32,259.88c4.45,2.36,9.3,7,12.67,11.83-3.8-7.56-5.76-16.35-7.67-25.17Z" fill="#f7982d"/>
    <path d="M179.32,237.38s20.17,14.5,32.17,13.17a14.7,14.7,0,0,0,4.83-.33v-3.67l-34.67-13Z" fill="#f7982d"/>
    <path d="M227,255s7.67,1.5,10-.67c-1.33-3-1.67-3.83-1.67-3.83H227Z" fill="#f7982d"/>
    <path d="M244.32,250.38s20.5-9.17,20.5-10,6.67-27,6.67-27l-10.17,24.17-19,8.17Z" fill="#f7982d"/>
    <polygon points="216.32 264.05 225.15 250.72 215.65 249.22 216.32 264.05" fill="#f7982d"/>
    <polygon points="235.32 250.55 243.49 263.05 242.32 245.72 235.32 250.55" fill="#f7982d"/>
    <path d="M183.65,232.38s5.67,1,5.17-7c2.83,3.83,10,12,27.67,15.67l-2.67,6.67-29.17-11.5Z" fill="#f7982d"/>
    <polygon points="241.65 239.88 264.32 223.22 260.49 236.22 242.32 245.72 241.65 239.88" fill="#f7982d"/>
    <path d="M220,241.38a21.92,21.92,0,0,0,8.17,1.67,29.08,29.08,0,0,0,9.17-1.83s3.5,6.5-.5,8.17-11.67,1.33-11.67,1.33l-8.83-4.17Z" fill="#f7982d"/>
    <path d="M170,618.22s19-34,18.5-10.5l1.5-16-20.5-19Z" fill="#f7982d"/>
    <path d="M185.49,625.72s9-15.5,19-7,29,19.5,31.5,18,46-26.5,46-26.5v-7l-43.67,28.33L190,591.72S189.49,619.22,185.49,625.72Z" fill="#f7982d"/>
    <path d="M269.49,617.22s14-1,15,24.5l-2.5-38.5Z" fill="#f7982d"/>
    <polygon points="282.99 616.72 350.99 567.72 347.99 558.22 281.99 603.22 282.99 616.72" fill="#f7982d"/>
    <path d="M265.32,236.55c3.57-6.44,6.16-7.61,7.67-3l-1.5-20.17Z" fill="#f7982d"/>
    <path d="M259,657.55s-6.58,15.67,15.94,11.67c-39.84,11.67-44,12.67-44,12.67Z" fill="#f7982d"/>
    <path d="M445,306.22s59,1.5,54,18l5.5-26Z" fill="#f7982d"/>
    <path d="M498,328.72s-3.17,13.67-11.67,14.17S384,340.22,379.49,311.72c-4.5,16.5-5,25.5-5,25.5l36.5,19,76.5,4s25-10.5,25-13.5-8.5-45-8.5-45Z" fill="#f7982d"/>
    <path d="M462.49,217.72s-12,58-10.5,67l5.5-2-.5-12.5Z" fill="#f7982d"/>
    <path d="M404.49,200.22s13,46.5,9,67-2.5,9.5-2.5,9.5C412,255.45,408.42,228.09,404.49,200.22Z" fill="#f7982d"/>
    <polygon points="381.49 262.21 386.49 289.71 379.49 311.71 381.49 262.21" fill="#f7982d"/>
    <path d="M448,298.72s94.5-22,93.5-46.5l3.5,17.5s-5.5,12.5-13,12.5-82,23-82,23Z" fill="#f7982d"/>
    <path d="M501.49,221.72s10.5,30.5,17.5,30l-13.5,8Z" fill="#f7982d"/>
    <path d="M499.32,170.22s19.67-15,20.67-12l-2.33-7.67S508,155.55,499.32,170.22Z" fill="#f7982d"/>
    <path d="M423.32,177.55s3.67,1.67,6,1,64-41,74.67-38l-6.33-7.67Z" fill="#f7982d"/>
    <path d="M473,143.22s-28.67,7.33-53.33,0c12.33,11.33,1,30,1,30l5.33,2Z" fill="#f7982d"/>
    <path d="M402.32,111.22s-3.33,10.67,32.33,13.67c-26.33,2.67-31.67,4-30.67,17.67l-7.67-17.67Z" fill="#f7982d"/>
    <path d="M446.24,125.47s40.5,3,43.75-.75c1,6-1.25,11.75-8,13.5S480.49,133.72,446.24,125.47Z" fill="#f7982d"/>
    <polygon points="398.99 100.72 428.49 69.72 428.99 97.72 419.99 103.72 398.99 100.72" fill="#f7982d"/>
    <path d="M464.49,276.72s29.5-38.5,32.5-55c-1.5,38-2.5,44-2.5,44S469,275.72,464.49,276.72Z" fill="#f7982d"/>
  </g>
  <g id="Darker_Mids" data-name="Darker Mids">
    <path d="M235.65,428.88s84-5.33,78-41.33c6,8,6.67,19.33,6.67,19.33s-6.21,8-8.67,12C307,426.38,235.66,432.56,235.65,428.88Z" fill="#c45937"/>
    <path d="M286.24,326.72c2-4.95,15.67-4.35,14.08,3.5,0,4-4-26-4-26S295,300.22,286.24,326.72Z" fill="#c45937"/>
    <path d="M299.74,358.22s8.5-11.75,9-5.25l-5-27.25Z" fill="#c45937"/>
    <path d="M171,363.72s16.5,4,16.5-8.5l.5,19h0Z" fill="#c45937"/>
    <polygon points="242.49 240.97 261.49 232.22 259.24 236.47 242.99 244.22 242.49 240.97" fill="#c45937"/>
    <polygon points="185.24 234.47 215.74 243.47 212.99 245.47 186.74 237.47 185.24 234.47" fill="#c45937"/>
    <path d="M219.49,244.47c6.25,2.44,12.34,2.41,18.25-.5l-4.25,7.75-12.75-1.5Z" fill="#c45937"/>
    <path d="M322.49,531.72s19.5-36,23.5-15c-4-46.5-7-53.5-7-53.5C337.27,488.6,332.29,511.78,322.49,531.72Z" fill="#c45937"/>
    <path d="M281,530.72c-.9,3.49-41.05,3.33-70.5-16.25" fill="#c45937"/>
    <path d="M251.49,664.72s-1,10.5,2.5,10l-24,7Z" fill="#c45937"/>
    <path d="M169.49,591.72s19.5-1.5,20,5.5l-20.5-24Z" fill="#c45937"/>
    <polygon points="188.99 600.88 230.99 630.88 190.32 592.88 188.99 600.88" fill="#c45937"/>
    <path d="M304.65,243.22c7.13.79,13.51-.34,19-3.67l-3,9.67-15-2.67Z" fill="#c45937"/>
    <path d="M198.74,587s2.25,10.25-6,8.75l14,12.75Z" fill="#c45937"/>
    <path d="M474,304.55s27.33-3.33,27,10.33l8,23.33-4.33-39.33S477.65,302.22,474,304.55Z" fill="#c45937"/>
    <path d="M377.32,324.55s44,26.33,57.67,27.33l-32-.67-29.33-15.67Z" fill="#c45937"/>
    <polygon points="380.99 285.55 384.32 295.88 380.99 306.55 380.99 285.55" fill="#c45937"/>
    <polygon points="474.32 272.21 496.99 241.22 493.99 263.21 474.32 272.21" fill="#c45937"/>
    <path d="M444,147s11.75,3.5,4,13.25l23-16h0C465.67,145.37,455.44,146.21,444,147Z" fill="#c45937"/>
    <path d="M397.24,129.72s1-11.5,16.75-7.25l-9.5-5.25-1.75-5.5S392.74,115.22,397.24,129.72Z" fill="#c45937"/>
    <polygon points="410.99 100.55 423.65 90.88 423.65 101.22 420.32 103.22 410.99 100.55" fill="#c45937"/>
    <polygon points="472.32 359.55 508.99 338.21 510.99 346.21 494.99 357.55 472.32 359.55" fill="#c45937"/>
  </g>
  <g id="Main">
    <g>
      <path d="M445.46,306.52l1.4-21,56.3-27.69,2,4-54,26.54-.84,12.67c25.4-4.66,83.74-17.38,90.46-28.19,6.32-10.18-10.83-72.47-18.16-99.07-2.94-10.67-4.88-17.72-5.17-20.06-.38-3-8-11.64-26.88-21.86l2.14-3.95c4.66,2.53,28,15.62,29.19,25.25.25,2,2.37,9.7,5,19.43C531.4,188.8,537.5,211,541.75,230.9c7,32.64,5,41,2.84,44.36-9.29,15-87.43,29.18-96.31,30.75Z" fill="#750511"/>
      <path d="M471.58,360.22c-42.82,0-95.54-21.66-98.59-22.93l-1.77-.74.46-1.87c3.84-15.65,7.87-36.57,5-59.58l0-.27,0-.27c.07-.58,6.47-58.16,1-86.09-4.42-22.54.51-51,2.13-59.15l4.4.87c-1.58,8-6.39,35.68-2.13,57.42,5.48,27.92-.37,82.36-.91,87.19,2.8,22.71-.89,43.31-4.66,59,13.54,5.34,100.42,38.09,133,11.63a505,505,0,0,0-8.8-53.51l4.37-1a510.08,510.08,0,0,1,9,55.24l.13,1.16-.88.77C503.16,357,488.1,360.22,471.58,360.22Z" fill="#750511"/>
      <rect x="500.36" y="220.65" width="4.49" height="37.51" transform="translate(-36.68 101.21) rotate(-11.1)" fill="#750511"/>
      <path d="M514.45,554.9l-21.31-5L489.6,447.38l-51.11-42.91L394.61,569.11l-19.07-3.93,6.17-224.36,40.38,10.1,2.18,5.17-1.59-5.41s61.61,17.14,81.88,1.54l26.18,84.69Z" fill="#750511"/>
      <path d="M439.85,306.44a7.79,7.79,0,0,1-6.4-2.71c-2.28-2.81-2.55-7.37-.82-13.95a6.4,6.4,0,0,1,3.6-4.38c5-2.26,12.9,1.56,13.78,2l-2,4c-2.21-1.1-7.54-3-9.93-1.93a1.91,1.91,0,0,0-1.11,1.43c-1.27,4.81-1.28,8.45,0,10,.23.29.95,1.16,3.36,1,5.38-.27,6.16-2.41,6.17-2.43a.57.57,0,0,0,0,.12l4.4.88c-.11.56-1.35,5.47-10.31,5.91Z" fill="#750511"/>
      <path d="M452.33,23.34l-1.55-4.21c2.31-.85,7.36-3.42,8.21-5.9a1.91,1.91,0,0,0-.28-1.79c-2.63-4.22-5.27-6.73-7.24-6.87-.37,0-1.5-.11-3.07,1.73-3.49,4.1-2.47,6.14-2.46,6.16a.51.51,0,0,0-.07-.1l-3.66,2.6c-.33-.46-3.05-4.73,2.77-11.56C447,1,449.31-.1,451.82.09c3.61.27,7.12,3.2,10.71,9a6.4,6.4,0,0,1,.71,5.62C461.46,19.86,453.26,23,452.33,23.34Z" fill="#750511"/>
      <path d="M387.82,592.35c-2.65,0-6.26-.68-11-2.87l-.91-.42-.29-1c-.07-.24-1.78-5.93,1-10.13,1.17-1.76,2.27-11.64,2.62-19.79l.06-1.52,1.44-.5c.36-.13,8.66-2.85,14.93,10,5.1-1.9,11.86-1.24,16.56.64,2.13.85,4.81,2.38,5.45,4.78,1.68,6.33-8.34,11.21-17.19,15.51a48.69,48.69,0,0,0-6.75,3.63C393.28,591.08,391.44,592.35,387.82,592.35Zm-8.11-6.52c3.78,1.56,9.35,2.9,11.23,1.37a46.29,46.29,0,0,1,7.62-4.19c4.65-2.26,15.55-7.57,14.81-10.33-.09-.2-1-1.22-3.79-2.13-4.22-1.38-10.32-1.66-13.81.48l-2.23,1.37-1-2.42c-3.24-7.79-6.9-9.4-8.87-9.64-.3,5.61-1.16,16.95-3.27,20.12C379.34,582,379.46,584.4,379.71,585.83Z" fill="#750511"/>
      <path d="M502.8,577.58c-2.65,0-6.26-.68-11-2.88l-.9-.42-.29-1c-.07-.24-1.78-5.93,1-10.13,1.17-1.76,2.27-11.64,2.62-19.79l.06-1.52,1.44-.5c.36-.13,8.66-2.85,14.93,10,5.09-1.9,11.86-1.24,16.56.64,2.13.85,4.81,2.38,5.45,4.78,1.68,6.33-8.34,11.21-17.19,15.51a48.67,48.67,0,0,0-6.75,3.63C508.27,576.31,506.42,577.58,502.8,577.58Zm-8.11-6.52c3.78,1.56,9.35,2.91,11.23,1.37a46.25,46.25,0,0,1,7.62-4.19c4.65-2.26,15.55-7.57,14.81-10.33-.09-.2-1-1.22-3.79-2.13-4.22-1.38-10.31-1.66-13.81.48l-2.23,1.37-1-2.42c-3.24-7.79-6.9-9.4-8.87-9.64-.3,5.61-1.16,16.95-3.27,20.12C494.32,567.27,494.44,569.63,494.69,571.06Z" fill="#750511"/>
      <path d="M422.78,103s-5.15-60.18-4.07-62.77,27.62-16.62,27.62-16.62C488.71,13.48,515.41,46.49,475,56.24c-4.4,5.09,0,20.86,0,20.86l-2.73,6.82s-5-10.55-7.5-17.73c-2.06-6-6.9.76-6.14,6.92a46.9,46.9,0,0,0,2,8.77L440.2,107.46C434.24,105,428.16,100.45,422.78,103Z" fill="#750511"/>
      <path d="M474.72,117.75l-1.53-4.22c3.61-1.31,13.34-5.88,15-11.22,3.32-11,2.38-30.08,1.68-44-.22-4.54-.42-8.46-.44-11.52,0-6-7.39-7.64-7.71-7.71l.91-4.39c3.88.79,11.23,4.34,11.29,12.07,0,3,.21,6.84.44,11.33.71,14.27,1.68,33.81-1.87,45.54C489.89,112.05,476.26,117.19,474.72,117.75Z" fill="#750511"/>
      <path d="M423.77,177.61c-6.07,0-14.63-14.74-18-21.07-2.73-5.09-15.92-30.83-9.62-41.06.92-3.62,5.67-13.35,30.17-16.27l.54-.06.51.19c4.59,1.73,9.4,3.78,14.06,5.77,14.27,6.07,29,12.36,40.71,11.29l.5,0,.47.17c10,3.67,10.8,8.4,10.79,12.94V131l-.87.68C492.43,132.16,433.2,177.61,423.77,177.61ZM399.69,118.3c-2.25,4.71.49,16.49,7.17,30.5,7.45,15.62,15,24.13,16.92,24.32,5.6,0,47.77-30.5,65.61-44.29,0-2.71-.51-5.29-7.39-7.92-12.69.94-27.77-5.47-42.35-11.68-4.44-1.89-9-3.84-13.38-5.5-24.62,3.08-25.88,13-25.89,13.05A2.29,2.29,0,0,1,399.69,118.3Z" fill="#750511"/>
      <path d="M473,118a6.79,6.79,0,0,1-4.89-2c-4.75-4.67-3.39-16.37-3.22-17.68l4.45.58c-.53,4.13-.48,11.56,1.92,13.91a2.5,2.5,0,0,0,2.35.64l.66,4.44A8.68,8.68,0,0,1,473,118Z" fill="#750511"/>
      <path d="M497.1,262.55c-.77-3.87-.12-36.42,0-40.12l4.49.09c-.29,13.78-.55,36.6,0,39.15Z" fill="#750511"/>
      <path d="M519.14,151.08a56.93,56.93,0,0,0-7.32,5.31,61.19,61.19,0,0,0-6.49,6.41,49,49,0,0,0-5.38,7.4,43.91,43.91,0,0,0-3.83,8.35,44.2,44.2,0,0,1,3.34-8.62,49.82,49.82,0,0,1,5-7.84,62.64,62.64,0,0,1,6.23-6.94,58.58,58.58,0,0,1,7.28-6Z" fill="#750511"/>
      <path d="M403.78,110.11a4.57,4.57,0,0,0-.18.91,5.89,5.89,0,0,0,0,1,6.27,6.27,0,0,0,.56,2.06,10.2,10.2,0,0,0,2.84,3.51,26,26,0,0,0,8.68,4.17l2.37.68c.79.22,1.61.35,2.42.53l2.43.5c.81.14,1.64.23,2.46.35,3.27.53,6.59.71,9.9,1-3.32-.1-6.65-.1-10-.45-.83-.07-1.66-.12-2.49-.22l-2.48-.37c-.82-.13-1.66-.22-2.48-.39l-2.45-.56A27.27,27.27,0,0,1,406,119a12,12,0,0,1-3.59-4,8.3,8.3,0,0,1-.89-2.67,6.85,6.85,0,0,1,.15-3Z" fill="#750511"/>
      <path d="M477.24,140.86a16.35,16.35,0,0,1-2.66,1.66l-1.35.65-1.37.57a42.67,42.67,0,0,1-5.63,1.74,61.65,61.65,0,0,1-11.55,1.58c-1.93.15-3.87.1-5.8.12S445,147,443.09,147l-5.76-.54-5.72-.78,5.75.5,5.75.26c1.92,0,3.84,0,5.75-.05s3.83-.15,5.72-.4a60.25,60.25,0,0,0,11.2-2.08,40.86,40.86,0,0,0,5.3-1.92l1.26-.6,1.22-.66a14.93,14.93,0,0,0,2.17-1.49Z" fill="#750511"/>
      <polygon points="496.81 221.53 490.89 188.02 501.17 220.46 496.81 221.53" fill="#750511"/>
      <path d="M379.76,129.48c.61-1.73,1.24-3.42,1.91-5.11.34-.84.68-1.68,1.05-2.51a18.14,18.14,0,0,1,1.25-2.42,17.61,17.61,0,0,0-.15,2.66c0,.89,0,1.77.06,2.66.08,1.77.18,3.56.33,5.31Z" fill="#750511"/>
      <path d="M405.8,102.76a3.65,3.65,0,0,0-1.39-.58,14.83,14.83,0,0,0-1.86-.3c-1.3-.13-2.65-.18-4-.21,1.16-.69,2.33-1.38,3.59-2a17.86,17.86,0,0,1,2-.85,8,8,0,0,1,2.5-.48Z" fill="#750511"/>
      <path d="M404.69,197c1.14,5.73,2,11.49,2.85,17.26s1.5,11.56,2.12,17.35,1.12,11.6,1.46,17.43a150.44,150.44,0,0,1,.29,17.51c-.59-5.81-1.37-11.57-2-17.35s-1.33-11.56-2-17.35-1.16-11.58-1.63-17.39S404.91,202.89,404.69,197Z" fill="#750511"/>
      <path d="M455.92,283.3a31.84,31.84,0,0,1-.4-4.35l-.05-2.14.06-2.11c0-1.41.09-2.82.2-4.21s.17-2.8.31-4.19c.46-5.58,1.15-11.13,1.86-16.68s1.54-11.07,2.38-16.59S462,222,463,216.49q-1.16,8.29-2.15,16.61c-.66,5.54-1.29,11.09-1.82,16.64s-1,11.11-1.3,16.66c-.1,1.39-.12,2.78-.17,4.16s-.07,2.77-.06,4.15v2.07l.12,2a30.07,30.07,0,0,0,.48,4Z" fill="#750511"/>
      <path d="M504.53,297.31c-.29,3.54-.7,7-1.2,10.52s-1.1,7-1.84,10.4a83.31,83.31,0,0,1-2.8,10.19c-1.19,3.29-2.6,6.63-5,9.22,2.25-2.71,3.46-6.08,4.47-9.4A82.41,82.41,0,0,0,500.38,318c.56-3.45,1-6.92,1.27-10.39s.53-7,.63-10.43Z" fill="#750511"/>
      <polygon points="503.09 257.89 523.6 249.4 505.22 261.84 503.09 257.89" fill="#750511"/>
      <path d="M375.17,329.55q2.65-10.68,5.57-21.27c1-3.53,2-7.05,3.08-10.55.55-1.75,1.11-3.49,1.73-5.22.31-.86.63-1.72,1-2.57a9.26,9.26,0,0,1,1.32-2.4,9.2,9.2,0,0,0-1.19,2.45c-.31.86-.59,1.73-.86,2.6-.53,1.75-1,3.52-1.45,5.29-.91,3.54-1.73,7.1-2.53,10.67q-2.39,10.71-4.46,21.48Z" fill="#750511"/>
      <path d="M447.89,303.81l-2.82,2.8c23.63-1.5,49-2.7,59.46-6.36,0,0,3.93-10.47-7.29-6.54S447.89,303.81,447.89,303.81Z" fill="#750511"/>
      <path d="M497.05,216.49s-5.24,48.61-9.72,50.86l12-5.24S499.3,216.87,497.05,216.49Z" fill="#750511"/>
      <path d="M430.12,175.36c26.77-16.93,57.47-38.51,71-39.82l-9.52-5.61Z" fill="#750511"/>
      <path d="M465.5,100.55l-9,14.58,16.11,3.58C469.34,113.85,465.5,100.55,465.5,100.55Z" fill="#750511"/>
      <path d="M371,336.52s.37,10.84,14.21,13.46,2.24-10.1,2.24-10.1S373.28,334.28,371,336.52Z" fill="#750511"/>
      <path d="M501,361.39s13.09-10.84,13.09-13.84C502.1,352.23,501,361.39,501,361.39Z" fill="#750511"/>
      <path d="M376.88,147.68a50.17,50.17,0,0,1,3.28-44.33c12.44-21.22,26.28-42.57,32.18-49.66,5.43-6.52,25.39-40.31,25.59-40.65l1-1.69,18.39,7.78-32.45,84.64-4.19-1.61,30.9-80.59L440.8,17c-4.19,7.06-20,33.55-25,39.55-5.68,6.81-19.63,28.36-31.76,49.06A46.27,46.27,0,0,0,381,145.79Z" fill="#750511"/>
      <path d="M417.22,104.6s-2.7-1.8-11-1.8V98.31c9.82,0,13.17,2.28,13.74,2.74l-1.4,1.75Z" fill="#750511"/>
      <path d="M184,175.9s-13.85-27.82,9.84-46.88c11.84-9.53,39.13-6.78,47.06,2.81,25.92,21,9.32,70.51,1.14,67.06,0,0,.19-11.25-.56-17.82,5.43-10.38,4.38-27.27-7.25-15.85C232.79,143.23,186,139,184,175.9Z" fill="#750511"/>
      <circle cx="230.4" cy="123.51" r="10.04" transform="translate(65.44 326.31) rotate(-79.07)" fill="#750511"/>
      <path d="M214.4,217.16a11.51,11.51,0,0,1-1.2-.05l-.17,0c-10.24-2-18-7.14-23-15.34-12.9-21.16-3.18-55.06-2.76-56.49l4.31,1.26c-.1.33-9.58,33.45,2.29,52.9,4.3,7,11,11.5,19.88,13.24a14.28,14.28,0,0,0,11.31-4.81l3.34,3A18.9,18.9,0,0,1,214.4,217.16Z" fill="#750511"/>
      <path d="M213.82,248.92a3.41,3.41,0,0,1-.57,0c-24.66-4.17-31-11.92-32.54-15.06l-.22-.44,0-.49c-.57-17.74,10.18-26.34,12.34-27.89,1.19-.85,1.35-.75,5.53,1.58l5.24,2.94.9.51.25,1.05a2.53,2.53,0,0,1-.67,2.14,5.87,5.87,0,0,0-1.4,5.17c.7,3.18,4.26,8.34,17.27,14.86l.26.15a3.41,3.41,0,0,1,1.47,2.45,3.52,3.52,0,0,1-1,2.8c-1.2,1.27-2.54,4.18-3.6,7.79A3.45,3.45,0,0,1,213.82,248.92Zm-28.88-16.71c3.43,5.83,17,10.09,28.14,12.08a28.54,28.54,0,0,1,3.53-7.7c-10.89-5.66-17.06-11.46-18.33-17.24a9.9,9.9,0,0,1,1-7.09l-5-2.78C191.38,212,184.7,219.14,184.94,232.22Z" fill="#750511"/>
      <path d="M251.94,221.77a9.91,9.91,0,0,1-9.24-5.88l-.15-.36L241.64,192l4.48-.18.89,22.68c.53,1,2.48,3.66,7.14,2.49l1.09,4.35A13.61,13.61,0,0,1,251.94,221.77Z" fill="#750511"/>
      <path d="M231.35,253.28H225.9a9.82,9.82,0,0,1,0-19.63h5.45a9.82,9.82,0,0,1,0,19.63Zm-5.45-15.14a5.33,5.33,0,0,0,0,10.66h5.45a5.33,5.33,0,0,0,0-10.66Z" fill="#750511"/>
      <path d="M213.82,271.69a2.71,2.71,0,0,1-2.7-2.69c0-8.35,2.66-17.88,3.49-20.61a2.7,2.7,0,0,1,3.82-1.61l5.58,2.87a2.69,2.69,0,0,1,1.2,3.57c-.64,1.33-3.19,6.5-9,17.08A2.71,2.71,0,0,1,213.82,271.69Zm4.49-19.93a90.12,90.12,0,0,0-1.95,8.81c2-3.68,3.26-6.2,4-7.74Z" fill="#750511"/>
      <path d="M244.84,269.44a2.7,2.7,0,0,1-2.37-1.4c-5.86-10.62-8.39-15.75-9-17.07a2.69,2.69,0,0,1,1.2-3.57l5.58-2.87a2.7,2.7,0,0,1,3.82,1.61h0c.83,2.73,3.54,12.28,3.5,20.61a2.71,2.71,0,0,1-2.7,2.69Zm1.56-3.57h0Zm-8.14-15.29c.77,1.53,2.06,4,4,7.74a90.18,90.18,0,0,0-1.94-8.81Zm1.5-3.14Z" fill="#750511"/>
      <path d="M184.3,377.18C161.38,363.74,150.88,336,153.93,297a239.08,239.08,0,0,1,11.44-54.87l.25-.7,15.86-10.47,2.47,3.74-14.6,9.64c-3,8.89-32.35,99.91,17.21,129Z" fill="#750511"/>
      <path d="M248.78,431.64h-1.94c-27.65-.2-53.08-4.69-64.78-11.44l-1.73-1,.79-1.83c1-2.45,3-17.67,3.46-35,.81-28.22-2.39-63.7-2.42-64.05l4.47-.41c0,.36,3.25,36.1,2.44,64.58-.4,13.86-1.81,28.72-3.22,34.69,25.51,13,100.65,14.45,124.07-1.59,5-3.43,7.1-7.27,6.41-11.73-1.48-8.15-3.2-16.73-5-25.82-9-45-19.27-96.06-2.64-114.2,5.86-5.86,11-17.88,13.28-23.65-7.69-.34-25.35-6-43.22-46.12-2.75,3.87-6.5,16.56-8.64,23.82-4.37,14.79-6.29,20.42-9.36,21.5a154.39,154.39,0,0,1-17.52,8.38,2.54,2.54,0,0,1-2.12.22c-1.62-.56-2-2.23-2.43-4.54a16.55,16.55,0,0,0-1.34-4.51,3.85,3.85,0,0,1,.58-4.74c1-1,2.46-2.17,4.15-3.55,4.66-3.81,13.33-10.91,12.37-15.18-.46-2-3.5-3.84-8.58-5.1-2.77-.69-2.49-4.56-1.95-7.86,1.37-8.24,3.87-8,4.81-8a58.61,58.61,0,0,1,21.9,6.82c3-8.41,5.53-12.55,8.9-12.88l1.63-.16.65,1.5c22.09,51.27,42.66,45.77,42.87,45.7l4.2-1.26-1.43,4.14c-.28.81-7,20-15.49,28.52-15,16.4-5,66.24,3.79,110.22,1.83,9.11,3.55,17.72,5.05,26,.67,4.36-.23,10.65-8.3,16.18C301.09,427,277.38,431.64,248.78,431.64ZM241.4,237a21.42,21.42,0,0,1,1.65,5.5l.08.4a157.12,157.12,0,0,0,15.61-7.6l.37-.18c1.65-1.59,4.54-11.37,6.67-18.55,1.21-4.11,2.31-7.74,3.34-10.92a54.27,54.27,0,0,0-19.76-6.58,23.87,23.87,0,0,0-1.35,7.16c6.41,1.77,9.94,4.45,10.78,8.18,1.57,7-7.38,14.29-13.91,19.64C243.49,235.2,242.26,236.21,241.4,237Z" fill="#750511"/>
      <path d="M237.13,633.56c-2.85,0-7-2.15-13.24-6.84-5.54-4.13-12.67-10.2-21.18-18-13.89-12.81-27.05-26.3-28.16-27.44-1.68-1.45-20.56-18.51-17-49,0-.25,3-27.9,7.08-55.71,8.52-57.43,13.77-59.65,16-60.6a3.77,3.77,0,0,1,3.89.57L181.8,420a.82.82,0,0,0,.65,0c-4.46,2.5-13.31,45.33-20.4,112.68-3.41,28.9,15.29,45,15.48,45.16l.17.15c.13.13,13.15,13.54,27.16,26.52,26.21,24.28,31.64,24.62,32.34,24.51,4.28-2.5,31.75-19.79,58.17-38.19C343.25,557.55,347,549.06,347,547.26,347,538,335.7,421,320.52,409.54a2,2,0,0,0-1.91-.54l-1.24-4.31a6.46,6.46,0,0,1,5.85,1.26c7.49,5.64,14.49,30.39,20.79,73.54,4.73,32.38,7.44,64.16,7.44,67.77,0,2.75,0,10.05-53.53,47.31-26.67,18.57-54.48,36.06-58.56,38.43A4.37,4.37,0,0,1,237.13,633.56Z" fill="#750511"/>
      <path d="M213.25,684.89c-11.16,0-22.58-2.09-32.76-7.91-12.77-7.29-17.46-16.93-17.65-17.33l-.35-.73.2-.78c8.85-35.38,3.22-95-1.79-98.87a.86.86,0,0,0,.4.13l.39-4.47a4.3,4.3,0,0,1,3.1,2c4.08,5.72,6.22,26.31,6.81,42.2.85,22.69-.74,44.2-4.36,59.23A42.08,42.08,0,0,0,183,673.23c15.53,8.75,36.95,9.51,61.94,2.22,19.59-5.72,47.49-10.6,69.9-14.52,17.85-3.12,38-6.65,41-8.72,1.68-6.44-5.4-65.49-10.32-101.66l4.45-.6c0,.25,3.38,24.86,6.27,49.77,5.94,51.18,4.27,53.67,3.38,55-2,3.06-12.42,5.1-44,10.62-22.31,3.9-50.07,8.76-69.42,14.41A119.7,119.7,0,0,1,213.25,684.89Zm142.5-32.47h0Z" fill="#750511"/>
      <path d="M179.07,700.17a16.87,16.87,0,0,1-2.27-.15c-3.77-.51-5.47-2.58-6.23-4.22-3.37-7.29,5.32-21.21,6.32-22.77l1-1.56,1.72.69c.08,0,8.49,3.33,26.49,6.61l.43.08.37.24a4.35,4.35,0,0,1,1.75,5.48C206.28,691.09,190,700.17,179.07,700.17Zm.67-23.2c-3.12,5.3-6.7,13.47-5.1,17,.27.59.85,1.39,2.76,1.65,6.88.94,18.56-4.19,24.43-9.39a9.38,9.38,0,0,0,2.61-3.16A180.4,180.4,0,0,1,179.75,677Z" fill="#750511"/>
      <path d="M286.44,694.5a10.23,10.23,0,0,1-1.39-.09c-3.77-.51-5.47-2.58-6.23-4.22-3.37-7.29,5.32-21.21,6.32-22.77l.62-1,1.14-.07c.1,0,10.21-.63,31.54-6.1l.94-.24.82.52c.91.58,2.87,2.36,1.38,6.41C318.45,675.6,298.43,694.5,286.44,694.5Zm1.91-23.73c-3.19,5.26-7.11,13.93-5.44,17.54.27.59.85,1.39,2.76,1.65,6.28.85,18.5-7.92,26.23-16.55,3.57-4,5.12-6.79,5.6-8.25C300.88,669.32,291.49,670.48,288.35,670.78Z" fill="#750511"/>
      <rect x="199.97" y="217.65" width="13.16" height="4.49" transform="translate(-40.38 393.22) rotate(-81.86)" fill="#750511"/>
      <path d="M216.65,233.93c8.4-12.38,14.36-23.89,12.76-32.67,0,0-7.62,18.93-26.88,10.24C200.1,221.59,201.22,226.36,216.65,233.93Z" fill="#750511"/>
      <path d="M244.13,209s-.75,12.25,10.56,10.19l1.78-5.14S250,203.64,244.13,209Z" fill="#750511"/>
      <path d="M240.44,239.35c4.32-2.63,8.61-5.35,12.83-8.17q3.16-2.12,6.23-4.37a54,54,0,0,0,5.86-4.84,54.22,54.22,0,0,1-5.51,5.28q-2.91,2.48-5.92,4.84-6,4.71-12.26,9.15Z" fill="#750511"/>
      <path d="M215.68,242.49a86.58,86.58,0,0,1-15.11-6.39,38,38,0,0,1-6.71-4.73,23.05,23.05,0,0,1-5.07-6.36,22.77,22.77,0,0,0,5.43,5.93,37.17,37.17,0,0,0,6.87,4.16,85,85,0,0,0,15.22,5.23Z" fill="#750511"/>
      <polygon points="182.16 319.41 181.97 294.14 186.63 318.97 182.16 319.41" fill="#750511"/>
      <path d="M168.6,242.76a104,104,0,0,0,3.16,19A53.52,53.52,0,0,0,175,270.9c1.4,2.87,3.18,5.71,5.93,7.5-2.85-1.63-4.84-4.41-6.43-7.24a54.37,54.37,0,0,1-3.83-9A105.59,105.59,0,0,1,166.37,243Z" fill="#750511"/>
      <path d="M320.86,247.76A6.42,6.42,0,0,1,319,249a6,6,0,0,1-2.19.46,10,10,0,0,1-4-.86,32.19,32.19,0,0,1-6.57-4c-4.05-3-7.77-6.38-11.74-9.44,4.19,2.76,8.17,5.84,12.38,8.52a30.93,30.93,0,0,0,6.52,3.33,8.25,8.25,0,0,0,3.32.48,3.88,3.88,0,0,0,2.59-1.32Z" fill="#750511"/>
      <path d="M274.77,203.73a5.42,5.42,0,0,0-1,2.15,19.55,19.55,0,0,0-.54,2.76,54,54,0,0,0-.39,5.81c-.06,3.91.1,7.85.35,11.79.53,7.87,1.39,15.73,2.48,23.56-1.45-7.77-2.69-15.58-3.59-23.46-.44-3.94-.8-7.89-.92-11.88a55.68,55.68,0,0,1,.12-6,21.42,21.42,0,0,1,.45-3.07,7.24,7.24,0,0,1,1.45-3.18Z" fill="#750511"/>
      <path d="M323.08,166.54a10.73,10.73,0,0,0-5.27-.84,15.34,15.34,0,0,0-5.42,1.64,15.92,15.92,0,0,1,5.21-2.74,12.43,12.43,0,0,1,6.15-.2Z" fill="#750511"/>
      <path d="M302.4,288.42a79.26,79.26,0,0,0-4.39,8.93c-1.35,3.07-2.57,6.21-3.81,9.34-2.44,6.28-4.7,12.63-6.94,19q-6.66,19.11-12.74,38.43,5.56-19.47,11.67-38.79c2.07-6.43,4.16-12.85,6.43-19.22,1.15-3.18,2.29-6.37,3.57-9.51a80.67,80.67,0,0,1,4.29-9.34Z" fill="#750511"/>
      <path d="M336.85,450.56a99.53,99.53,0,0,1,1.4,12.63,112.24,112.24,0,0,1-.22,12.67,141.75,141.75,0,0,1-4.24,24.88,196.31,196.31,0,0,1-19,46.5,195.8,195.8,0,0,0,17.89-46.77,140.31,140.31,0,0,0,3.65-24.72,110.43,110.43,0,0,0-.06-12.46A97.44,97.44,0,0,0,334.65,451Z" fill="#750511"/>
      <path d="M282.36,604.39l1.48,21,.65,10.49c.18,3.5.41,7,.41,10.5-.19-3.5-.6-7-1-10.46l-1.21-10.43-2.59-20.84Z" fill="#750511"/>
      <path d="M190.38,594.69a81.14,81.14,0,0,1-1.44,20.55,77.89,77.89,0,0,1-6.68,19.33A77.34,77.34,0,0,0,187.83,615a79.51,79.51,0,0,0,.31-20.17Z" fill="#750511"/>
      <path d="M225.73,679.6A52.23,52.23,0,0,0,235.1,675c3.06-1.81,6-3.85,8.92-6s5.75-4.34,8.54-6.64,5.54-4.65,8.22-7.09c-2.41,2.71-4.91,5.34-7.46,7.92s-5.17,5.11-7.89,7.55-5.49,4.82-8.46,7a55.89,55.89,0,0,1-9.58,6Z" fill="#750511"/>
      <path d="M214.69,271.23s12.62-11.5,14.58-17.95C224.5,252.16,224.5,249.92,214.69,271.23Z" fill="#750511"/>
      <path d="M313.85,229.94l-4.34-1.13c6-23.13,13.69-57.82,11.82-62.51s-23-16.74-37.43-23.88L283,142l-1.69-5.83-3.64-1.93-2.52-3.51c-2.49.15-8.59,1.08-10.39,6.48-.52,1.57,2.22,7,3.67,8.66.76.57,4.6.56,6.44.54h2l23.72,24.12-12,32.71-4.21-1.55,11.05-30L275,150.89h-.07c-3.94,0-8,0-9.84-2.08-.8-.92-6.07-8.49-4.55-13,3.3-9.89,15.33-9.59,15.86-9.57l1.1,0,3.24,4.51,4.39,2.33,1.67,5.76c7.67,3.83,35.7,18.24,38.72,25.79.58,1.45,2.13,5.32-4.64,36.07C317.58,215.62,313.89,229.8,313.85,229.94Z" fill="#750511"/>
      <path d="M329,234.65s-1.52-18.93-13.27-25.8c-1.82,21.54-6.17,26.36-.56,25C325.28,237.64,329,234.65,329,234.65Z" fill="#750511"/>
      <path d="M277,189.49s6.45-3.37,10.94,1.4-3.93,8.69-3.93,8.69Z" fill="#750511"/>
      <path d="M285.27,193.89s14.21,34.78,27.67,17.57c1.87,1,.33,13.65,2.24,13.84,12,11.22,13.09,14.58,4.86,12.71C311.07,233.53,290.51,221.56,285.27,193.89Z" fill="#750511"/>
      <path d="M292.38,306.44s9,30.38,6,60.3c6-6.73,6-91.71,6-91.71Z" fill="#750511"/>
      <path d="M255.36,621.3c37.52-23.45,91.33-61.54,94.61-54.22l-3-25.8S354.08,558.47,255.36,621.3Z" fill="#750511"/>
      <polygon points="295.76 171.51 299.67 160.05 300.21 172.14 295.76 171.51" fill="#750511"/>
      <path d="M304,243.34s3.37,22.16-3.93,38.42a368.75,368.75,0,0,0,23.28-39.54S320,250.63,304,243.34Z" fill="#750511"/>
      <path d="M210.11,542.21c3.39,1.93,6.65,4,9.87,6.22s6.37,4.43,9.5,6.72,6.19,4.67,9.2,7.12,6,4.94,8.83,7.62c-3.39-1.93-6.66-4-9.87-6.21s-6.37-4.43-9.49-6.72-6.19-4.67-9.2-7.12S213,544.89,210.11,542.21Z" fill="#750511"/>
      <path d="M221.33,560.16c3.62,2.66,7,5.62,10.38,8.48a103.31,103.31,0,0,0,10.5,8,48.51,48.51,0,0,0,11.73,5.66,55.88,55.88,0,0,0,13,2.35,36.5,36.5,0,0,1-13.48-.66A40.26,40.26,0,0,1,241,578.52a68.43,68.43,0,0,1-10.46-8.59C227.32,566.79,224.32,563.5,221.33,560.16Z" fill="#750511"/>
      <path d="M199.64,508.37c7.33,4,14.85,7.68,22.46,11.07,3.82,1.65,7.66,3.26,11.56,4.69s7.82,2.8,11.81,3.91a100.78,100.78,0,0,0,12.08,2.8,74,74,0,0,0,12.3,1.12,45.79,45.79,0,0,0,12.19-1.64,32.48,32.48,0,0,0,11.07-5.5,30.53,30.53,0,0,1-10.73,6.55,43.06,43.06,0,0,1-12.49,2.34,80.67,80.67,0,0,1-25-3.52A147.65,147.65,0,0,1,221.37,521,163.7,163.7,0,0,1,199.64,508.37Z" fill="#750511"/>
      <path d="M205.37,608.26q-3.69-9.87-6.81-19.91c-1-3.36-2-6.73-2.79-10.14-.38-1.71-.77-3.42-1-5.16a23.87,23.87,0,0,1-.34-5.23A23.74,23.74,0,0,0,195,573c.35,1.71.82,3.39,1.29,5.07,1,3.35,2.13,6.64,3.31,9.93,2.41,6.55,5,13,7.82,19.41Z" fill="#750511"/>
    </g>
  </g>
</svg>
