<svg xmlns="http://www.w3.org/2000/svg" viewBox="0 0 700 700">
  <title>Artboard 2 copy 5</title>
  <g id="Midtones">
    <path d="M252.35,217.44c-2.57-1.64-2.23,50.78-74.8,52.83-75.77,0-80.9-63.62-80.9-63.62s9.43,32.66,6,43S94,301.31,94,301.31s25-15.5,83.52-15.5,86.18,2.73,86.18,2.73C251.07,274.64,249.64,245.85,252.35,217.44Z" fill="#f7982d"/>
    <path d="M77.6,103.69s9.76,14.65-1.86,30.79-58.78,9-68.47-1.32c11.09,10.74,17.45,23,64.59,38.13,9-9,9-14.6,9-14.6l16.42-62Z" fill="#f7982d"/>
    <path d="M243.85,165.44s-41,14.79-66.84,14.79-69.29-14.65-69.29-14.65C147.49,169.88,196.76,170.32,243.85,165.44Z" fill="#f7982d"/>
    <polygon points="259.14 187.44 271.69 129.77 263.73 100.17 259.14 187.44" fill="#f7982d"/>
    <polygon points="96.66 206.65 82.04 156.97 92.06 119.38 96.66 206.65" fill="#f7982d"/>
    <path d="M99,42.14C97.68,53.76,97.11,19,94.9,27.93c-1.72,37-9.25,69.91-15.79,77l14.07.49S103.08,108.44,99,42.14Z" fill="#f7982d"/>
    <path d="M278.3,298.72s-10.36-14.29-28.44-14.29S143.07,277.55,100,294.77c-31.86,12.05-21.75,29.06-21.75,29.06l-4.92,26.6,3.33,40.67L29.46,560.48s-8.74,44.55,5.89,52.3c31.86-20.66,109.48-80.71,109.48-80.71S247.3,427,274,379.66c16.36-33.58,21.53-41.33,12.92-61.13Z" fill="#f7982d"/>
    <path d="M287.63,426.33c-3.75-12-8.78-21.12-22-12.27,0,0-39,30.94-64.32,74.71-14.33,24.8,2.9,56.31,4.67,71.67l-16.29-43.86-11.24-20.51,93-115.16S285,365,285,376,287.63,426.33,287.63,426.33Z" fill="#f7982d"/>
    <path d="M190.35,525.11S170.71,510.28,152,538.7s-83.11,69.58-83.11,69.58l1.74-12.76,109.14-99.45Z" fill="#f7982d"/>
    <path d="M62.61,632.4s6-18.54-1.72-17.25-31.64,23-31.64,23l4.52-20.66,38.1-23.25Z" fill="#f7982d"/>
    <path d="M301.11,498.17s-4.15,42.22-43.76,4.77c15.59,24,44.73,51.47,51.08,57.23Z" fill="#f7982d"/>
    <path d="M293.85,546.44s50.74,128.95-.06,121.2S82,654.72,34.62,684.86c89.33-2.73,217.44,1.41,265.2,2.58l21-4S343.79,575.71,293.85,546.44Z" fill="#f7982d"/>
    <path d="M82.6,20.19S76.67,6.93,56.44,15.11,22.86,58.59,22.86,58.59,50.75,6,82.6,20.19Z" fill="#f7982d"/>
    <path d="M282.6,103.94a32.76,32.76,0,0,0,4.21,31.8c11.62,16.14,58.78,9,68.47-1.32-17.94,10.32-31.56,21.52-65.92,35.52-9-9-7.71-6.43-7.71-6.43L262.27,98.93Z" fill="#f7982d"/>
    <path d="M263.56,43.39c1.31,11.63,6.35,60.13,19,60.55l-13.23,2.74S259.47,109.69,263.56,43.39Z" fill="#f7982d"/>
    <path d="M275.93,69.85s5-53.88,18.8-51,43.43,47.82,43.43,47.82L317.7,24.32S301,1.35,290.13,6.78,274.68,22.23,275.93,69.85Z" fill="#f7982d"/>
    <path d="M455.95,227.95s-18.74,99.32,18.74,96.82,56.84-12.49,56.84-12.49l.62,33.73-88.7-3.12S430.34,311.65,455.95,227.95Z" fill="#f7982d"/>
    <path d="M545.66,315.13s30.08,14.72,53.12,10.24,18.56-59.52,18.56-59.52,12.8,78.08.64,79.36-73,.64-73,.64Z" fill="#f7982d"/>
    <path d="M440.3,128.92s5.6,99,18.09,87.17l-11.24,36.86Z" fill="#f7982d"/>
    <path d="M606.87,212.75c6.87,3,9.87-2.66,10.83-12.91l1.25,52.06Z" fill="#f7982d"/>
    <path d="M647.89,205.46c-5.83,25.31-.46,37.31,17.49,34.36l-40.6,22.49S629.77,214.21,647.89,205.46Z" fill="#f7982d"/>
    <path d="M622.4,129.5c-.57,19.93,32.94,67.37,37,64.2,0,0-6.17,5.76-8.22,7.63-9,3-20.07-17.42-31.23-38.73Z" fill="#f7982d"/>
    <path d="M415.39,205.46c5.83,25.31.46,37.31-17.49,34.36l40.6,22.49S433.51,214.21,415.39,205.46Z" fill="#f7982d"/>
    <path d="M440.88,129.5c.57,19.93-32.94,67.37-37,64.2,0,0,6.17,5.76,8.22,7.63,9,3,20.07-17.42,31.23-38.73Z" fill="#f7982d"/>
    <path d="M534.42,38.52s14.58,5,27.9-10.83l5.83-7.91,2.92,11.66L542.33,54.76Z" fill="#f7982d"/>
    <path d="M520,37.9S507.52,46,483.37,17.29c-1.25,10.41-2.47,8.33-2.47,8.33,5.86,13.45,16.14,22.94,30.31,28.95Z" fill="#f7982d"/>
    <path d="M517.69,53.34s10,80.58,7.5,269.86l6.25-3.12,1.25-157.42-10-111.82S517.69,45.22,517.69,53.34Z" fill="#f7982d"/>
    <path d="M522.1,66.05c-6.25-2.81-7.5-3.12-13.43-1.56-13.12-13.74-19.05-21.86-19.05-21.86l24.28,13.2,7.6-13Z" fill="#f7982d"/>
    <path d="M528.29,67.73s5.62-5.93,13.12-4.06c8.75-3.75,13.7-13.73,13.7-13.73l-13.39,8.52L531.41,42.12Z" fill="#f7982d"/>
    <path d="M627.38,89.45s9.25-27.14,14.19-21.59c-3.08-15.42-5.46-13.17-5.46-13.17S626.14,80.2,627.38,89.45Z" fill="#f7982d"/>
    <path d="M436.71,89.45s-9.25-27.14-14.19-21.59C425.6,52.44,428,54.69,428,54.69S437.94,80.2,436.71,89.45Z" fill="#f7982d"/>
  </g>
  <g id="Darker_Mids" data-name="Darker Mids">
    <path d="M322.35,154.44c-19.73,6.44-38.95.56-46.65-15.62l11.16,31.76Z" fill="#c45937"/>
    <path d="M96.07,56.75l-9.44,44.63s0,29.51-14.84,43.38c-3.8,8.93-37,5.89-43.75,4.48,12.87,7.72,45.71,21.67,45.71,21.67L98.65,95.38Z" fill="#c45937"/>
    <path d="M249.36,251.84s-12,28.32-47.21,30.9l56.65.86Z" fill="#c45937"/>
    <path d="M98.35,260.94s6.8,24.38,32.55,24.38l-39.48,10.3Z" fill="#c45937"/>
    <path d="M262.08,308.64s20.6,0,6.87,26.18l15.88-22.75-4.29-12-6-2.15Z" fill="#c45937"/>
    <path d="M258.58,309.14s16.31-15-11.16-24H260.3l12.87,8.58S271.88,304,258.58,309.14Z" fill="#c45937"/>
    <path d="M286.19,352.12s4.72-28.75-3.86-39.05l-9.44,15.45s-38.2,65.23-121.45,40.77c40.34,11.16,47.64,7.3,47.64,7.3s26.63-2.72,43.35-13.3C266.69,347.91,284.16,325.69,286.19,352.12Z" fill="#c45937"/>
    <path d="M67.06,488.46c-10,10.3-17.91,18.93-23.5,13.52L28.12,561.2C45.81,530.95,61.48,503.27,67.06,488.46Z" fill="#c45937"/>
    <path d="M284,400.69s-7.72-12-14.16-2.15c-4.91,7.53-53.24,63.84-75.92,90.16-7.06,8.19,0,45.88,0,45.88l-12-30-73.39,61.37L220,451.76l54.5-74.67H284Z" fill="#c45937"/>
    <path d="M301.35,519.43c.36,13.29-6.48,17.42-23.17,9l15.45,18,16.74,15.45Z" fill="#c45937"/>
    <path d="M122.82,291.18c-11.66-3-43.45,38.95-43.13,71.46-11.77.21-3.53-42-1.93-50.21C81.89,303.68,113.78,285.86,122.82,291.18Z" fill="#c45937"/>
    <path d="M40.56,540.67s-39.48,109,99.57-10.3l-94.42,79-14.59,3.43S19.53,581,26.62,564.7,40.56,540.67,40.56,540.67Z" fill="#c45937"/>
    <path d="M117.35,166.44c38,10.71,77.58,10.47,118.5.5" fill="#c45937"/>
    <path d="M441,305.11s3.33,32.67,34.67,28.67a290.12,290.12,0,0,0,58-14v21.33L445,343.77S432.35,334.44,441,305.11Z" fill="#c45937"/>
    <path d="M545,325.11s44,12.67,50.67,10.67,26.67-8.67,26.67-20l-2,29.33L607,346.44l-62-4.67Z" fill="#c45937"/>
    <path d="M447,213.11c1.5,7.82,3.66,15.91,7.67,16l-7.67,24Z" fill="#c45937"/>
    <path d="M609,221.11c1.89,1,5.17-1,8.67-3.33v24.67Z" fill="#c45937"/>
    <path d="M640.35,212.77s-5.67,35,4.33,37.67l-19.33,9.33S620.35,227.11,640.35,212.77Z" fill="#c45937"/>
    <path d="M424.69,212.44s10.33,41-1.33,41.67l18,8-3.67-34.33Z" fill="#c45937"/>
    <path d="M512.6,57.69s12.75,3.5,12.75,6.5l-3.5-22Z" fill="#c45937"/>
    <polygon points="529.6 43.69 525.35 64.19 541.6 55.94 529.6 43.69" fill="#c45937"/>
  </g>
  <g id="Main">
    <path d="M622.59,128.57c-1.42,16.3-1.64,32.63-1.76,48.94,0,8.16,0,16.32.19,24.47.11,4.08.06,8.15,0,12.22s0,8.15,0,12.22c.12,16.28.9,32.54,1.84,48.84l1.51,24.46c.49,8.17,1,16.34,1.18,24.61a103.69,103.69,0,0,1-.37,12.63,32.63,32.63,0,0,1-.53,3.33,14.42,14.42,0,0,1-1.27,3.66,7.08,7.08,0,0,1-1.62,2.06,5.37,5.37,0,0,1-3.07,1.28,5.93,5.93,0,0,1-1.54-.09l-1-.23c-.35-.1-.82-.18-1.25-.27-3.72-.61-7.84-.86-11.85-1.1s-8.1-.38-12.17-.5c-16.27-.48-32.61-.55-48.93-.56-32.65,0-65.33.43-98,1h-.21l-.22,0a6.17,6.17,0,0,1-3-1.24,7.84,7.84,0,0,1-1.82-2,14.44,14.44,0,0,1-1.62-4,38.89,38.89,0,0,1-1-7.3,121.47,121.47,0,0,1,.12-14c.54-9.19,1.58-18.26,2.7-27.3l3.52-27c.53-4.45,1.1-9,1.21-13.24s-.19-9-.37-13.46c-.38-9.05-.72-18.12-1.28-27.18-.27-4.53-.24-9.07-.32-13.61l-.19-13.62c-.27-18.17-.63-36.33-.8-54.51,1.87,18.08,3.47,36.18,5.1,54.29L447,195c.38,4.53.86,9.05,1,13.59l1.16,27.25c.18,4.56.34,9.06.37,13.77-.13,4.85-.72,9.32-1.25,13.88l-3.52,27c-1.12,9-2.14,18-2.67,26.9a115.8,115.8,0,0,0-.12,13.26,33.4,33.4,0,0,0,.86,6.16,8.84,8.84,0,0,0,.91,2.33,2,2,0,0,0,.42.5c.09.06.07,0,.11.06l-.43,0c32.7-.61,65.39-1,98.11-1,16.36,0,32.72.09,49.11.56,4.1.13,8.2.28,12.32.51a123.65,123.65,0,0,1,12.55,1.18c.57.12,1.11.2,1.74.38l.45.12.08,0h0a.67.67,0,0,0-.3.11,1.4,1.4,0,0,0,.24-.35,15.6,15.6,0,0,0,1.13-4.84,98.44,98.44,0,0,0,.34-11.86c-.17-8.07-.67-16.21-1.17-24.36l-1.51-24.48c-.94-16.33-1.73-32.72-1.85-49.13l-.07-12.3V208c0-2,.11-4.1.22-6.14.43-8.19.92-16.37,1.54-24.54C618.08,161,619.66,144.67,622.59,128.57Z" fill="#750511"/>
    <polygon points="443.92 342.6 438.49 697.97 460.75 699.56 526.63 439.62 578.45 697.97 600.72 697.97 617.29 344.19 443.92 342.6" fill="#750511"/>
    <path d="M616.25,224.11q12.11-9,24.36-17.8c4.09-2.92,8.21-5.81,12.37-8.63,2.08-1.41,4.18-2.8,6.31-4.14,1.07-.67,2.14-1.33,3.23-2A14.36,14.36,0,0,1,666,190a14.2,14.2,0,0,0-3.23,1.87c-1,.73-2,1.48-3,2.25-2,1.53-3.92,3.12-5.84,4.72-3.85,3.2-7.65,6.47-11.43,9.77q-11.32,9.89-22.42,20Z" fill="#750511"/>
    <path d="M622.14,265.19l-2.05-5.55c49.48-18.27,70-46.45,73.71-55.76,1.73-5.91-18-59.43-58.07-147C609.4,43.42,587.06,35,567.44,31.16l1.13-5.81c20.4,4,43.55,12.74,70.77,26.78l.91.47.42.93c.16.35,16,35,31.1,70.71,30.94,73.24,28.54,79.26,27.51,81.83C699.14,206.44,684.2,242.27,622.14,265.19Z" fill="#750511"/>
    <path d="M621.11,153.71c.76,1.25,1.29,2.29,2.1,3.36.39.53.7,1.06,1.05,1.57l1.13,1.55a2,2,0,0,1,.24.86,8.46,8.46,0,0,0,.22.87l.56,1.73c.39,1.15.74,2.3,1.17,3.45,1.61,4.6,3.47,9.18,5.34,13.73s3.86,9.08,5.87,13.6l3.06,6.76c.22,2.62.47,5.23.46,8a70.77,70.77,0,0,1-5.84-5.51l-3.08-6.81c-2-4.56-4-9.13-5.93-13.75s-3.78-9.26-5.45-14c-.84-2.39-1.64-4.77-2.37-7.26,0-.68.07-1.35.12-2s.14-1.38.26-2.07A16.42,16.42,0,0,1,621.11,153.71Z" fill="#750511"/>
    <path d="M635.41,56.09c-.62,3.38-1.43,6.66-2.28,9.93s-1.75,6.5-2.63,9.74-1.77,6.46-2.63,9.69a71.3,71.3,0,0,0-2,9.87A27.81,27.81,0,0,1,625.6,85,69.91,69.91,0,0,1,627.65,75a94.87,94.87,0,0,1,3.29-9.67A65.36,65.36,0,0,1,635.41,56.09Z" fill="#750511"/>
    <path d="M511.27,58.31a5.33,5.33,0,0,1-2.78-.78c-6.84-4.17-23.38-15.12-29.36-26.65a5.3,5.3,0,0,1-.25-4.26h0l5.78-15.69a5.32,5.32,0,0,1,8.84-1.85c12,12.51,22.45,21.31,27.94,23.54a5.25,5.25,0,0,1,2.95,3.06,5.35,5.35,0,0,1-.29,4.32L516,55.47a5.35,5.35,0,0,1-3.3,2.65A5.29,5.29,0,0,1,511.27,58.31ZM484.53,28.43c5.39,10.06,21,20.31,26.5,23.72l7.54-14.33c-8.42-3.79-21.25-16.28-28.68-24Zm-.09.23h0Z" fill="#750511"/>
    <path d="M541.61,58.31a5.29,5.29,0,0,1-1.41-.19,5.35,5.35,0,0,1-3.3-2.65L528.78,40a5.35,5.35,0,0,1-.29-4.32,5.25,5.25,0,0,1,2.95-3.06c5.49-2.23,15.94-11,27.94-23.54a5.32,5.32,0,0,1,8.84,1.84L574,26.62a5.3,5.3,0,0,1-.25,4.26c-6,11.53-22.52,22.48-29.35,26.65A5.34,5.34,0,0,1,541.61,58.31Zm-7.3-20.49,7.54,14.33c5.52-3.41,21.11-13.67,26.5-23.72L563,13.86C555.57,21.54,542.74,34,534.31,37.82Z" fill="#750511"/>
    <path d="M536.66,340.11l-5.92-.1c4.35-255.19-11.84-299.87-12-300.29l5.49-2.2C524.92,39.22,541.06,82.17,536.66,340.11Z" fill="#750511"/>
    <path d="M529.25,64.09l-5.87-.71c.08-.69,2.1-17.12,5.24-25.76l5.56,2C531.27,47.65,529.27,63.93,529.25,64.09Z" fill="#750511"/>
    <path d="M538.88,64.23c1.38,5.87,2.4,11.8,3.28,17.75s1.57,11.92,2.13,17.91.93,12,1,18A149.74,149.74,0,0,1,544.8,136c-.63-6-1.21-12-1.78-17.92l-1.68-17.89c-.5-6-1.05-11.94-1.47-17.92S539.05,70.26,538.88,64.23Z" fill="#750511"/>
    <polygon points="543.77 341.18 543.07 255.76 546.73 341.11 543.77 341.18" fill="#750511"/>
    <polygon points="443.06 262.72 463.21 202.02 445.89 263.59 443.06 262.72" fill="#750511"/>
    <polygon points="621.03 263.59 603.71 202.02 623.86 262.72 621.03 263.59" fill="#750511"/>
    <path d="M651,201.12s-26.44,34.63-22,58.3c-9.37,5.42-10.85,1.48-10.85,1.48l-1-31.06S619.93,218.37,651,201.12Z" fill="#750511"/>
    <path d="M620.85,147.87s23.29,50.66,30.69,51l-15.16,12.94s1.85-8.5-9.24-34.76S620.85,147.87,620.85,147.87Z" fill="#750511"/>
    <path d="M443.63,228.66q-11.1-10.11-22.42-20c-3.78-3.3-7.57-6.57-11.43-9.77-1.93-1.6-3.87-3.19-5.84-4.72-1-.77-2-1.52-3-2.25A14.2,14.2,0,0,0,397.7,190a14.36,14.36,0,0,1,3.43,1.55c1.09.63,2.17,1.28,3.23,2,2.13,1.34,4.23,2.73,6.31,4.14,4.17,2.82,8.28,5.71,12.37,8.63q12.28,8.76,24.36,17.8Z" fill="#750511"/>
    <path d="M441.52,265.19c-62.06-22.92-77-58.75-77.15-59.11-1-2.57-3.43-8.59,27.51-81.83C407,88.56,422.82,53.88,423,53.54l.42-.93.91-.47c24.64-12.71,56-25.24,56.35-25.37l2.19,5.5c-.31.12-30.68,12.25-54.92,24.66-40,87.53-59.8,141-58.06,147,3.71,9.28,24.22,37.45,73.7,55.72Z" fill="#750511"/>
    <path d="M442.55,153.71a16.39,16.39,0,0,1,1.09,4c.13.69.18,1.37.26,2.07s.1,1.35.12,2c-.73,2.49-1.53,4.87-2.37,7.26-1.67,4.77-3.55,9.4-5.45,14s-3.91,9.19-5.93,13.75l-3.08,6.81a71,71,0,0,1-5.84,5.51c0-2.75.24-5.36.46-8l3.06-6.75c2-4.52,4-9,5.87-13.6s3.72-9.13,5.34-13.73c.43-1.15.78-2.3,1.17-3.45l.56-1.73a8.8,8.8,0,0,0,.22-.87,2,2,0,0,1,.24-.86l1.13-1.55c.35-.51.66-1,1.05-1.57C441.25,156,441.79,155,442.55,153.71Z" fill="#750511"/>
    <path d="M428.25,56.09a65.36,65.36,0,0,1,4.47,9.21A94.87,94.87,0,0,1,436,75,69.91,69.91,0,0,1,438.06,85a27.81,27.81,0,0,1-.26,10.29,71.4,71.4,0,0,0-2-9.87c-.86-3.23-1.69-6.47-2.63-9.69s-1.79-6.47-2.63-9.74S428.87,59.47,428.25,56.09Z" fill="#750511"/>
    <path d="M412.67,201.12s26.44,34.63,22,58.3c9.37,5.42,10.85,1.48,10.85,1.48l1-31.06S443.73,218.37,412.67,201.12Z" fill="#750511"/>
    <path d="M442.81,147.87s-23.29,50.66-30.69,51l15.16,12.94s-1.85-8.5,9.24-34.76S442.81,147.87,442.81,147.87Z" fill="#750511"/>
    <path d="M490.94,13.32,488.85,6.8c1.59-.51,39.25-12.34,75.25,0l-2.22,6.47C528,1.66,491.31,13.2,490.94,13.32Z" fill="#750511"/>
    <g>
      <path d="M179,93.43c-70.7,0-85.58-53.46-85.58-64h6c0,4.94,3.73,19.38,15.27,32.51,10.2,11.61,29.64,25.46,64.29,25.46,64.29,0,80.66-61.11,80.82-61.72l5.83,1.49C265.44,27.84,247.86,93.43,179,93.43Z" fill="#750511"/>
      <path d="M287.68,172.56c-2.9,0-6.87,0-18.22-40-5.32-18.77-9.8-37.78-9.84-38l-.08-.34v-.34c0-.45-.14-45.15-.53-59v0c0-.77-.14-18.88,11.48-28.08C277,1.61,285.74.35,296.43,3c36.48,9.12,62.7,111.71,62.7,124.82C359.13,144.38,300.16,172.56,287.68,172.56Zm-22.12-79c9.8,41.67,19.09,69.39,22.68,73,13-.81,64.86-28,64.86-38.68,0-15.22-27.06-111.21-58.14-119-8.79-2.2-15.77-1.31-20.74,2.63C265,18.78,265,34.18,265,34.76,265.41,48,265.55,89.31,265.56,93.52Z" fill="#750511"/>
      <path d="M71.68,171.49c-10.2,0-45-15.32-60.39-29.89C-.3,134.37.86,119.91.91,119.29l0-.16C4,97.66,28.39,10.59,62.93,2,73.63-.72,82.36.55,88.87,5.71c11.62,9.21,11.49,27.32,11.48,28.08-.39,13.75,0,59.89,0,60.35v.38l-.09.37c0,.19-4.65,18.86-10.1,37.29C78.54,171.49,74.58,171.49,71.68,171.49ZM6.9,119.9c-.07,1-.61,11.68,7.78,16.74l.29.17.24.24c14.12,13.58,46.87,27.84,55.93,28.41,3.62-3.48,13.09-30.69,23.18-71.64,0-4.48-.37-47,0-60.15,0-.11.07-15.91-9.22-23.25-5-3.93-11.94-4.81-20.72-2.61C35,15.16,10.38,96.14,6.9,119.9Z" fill="#750511"/>
      <path d="M261.42,287.28c-9.37-8.4-15-34.28-13.1-60.21.17-2.39,1.5-7.34,3.67-15.22,1.45-5.28,3.09-11.26,3.29-13.19,4.13-41.27,12.86-70.84,12.94-71.13l5.77,1.72c-.09.29-8.65,29.35-12.72,70-.24,2.44-1.74,7.89-3.47,14.19-1.48,5.39-3.33,12.1-3.47,14.07-1.93,26.27,4.26,49.15,11.11,55.28Z" fill="#750511"/>
      <path d="M95.27,296.4l-5.87-1.33c5.21-22.94,9.8-45.09,8.68-63.85-.19-3.08-2.11-8-3.8-12.34s-3.26-8.35-3.67-11.52c-4.33-34.1-12-52.49-12.08-52.67l5.54-2.35c.33.77,8.07,19.34,12.51,54.26.31,2.43,1.83,6.32,3.3,10.09,1.95,5,4,10.14,4.2,14.17C105.26,250.41,100.59,273,95.27,296.4Z" fill="#750511"/>
      <path d="M30.61,616l-1.31-1.92c-7.2-10.52-7.68-39-5.94-47.78,6.16-31,16.75-62.15,27-92.31,9.83-29,19.12-56.33,22.62-78.8,2.1-13.5.53-32.93-1.43-39.86l-.09-.33,0-.35c-.17-3.57-1.4-34.46,5.81-44.3,3.43-18.15,35.9-28.38,96.54-30.43,44.79-1.52,89.46,2,89.91,2.08l.48,0,.45.19c.48.2,11.14,4.8,13.46,13.11l.06,0c6.47,4.32,9.21,6.68,9.85,20.2,5.1,5.79,6.41,14.37,3.9,25.54-7.39,32.87-49.57,91.33-112.82,156.37-58.36,60-117.14,107.32-146.26,117.73Zm46.81-262c2.11,7.87,3.71,27.79,1.49,42.07C75.33,419.12,66,446.73,56,476c-10.17,30-20.69,61-26.78,91.55-1.49,7.51-1,30.94,3.85,41.17,29.1-11.74,85.4-57.54,141.63-115.36C237.25,429,278.84,371.66,286,339.83c2.16-9.61,1.11-16.62-3.12-20.85l-.84-.84,0-1.18c-.44-12-1.88-13-7.22-16.54L272.62,299l-.2-1.29c-.81-5.1-8-8.82-9.75-9.67-5.14-.39-46.9-3.44-88.74-2-56.55,1.92-88.82,11.18-90.87,26.08l-.12.9-.6.68C77.66,319,76.84,341.1,77.42,354.07Z" fill="#750511"/>
      <path d="M17.95,692.15,16.51,691c-1.81-1.51-1.81-1.51,3.26-25.36,3.57-16.81,10.22-48.1,9.14-52.32l5.74-1.82c1.42,4.42-1.77,21.38-9,55.39-1.37,6.45-2.77,13-3.58,17.25,15.34-5.34,58.9-17.15,125-8.22,62.65,8.47,122.07,6.24,154,5,7.43-.28,13.34-.5,17.9-.55,7.93-26.52,8.11-98.69-10.46-117.9a5.39,5.39,0,0,1-1.46-2.91l-.89-5.62c-12.07-75.86-25.76-161.85-25.76-199.41h6c0,37.08,13.64,122.82,25.68,198.47l.86,5.41c12.58,13.19,15.89,43.68,16.74,60.72,1.18,23.72-.91,49.8-5.09,63.41a5.42,5.42,0,0,1-5.14,3.85c-4.53,0-10.55.27-18.17.55-32.11,1.21-91.87,3.45-155-5.09-73.71-10-118.43,6.25-126.64,9.6Z" fill="#750511"/>
      <path d="M102,162.07c.11.82.94,1.21,1.61,1.53a14,14,0,0,0,2.22.73,44.41,44.41,0,0,0,4.6.9c3.1.46,6.23.75,9.36,1,6.26.5,12.54.77,18.82,1q18.84.61,37.71.57t37.71-.57c6.28-.23,12.56-.5,18.82-1,3.13-.23,6.26-.52,9.36-1a44,44,0,0,0,4.6-.91,13.91,13.91,0,0,0,2.22-.73c.67-.32,1.49-.71,1.6-1.53,0,.84-.85,1.35-1.5,1.74a14.32,14.32,0,0,1-2.19,1,43,43,0,0,1-4.59,1.26c-3.09.69-6.22,1.2-9.35,1.66-6.27.85-12.56,1.44-18.86,1.88-12.6.89-25.22,1.2-37.84,1.23s-25.24-.35-37.84-1.25c-6.3-.44-12.59-1-18.86-1.88-3.13-.46-6.25-1-9.35-1.66a43.29,43.29,0,0,1-4.59-1.25,14.41,14.41,0,0,1-2.19-1C102.82,163.41,102,162.91,102,162.07Z" fill="#750511"/>
      <path d="M285.17,309.58a134.78,134.78,0,0,1-24.63,35.87,22.81,22.81,0,0,1-1.95,1.92l-2,1.85a54.1,54.1,0,0,1-4.12,3.59l-4.29,3.38-4.53,3.06a98.42,98.42,0,0,1-19.51,9.68,110.48,110.48,0,0,1-42.82,5.81,135.29,135.29,0,0,1-42.17-9.16,134.94,134.94,0,0,0,42.2,8.4,109.37,109.37,0,0,0,42.27-6.47,96.71,96.71,0,0,0,19-9.84L247,354.6l4.15-3.39a52.37,52.37,0,0,0,4-3.58l1.94-1.84a21.77,21.77,0,0,0,1.87-1.91,132.14,132.14,0,0,0,23.52-35.58Z" fill="#750511"/>
      <path d="M23.76,571.32c3.27-7.87,7-15.37,10.89-22.84s8-14.79,12.4-22,8.67-14.36,12.58-21.77c2-3.69,3.81-7.46,5.42-11.33a64.4,64.4,0,0,0,3.86-11.94,64.59,64.59,0,0,1-3.51,12.08c-1.51,3.92-3.23,7.76-5.1,11.53-3.7,7.55-7.85,14.86-11.95,22.18s-8,14.69-11.69,22.23-7.15,15.17-10.09,22.89Z" fill="#750511"/>
      <path d="M262.42,184.85c-1.56,6.33-3.32,12.56-5.22,18.76s-4,12.35-6.28,18.41A160.82,160.82,0,0,1,243,239.8a70.12,70.12,0,0,1-5.07,8.3,29.88,29.88,0,0,1-6.68,7,29.71,29.71,0,0,0,6.37-7.21,69.64,69.64,0,0,0,4.71-8.43,159.8,159.8,0,0,0,7.14-17.95c2.05-6.11,3.87-12.3,5.53-18.52s3.16-12.51,4.45-18.79Z" fill="#750511"/>
      <path d="M92.4,184.2c1.29,6.28,2.81,12.56,4.45,18.79s3.47,12.42,5.53,18.52a159.66,159.66,0,0,0,7.14,17.95,69.63,69.63,0,0,0,4.71,8.43,29.69,29.69,0,0,0,6.37,7.21,29.89,29.89,0,0,1-6.68-7,70.22,70.22,0,0,1-5.07-8.3A161,161,0,0,1,101,222c-2.3-6.06-4.37-12.21-6.28-18.41S91,191.18,89.46,184.85Z" fill="#750511"/>
      <path d="M263.58,92.77A42.82,42.82,0,0,0,268.67,97a46,46,0,0,0,5.75,3.53,36,36,0,0,0,6.28,2.55,31.1,31.1,0,0,0,6.73,1.21,31.53,31.53,0,0,1-6.9-.48,37.11,37.11,0,0,1-6.72-1.9,48,48,0,0,1-6.35-3,45.13,45.13,0,0,1-5.92-4Z" fill="#750511"/>
      <path d="M96.77,95a45.13,45.13,0,0,1-5.92,4,48,48,0,0,1-6.35,3,37.11,37.11,0,0,1-6.72,1.9,31.53,31.53,0,0,1-6.9.48,31.1,31.1,0,0,0,6.73-1.21,36,36,0,0,0,6.28-2.55A46,46,0,0,0,89.63,97a42.82,42.82,0,0,0,5.09-4.27Z" fill="#750511"/>
      <path d="M36.8,30.43A72.81,72.81,0,0,1,46.34,21a49.23,49.23,0,0,1,11.33-7.16,23.32,23.32,0,0,1,13.17-1.95A18.83,18.83,0,0,1,77,14.27a24.52,24.52,0,0,1,5.06,4.24,24.32,24.32,0,0,0-5.24-3.91,18.29,18.29,0,0,0-6.13-2,22.21,22.21,0,0,0-12.42,2.57,47.37,47.37,0,0,0-10.48,7.5,70.41,70.41,0,0,0-8.63,9.58Z" fill="#750511"/>
      <path d="M315.52,569.51c-6.19-6.05-12.23-12.21-18.2-18.46S285.52,538.44,279.8,532s-11.26-13.1-16.54-19.93-10.33-13.9-14.07-21.69c4,7.68,9.24,14.55,14.66,21.22S275,524.69,280.91,531c11.78,12.56,24.06,24.67,36.68,36.35Z" fill="#750511"/>
      <path d="M290.6,7.94a11.65,11.65,0,0,0-4.36,2.29,17.19,17.19,0,0,0-3.31,4,37.36,37.36,0,0,0-4.07,10.12A107.74,107.74,0,0,0,276,46.54a210.92,210.92,0,0,0,.39,22.54,192.85,192.85,0,0,0,2.77,22.41,193.11,193.11,0,0,1-3.52-22.35,211.9,211.9,0,0,1-1.15-22.64,109.43,109.43,0,0,1,2.21-22.68,39.73,39.73,0,0,1,4-10.92,19.89,19.89,0,0,1,3.7-4.79A14.56,14.56,0,0,1,289.84,5Z" fill="#750511"/>
      <path d="M72.63,591.33c-1.6,9.39-3.41,18.71-5.54,28-1.08,4.63-2.24,9.24-3.61,13.79-.69,2.27-1.44,4.53-2.33,6.74s-1.83,4.46-3.56,6.12c1.63-1.74,2.41-4.05,3.21-6.25s1.39-4.52,2-6.81c1.13-4.59,2-9.23,2.86-13.89,1.63-9.31,2.94-18.7,4-28.08Z" fill="#750511"/>
      <path d="M181.21,491c4.2,13.08,8.83,26.07,13.72,38.94s10.15,25.61,15.89,38.12a300.07,300.07,0,0,0,19.4,36.41,107.61,107.61,0,0,0,12.54,16.34,42.9,42.9,0,0,0,7.88,6.61,24.71,24.71,0,0,0,4.6,2.3,17.25,17.25,0,0,0,5.05.95,17.29,17.29,0,0,1-5.08-.86,24.88,24.88,0,0,1-4.67-2.23,43.18,43.18,0,0,1-8-6.51,108.18,108.18,0,0,1-12.9-16.2,301.16,301.16,0,0,1-20.14-36.19c-6-12.45-11.47-25.13-16.63-37.94s-10-25.73-14.49-38.83Z" fill="#750511"/>
      <path d="M17.14,693s35.58,6.22,89.76,6.22,209.65-12.1,209.65-12.1-189.47-9.73-233.85-9.73S17.14,693,17.14,693Z" fill="#750511"/>
      <path d="M247.58,409.62c15.31-15.57,30.91-31.67,37.43-31l-4-16.84S248.65,403.73,247.58,409.62Z" fill="#750511"/>
      <path d="M276.09,295.68a4.17,4.17,0,0,1-.18.82,4.38,4.38,0,0,1-.23.62,6.43,6.43,0,0,1-.55,1.09,14.78,14.78,0,0,1-1.33,1.88c-.49.55-1,1.07-1.52,1.61l-1.65,1.41a44.87,44.87,0,0,1-7.14,4.52,96.33,96.33,0,0,1-15.4,6.17c-2.63.8-5.25,1.65-7.93,2.3s-5.31,1.41-8,2c-5.34,1.26-10.75,2.21-16.13,3.21,5.34-1.25,10.68-2.44,16-3.94,2.65-.67,5.26-1.51,7.87-2.32s5.18-1.72,7.75-2.64c1.29-.44,2.55-.95,3.81-1.48s2.52-1,3.76-1.57l3.67-1.75c1.22-.58,2.37-1.29,3.56-1.93a42.58,42.58,0,0,0,6.53-4.56l1.42-1.33c.41-.48.85-1,1.24-1.44a12,12,0,0,0,1-1.52,3.87,3.87,0,0,0,.34-.75,2,2,0,0,0,.12-.35c0-.08.06-.26,0-.18Z" fill="#750511"/>
      <path d="M33,623.2c57.68-32.25,78-56.56,99.08-81,0,0-77.26,64.22-92.31,68.23C31.78,610.4,33,606.14,33,623.2Z" fill="#750511"/>
      <path d="M262.4,28.92C264.81,56.5,99,54.62,96.51,26.6c0,0,6.38,63.23,76,63.23S262.4,28.92,262.4,28.92Z" fill="#750511"/>
    </g>
    <path d="M490.94,13.32l31,23.32,4.94,20.52,4.94-21.66,30-25.84S513.52-3.16,490.94,13.32Z" fill="#750511"/>
  </g>
</svg>
